G75*
%MOIN*%
%OFA0B0*%
%FSLAX25Y25*%
%IPPOS*%
%LPD*%
%AMOC8*
5,1,8,0,0,1.08239X$1,22.5*
%
%ADD10C,0.00500*%
%ADD11C,0.00800*%
%ADD12C,0.01000*%
%ADD13C,0.00060*%
%ADD14C,0.00600*%
%ADD15C,0.01600*%
%ADD16C,0.01200*%
D10*
X0031269Y0158749D02*
X0031269Y0159143D01*
X0031269Y0159536D01*
X0032206Y0159536D01*
X0032206Y0158749D01*
X0031269Y0158749D01*
X0031269Y0159143D02*
X0031812Y0159143D01*
X0032206Y0178749D02*
X0031269Y0178749D01*
X0031269Y0179143D01*
X0031269Y0179536D01*
X0032206Y0179536D01*
X0032206Y0178749D01*
X0031812Y0179143D02*
X0031269Y0179143D01*
X0031269Y0198749D02*
X0031269Y0199143D01*
X0031269Y0199536D01*
X0032206Y0199536D01*
X0032206Y0198749D01*
X0031269Y0198749D01*
X0031269Y0199143D02*
X0031812Y0199143D01*
X0032206Y0218749D02*
X0031269Y0218749D01*
X0031269Y0219143D01*
X0031269Y0219536D01*
X0032206Y0219536D01*
X0032206Y0218749D01*
X0031812Y0219143D02*
X0031269Y0219143D01*
X0031269Y0238749D02*
X0031269Y0239143D01*
X0031269Y0239536D01*
X0032206Y0239536D01*
X0032206Y0238749D01*
X0031269Y0238749D01*
X0031269Y0239143D02*
X0031812Y0239143D01*
X0032206Y0258749D02*
X0031269Y0258749D01*
X0031269Y0259143D01*
X0031269Y0259536D01*
X0032206Y0259536D01*
X0032206Y0258749D01*
X0031812Y0259143D02*
X0031269Y0259143D01*
X0031269Y0278749D02*
X0031269Y0279143D01*
X0031269Y0279536D01*
X0032206Y0279536D01*
X0032206Y0278749D01*
X0031269Y0278749D01*
X0031269Y0279143D02*
X0031812Y0279143D01*
X0032206Y0298749D02*
X0031269Y0298749D01*
X0031269Y0299143D01*
X0031269Y0299536D01*
X0032206Y0299536D01*
X0032206Y0298749D01*
X0031812Y0299143D02*
X0031269Y0299143D01*
X0031269Y0318749D02*
X0031269Y0319143D01*
X0031269Y0319536D01*
X0032206Y0319536D01*
X0032206Y0318749D01*
X0031269Y0318749D01*
X0031269Y0319143D02*
X0031812Y0319143D01*
X0032206Y0338749D02*
X0031269Y0338749D01*
X0031269Y0339143D01*
X0031269Y0339536D01*
X0032206Y0339536D01*
X0032206Y0338749D01*
X0031812Y0339143D02*
X0031269Y0339143D01*
X0031269Y0358749D02*
X0031269Y0359143D01*
X0031269Y0359536D01*
X0032206Y0359536D01*
X0032206Y0358749D01*
X0031269Y0358749D01*
X0031269Y0359143D02*
X0031812Y0359143D01*
X0032206Y0378749D02*
X0031269Y0378749D01*
X0031269Y0379143D01*
X0031269Y0379536D01*
X0032206Y0379536D01*
X0032206Y0378749D01*
X0031812Y0379143D02*
X0031269Y0379143D01*
X0031269Y0398749D02*
X0031269Y0399143D01*
X0031269Y0399536D01*
X0032206Y0399536D01*
X0032206Y0398749D01*
X0031269Y0398749D01*
X0031269Y0399143D02*
X0031812Y0399143D01*
X0032206Y0418749D02*
X0031269Y0418749D01*
X0031269Y0419143D01*
X0031269Y0419536D01*
X0032206Y0419536D01*
X0032206Y0418749D01*
X0031812Y0419143D02*
X0031269Y0419143D01*
X0031269Y0438749D02*
X0031269Y0439143D01*
X0031269Y0439536D01*
X0032206Y0439536D01*
X0032206Y0438749D01*
X0031269Y0438749D01*
X0031269Y0439143D02*
X0031812Y0439143D01*
X0032206Y0458749D02*
X0031269Y0458749D01*
X0031269Y0459143D01*
X0031269Y0459536D01*
X0032206Y0459536D01*
X0032206Y0458749D01*
X0031812Y0459143D02*
X0031269Y0459143D01*
X0031269Y0478749D02*
X0031269Y0479143D01*
X0031269Y0479536D01*
X0032206Y0479536D01*
X0032206Y0478749D01*
X0031269Y0478749D01*
X0031269Y0479143D02*
X0031812Y0479143D01*
X0081269Y0479143D02*
X0081269Y0478749D01*
X0082206Y0478749D01*
X0082206Y0479536D01*
X0081269Y0479536D01*
X0081269Y0479143D01*
X0081812Y0479143D01*
X0082206Y0459536D02*
X0082206Y0458749D01*
X0081269Y0458749D01*
X0081269Y0459143D01*
X0081269Y0459536D01*
X0082206Y0459536D01*
X0081812Y0459143D02*
X0081269Y0459143D01*
X0081269Y0439536D02*
X0082206Y0439536D01*
X0082206Y0438749D01*
X0081269Y0438749D01*
X0081269Y0439143D01*
X0081269Y0439536D01*
X0081269Y0439143D02*
X0081812Y0439143D01*
X0082206Y0419536D02*
X0082206Y0418749D01*
X0081269Y0418749D01*
X0081269Y0419143D01*
X0081269Y0419536D01*
X0082206Y0419536D01*
X0081812Y0419143D02*
X0081269Y0419143D01*
X0081269Y0399536D02*
X0082206Y0399536D01*
X0082206Y0398749D01*
X0081269Y0398749D01*
X0081269Y0399143D01*
X0081269Y0399536D01*
X0081269Y0399143D02*
X0081812Y0399143D01*
X0082206Y0379536D02*
X0082206Y0378749D01*
X0081269Y0378749D01*
X0081269Y0379143D01*
X0081269Y0379536D01*
X0082206Y0379536D01*
X0081812Y0379143D02*
X0081269Y0379143D01*
X0081269Y0359536D02*
X0082206Y0359536D01*
X0082206Y0358749D01*
X0081269Y0358749D01*
X0081269Y0359143D01*
X0081269Y0359536D01*
X0081269Y0359143D02*
X0081812Y0359143D01*
X0082206Y0339536D02*
X0082206Y0338749D01*
X0081269Y0338749D01*
X0081269Y0339143D01*
X0081269Y0339536D01*
X0082206Y0339536D01*
X0081812Y0339143D02*
X0081269Y0339143D01*
X0081269Y0319536D02*
X0082206Y0319536D01*
X0082206Y0318749D01*
X0081269Y0318749D01*
X0081269Y0319143D01*
X0081269Y0319536D01*
X0081269Y0319143D02*
X0081812Y0319143D01*
X0082206Y0299536D02*
X0082206Y0298749D01*
X0081269Y0298749D01*
X0081269Y0299143D01*
X0081269Y0299536D01*
X0082206Y0299536D01*
X0081812Y0299143D02*
X0081269Y0299143D01*
X0081269Y0279536D02*
X0082206Y0279536D01*
X0082206Y0278749D01*
X0081269Y0278749D01*
X0081269Y0279143D01*
X0081269Y0279536D01*
X0081269Y0279143D02*
X0081812Y0279143D01*
X0082206Y0259536D02*
X0082206Y0258749D01*
X0081269Y0258749D01*
X0081269Y0259143D01*
X0081269Y0259536D01*
X0082206Y0259536D01*
X0081812Y0259143D02*
X0081269Y0259143D01*
X0081269Y0239536D02*
X0082206Y0239536D01*
X0082206Y0238749D01*
X0081269Y0238749D01*
X0081269Y0239143D01*
X0081269Y0239536D01*
X0081269Y0239143D02*
X0081812Y0239143D01*
X0082206Y0219536D02*
X0082206Y0218749D01*
X0081269Y0218749D01*
X0081269Y0219143D01*
X0081269Y0219536D01*
X0082206Y0219536D01*
X0081812Y0219143D02*
X0081269Y0219143D01*
X0081269Y0199536D02*
X0082206Y0199536D01*
X0082206Y0198749D01*
X0081269Y0198749D01*
X0081269Y0199143D01*
X0081269Y0199536D01*
X0081269Y0199143D02*
X0081812Y0199143D01*
X0082206Y0179536D02*
X0082206Y0178749D01*
X0081269Y0178749D01*
X0081269Y0179143D01*
X0081269Y0179536D01*
X0082206Y0179536D01*
X0081812Y0179143D02*
X0081269Y0179143D01*
X0081269Y0159536D02*
X0082206Y0159536D01*
X0082206Y0158749D01*
X0081269Y0158749D01*
X0081269Y0159143D01*
X0081269Y0159536D01*
X0081269Y0159143D02*
X0081812Y0159143D01*
X0131269Y0159143D02*
X0131269Y0158749D01*
X0132206Y0158749D01*
X0132206Y0159536D01*
X0131269Y0159536D01*
X0131269Y0159143D01*
X0131812Y0159143D01*
X0132206Y0178749D02*
X0131269Y0178749D01*
X0131269Y0179143D01*
X0131269Y0179536D01*
X0132206Y0179536D01*
X0132206Y0178749D01*
X0131812Y0179143D02*
X0131269Y0179143D01*
X0131269Y0198749D02*
X0131269Y0199143D01*
X0131269Y0199536D01*
X0132206Y0199536D01*
X0132206Y0198749D01*
X0131269Y0198749D01*
X0131269Y0199143D02*
X0131812Y0199143D01*
X0132206Y0218749D02*
X0131269Y0218749D01*
X0131269Y0219143D01*
X0131269Y0219536D01*
X0132206Y0219536D01*
X0132206Y0218749D01*
X0131812Y0219143D02*
X0131269Y0219143D01*
X0131269Y0238749D02*
X0131269Y0239143D01*
X0131269Y0239536D01*
X0132206Y0239536D01*
X0132206Y0238749D01*
X0131269Y0238749D01*
X0131269Y0239143D02*
X0131812Y0239143D01*
X0132206Y0258749D02*
X0131269Y0258749D01*
X0131269Y0259143D01*
X0131269Y0259536D01*
X0132206Y0259536D01*
X0132206Y0258749D01*
X0131812Y0259143D02*
X0131269Y0259143D01*
X0131269Y0278749D02*
X0131269Y0279143D01*
X0131269Y0279536D01*
X0132206Y0279536D01*
X0132206Y0278749D01*
X0131269Y0278749D01*
X0131269Y0279143D02*
X0131812Y0279143D01*
X0132206Y0298749D02*
X0131269Y0298749D01*
X0131269Y0299143D01*
X0131269Y0299536D01*
X0132206Y0299536D01*
X0132206Y0298749D01*
X0131812Y0299143D02*
X0131269Y0299143D01*
X0131269Y0318749D02*
X0131269Y0319143D01*
X0131269Y0319536D01*
X0132206Y0319536D01*
X0132206Y0318749D01*
X0131269Y0318749D01*
X0131269Y0319143D02*
X0131812Y0319143D01*
X0132206Y0338749D02*
X0131269Y0338749D01*
X0131269Y0339143D01*
X0131269Y0339536D01*
X0132206Y0339536D01*
X0132206Y0338749D01*
X0131812Y0339143D02*
X0131269Y0339143D01*
X0131269Y0358749D02*
X0131269Y0359143D01*
X0131269Y0359536D01*
X0132206Y0359536D01*
X0132206Y0358749D01*
X0131269Y0358749D01*
X0131269Y0359143D02*
X0131812Y0359143D01*
X0132206Y0378749D02*
X0131269Y0378749D01*
X0131269Y0379143D01*
X0131269Y0379536D01*
X0132206Y0379536D01*
X0132206Y0378749D01*
X0131812Y0379143D02*
X0131269Y0379143D01*
X0131269Y0398749D02*
X0131269Y0399143D01*
X0131269Y0399536D01*
X0132206Y0399536D01*
X0132206Y0398749D01*
X0131269Y0398749D01*
X0131269Y0399143D02*
X0131812Y0399143D01*
X0132206Y0418749D02*
X0131269Y0418749D01*
X0131269Y0419143D01*
X0131269Y0419536D01*
X0132206Y0419536D01*
X0132206Y0418749D01*
X0131812Y0419143D02*
X0131269Y0419143D01*
X0131269Y0438749D02*
X0131269Y0439143D01*
X0131269Y0439536D01*
X0132206Y0439536D01*
X0132206Y0438749D01*
X0131269Y0438749D01*
X0131269Y0439143D02*
X0131812Y0439143D01*
X0132206Y0458749D02*
X0131269Y0458749D01*
X0131269Y0459143D01*
X0131269Y0459536D01*
X0132206Y0459536D01*
X0132206Y0458749D01*
X0131812Y0459143D02*
X0131269Y0459143D01*
X0131269Y0478749D02*
X0131269Y0479143D01*
X0131269Y0479536D01*
X0132206Y0479536D01*
X0132206Y0478749D01*
X0131269Y0478749D01*
X0131269Y0479143D02*
X0131812Y0479143D01*
X0181269Y0479143D02*
X0181269Y0478749D01*
X0182206Y0478749D01*
X0182206Y0479536D01*
X0181269Y0479536D01*
X0181269Y0479143D01*
X0181812Y0479143D01*
X0182206Y0459536D02*
X0182206Y0458749D01*
X0181269Y0458749D01*
X0181269Y0459143D01*
X0181269Y0459536D01*
X0182206Y0459536D01*
X0181812Y0459143D02*
X0181269Y0459143D01*
X0181269Y0439536D02*
X0182206Y0439536D01*
X0182206Y0438749D01*
X0181269Y0438749D01*
X0181269Y0439143D01*
X0181269Y0439536D01*
X0181269Y0439143D02*
X0181812Y0439143D01*
X0182206Y0419536D02*
X0182206Y0418749D01*
X0181269Y0418749D01*
X0181269Y0419143D01*
X0181269Y0419536D01*
X0182206Y0419536D01*
X0181812Y0419143D02*
X0181269Y0419143D01*
X0181269Y0399536D02*
X0182206Y0399536D01*
X0182206Y0398749D01*
X0181269Y0398749D01*
X0181269Y0399143D01*
X0181269Y0399536D01*
X0181269Y0399143D02*
X0181812Y0399143D01*
X0182206Y0379536D02*
X0182206Y0378749D01*
X0181269Y0378749D01*
X0181269Y0379143D01*
X0181269Y0379536D01*
X0182206Y0379536D01*
X0181812Y0379143D02*
X0181269Y0379143D01*
X0181269Y0359536D02*
X0182206Y0359536D01*
X0182206Y0358749D01*
X0181269Y0358749D01*
X0181269Y0359143D01*
X0181269Y0359536D01*
X0181269Y0359143D02*
X0181812Y0359143D01*
X0182206Y0339536D02*
X0182206Y0338749D01*
X0181269Y0338749D01*
X0181269Y0339143D01*
X0181269Y0339536D01*
X0182206Y0339536D01*
X0181812Y0339143D02*
X0181269Y0339143D01*
X0181269Y0319536D02*
X0182206Y0319536D01*
X0182206Y0318749D01*
X0181269Y0318749D01*
X0181269Y0319143D01*
X0181269Y0319536D01*
X0181269Y0319143D02*
X0181812Y0319143D01*
X0182206Y0299536D02*
X0182206Y0298749D01*
X0181269Y0298749D01*
X0181269Y0299143D01*
X0181269Y0299536D01*
X0182206Y0299536D01*
X0181812Y0299143D02*
X0181269Y0299143D01*
X0181269Y0279536D02*
X0182206Y0279536D01*
X0182206Y0278749D01*
X0181269Y0278749D01*
X0181269Y0279143D01*
X0181269Y0279536D01*
X0181269Y0279143D02*
X0181812Y0279143D01*
X0182206Y0259536D02*
X0182206Y0258749D01*
X0181269Y0258749D01*
X0181269Y0259143D01*
X0181269Y0259536D01*
X0182206Y0259536D01*
X0181812Y0259143D02*
X0181269Y0259143D01*
X0181269Y0239536D02*
X0182206Y0239536D01*
X0182206Y0238749D01*
X0181269Y0238749D01*
X0181269Y0239143D01*
X0181269Y0239536D01*
X0181269Y0239143D02*
X0181812Y0239143D01*
X0182206Y0219536D02*
X0182206Y0218749D01*
X0181269Y0218749D01*
X0181269Y0219143D01*
X0181269Y0219536D01*
X0182206Y0219536D01*
X0181812Y0219143D02*
X0181269Y0219143D01*
X0181269Y0199536D02*
X0182206Y0199536D01*
X0182206Y0198749D01*
X0181269Y0198749D01*
X0181269Y0199143D01*
X0181269Y0199536D01*
X0181269Y0199143D02*
X0181812Y0199143D01*
X0182206Y0179536D02*
X0182206Y0178749D01*
X0181269Y0178749D01*
X0181269Y0179143D01*
X0181269Y0179536D01*
X0182206Y0179536D01*
X0181812Y0179143D02*
X0181269Y0179143D01*
X0181269Y0159536D02*
X0182206Y0159536D01*
X0182206Y0158749D01*
X0181269Y0158749D01*
X0181269Y0159143D01*
X0181269Y0159536D01*
X0181269Y0159143D02*
X0181812Y0159143D01*
X0231269Y0159143D02*
X0231269Y0158749D01*
X0232206Y0158749D01*
X0232206Y0159536D01*
X0231269Y0159536D01*
X0231269Y0159143D01*
X0231812Y0159143D01*
X0232206Y0178749D02*
X0231269Y0178749D01*
X0231269Y0179143D01*
X0231269Y0179536D01*
X0232206Y0179536D01*
X0232206Y0178749D01*
X0231812Y0179143D02*
X0231269Y0179143D01*
X0231269Y0198749D02*
X0231269Y0199143D01*
X0231269Y0199536D01*
X0232206Y0199536D01*
X0232206Y0198749D01*
X0231269Y0198749D01*
X0231269Y0199143D02*
X0231812Y0199143D01*
X0232206Y0218749D02*
X0231269Y0218749D01*
X0231269Y0219143D01*
X0231269Y0219536D01*
X0232206Y0219536D01*
X0232206Y0218749D01*
X0231812Y0219143D02*
X0231269Y0219143D01*
X0231269Y0238749D02*
X0231269Y0239143D01*
X0231269Y0239536D01*
X0232206Y0239536D01*
X0232206Y0238749D01*
X0231269Y0238749D01*
X0231269Y0239143D02*
X0231812Y0239143D01*
X0232206Y0258749D02*
X0231269Y0258749D01*
X0231269Y0259143D01*
X0231269Y0259536D01*
X0232206Y0259536D01*
X0232206Y0258749D01*
X0231812Y0259143D02*
X0231269Y0259143D01*
X0231269Y0278749D02*
X0231269Y0279143D01*
X0231269Y0279536D01*
X0232206Y0279536D01*
X0232206Y0278749D01*
X0231269Y0278749D01*
X0231269Y0279143D02*
X0231812Y0279143D01*
X0232206Y0298749D02*
X0231269Y0298749D01*
X0231269Y0299143D01*
X0231269Y0299536D01*
X0232206Y0299536D01*
X0232206Y0298749D01*
X0231812Y0299143D02*
X0231269Y0299143D01*
X0231269Y0318749D02*
X0231269Y0319143D01*
X0231269Y0319536D01*
X0232206Y0319536D01*
X0232206Y0318749D01*
X0231269Y0318749D01*
X0231269Y0319143D02*
X0231812Y0319143D01*
X0232206Y0338749D02*
X0231269Y0338749D01*
X0231269Y0339143D01*
X0231269Y0339536D01*
X0232206Y0339536D01*
X0232206Y0338749D01*
X0231812Y0339143D02*
X0231269Y0339143D01*
X0231269Y0358749D02*
X0231269Y0359143D01*
X0231269Y0359536D01*
X0232206Y0359536D01*
X0232206Y0358749D01*
X0231269Y0358749D01*
X0231269Y0359143D02*
X0231812Y0359143D01*
X0232206Y0378749D02*
X0231269Y0378749D01*
X0231269Y0379143D01*
X0231269Y0379536D01*
X0232206Y0379536D01*
X0232206Y0378749D01*
X0231812Y0379143D02*
X0231269Y0379143D01*
X0231269Y0398749D02*
X0231269Y0399143D01*
X0231269Y0399536D01*
X0232206Y0399536D01*
X0232206Y0398749D01*
X0231269Y0398749D01*
X0231269Y0399143D02*
X0231812Y0399143D01*
X0232206Y0418749D02*
X0231269Y0418749D01*
X0231269Y0419143D01*
X0231269Y0419536D01*
X0232206Y0419536D01*
X0232206Y0418749D01*
X0231812Y0419143D02*
X0231269Y0419143D01*
X0231269Y0438749D02*
X0231269Y0439143D01*
X0231269Y0439536D01*
X0232206Y0439536D01*
X0232206Y0438749D01*
X0231269Y0438749D01*
X0231269Y0439143D02*
X0231812Y0439143D01*
X0232206Y0458749D02*
X0231269Y0458749D01*
X0231269Y0459143D01*
X0231269Y0459536D01*
X0232206Y0459536D01*
X0232206Y0458749D01*
X0231812Y0459143D02*
X0231269Y0459143D01*
X0231269Y0478749D02*
X0231269Y0479143D01*
X0231269Y0479536D01*
X0232206Y0479536D01*
X0232206Y0478749D01*
X0231269Y0478749D01*
X0231269Y0479143D02*
X0231812Y0479143D01*
X0281269Y0479143D02*
X0281269Y0478749D01*
X0282206Y0478749D01*
X0282206Y0479536D01*
X0281269Y0479536D01*
X0281269Y0479143D01*
X0281812Y0479143D01*
X0282206Y0459536D02*
X0281269Y0459536D01*
X0281269Y0459143D01*
X0281269Y0458749D01*
X0282206Y0458749D01*
X0282206Y0459536D01*
X0281812Y0459143D02*
X0281269Y0459143D01*
X0281269Y0439536D02*
X0282206Y0439536D01*
X0282206Y0438749D01*
X0281269Y0438749D01*
X0281269Y0439143D01*
X0281269Y0439536D01*
X0281269Y0439143D02*
X0281812Y0439143D01*
X0282206Y0419536D02*
X0281269Y0419536D01*
X0281269Y0419143D01*
X0281269Y0418749D01*
X0282206Y0418749D01*
X0282206Y0419536D01*
X0281812Y0419143D02*
X0281269Y0419143D01*
X0281269Y0399536D02*
X0282206Y0399536D01*
X0282206Y0398749D01*
X0281269Y0398749D01*
X0281269Y0399143D01*
X0281269Y0399536D01*
X0281269Y0399143D02*
X0281812Y0399143D01*
X0282206Y0379536D02*
X0281269Y0379536D01*
X0281269Y0379143D01*
X0281269Y0378749D01*
X0282206Y0378749D01*
X0282206Y0379536D01*
X0281812Y0379143D02*
X0281269Y0379143D01*
X0281269Y0359536D02*
X0282206Y0359536D01*
X0282206Y0358749D01*
X0281269Y0358749D01*
X0281269Y0359143D01*
X0281269Y0359536D01*
X0281269Y0359143D02*
X0281812Y0359143D01*
X0282206Y0339536D02*
X0281269Y0339536D01*
X0281269Y0339143D01*
X0281269Y0338749D01*
X0282206Y0338749D01*
X0282206Y0339536D01*
X0281812Y0339143D02*
X0281269Y0339143D01*
X0281269Y0319536D02*
X0282206Y0319536D01*
X0282206Y0318749D01*
X0281269Y0318749D01*
X0281269Y0319143D01*
X0281269Y0319536D01*
X0281269Y0319143D02*
X0281812Y0319143D01*
X0282206Y0299536D02*
X0281269Y0299536D01*
X0281269Y0299143D01*
X0281269Y0298749D01*
X0282206Y0298749D01*
X0282206Y0299536D01*
X0281812Y0299143D02*
X0281269Y0299143D01*
X0281269Y0279536D02*
X0282206Y0279536D01*
X0282206Y0278749D01*
X0281269Y0278749D01*
X0281269Y0279143D01*
X0281269Y0279536D01*
X0281269Y0279143D02*
X0281812Y0279143D01*
X0282206Y0259536D02*
X0281269Y0259536D01*
X0281269Y0259143D01*
X0281269Y0258749D01*
X0282206Y0258749D01*
X0282206Y0259536D01*
X0281812Y0259143D02*
X0281269Y0259143D01*
X0281269Y0239536D02*
X0282206Y0239536D01*
X0282206Y0238749D01*
X0281269Y0238749D01*
X0281269Y0239143D01*
X0281269Y0239536D01*
X0281269Y0239143D02*
X0281812Y0239143D01*
X0282206Y0219536D02*
X0281269Y0219536D01*
X0281269Y0219143D01*
X0281269Y0218749D01*
X0282206Y0218749D01*
X0282206Y0219536D01*
X0281812Y0219143D02*
X0281269Y0219143D01*
X0281269Y0199536D02*
X0282206Y0199536D01*
X0282206Y0198749D01*
X0281269Y0198749D01*
X0281269Y0199143D01*
X0281269Y0199536D01*
X0281269Y0199143D02*
X0281812Y0199143D01*
X0282206Y0179536D02*
X0281269Y0179536D01*
X0281269Y0179143D01*
X0281269Y0178749D01*
X0282206Y0178749D01*
X0282206Y0179536D01*
X0281812Y0179143D02*
X0281269Y0179143D01*
X0281269Y0159536D02*
X0282206Y0159536D01*
X0282206Y0158749D01*
X0281269Y0158749D01*
X0281269Y0159143D01*
X0281269Y0159536D01*
X0281269Y0159143D02*
X0281812Y0159143D01*
X0331269Y0159143D02*
X0331269Y0158749D01*
X0332206Y0158749D01*
X0332206Y0159536D01*
X0331269Y0159536D01*
X0331269Y0159143D01*
X0331812Y0159143D01*
X0332206Y0178749D02*
X0331269Y0178749D01*
X0331269Y0179143D01*
X0331269Y0179536D01*
X0332206Y0179536D01*
X0332206Y0178749D01*
X0331812Y0179143D02*
X0331269Y0179143D01*
X0331269Y0198749D02*
X0331269Y0199143D01*
X0331269Y0199536D01*
X0332206Y0199536D01*
X0332206Y0198749D01*
X0331269Y0198749D01*
X0331269Y0199143D02*
X0331812Y0199143D01*
X0332206Y0218749D02*
X0331269Y0218749D01*
X0331269Y0219143D01*
X0331269Y0219536D01*
X0332206Y0219536D01*
X0332206Y0218749D01*
X0331812Y0219143D02*
X0331269Y0219143D01*
X0331269Y0238749D02*
X0331269Y0239143D01*
X0331269Y0239536D01*
X0332206Y0239536D01*
X0332206Y0238749D01*
X0331269Y0238749D01*
X0331269Y0239143D02*
X0331812Y0239143D01*
X0332206Y0258749D02*
X0331269Y0258749D01*
X0331269Y0259143D01*
X0331269Y0259536D01*
X0332206Y0259536D01*
X0332206Y0258749D01*
X0331812Y0259143D02*
X0331269Y0259143D01*
X0331269Y0278749D02*
X0331269Y0279143D01*
X0331269Y0279536D01*
X0332206Y0279536D01*
X0332206Y0278749D01*
X0331269Y0278749D01*
X0331269Y0279143D02*
X0331812Y0279143D01*
X0332206Y0298749D02*
X0331269Y0298749D01*
X0331269Y0299143D01*
X0331269Y0299536D01*
X0332206Y0299536D01*
X0332206Y0298749D01*
X0331812Y0299143D02*
X0331269Y0299143D01*
X0331269Y0318749D02*
X0331269Y0319143D01*
X0331269Y0319536D01*
X0332206Y0319536D01*
X0332206Y0318749D01*
X0331269Y0318749D01*
X0331269Y0319143D02*
X0331812Y0319143D01*
X0332206Y0338749D02*
X0331269Y0338749D01*
X0331269Y0339143D01*
X0331269Y0339536D01*
X0332206Y0339536D01*
X0332206Y0338749D01*
X0331812Y0339143D02*
X0331269Y0339143D01*
X0331269Y0358749D02*
X0331269Y0359143D01*
X0331269Y0359536D01*
X0332206Y0359536D01*
X0332206Y0358749D01*
X0331269Y0358749D01*
X0331269Y0359143D02*
X0331812Y0359143D01*
X0332206Y0378749D02*
X0331269Y0378749D01*
X0331269Y0379143D01*
X0331269Y0379536D01*
X0332206Y0379536D01*
X0332206Y0378749D01*
X0331812Y0379143D02*
X0331269Y0379143D01*
X0331269Y0398749D02*
X0331269Y0399143D01*
X0331269Y0399536D01*
X0332206Y0399536D01*
X0332206Y0398749D01*
X0331269Y0398749D01*
X0331269Y0399143D02*
X0331812Y0399143D01*
X0332206Y0418749D02*
X0331269Y0418749D01*
X0331269Y0419143D01*
X0331269Y0419536D01*
X0332206Y0419536D01*
X0332206Y0418749D01*
X0331812Y0419143D02*
X0331269Y0419143D01*
X0331269Y0438749D02*
X0331269Y0439143D01*
X0331269Y0439536D01*
X0332206Y0439536D01*
X0332206Y0438749D01*
X0331269Y0438749D01*
X0331269Y0439143D02*
X0331812Y0439143D01*
X0332206Y0458749D02*
X0331269Y0458749D01*
X0331269Y0459143D01*
X0331269Y0459536D01*
X0332206Y0459536D01*
X0332206Y0458749D01*
X0331812Y0459143D02*
X0331269Y0459143D01*
X0331269Y0478749D02*
X0331269Y0479143D01*
X0331269Y0479536D01*
X0332206Y0479536D01*
X0332206Y0478749D01*
X0331269Y0478749D01*
X0331269Y0479143D02*
X0331812Y0479143D01*
X0381269Y0479143D02*
X0381269Y0478749D01*
X0382206Y0478749D01*
X0382206Y0479536D01*
X0381269Y0479536D01*
X0381269Y0479143D01*
X0381812Y0479143D01*
X0382206Y0459536D02*
X0382206Y0458749D01*
X0381269Y0458749D01*
X0381269Y0459143D01*
X0381269Y0459536D01*
X0382206Y0459536D01*
X0381812Y0459143D02*
X0381269Y0459143D01*
X0381269Y0439536D02*
X0382206Y0439536D01*
X0382206Y0438749D01*
X0381269Y0438749D01*
X0381269Y0439143D01*
X0381269Y0439536D01*
X0381269Y0439143D02*
X0381812Y0439143D01*
X0382206Y0419536D02*
X0382206Y0418749D01*
X0381269Y0418749D01*
X0381269Y0419143D01*
X0381269Y0419536D01*
X0382206Y0419536D01*
X0381812Y0419143D02*
X0381269Y0419143D01*
X0381269Y0399536D02*
X0382206Y0399536D01*
X0382206Y0398749D01*
X0381269Y0398749D01*
X0381269Y0399143D01*
X0381269Y0399536D01*
X0381269Y0399143D02*
X0381812Y0399143D01*
X0382206Y0379536D02*
X0382206Y0378749D01*
X0381269Y0378749D01*
X0381269Y0379143D01*
X0381269Y0379536D01*
X0382206Y0379536D01*
X0381812Y0379143D02*
X0381269Y0379143D01*
X0381269Y0359536D02*
X0382206Y0359536D01*
X0382206Y0358749D01*
X0381269Y0358749D01*
X0381269Y0359143D01*
X0381269Y0359536D01*
X0381269Y0359143D02*
X0381812Y0359143D01*
X0382206Y0339536D02*
X0382206Y0338749D01*
X0381269Y0338749D01*
X0381269Y0339143D01*
X0381269Y0339536D01*
X0382206Y0339536D01*
X0381812Y0339143D02*
X0381269Y0339143D01*
X0381269Y0319536D02*
X0382206Y0319536D01*
X0382206Y0318749D01*
X0381269Y0318749D01*
X0381269Y0319143D01*
X0381269Y0319536D01*
X0381269Y0319143D02*
X0381812Y0319143D01*
X0382206Y0299536D02*
X0382206Y0298749D01*
X0381269Y0298749D01*
X0381269Y0299143D01*
X0381269Y0299536D01*
X0382206Y0299536D01*
X0381812Y0299143D02*
X0381269Y0299143D01*
X0381269Y0279536D02*
X0382206Y0279536D01*
X0382206Y0278749D01*
X0381269Y0278749D01*
X0381269Y0279143D01*
X0381269Y0279536D01*
X0381269Y0279143D02*
X0381812Y0279143D01*
X0382206Y0259536D02*
X0382206Y0258749D01*
X0381269Y0258749D01*
X0381269Y0259143D01*
X0381269Y0259536D01*
X0382206Y0259536D01*
X0381812Y0259143D02*
X0381269Y0259143D01*
X0381269Y0239536D02*
X0382206Y0239536D01*
X0382206Y0238749D01*
X0381269Y0238749D01*
X0381269Y0239143D01*
X0381269Y0239536D01*
X0381269Y0239143D02*
X0381812Y0239143D01*
X0382206Y0219536D02*
X0382206Y0218749D01*
X0381269Y0218749D01*
X0381269Y0219143D01*
X0381269Y0219536D01*
X0382206Y0219536D01*
X0381812Y0219143D02*
X0381269Y0219143D01*
X0381269Y0199536D02*
X0382206Y0199536D01*
X0382206Y0198749D01*
X0381269Y0198749D01*
X0381269Y0199143D01*
X0381269Y0199536D01*
X0381269Y0199143D02*
X0381812Y0199143D01*
X0382206Y0179536D02*
X0382206Y0178749D01*
X0381269Y0178749D01*
X0381269Y0179143D01*
X0381269Y0179536D01*
X0382206Y0179536D01*
X0381812Y0179143D02*
X0381269Y0179143D01*
X0381269Y0159536D02*
X0382206Y0159536D01*
X0382206Y0158749D01*
X0381269Y0158749D01*
X0381269Y0159143D01*
X0381269Y0159536D01*
X0381269Y0159143D02*
X0381812Y0159143D01*
D11*
X0066478Y0095985D02*
X0066478Y0060985D01*
X0080178Y0060985D01*
X0080178Y0056585D01*
X0117717Y0056585D01*
X0117717Y0100385D01*
X0080178Y0100385D01*
X0080178Y0095985D01*
X0066478Y0095985D01*
X0152619Y0116024D02*
X0152619Y0121024D01*
X0177520Y0120335D02*
X0179489Y0122304D01*
X0177520Y0096320D02*
X0177520Y0094745D01*
X0179095Y0094745D01*
X0178737Y0077024D02*
X0170863Y0077024D01*
X0170863Y0073580D02*
X0169091Y0073580D01*
X0169091Y0055469D01*
X0170863Y0055469D01*
X0168745Y0052733D02*
X0186855Y0052733D01*
X0186855Y0050961D01*
X0190300Y0050961D02*
X0190300Y0043087D01*
X0186855Y0043087D02*
X0186855Y0041316D01*
X0168745Y0041316D01*
X0168745Y0043087D01*
X0168745Y0050961D02*
X0168745Y0052733D01*
X0178737Y0055469D02*
X0180509Y0055469D01*
X0180509Y0073580D01*
X0178737Y0073580D01*
X0189564Y0077343D02*
X0189564Y0079706D01*
X0197438Y0085217D02*
X0202162Y0085217D01*
X0203505Y0094745D02*
X0205080Y0094745D01*
X0205080Y0096320D01*
X0210036Y0079706D02*
X0210036Y0077343D01*
X0202162Y0071831D02*
X0197438Y0071831D01*
X0224609Y0093524D02*
X0227991Y0093524D01*
X0223509Y0097468D02*
X0223509Y0099581D01*
X0224609Y0103524D02*
X0227991Y0103524D01*
X0227956Y0114556D02*
X0222644Y0114556D01*
X0222644Y0130493D02*
X0227956Y0130493D01*
X0205080Y0122304D02*
X0203505Y0122304D01*
X0205080Y0122304D02*
X0205080Y0120729D01*
X0284883Y0100464D02*
X0284883Y0056664D01*
X0322422Y0056664D01*
X0322422Y0061064D01*
X0336122Y0061064D01*
X0336122Y0096064D01*
X0322422Y0096064D01*
X0322422Y0100464D01*
X0284883Y0100464D01*
D12*
X0230300Y0092224D03*
D13*
X0221428Y0063120D02*
X0221428Y0062580D01*
X0221427Y0062580D02*
X0221374Y0062576D01*
X0221322Y0062568D01*
X0221270Y0062556D01*
X0221219Y0062540D01*
X0221170Y0062521D01*
X0221122Y0062498D01*
X0221076Y0062471D01*
X0221032Y0062441D01*
X0220991Y0062408D01*
X0220952Y0062372D01*
X0220916Y0062333D01*
X0220883Y0062292D01*
X0220853Y0062248D01*
X0220826Y0062202D01*
X0220803Y0062154D01*
X0220784Y0062105D01*
X0220768Y0062054D01*
X0220756Y0062002D01*
X0220748Y0061950D01*
X0220744Y0061897D01*
X0220204Y0061896D01*
X0220203Y0061897D01*
X0220207Y0061965D01*
X0220214Y0062033D01*
X0220225Y0062100D01*
X0220239Y0062167D01*
X0220257Y0062233D01*
X0220279Y0062297D01*
X0220304Y0062361D01*
X0220333Y0062423D01*
X0220365Y0062483D01*
X0220400Y0062541D01*
X0220438Y0062598D01*
X0220479Y0062652D01*
X0220523Y0062704D01*
X0220570Y0062754D01*
X0220620Y0062801D01*
X0220672Y0062845D01*
X0220726Y0062886D01*
X0220783Y0062924D01*
X0220841Y0062959D01*
X0220901Y0062991D01*
X0220963Y0063020D01*
X0221027Y0063045D01*
X0221091Y0063067D01*
X0221157Y0063085D01*
X0221224Y0063099D01*
X0221291Y0063110D01*
X0221359Y0063117D01*
X0221427Y0063121D01*
X0221427Y0063065D01*
X0221360Y0063061D01*
X0221293Y0063054D01*
X0221226Y0063043D01*
X0221160Y0063028D01*
X0221095Y0063009D01*
X0221032Y0062987D01*
X0220969Y0062961D01*
X0220908Y0062932D01*
X0220849Y0062899D01*
X0220792Y0062864D01*
X0220737Y0062825D01*
X0220684Y0062783D01*
X0220634Y0062738D01*
X0220586Y0062690D01*
X0220541Y0062640D01*
X0220499Y0062587D01*
X0220460Y0062532D01*
X0220425Y0062475D01*
X0220392Y0062416D01*
X0220363Y0062355D01*
X0220337Y0062292D01*
X0220315Y0062229D01*
X0220296Y0062164D01*
X0220281Y0062098D01*
X0220270Y0062031D01*
X0220263Y0061964D01*
X0220259Y0061897D01*
X0220315Y0061897D01*
X0220319Y0061964D01*
X0220327Y0062030D01*
X0220338Y0062096D01*
X0220353Y0062160D01*
X0220372Y0062224D01*
X0220395Y0062287D01*
X0220421Y0062348D01*
X0220451Y0062408D01*
X0220485Y0062466D01*
X0220521Y0062521D01*
X0220561Y0062575D01*
X0220604Y0062626D01*
X0220649Y0062675D01*
X0220698Y0062720D01*
X0220749Y0062763D01*
X0220803Y0062803D01*
X0220858Y0062839D01*
X0220916Y0062873D01*
X0220976Y0062903D01*
X0221037Y0062929D01*
X0221100Y0062952D01*
X0221164Y0062971D01*
X0221228Y0062986D01*
X0221294Y0062997D01*
X0221360Y0063005D01*
X0221427Y0063009D01*
X0221427Y0062953D01*
X0221364Y0062949D01*
X0221301Y0062942D01*
X0221239Y0062931D01*
X0221177Y0062916D01*
X0221116Y0062898D01*
X0221057Y0062877D01*
X0220999Y0062852D01*
X0220942Y0062823D01*
X0220887Y0062792D01*
X0220834Y0062757D01*
X0220784Y0062719D01*
X0220735Y0062678D01*
X0220689Y0062635D01*
X0220646Y0062589D01*
X0220605Y0062540D01*
X0220567Y0062490D01*
X0220532Y0062437D01*
X0220501Y0062382D01*
X0220472Y0062325D01*
X0220447Y0062267D01*
X0220426Y0062208D01*
X0220408Y0062147D01*
X0220393Y0062085D01*
X0220382Y0062023D01*
X0220375Y0061960D01*
X0220371Y0061897D01*
X0220427Y0061897D01*
X0220431Y0061959D01*
X0220439Y0062021D01*
X0220450Y0062082D01*
X0220465Y0062143D01*
X0220483Y0062202D01*
X0220505Y0062261D01*
X0220531Y0062317D01*
X0220560Y0062373D01*
X0220592Y0062426D01*
X0220627Y0062477D01*
X0220666Y0062526D01*
X0220707Y0062573D01*
X0220751Y0062617D01*
X0220798Y0062658D01*
X0220847Y0062697D01*
X0220898Y0062732D01*
X0220951Y0062764D01*
X0221007Y0062793D01*
X0221063Y0062819D01*
X0221122Y0062841D01*
X0221181Y0062859D01*
X0221242Y0062874D01*
X0221303Y0062885D01*
X0221365Y0062893D01*
X0221427Y0062897D01*
X0221427Y0062841D01*
X0221366Y0062837D01*
X0221305Y0062829D01*
X0221245Y0062818D01*
X0221186Y0062802D01*
X0221127Y0062784D01*
X0221070Y0062761D01*
X0221015Y0062735D01*
X0220961Y0062705D01*
X0220910Y0062673D01*
X0220860Y0062637D01*
X0220813Y0062598D01*
X0220768Y0062556D01*
X0220726Y0062511D01*
X0220687Y0062464D01*
X0220651Y0062414D01*
X0220619Y0062363D01*
X0220589Y0062309D01*
X0220563Y0062254D01*
X0220540Y0062197D01*
X0220522Y0062138D01*
X0220506Y0062079D01*
X0220495Y0062019D01*
X0220487Y0061958D01*
X0220483Y0061897D01*
X0220539Y0061897D01*
X0220543Y0061954D01*
X0220550Y0062012D01*
X0220561Y0062068D01*
X0220576Y0062124D01*
X0220594Y0062179D01*
X0220615Y0062232D01*
X0220639Y0062284D01*
X0220667Y0062335D01*
X0220698Y0062383D01*
X0220732Y0062430D01*
X0220768Y0062474D01*
X0220808Y0062516D01*
X0220850Y0062556D01*
X0220894Y0062592D01*
X0220941Y0062626D01*
X0220989Y0062657D01*
X0221040Y0062685D01*
X0221092Y0062709D01*
X0221145Y0062730D01*
X0221200Y0062748D01*
X0221256Y0062763D01*
X0221312Y0062774D01*
X0221370Y0062781D01*
X0221427Y0062785D01*
X0221427Y0062728D01*
X0221371Y0062725D01*
X0221315Y0062717D01*
X0221260Y0062706D01*
X0221206Y0062692D01*
X0221152Y0062673D01*
X0221100Y0062652D01*
X0221050Y0062627D01*
X0221001Y0062599D01*
X0220955Y0062567D01*
X0220910Y0062533D01*
X0220868Y0062496D01*
X0220828Y0062456D01*
X0220791Y0062414D01*
X0220757Y0062369D01*
X0220725Y0062323D01*
X0220697Y0062274D01*
X0220672Y0062224D01*
X0220651Y0062172D01*
X0220632Y0062118D01*
X0220618Y0062064D01*
X0220607Y0062009D01*
X0220599Y0061953D01*
X0220596Y0061897D01*
X0220652Y0061897D01*
X0220655Y0061952D01*
X0220663Y0062006D01*
X0220674Y0062060D01*
X0220689Y0062112D01*
X0220708Y0062164D01*
X0220730Y0062214D01*
X0220755Y0062263D01*
X0220783Y0062310D01*
X0220815Y0062354D01*
X0220850Y0062397D01*
X0220887Y0062437D01*
X0220927Y0062474D01*
X0220970Y0062509D01*
X0221014Y0062541D01*
X0221061Y0062569D01*
X0221110Y0062594D01*
X0221160Y0062616D01*
X0221212Y0062635D01*
X0221264Y0062650D01*
X0221318Y0062661D01*
X0221372Y0062669D01*
X0221427Y0062672D01*
X0221427Y0062616D01*
X0221374Y0062612D01*
X0221321Y0062605D01*
X0221269Y0062593D01*
X0221218Y0062578D01*
X0221168Y0062559D01*
X0221120Y0062537D01*
X0221073Y0062511D01*
X0221029Y0062483D01*
X0220986Y0062451D01*
X0220946Y0062416D01*
X0220908Y0062378D01*
X0220873Y0062338D01*
X0220841Y0062295D01*
X0220813Y0062251D01*
X0220787Y0062204D01*
X0220765Y0062156D01*
X0220746Y0062106D01*
X0220731Y0062055D01*
X0220719Y0062003D01*
X0220712Y0061950D01*
X0220708Y0061897D01*
X0220204Y0052114D02*
X0220744Y0052114D01*
X0220744Y0052113D02*
X0220748Y0052060D01*
X0220756Y0052008D01*
X0220768Y0051956D01*
X0220784Y0051905D01*
X0220803Y0051856D01*
X0220826Y0051808D01*
X0220853Y0051762D01*
X0220883Y0051718D01*
X0220916Y0051677D01*
X0220952Y0051638D01*
X0220991Y0051602D01*
X0221032Y0051569D01*
X0221076Y0051539D01*
X0221122Y0051512D01*
X0221170Y0051489D01*
X0221219Y0051470D01*
X0221270Y0051454D01*
X0221322Y0051442D01*
X0221374Y0051434D01*
X0221427Y0051430D01*
X0221428Y0050890D01*
X0221427Y0050889D01*
X0221359Y0050893D01*
X0221291Y0050900D01*
X0221224Y0050911D01*
X0221157Y0050925D01*
X0221091Y0050943D01*
X0221027Y0050965D01*
X0220963Y0050990D01*
X0220901Y0051019D01*
X0220841Y0051051D01*
X0220783Y0051086D01*
X0220726Y0051124D01*
X0220672Y0051165D01*
X0220620Y0051209D01*
X0220570Y0051256D01*
X0220523Y0051306D01*
X0220479Y0051358D01*
X0220438Y0051412D01*
X0220400Y0051469D01*
X0220365Y0051527D01*
X0220333Y0051587D01*
X0220304Y0051649D01*
X0220279Y0051713D01*
X0220257Y0051777D01*
X0220239Y0051843D01*
X0220225Y0051910D01*
X0220214Y0051977D01*
X0220207Y0052045D01*
X0220203Y0052113D01*
X0220259Y0052113D01*
X0220263Y0052046D01*
X0220270Y0051979D01*
X0220281Y0051912D01*
X0220296Y0051846D01*
X0220315Y0051781D01*
X0220337Y0051718D01*
X0220363Y0051655D01*
X0220392Y0051594D01*
X0220425Y0051535D01*
X0220460Y0051478D01*
X0220499Y0051423D01*
X0220541Y0051370D01*
X0220586Y0051320D01*
X0220634Y0051272D01*
X0220684Y0051227D01*
X0220737Y0051185D01*
X0220792Y0051146D01*
X0220849Y0051111D01*
X0220908Y0051078D01*
X0220969Y0051049D01*
X0221032Y0051023D01*
X0221095Y0051001D01*
X0221160Y0050982D01*
X0221226Y0050967D01*
X0221293Y0050956D01*
X0221360Y0050949D01*
X0221427Y0050945D01*
X0221427Y0051001D01*
X0221360Y0051005D01*
X0221294Y0051013D01*
X0221228Y0051024D01*
X0221164Y0051039D01*
X0221100Y0051058D01*
X0221037Y0051081D01*
X0220976Y0051107D01*
X0220916Y0051137D01*
X0220858Y0051171D01*
X0220803Y0051207D01*
X0220749Y0051247D01*
X0220698Y0051290D01*
X0220649Y0051335D01*
X0220604Y0051384D01*
X0220561Y0051435D01*
X0220521Y0051489D01*
X0220485Y0051544D01*
X0220451Y0051602D01*
X0220421Y0051662D01*
X0220395Y0051723D01*
X0220372Y0051786D01*
X0220353Y0051850D01*
X0220338Y0051914D01*
X0220327Y0051980D01*
X0220319Y0052046D01*
X0220315Y0052113D01*
X0220371Y0052113D01*
X0220375Y0052050D01*
X0220382Y0051987D01*
X0220393Y0051925D01*
X0220408Y0051863D01*
X0220426Y0051802D01*
X0220447Y0051743D01*
X0220472Y0051685D01*
X0220501Y0051628D01*
X0220532Y0051573D01*
X0220567Y0051520D01*
X0220605Y0051470D01*
X0220646Y0051421D01*
X0220689Y0051375D01*
X0220735Y0051332D01*
X0220784Y0051291D01*
X0220834Y0051253D01*
X0220887Y0051218D01*
X0220942Y0051187D01*
X0220999Y0051158D01*
X0221057Y0051133D01*
X0221116Y0051112D01*
X0221177Y0051094D01*
X0221239Y0051079D01*
X0221301Y0051068D01*
X0221364Y0051061D01*
X0221427Y0051057D01*
X0221427Y0051113D01*
X0221365Y0051117D01*
X0221303Y0051125D01*
X0221242Y0051136D01*
X0221181Y0051151D01*
X0221122Y0051169D01*
X0221063Y0051191D01*
X0221007Y0051217D01*
X0220951Y0051246D01*
X0220898Y0051278D01*
X0220847Y0051313D01*
X0220798Y0051352D01*
X0220751Y0051393D01*
X0220707Y0051437D01*
X0220666Y0051484D01*
X0220627Y0051533D01*
X0220592Y0051584D01*
X0220560Y0051637D01*
X0220531Y0051693D01*
X0220505Y0051749D01*
X0220483Y0051808D01*
X0220465Y0051867D01*
X0220450Y0051928D01*
X0220439Y0051989D01*
X0220431Y0052051D01*
X0220427Y0052113D01*
X0220483Y0052113D01*
X0220487Y0052052D01*
X0220495Y0051991D01*
X0220506Y0051931D01*
X0220522Y0051872D01*
X0220540Y0051813D01*
X0220563Y0051756D01*
X0220589Y0051701D01*
X0220619Y0051647D01*
X0220651Y0051596D01*
X0220687Y0051546D01*
X0220726Y0051499D01*
X0220768Y0051454D01*
X0220813Y0051412D01*
X0220860Y0051373D01*
X0220910Y0051337D01*
X0220961Y0051305D01*
X0221015Y0051275D01*
X0221070Y0051249D01*
X0221127Y0051226D01*
X0221186Y0051208D01*
X0221245Y0051192D01*
X0221305Y0051181D01*
X0221366Y0051173D01*
X0221427Y0051169D01*
X0221427Y0051225D01*
X0221370Y0051229D01*
X0221312Y0051236D01*
X0221256Y0051247D01*
X0221200Y0051262D01*
X0221145Y0051280D01*
X0221092Y0051301D01*
X0221040Y0051325D01*
X0220989Y0051353D01*
X0220941Y0051384D01*
X0220894Y0051418D01*
X0220850Y0051454D01*
X0220808Y0051494D01*
X0220768Y0051536D01*
X0220732Y0051580D01*
X0220698Y0051627D01*
X0220667Y0051675D01*
X0220639Y0051726D01*
X0220615Y0051778D01*
X0220594Y0051831D01*
X0220576Y0051886D01*
X0220561Y0051942D01*
X0220550Y0051998D01*
X0220543Y0052056D01*
X0220539Y0052113D01*
X0220596Y0052113D01*
X0220599Y0052057D01*
X0220607Y0052001D01*
X0220618Y0051946D01*
X0220632Y0051892D01*
X0220651Y0051838D01*
X0220672Y0051786D01*
X0220697Y0051736D01*
X0220725Y0051687D01*
X0220757Y0051641D01*
X0220791Y0051596D01*
X0220828Y0051554D01*
X0220868Y0051514D01*
X0220910Y0051477D01*
X0220955Y0051443D01*
X0221001Y0051411D01*
X0221050Y0051383D01*
X0221100Y0051358D01*
X0221152Y0051337D01*
X0221206Y0051318D01*
X0221260Y0051304D01*
X0221315Y0051293D01*
X0221371Y0051285D01*
X0221427Y0051282D01*
X0221427Y0051338D01*
X0221372Y0051341D01*
X0221318Y0051349D01*
X0221264Y0051360D01*
X0221212Y0051375D01*
X0221160Y0051394D01*
X0221110Y0051416D01*
X0221061Y0051441D01*
X0221014Y0051469D01*
X0220970Y0051501D01*
X0220927Y0051536D01*
X0220887Y0051573D01*
X0220850Y0051613D01*
X0220815Y0051656D01*
X0220783Y0051700D01*
X0220755Y0051747D01*
X0220730Y0051796D01*
X0220708Y0051846D01*
X0220689Y0051898D01*
X0220674Y0051950D01*
X0220663Y0052004D01*
X0220655Y0052058D01*
X0220652Y0052113D01*
X0220708Y0052113D01*
X0220712Y0052060D01*
X0220719Y0052007D01*
X0220731Y0051955D01*
X0220746Y0051904D01*
X0220765Y0051854D01*
X0220787Y0051806D01*
X0220813Y0051759D01*
X0220841Y0051715D01*
X0220873Y0051672D01*
X0220908Y0051632D01*
X0220946Y0051594D01*
X0220986Y0051559D01*
X0221029Y0051527D01*
X0221073Y0051499D01*
X0221120Y0051473D01*
X0221168Y0051451D01*
X0221218Y0051432D01*
X0221269Y0051417D01*
X0221321Y0051405D01*
X0221374Y0051398D01*
X0221427Y0051394D01*
D14*
X0221497Y0051158D02*
X0231182Y0051158D01*
X0231143Y0051159D02*
X0231205Y0051161D01*
X0231266Y0051167D01*
X0231327Y0051176D01*
X0231388Y0051190D01*
X0231447Y0051207D01*
X0231505Y0051228D01*
X0231562Y0051253D01*
X0231617Y0051281D01*
X0231670Y0051312D01*
X0231721Y0051347D01*
X0231770Y0051385D01*
X0231817Y0051426D01*
X0231860Y0051469D01*
X0231901Y0051516D01*
X0231939Y0051565D01*
X0231974Y0051616D01*
X0232005Y0051669D01*
X0232033Y0051724D01*
X0232058Y0051781D01*
X0232079Y0051839D01*
X0232096Y0051898D01*
X0232110Y0051959D01*
X0232119Y0052020D01*
X0232125Y0052081D01*
X0232127Y0052143D01*
X0232127Y0061867D01*
X0232125Y0061929D01*
X0232119Y0061990D01*
X0232110Y0062051D01*
X0232096Y0062112D01*
X0232079Y0062171D01*
X0232058Y0062229D01*
X0232033Y0062286D01*
X0232005Y0062341D01*
X0231974Y0062394D01*
X0231939Y0062445D01*
X0231901Y0062494D01*
X0231860Y0062541D01*
X0231817Y0062584D01*
X0231770Y0062625D01*
X0231721Y0062663D01*
X0231670Y0062698D01*
X0231617Y0062729D01*
X0231562Y0062757D01*
X0231505Y0062782D01*
X0231447Y0062803D01*
X0231388Y0062820D01*
X0231327Y0062834D01*
X0231266Y0062843D01*
X0231205Y0062849D01*
X0231143Y0062851D01*
X0231182Y0062851D02*
X0221497Y0062851D01*
X0220473Y0061867D02*
X0220473Y0052182D01*
D15*
X0219539Y0048924D02*
X0219541Y0048962D01*
X0219547Y0048999D01*
X0219557Y0049036D01*
X0219570Y0049071D01*
X0219587Y0049104D01*
X0219608Y0049136D01*
X0219632Y0049166D01*
X0219658Y0049192D01*
X0219688Y0049216D01*
X0219719Y0049237D01*
X0219753Y0049254D01*
X0219788Y0049267D01*
X0219825Y0049277D01*
X0219862Y0049283D01*
X0219900Y0049285D01*
X0219938Y0049283D01*
X0219975Y0049277D01*
X0220012Y0049267D01*
X0220047Y0049254D01*
X0220080Y0049237D01*
X0220112Y0049216D01*
X0220142Y0049192D01*
X0220168Y0049166D01*
X0220192Y0049136D01*
X0220213Y0049105D01*
X0220230Y0049071D01*
X0220243Y0049036D01*
X0220253Y0048999D01*
X0220259Y0048962D01*
X0220261Y0048924D01*
X0220259Y0048886D01*
X0220253Y0048849D01*
X0220243Y0048812D01*
X0220230Y0048777D01*
X0220213Y0048744D01*
X0220192Y0048712D01*
X0220168Y0048682D01*
X0220142Y0048656D01*
X0220112Y0048632D01*
X0220081Y0048611D01*
X0220047Y0048594D01*
X0220012Y0048581D01*
X0219975Y0048571D01*
X0219938Y0048565D01*
X0219900Y0048563D01*
X0219862Y0048565D01*
X0219825Y0048571D01*
X0219788Y0048581D01*
X0219753Y0048594D01*
X0219720Y0048611D01*
X0219688Y0048632D01*
X0219658Y0048656D01*
X0219632Y0048682D01*
X0219608Y0048712D01*
X0219587Y0048743D01*
X0219570Y0048777D01*
X0219557Y0048812D01*
X0219547Y0048849D01*
X0219541Y0048886D01*
X0219539Y0048924D01*
D16*
X0266900Y0077547D02*
X0272767Y0077547D01*
X0134767Y0077547D02*
X0128900Y0077547D01*
X0131833Y0080480D02*
X0131833Y0074613D01*
M02*
