G75*
%MOIN*%
%OFA0B0*%
%FSLAX25Y25*%
%IPPOS*%
%LPD*%
%AMOC8*
5,1,8,0,0,1.08239X$1,22.5*
%
%ADD10R,0.01181X0.02362*%
%ADD11R,0.00900X0.02150*%
%ADD12R,0.02150X0.00900*%
%ADD13R,0.03937X0.04331*%
%ADD14R,0.04331X0.03937*%
%ADD15R,0.07480X0.04331*%
%ADD16R,0.07874X0.05748*%
%ADD17R,0.05610X0.09843*%
%ADD18C,0.00400*%
%ADD19C,0.00197*%
%ADD20R,0.04724X0.02165*%
%ADD21R,0.01575X0.04331*%
%ADD22R,0.05787X0.05000*%
%ADD23R,0.05000X0.05787*%
%ADD24R,0.04724X0.03150*%
%ADD25R,0.03150X0.04724*%
%ADD26R,0.04500X0.16100*%
D10*
X0023150Y0150178D03*
X0026300Y0150178D03*
X0029450Y0150178D03*
X0029450Y0156871D03*
X0026300Y0156871D03*
X0023150Y0156871D03*
X0023150Y0170178D03*
X0026300Y0170178D03*
X0029450Y0170178D03*
X0029450Y0176871D03*
X0026300Y0176871D03*
X0023150Y0176871D03*
X0023150Y0190178D03*
X0026300Y0190178D03*
X0029450Y0190178D03*
X0029450Y0196871D03*
X0026300Y0196871D03*
X0023150Y0196871D03*
X0023150Y0210178D03*
X0026300Y0210178D03*
X0029450Y0210178D03*
X0029450Y0216871D03*
X0026300Y0216871D03*
X0023150Y0216871D03*
X0023150Y0230178D03*
X0026300Y0230178D03*
X0029450Y0230178D03*
X0029450Y0236871D03*
X0026300Y0236871D03*
X0023150Y0236871D03*
X0023150Y0250178D03*
X0026300Y0250178D03*
X0029450Y0250178D03*
X0029450Y0256871D03*
X0026300Y0256871D03*
X0023150Y0256871D03*
X0023150Y0270178D03*
X0026300Y0270178D03*
X0029450Y0270178D03*
X0029450Y0276871D03*
X0026300Y0276871D03*
X0023150Y0276871D03*
X0023150Y0290178D03*
X0026300Y0290178D03*
X0029450Y0290178D03*
X0029450Y0296871D03*
X0026300Y0296871D03*
X0023150Y0296871D03*
X0023150Y0310178D03*
X0026300Y0310178D03*
X0029450Y0310178D03*
X0029450Y0316871D03*
X0026300Y0316871D03*
X0023150Y0316871D03*
X0023150Y0330178D03*
X0026300Y0330178D03*
X0029450Y0330178D03*
X0029450Y0336871D03*
X0026300Y0336871D03*
X0023150Y0336871D03*
X0023150Y0350178D03*
X0026300Y0350178D03*
X0029450Y0350178D03*
X0029450Y0356871D03*
X0026300Y0356871D03*
X0023150Y0356871D03*
X0023150Y0370178D03*
X0026300Y0370178D03*
X0029450Y0370178D03*
X0029450Y0376871D03*
X0026300Y0376871D03*
X0023150Y0376871D03*
X0023150Y0390178D03*
X0026300Y0390178D03*
X0029450Y0390178D03*
X0029450Y0396871D03*
X0026300Y0396871D03*
X0023150Y0396871D03*
X0023150Y0410178D03*
X0026300Y0410178D03*
X0029450Y0410178D03*
X0029450Y0416871D03*
X0026300Y0416871D03*
X0023150Y0416871D03*
X0023150Y0430178D03*
X0026300Y0430178D03*
X0029450Y0430178D03*
X0029450Y0436871D03*
X0026300Y0436871D03*
X0023150Y0436871D03*
X0023150Y0450178D03*
X0026300Y0450178D03*
X0029450Y0450178D03*
X0029450Y0456871D03*
X0026300Y0456871D03*
X0023150Y0456871D03*
X0023150Y0470178D03*
X0026300Y0470178D03*
X0029450Y0470178D03*
X0029450Y0476871D03*
X0026300Y0476871D03*
X0023150Y0476871D03*
X0073150Y0476871D03*
X0076300Y0476871D03*
X0079450Y0476871D03*
X0079450Y0470178D03*
X0076300Y0470178D03*
X0073150Y0470178D03*
X0073150Y0456871D03*
X0076300Y0456871D03*
X0079450Y0456871D03*
X0079450Y0450178D03*
X0076300Y0450178D03*
X0073150Y0450178D03*
X0073150Y0436871D03*
X0076300Y0436871D03*
X0079450Y0436871D03*
X0079450Y0430178D03*
X0076300Y0430178D03*
X0073150Y0430178D03*
X0073150Y0416871D03*
X0076300Y0416871D03*
X0079450Y0416871D03*
X0079450Y0410178D03*
X0076300Y0410178D03*
X0073150Y0410178D03*
X0073150Y0396871D03*
X0076300Y0396871D03*
X0079450Y0396871D03*
X0079450Y0390178D03*
X0076300Y0390178D03*
X0073150Y0390178D03*
X0073150Y0376871D03*
X0076300Y0376871D03*
X0079450Y0376871D03*
X0079450Y0370178D03*
X0076300Y0370178D03*
X0073150Y0370178D03*
X0073150Y0356871D03*
X0076300Y0356871D03*
X0079450Y0356871D03*
X0079450Y0350178D03*
X0076300Y0350178D03*
X0073150Y0350178D03*
X0073150Y0336871D03*
X0076300Y0336871D03*
X0079450Y0336871D03*
X0079450Y0330178D03*
X0076300Y0330178D03*
X0073150Y0330178D03*
X0073150Y0316871D03*
X0076300Y0316871D03*
X0079450Y0316871D03*
X0079450Y0310178D03*
X0076300Y0310178D03*
X0073150Y0310178D03*
X0073150Y0296871D03*
X0076300Y0296871D03*
X0079450Y0296871D03*
X0079450Y0290178D03*
X0076300Y0290178D03*
X0073150Y0290178D03*
X0073150Y0276871D03*
X0076300Y0276871D03*
X0079450Y0276871D03*
X0079450Y0270178D03*
X0076300Y0270178D03*
X0073150Y0270178D03*
X0073150Y0256871D03*
X0076300Y0256871D03*
X0079450Y0256871D03*
X0079450Y0250178D03*
X0076300Y0250178D03*
X0073150Y0250178D03*
X0073150Y0236871D03*
X0076300Y0236871D03*
X0079450Y0236871D03*
X0079450Y0230178D03*
X0076300Y0230178D03*
X0073150Y0230178D03*
X0073150Y0216871D03*
X0076300Y0216871D03*
X0079450Y0216871D03*
X0079450Y0210178D03*
X0076300Y0210178D03*
X0073150Y0210178D03*
X0073150Y0196871D03*
X0076300Y0196871D03*
X0079450Y0196871D03*
X0079450Y0190178D03*
X0076300Y0190178D03*
X0073150Y0190178D03*
X0073150Y0176871D03*
X0076300Y0176871D03*
X0079450Y0176871D03*
X0079450Y0170178D03*
X0076300Y0170178D03*
X0073150Y0170178D03*
X0073150Y0156871D03*
X0076300Y0156871D03*
X0079450Y0156871D03*
X0079450Y0150178D03*
X0076300Y0150178D03*
X0073150Y0150178D03*
X0123150Y0150178D03*
X0126300Y0150178D03*
X0129450Y0150178D03*
X0129450Y0156871D03*
X0126300Y0156871D03*
X0123150Y0156871D03*
X0123150Y0170178D03*
X0126300Y0170178D03*
X0129450Y0170178D03*
X0129450Y0176871D03*
X0126300Y0176871D03*
X0123150Y0176871D03*
X0123150Y0190178D03*
X0126300Y0190178D03*
X0129450Y0190178D03*
X0129450Y0196871D03*
X0126300Y0196871D03*
X0123150Y0196871D03*
X0123150Y0210178D03*
X0126300Y0210178D03*
X0129450Y0210178D03*
X0129450Y0216871D03*
X0126300Y0216871D03*
X0123150Y0216871D03*
X0123150Y0230178D03*
X0126300Y0230178D03*
X0129450Y0230178D03*
X0129450Y0236871D03*
X0126300Y0236871D03*
X0123150Y0236871D03*
X0123150Y0250178D03*
X0126300Y0250178D03*
X0129450Y0250178D03*
X0129450Y0256871D03*
X0126300Y0256871D03*
X0123150Y0256871D03*
X0123150Y0270178D03*
X0126300Y0270178D03*
X0129450Y0270178D03*
X0129450Y0276871D03*
X0126300Y0276871D03*
X0123150Y0276871D03*
X0123150Y0290178D03*
X0126300Y0290178D03*
X0129450Y0290178D03*
X0129450Y0296871D03*
X0126300Y0296871D03*
X0123150Y0296871D03*
X0123150Y0310178D03*
X0126300Y0310178D03*
X0129450Y0310178D03*
X0129450Y0316871D03*
X0126300Y0316871D03*
X0123150Y0316871D03*
X0123150Y0330178D03*
X0126300Y0330178D03*
X0129450Y0330178D03*
X0129450Y0336871D03*
X0126300Y0336871D03*
X0123150Y0336871D03*
X0123150Y0350178D03*
X0126300Y0350178D03*
X0129450Y0350178D03*
X0129450Y0356871D03*
X0126300Y0356871D03*
X0123150Y0356871D03*
X0123150Y0370178D03*
X0126300Y0370178D03*
X0129450Y0370178D03*
X0129450Y0376871D03*
X0126300Y0376871D03*
X0123150Y0376871D03*
X0123150Y0390178D03*
X0126300Y0390178D03*
X0129450Y0390178D03*
X0129450Y0396871D03*
X0126300Y0396871D03*
X0123150Y0396871D03*
X0123150Y0410178D03*
X0126300Y0410178D03*
X0129450Y0410178D03*
X0129450Y0416871D03*
X0126300Y0416871D03*
X0123150Y0416871D03*
X0123150Y0430178D03*
X0126300Y0430178D03*
X0129450Y0430178D03*
X0129450Y0436871D03*
X0126300Y0436871D03*
X0123150Y0436871D03*
X0123150Y0450178D03*
X0126300Y0450178D03*
X0129450Y0450178D03*
X0129450Y0456871D03*
X0126300Y0456871D03*
X0123150Y0456871D03*
X0123150Y0470178D03*
X0126300Y0470178D03*
X0129450Y0470178D03*
X0129450Y0476871D03*
X0126300Y0476871D03*
X0123150Y0476871D03*
X0173150Y0476871D03*
X0176300Y0476871D03*
X0179450Y0476871D03*
X0179450Y0470178D03*
X0176300Y0470178D03*
X0173150Y0470178D03*
X0173150Y0456871D03*
X0176300Y0456871D03*
X0179450Y0456871D03*
X0179450Y0450178D03*
X0176300Y0450178D03*
X0173150Y0450178D03*
X0173150Y0436871D03*
X0176300Y0436871D03*
X0179450Y0436871D03*
X0179450Y0430178D03*
X0176300Y0430178D03*
X0173150Y0430178D03*
X0173150Y0416871D03*
X0176300Y0416871D03*
X0179450Y0416871D03*
X0179450Y0410178D03*
X0176300Y0410178D03*
X0173150Y0410178D03*
X0173150Y0396871D03*
X0176300Y0396871D03*
X0179450Y0396871D03*
X0179450Y0390178D03*
X0176300Y0390178D03*
X0173150Y0390178D03*
X0173150Y0376871D03*
X0176300Y0376871D03*
X0179450Y0376871D03*
X0179450Y0370178D03*
X0176300Y0370178D03*
X0173150Y0370178D03*
X0173150Y0356871D03*
X0176300Y0356871D03*
X0179450Y0356871D03*
X0179450Y0350178D03*
X0176300Y0350178D03*
X0173150Y0350178D03*
X0173150Y0336871D03*
X0176300Y0336871D03*
X0179450Y0336871D03*
X0179450Y0330178D03*
X0176300Y0330178D03*
X0173150Y0330178D03*
X0173150Y0316871D03*
X0176300Y0316871D03*
X0179450Y0316871D03*
X0179450Y0310178D03*
X0176300Y0310178D03*
X0173150Y0310178D03*
X0173150Y0296871D03*
X0176300Y0296871D03*
X0179450Y0296871D03*
X0179450Y0290178D03*
X0176300Y0290178D03*
X0173150Y0290178D03*
X0173150Y0276871D03*
X0176300Y0276871D03*
X0179450Y0276871D03*
X0179450Y0270178D03*
X0176300Y0270178D03*
X0173150Y0270178D03*
X0173150Y0256871D03*
X0176300Y0256871D03*
X0179450Y0256871D03*
X0179450Y0250178D03*
X0176300Y0250178D03*
X0173150Y0250178D03*
X0173150Y0236871D03*
X0176300Y0236871D03*
X0179450Y0236871D03*
X0179450Y0230178D03*
X0176300Y0230178D03*
X0173150Y0230178D03*
X0173150Y0216871D03*
X0176300Y0216871D03*
X0179450Y0216871D03*
X0179450Y0210178D03*
X0176300Y0210178D03*
X0173150Y0210178D03*
X0173150Y0196871D03*
X0176300Y0196871D03*
X0179450Y0196871D03*
X0179450Y0190178D03*
X0176300Y0190178D03*
X0173150Y0190178D03*
X0173150Y0176871D03*
X0176300Y0176871D03*
X0179450Y0176871D03*
X0179450Y0170178D03*
X0176300Y0170178D03*
X0173150Y0170178D03*
X0173150Y0156871D03*
X0176300Y0156871D03*
X0179450Y0156871D03*
X0179450Y0150178D03*
X0176300Y0150178D03*
X0173150Y0150178D03*
X0223150Y0150178D03*
X0226300Y0150178D03*
X0229450Y0150178D03*
X0229450Y0156871D03*
X0226300Y0156871D03*
X0223150Y0156871D03*
X0223150Y0170178D03*
X0226300Y0170178D03*
X0229450Y0170178D03*
X0229450Y0176871D03*
X0226300Y0176871D03*
X0223150Y0176871D03*
X0223150Y0190178D03*
X0226300Y0190178D03*
X0229450Y0190178D03*
X0229450Y0196871D03*
X0226300Y0196871D03*
X0223150Y0196871D03*
X0223150Y0210178D03*
X0226300Y0210178D03*
X0229450Y0210178D03*
X0229450Y0216871D03*
X0226300Y0216871D03*
X0223150Y0216871D03*
X0223150Y0230178D03*
X0226300Y0230178D03*
X0229450Y0230178D03*
X0229450Y0236871D03*
X0226300Y0236871D03*
X0223150Y0236871D03*
X0223150Y0250178D03*
X0226300Y0250178D03*
X0229450Y0250178D03*
X0229450Y0256871D03*
X0226300Y0256871D03*
X0223150Y0256871D03*
X0223150Y0270178D03*
X0226300Y0270178D03*
X0229450Y0270178D03*
X0229450Y0276871D03*
X0226300Y0276871D03*
X0223150Y0276871D03*
X0223150Y0290178D03*
X0226300Y0290178D03*
X0229450Y0290178D03*
X0229450Y0296871D03*
X0226300Y0296871D03*
X0223150Y0296871D03*
X0223150Y0310178D03*
X0226300Y0310178D03*
X0229450Y0310178D03*
X0229450Y0316871D03*
X0226300Y0316871D03*
X0223150Y0316871D03*
X0223150Y0330178D03*
X0226300Y0330178D03*
X0229450Y0330178D03*
X0229450Y0336871D03*
X0226300Y0336871D03*
X0223150Y0336871D03*
X0223150Y0350178D03*
X0226300Y0350178D03*
X0229450Y0350178D03*
X0229450Y0356871D03*
X0226300Y0356871D03*
X0223150Y0356871D03*
X0223150Y0370178D03*
X0226300Y0370178D03*
X0229450Y0370178D03*
X0229450Y0376871D03*
X0226300Y0376871D03*
X0223150Y0376871D03*
X0223150Y0390178D03*
X0226300Y0390178D03*
X0229450Y0390178D03*
X0229450Y0396871D03*
X0226300Y0396871D03*
X0223150Y0396871D03*
X0223150Y0410178D03*
X0226300Y0410178D03*
X0229450Y0410178D03*
X0229450Y0416871D03*
X0226300Y0416871D03*
X0223150Y0416871D03*
X0223150Y0430178D03*
X0226300Y0430178D03*
X0229450Y0430178D03*
X0229450Y0436871D03*
X0226300Y0436871D03*
X0223150Y0436871D03*
X0223150Y0450178D03*
X0226300Y0450178D03*
X0229450Y0450178D03*
X0229450Y0456871D03*
X0226300Y0456871D03*
X0223150Y0456871D03*
X0223150Y0470178D03*
X0226300Y0470178D03*
X0229450Y0470178D03*
X0229450Y0476871D03*
X0226300Y0476871D03*
X0223150Y0476871D03*
X0273150Y0476871D03*
X0276300Y0476871D03*
X0279450Y0476871D03*
X0279450Y0470178D03*
X0276300Y0470178D03*
X0273150Y0470178D03*
X0273150Y0456871D03*
X0276300Y0456871D03*
X0279450Y0456871D03*
X0279450Y0450178D03*
X0276300Y0450178D03*
X0273150Y0450178D03*
X0273150Y0436871D03*
X0276300Y0436871D03*
X0279450Y0436871D03*
X0279450Y0430178D03*
X0276300Y0430178D03*
X0273150Y0430178D03*
X0273150Y0416871D03*
X0276300Y0416871D03*
X0279450Y0416871D03*
X0279450Y0410178D03*
X0276300Y0410178D03*
X0273150Y0410178D03*
X0273150Y0396871D03*
X0276300Y0396871D03*
X0279450Y0396871D03*
X0279450Y0390178D03*
X0276300Y0390178D03*
X0273150Y0390178D03*
X0273150Y0376871D03*
X0276300Y0376871D03*
X0279450Y0376871D03*
X0279450Y0370178D03*
X0276300Y0370178D03*
X0273150Y0370178D03*
X0273150Y0356871D03*
X0276300Y0356871D03*
X0279450Y0356871D03*
X0279450Y0350178D03*
X0276300Y0350178D03*
X0273150Y0350178D03*
X0273150Y0336871D03*
X0276300Y0336871D03*
X0279450Y0336871D03*
X0279450Y0330178D03*
X0276300Y0330178D03*
X0273150Y0330178D03*
X0273150Y0316871D03*
X0276300Y0316871D03*
X0279450Y0316871D03*
X0279450Y0310178D03*
X0276300Y0310178D03*
X0273150Y0310178D03*
X0273150Y0296871D03*
X0276300Y0296871D03*
X0279450Y0296871D03*
X0279450Y0290178D03*
X0276300Y0290178D03*
X0273150Y0290178D03*
X0273150Y0276871D03*
X0276300Y0276871D03*
X0279450Y0276871D03*
X0279450Y0270178D03*
X0276300Y0270178D03*
X0273150Y0270178D03*
X0273150Y0256871D03*
X0276300Y0256871D03*
X0279450Y0256871D03*
X0279450Y0250178D03*
X0276300Y0250178D03*
X0273150Y0250178D03*
X0273150Y0236871D03*
X0276300Y0236871D03*
X0279450Y0236871D03*
X0279450Y0230178D03*
X0276300Y0230178D03*
X0273150Y0230178D03*
X0273150Y0216871D03*
X0276300Y0216871D03*
X0279450Y0216871D03*
X0279450Y0210178D03*
X0276300Y0210178D03*
X0273150Y0210178D03*
X0273150Y0196871D03*
X0276300Y0196871D03*
X0279450Y0196871D03*
X0279450Y0190178D03*
X0276300Y0190178D03*
X0273150Y0190178D03*
X0273150Y0176871D03*
X0276300Y0176871D03*
X0279450Y0176871D03*
X0279450Y0170178D03*
X0276300Y0170178D03*
X0273150Y0170178D03*
X0273150Y0156871D03*
X0276300Y0156871D03*
X0279450Y0156871D03*
X0279450Y0150178D03*
X0276300Y0150178D03*
X0273150Y0150178D03*
X0323150Y0150178D03*
X0326300Y0150178D03*
X0329450Y0150178D03*
X0329450Y0156871D03*
X0326300Y0156871D03*
X0323150Y0156871D03*
X0323150Y0170178D03*
X0326300Y0170178D03*
X0329450Y0170178D03*
X0329450Y0176871D03*
X0326300Y0176871D03*
X0323150Y0176871D03*
X0323150Y0190178D03*
X0326300Y0190178D03*
X0329450Y0190178D03*
X0329450Y0196871D03*
X0326300Y0196871D03*
X0323150Y0196871D03*
X0323150Y0210178D03*
X0326300Y0210178D03*
X0329450Y0210178D03*
X0329450Y0216871D03*
X0326300Y0216871D03*
X0323150Y0216871D03*
X0323150Y0230178D03*
X0326300Y0230178D03*
X0329450Y0230178D03*
X0329450Y0236871D03*
X0326300Y0236871D03*
X0323150Y0236871D03*
X0323150Y0250178D03*
X0326300Y0250178D03*
X0329450Y0250178D03*
X0329450Y0256871D03*
X0326300Y0256871D03*
X0323150Y0256871D03*
X0323150Y0270178D03*
X0326300Y0270178D03*
X0329450Y0270178D03*
X0329450Y0276871D03*
X0326300Y0276871D03*
X0323150Y0276871D03*
X0323150Y0290178D03*
X0326300Y0290178D03*
X0329450Y0290178D03*
X0329450Y0296871D03*
X0326300Y0296871D03*
X0323150Y0296871D03*
X0323150Y0310178D03*
X0326300Y0310178D03*
X0329450Y0310178D03*
X0329450Y0316871D03*
X0326300Y0316871D03*
X0323150Y0316871D03*
X0323150Y0330178D03*
X0326300Y0330178D03*
X0329450Y0330178D03*
X0329450Y0336871D03*
X0326300Y0336871D03*
X0323150Y0336871D03*
X0323150Y0350178D03*
X0326300Y0350178D03*
X0329450Y0350178D03*
X0329450Y0356871D03*
X0326300Y0356871D03*
X0323150Y0356871D03*
X0323150Y0370178D03*
X0326300Y0370178D03*
X0329450Y0370178D03*
X0329450Y0376871D03*
X0326300Y0376871D03*
X0323150Y0376871D03*
X0323150Y0390178D03*
X0326300Y0390178D03*
X0329450Y0390178D03*
X0329450Y0396871D03*
X0326300Y0396871D03*
X0323150Y0396871D03*
X0323150Y0410178D03*
X0326300Y0410178D03*
X0329450Y0410178D03*
X0329450Y0416871D03*
X0326300Y0416871D03*
X0323150Y0416871D03*
X0323150Y0430178D03*
X0326300Y0430178D03*
X0329450Y0430178D03*
X0329450Y0436871D03*
X0326300Y0436871D03*
X0323150Y0436871D03*
X0323150Y0450178D03*
X0326300Y0450178D03*
X0329450Y0450178D03*
X0329450Y0456871D03*
X0326300Y0456871D03*
X0323150Y0456871D03*
X0323150Y0470178D03*
X0326300Y0470178D03*
X0329450Y0470178D03*
X0329450Y0476871D03*
X0326300Y0476871D03*
X0323150Y0476871D03*
X0373150Y0476871D03*
X0376300Y0476871D03*
X0379450Y0476871D03*
X0379450Y0470178D03*
X0376300Y0470178D03*
X0373150Y0470178D03*
X0373150Y0456871D03*
X0376300Y0456871D03*
X0379450Y0456871D03*
X0379450Y0450178D03*
X0376300Y0450178D03*
X0373150Y0450178D03*
X0373150Y0436871D03*
X0376300Y0436871D03*
X0379450Y0436871D03*
X0379450Y0430178D03*
X0376300Y0430178D03*
X0373150Y0430178D03*
X0373150Y0416871D03*
X0376300Y0416871D03*
X0379450Y0416871D03*
X0379450Y0410178D03*
X0376300Y0410178D03*
X0373150Y0410178D03*
X0373150Y0396871D03*
X0376300Y0396871D03*
X0379450Y0396871D03*
X0379450Y0390178D03*
X0376300Y0390178D03*
X0373150Y0390178D03*
X0373150Y0376871D03*
X0376300Y0376871D03*
X0379450Y0376871D03*
X0379450Y0370178D03*
X0376300Y0370178D03*
X0373150Y0370178D03*
X0373150Y0356871D03*
X0376300Y0356871D03*
X0379450Y0356871D03*
X0379450Y0350178D03*
X0376300Y0350178D03*
X0373150Y0350178D03*
X0373150Y0336871D03*
X0376300Y0336871D03*
X0379450Y0336871D03*
X0379450Y0330178D03*
X0376300Y0330178D03*
X0373150Y0330178D03*
X0373150Y0316871D03*
X0376300Y0316871D03*
X0379450Y0316871D03*
X0379450Y0310178D03*
X0376300Y0310178D03*
X0373150Y0310178D03*
X0373150Y0296871D03*
X0376300Y0296871D03*
X0379450Y0296871D03*
X0379450Y0290178D03*
X0376300Y0290178D03*
X0373150Y0290178D03*
X0373150Y0276871D03*
X0376300Y0276871D03*
X0379450Y0276871D03*
X0379450Y0270178D03*
X0376300Y0270178D03*
X0373150Y0270178D03*
X0373150Y0256871D03*
X0376300Y0256871D03*
X0379450Y0256871D03*
X0379450Y0250178D03*
X0376300Y0250178D03*
X0373150Y0250178D03*
X0373150Y0236871D03*
X0376300Y0236871D03*
X0379450Y0236871D03*
X0379450Y0230178D03*
X0376300Y0230178D03*
X0373150Y0230178D03*
X0373150Y0216871D03*
X0376300Y0216871D03*
X0379450Y0216871D03*
X0379450Y0210178D03*
X0376300Y0210178D03*
X0373150Y0210178D03*
X0373150Y0196871D03*
X0376300Y0196871D03*
X0379450Y0196871D03*
X0379450Y0190178D03*
X0376300Y0190178D03*
X0373150Y0190178D03*
X0373150Y0176871D03*
X0376300Y0176871D03*
X0379450Y0176871D03*
X0379450Y0170178D03*
X0376300Y0170178D03*
X0373150Y0170178D03*
X0373150Y0156871D03*
X0376300Y0156871D03*
X0379450Y0156871D03*
X0379450Y0150178D03*
X0376300Y0150178D03*
X0373150Y0150178D03*
D11*
X0200975Y0121999D03*
X0199000Y0121999D03*
X0197125Y0121999D03*
X0195150Y0121999D03*
X0193275Y0121999D03*
X0191300Y0121999D03*
X0189325Y0121999D03*
X0187450Y0121999D03*
X0185475Y0121999D03*
X0183600Y0121999D03*
X0181625Y0121999D03*
X0181625Y0095049D03*
X0183600Y0095049D03*
X0185475Y0095049D03*
X0187450Y0095049D03*
X0189325Y0095049D03*
X0191300Y0095049D03*
X0193275Y0095049D03*
X0195150Y0095049D03*
X0197125Y0095049D03*
X0199000Y0095049D03*
X0200975Y0095049D03*
D12*
X0204775Y0098849D03*
X0204775Y0100824D03*
X0204775Y0102699D03*
X0204775Y0104674D03*
X0204775Y0106549D03*
X0204775Y0108524D03*
X0204775Y0110499D03*
X0204775Y0112374D03*
X0204775Y0114349D03*
X0204775Y0116224D03*
X0204775Y0118199D03*
X0177825Y0118199D03*
X0177825Y0116224D03*
X0177825Y0114349D03*
X0177825Y0112374D03*
X0177825Y0110499D03*
X0177825Y0108524D03*
X0177825Y0106549D03*
X0177825Y0104674D03*
X0177825Y0102699D03*
X0177825Y0100824D03*
X0177825Y0098849D03*
D13*
X0175800Y0089371D03*
X0175800Y0082678D03*
X0184800Y0081871D03*
X0184800Y0075178D03*
X0211800Y0099678D03*
X0211800Y0106371D03*
X0214800Y0081871D03*
X0214800Y0075178D03*
X0216300Y0060371D03*
X0216300Y0053678D03*
X0171800Y0122678D03*
X0171800Y0129371D03*
D14*
X0178454Y0129524D03*
X0185146Y0129524D03*
X0222954Y0108524D03*
X0229646Y0108524D03*
X0231646Y0088524D03*
X0231646Y0082024D03*
X0231646Y0075524D03*
X0224954Y0075524D03*
X0224954Y0082024D03*
X0224954Y0088524D03*
X0222954Y0040524D03*
X0229646Y0040524D03*
X0177146Y0038024D03*
X0177146Y0032524D03*
X0170454Y0032524D03*
X0170454Y0038024D03*
D15*
X0192517Y0073997D03*
X0192517Y0083052D03*
X0207083Y0083052D03*
X0207083Y0073997D03*
D16*
X0212717Y0024607D03*
X0189883Y0024607D03*
D17*
X0197511Y0012993D03*
X0205089Y0012993D03*
D18*
X0209106Y0012908D02*
X0214506Y0012908D01*
X0214506Y0012510D02*
X0209106Y0012510D01*
X0209106Y0012111D02*
X0214506Y0012111D01*
X0214506Y0011712D02*
X0209106Y0011712D01*
X0209106Y0011314D02*
X0214506Y0011314D01*
X0214506Y0010915D02*
X0209112Y0010915D01*
X0209106Y0010965D02*
X0209139Y0010675D01*
X0209235Y0010401D01*
X0209390Y0010154D01*
X0209596Y0009948D01*
X0209842Y0009793D01*
X0210117Y0009697D01*
X0210406Y0009665D01*
X0213306Y0009665D01*
X0213573Y0009695D01*
X0213827Y0009783D01*
X0214054Y0009926D01*
X0214245Y0010116D01*
X0214387Y0010344D01*
X0214476Y0010598D01*
X0214506Y0010865D01*
X0214506Y0017765D01*
X0214514Y0017803D01*
X0214536Y0017835D01*
X0214568Y0017857D01*
X0214606Y0017865D01*
X0216506Y0017865D01*
X0216506Y0020965D01*
X0209106Y0020965D01*
X0209106Y0010965D01*
X0209194Y0010517D02*
X0214448Y0010517D01*
X0214246Y0010118D02*
X0209426Y0010118D01*
X0210052Y0009720D02*
X0213646Y0009720D01*
X0214506Y0013307D02*
X0209106Y0013307D01*
X0209106Y0013705D02*
X0214506Y0013705D01*
X0214506Y0014104D02*
X0209106Y0014104D01*
X0209106Y0014502D02*
X0214506Y0014502D01*
X0214506Y0014901D02*
X0209106Y0014901D01*
X0209106Y0015299D02*
X0214506Y0015299D01*
X0214506Y0015698D02*
X0209106Y0015698D01*
X0209106Y0016096D02*
X0214506Y0016096D01*
X0214506Y0016495D02*
X0209106Y0016495D01*
X0209106Y0016893D02*
X0214506Y0016893D01*
X0214506Y0017292D02*
X0209106Y0017292D01*
X0209106Y0017690D02*
X0214506Y0017690D01*
X0216506Y0018089D02*
X0209106Y0018089D01*
X0209106Y0018487D02*
X0216506Y0018487D01*
X0216506Y0018886D02*
X0209106Y0018886D01*
X0209106Y0019284D02*
X0216506Y0019284D01*
X0216506Y0019683D02*
X0209106Y0019683D01*
X0209106Y0020081D02*
X0216506Y0020081D01*
X0216506Y0020480D02*
X0209106Y0020480D01*
X0209106Y0020878D02*
X0216506Y0020878D01*
X0193443Y0020878D02*
X0186043Y0020878D01*
X0186043Y0020965D02*
X0193443Y0020965D01*
X0193443Y0010965D01*
X0193411Y0010675D01*
X0193314Y0010401D01*
X0193160Y0010154D01*
X0192954Y0009948D01*
X0192707Y0009793D01*
X0192432Y0009697D01*
X0192143Y0009665D01*
X0189243Y0009665D01*
X0188976Y0009695D01*
X0188723Y0009783D01*
X0188495Y0009926D01*
X0188305Y0010116D01*
X0188162Y0010344D01*
X0188073Y0010598D01*
X0188043Y0010865D01*
X0188043Y0017765D01*
X0188036Y0017803D01*
X0188014Y0017835D01*
X0187981Y0017857D01*
X0187943Y0017865D01*
X0186043Y0017865D01*
X0186043Y0020965D01*
X0186043Y0020480D02*
X0193443Y0020480D01*
X0193443Y0020081D02*
X0186043Y0020081D01*
X0186043Y0019683D02*
X0193443Y0019683D01*
X0193443Y0019284D02*
X0186043Y0019284D01*
X0186043Y0018886D02*
X0193443Y0018886D01*
X0193443Y0018487D02*
X0186043Y0018487D01*
X0186043Y0018089D02*
X0193443Y0018089D01*
X0193443Y0017690D02*
X0188043Y0017690D01*
X0188043Y0017292D02*
X0193443Y0017292D01*
X0193443Y0016893D02*
X0188043Y0016893D01*
X0188043Y0016495D02*
X0193443Y0016495D01*
X0193443Y0016096D02*
X0188043Y0016096D01*
X0188043Y0015698D02*
X0193443Y0015698D01*
X0193443Y0015299D02*
X0188043Y0015299D01*
X0188043Y0014901D02*
X0193443Y0014901D01*
X0193443Y0014502D02*
X0188043Y0014502D01*
X0188043Y0014104D02*
X0193443Y0014104D01*
X0193443Y0013705D02*
X0188043Y0013705D01*
X0188043Y0013307D02*
X0193443Y0013307D01*
X0193443Y0012908D02*
X0188043Y0012908D01*
X0188043Y0012510D02*
X0193443Y0012510D01*
X0193443Y0012111D02*
X0188043Y0012111D01*
X0188043Y0011712D02*
X0193443Y0011712D01*
X0193443Y0011314D02*
X0188043Y0011314D01*
X0188043Y0010915D02*
X0193438Y0010915D01*
X0193355Y0010517D02*
X0188101Y0010517D01*
X0188304Y0010118D02*
X0193124Y0010118D01*
X0192498Y0009720D02*
X0188904Y0009720D01*
D19*
X0195690Y0020352D02*
X0195690Y0026749D01*
X0196674Y0026749D01*
X0196674Y0020352D01*
X0195690Y0020352D01*
X0195690Y0020441D02*
X0196674Y0020441D01*
X0196674Y0020637D02*
X0195690Y0020637D01*
X0195690Y0020832D02*
X0196674Y0020832D01*
X0196674Y0021028D02*
X0195690Y0021028D01*
X0195690Y0021223D02*
X0196674Y0021223D01*
X0196674Y0021418D02*
X0195690Y0021418D01*
X0195690Y0021614D02*
X0196674Y0021614D01*
X0196674Y0021809D02*
X0195690Y0021809D01*
X0195690Y0022004D02*
X0196674Y0022004D01*
X0196674Y0022200D02*
X0195690Y0022200D01*
X0195690Y0022395D02*
X0196674Y0022395D01*
X0196674Y0022590D02*
X0195690Y0022590D01*
X0195690Y0022786D02*
X0196674Y0022786D01*
X0196674Y0022981D02*
X0195690Y0022981D01*
X0195690Y0023177D02*
X0196674Y0023177D01*
X0196674Y0023372D02*
X0195690Y0023372D01*
X0195690Y0023567D02*
X0196674Y0023567D01*
X0196674Y0023763D02*
X0195690Y0023763D01*
X0195690Y0023958D02*
X0196674Y0023958D01*
X0196674Y0024153D02*
X0195690Y0024153D01*
X0195690Y0024349D02*
X0196674Y0024349D01*
X0196674Y0024544D02*
X0195690Y0024544D01*
X0195690Y0024739D02*
X0196674Y0024739D01*
X0196674Y0024935D02*
X0195690Y0024935D01*
X0195690Y0025130D02*
X0196674Y0025130D01*
X0196674Y0025326D02*
X0195690Y0025326D01*
X0195690Y0025521D02*
X0196674Y0025521D01*
X0196674Y0025716D02*
X0195690Y0025716D01*
X0195690Y0025912D02*
X0196674Y0025912D01*
X0196674Y0026107D02*
X0195690Y0026107D01*
X0195690Y0026302D02*
X0196674Y0026302D01*
X0196674Y0026498D02*
X0195690Y0026498D01*
X0195690Y0026693D02*
X0196674Y0026693D01*
X0198249Y0026693D02*
X0199233Y0026693D01*
X0199233Y0026749D02*
X0199233Y0020352D01*
X0198249Y0020352D01*
X0198249Y0026749D01*
X0199233Y0026749D01*
X0199233Y0026498D02*
X0198249Y0026498D01*
X0198249Y0026302D02*
X0199233Y0026302D01*
X0199233Y0026107D02*
X0198249Y0026107D01*
X0198249Y0025912D02*
X0199233Y0025912D01*
X0199233Y0025716D02*
X0198249Y0025716D01*
X0198249Y0025521D02*
X0199233Y0025521D01*
X0199233Y0025326D02*
X0198249Y0025326D01*
X0198249Y0025130D02*
X0199233Y0025130D01*
X0199233Y0024935D02*
X0198249Y0024935D01*
X0198249Y0024739D02*
X0199233Y0024739D01*
X0199233Y0024544D02*
X0198249Y0024544D01*
X0198249Y0024349D02*
X0199233Y0024349D01*
X0199233Y0024153D02*
X0198249Y0024153D01*
X0198249Y0023958D02*
X0199233Y0023958D01*
X0199233Y0023763D02*
X0198249Y0023763D01*
X0198249Y0023567D02*
X0199233Y0023567D01*
X0199233Y0023372D02*
X0198249Y0023372D01*
X0198249Y0023177D02*
X0199233Y0023177D01*
X0199233Y0022981D02*
X0198249Y0022981D01*
X0198249Y0022786D02*
X0199233Y0022786D01*
X0199233Y0022590D02*
X0198249Y0022590D01*
X0198249Y0022395D02*
X0199233Y0022395D01*
X0199233Y0022200D02*
X0198249Y0022200D01*
X0198249Y0022004D02*
X0199233Y0022004D01*
X0199233Y0021809D02*
X0198249Y0021809D01*
X0198249Y0021614D02*
X0199233Y0021614D01*
X0199233Y0021418D02*
X0198249Y0021418D01*
X0198249Y0021223D02*
X0199233Y0021223D01*
X0199233Y0021028D02*
X0198249Y0021028D01*
X0198249Y0020832D02*
X0199233Y0020832D01*
X0199233Y0020637D02*
X0198249Y0020637D01*
X0198249Y0020441D02*
X0199233Y0020441D01*
X0200808Y0020441D02*
X0201792Y0020441D01*
X0201792Y0020352D02*
X0200808Y0020352D01*
X0200808Y0026749D01*
X0201792Y0026749D01*
X0201792Y0020352D01*
X0201792Y0020637D02*
X0200808Y0020637D01*
X0200808Y0020832D02*
X0201792Y0020832D01*
X0201792Y0021028D02*
X0200808Y0021028D01*
X0200808Y0021223D02*
X0201792Y0021223D01*
X0201792Y0021418D02*
X0200808Y0021418D01*
X0200808Y0021614D02*
X0201792Y0021614D01*
X0201792Y0021809D02*
X0200808Y0021809D01*
X0200808Y0022004D02*
X0201792Y0022004D01*
X0201792Y0022200D02*
X0200808Y0022200D01*
X0200808Y0022395D02*
X0201792Y0022395D01*
X0201792Y0022590D02*
X0200808Y0022590D01*
X0200808Y0022786D02*
X0201792Y0022786D01*
X0201792Y0022981D02*
X0200808Y0022981D01*
X0200808Y0023177D02*
X0201792Y0023177D01*
X0201792Y0023372D02*
X0200808Y0023372D01*
X0200808Y0023567D02*
X0201792Y0023567D01*
X0201792Y0023763D02*
X0200808Y0023763D01*
X0200808Y0023958D02*
X0201792Y0023958D01*
X0201792Y0024153D02*
X0200808Y0024153D01*
X0200808Y0024349D02*
X0201792Y0024349D01*
X0201792Y0024544D02*
X0200808Y0024544D01*
X0200808Y0024739D02*
X0201792Y0024739D01*
X0201792Y0024935D02*
X0200808Y0024935D01*
X0200808Y0025130D02*
X0201792Y0025130D01*
X0201792Y0025326D02*
X0200808Y0025326D01*
X0200808Y0025521D02*
X0201792Y0025521D01*
X0201792Y0025716D02*
X0200808Y0025716D01*
X0200808Y0025912D02*
X0201792Y0025912D01*
X0201792Y0026107D02*
X0200808Y0026107D01*
X0200808Y0026302D02*
X0201792Y0026302D01*
X0201792Y0026498D02*
X0200808Y0026498D01*
X0200808Y0026693D02*
X0201792Y0026693D01*
X0203367Y0026693D02*
X0204351Y0026693D01*
X0204351Y0026749D02*
X0204351Y0020352D01*
X0203367Y0020352D01*
X0203367Y0026749D01*
X0204351Y0026749D01*
X0204351Y0026498D02*
X0203367Y0026498D01*
X0203367Y0026302D02*
X0204351Y0026302D01*
X0204351Y0026107D02*
X0203367Y0026107D01*
X0203367Y0025912D02*
X0204351Y0025912D01*
X0204351Y0025716D02*
X0203367Y0025716D01*
X0203367Y0025521D02*
X0204351Y0025521D01*
X0204351Y0025326D02*
X0203367Y0025326D01*
X0203367Y0025130D02*
X0204351Y0025130D01*
X0204351Y0024935D02*
X0203367Y0024935D01*
X0203367Y0024739D02*
X0204351Y0024739D01*
X0204351Y0024544D02*
X0203367Y0024544D01*
X0203367Y0024349D02*
X0204351Y0024349D01*
X0204351Y0024153D02*
X0203367Y0024153D01*
X0203367Y0023958D02*
X0204351Y0023958D01*
X0204351Y0023763D02*
X0203367Y0023763D01*
X0203367Y0023567D02*
X0204351Y0023567D01*
X0204351Y0023372D02*
X0203367Y0023372D01*
X0203367Y0023177D02*
X0204351Y0023177D01*
X0204351Y0022981D02*
X0203367Y0022981D01*
X0203367Y0022786D02*
X0204351Y0022786D01*
X0204351Y0022590D02*
X0203367Y0022590D01*
X0203367Y0022395D02*
X0204351Y0022395D01*
X0204351Y0022200D02*
X0203367Y0022200D01*
X0203367Y0022004D02*
X0204351Y0022004D01*
X0204351Y0021809D02*
X0203367Y0021809D01*
X0203367Y0021614D02*
X0204351Y0021614D01*
X0204351Y0021418D02*
X0203367Y0021418D01*
X0203367Y0021223D02*
X0204351Y0021223D01*
X0204351Y0021028D02*
X0203367Y0021028D01*
X0203367Y0020832D02*
X0204351Y0020832D01*
X0204351Y0020637D02*
X0203367Y0020637D01*
X0203367Y0020441D02*
X0204351Y0020441D01*
X0205926Y0020441D02*
X0206910Y0020441D01*
X0206910Y0020352D02*
X0205926Y0020352D01*
X0205926Y0026749D01*
X0206910Y0026749D01*
X0206910Y0020352D01*
X0206910Y0020637D02*
X0205926Y0020637D01*
X0205926Y0020832D02*
X0206910Y0020832D01*
X0206910Y0021028D02*
X0205926Y0021028D01*
X0205926Y0021223D02*
X0206910Y0021223D01*
X0206910Y0021418D02*
X0205926Y0021418D01*
X0205926Y0021614D02*
X0206910Y0021614D01*
X0206910Y0021809D02*
X0205926Y0021809D01*
X0205926Y0022004D02*
X0206910Y0022004D01*
X0206910Y0022200D02*
X0205926Y0022200D01*
X0205926Y0022395D02*
X0206910Y0022395D01*
X0206910Y0022590D02*
X0205926Y0022590D01*
X0205926Y0022786D02*
X0206910Y0022786D01*
X0206910Y0022981D02*
X0205926Y0022981D01*
X0205926Y0023177D02*
X0206910Y0023177D01*
X0206910Y0023372D02*
X0205926Y0023372D01*
X0205926Y0023567D02*
X0206910Y0023567D01*
X0206910Y0023763D02*
X0205926Y0023763D01*
X0205926Y0023958D02*
X0206910Y0023958D01*
X0206910Y0024153D02*
X0205926Y0024153D01*
X0205926Y0024349D02*
X0206910Y0024349D01*
X0206910Y0024544D02*
X0205926Y0024544D01*
X0205926Y0024739D02*
X0206910Y0024739D01*
X0206910Y0024935D02*
X0205926Y0024935D01*
X0205926Y0025130D02*
X0206910Y0025130D01*
X0206910Y0025326D02*
X0205926Y0025326D01*
X0205926Y0025521D02*
X0206910Y0025521D01*
X0206910Y0025716D02*
X0205926Y0025716D01*
X0205926Y0025912D02*
X0206910Y0025912D01*
X0206910Y0026107D02*
X0205926Y0026107D01*
X0205926Y0026302D02*
X0206910Y0026302D01*
X0206910Y0026498D02*
X0205926Y0026498D01*
X0205926Y0026693D02*
X0206910Y0026693D01*
D20*
X0221181Y0094784D03*
X0221181Y0102265D03*
X0231419Y0102265D03*
X0231419Y0098524D03*
X0231419Y0094784D03*
D21*
X0230139Y0065883D03*
X0227580Y0065883D03*
X0225020Y0065883D03*
X0222461Y0065883D03*
X0222461Y0048166D03*
X0225020Y0048166D03*
X0227580Y0048166D03*
X0230139Y0048166D03*
D22*
X0174800Y0056060D03*
X0174800Y0072989D03*
D23*
X0169335Y0047024D03*
X0186265Y0047024D03*
D24*
X0186300Y0059981D03*
X0186300Y0067068D03*
X0194800Y0067068D03*
X0194800Y0059981D03*
D25*
X0222757Y0033524D03*
X0229843Y0033524D03*
D26*
X0231100Y0122524D03*
X0219500Y0122524D03*
M02*
