G75*
%MOIN*%
%OFA0B0*%
%FSLAX25Y25*%
%IPPOS*%
%LPD*%
%AMOC8*
5,1,8,0,0,1.08239X$1,22.5*
%
%ADD10C,0.01500*%
%ADD11C,0.00800*%
%ADD12R,0.05512X0.00394*%
%ADD13R,0.05118X0.00394*%
%ADD14R,0.06693X0.00394*%
%ADD15R,0.07480X0.00394*%
%ADD16R,0.07087X0.00394*%
%ADD17R,0.03150X0.00394*%
%ADD18R,0.07874X0.00394*%
%ADD19R,0.08268X0.00394*%
%ADD20R,0.03543X0.00394*%
%ADD21R,0.08661X0.00394*%
%ADD22R,0.03937X0.00394*%
%ADD23R,0.09055X0.00394*%
%ADD24R,0.09449X0.00394*%
%ADD25R,0.04331X0.00394*%
%ADD26R,0.02756X0.00394*%
%ADD27R,0.04724X0.00394*%
%ADD28R,0.02362X0.00394*%
%ADD29R,0.01575X0.00394*%
%ADD30R,0.01181X0.00394*%
%ADD31R,0.67126X0.00197*%
%ADD32R,0.68307X0.00197*%
%ADD33R,0.69094X0.00197*%
%ADD34R,0.69882X0.00197*%
%ADD35R,0.70276X0.00197*%
%ADD36R,0.70669X0.00197*%
%ADD37R,0.05709X0.00197*%
%ADD38R,0.64764X0.00197*%
%ADD39R,0.04921X0.00197*%
%ADD40R,0.14961X0.00197*%
%ADD41R,0.02165X0.00197*%
%ADD42R,0.08268X0.00197*%
%ADD43R,0.00787X0.00197*%
%ADD44R,0.24016X0.00197*%
%ADD45R,0.08071X0.00197*%
%ADD46R,0.04724X0.00197*%
%ADD47R,0.14567X0.00197*%
%ADD48R,0.01969X0.00197*%
%ADD49R,0.04528X0.00197*%
%ADD50R,0.14370X0.00197*%
%ADD51R,0.04331X0.00197*%
%ADD52R,0.00984X0.00197*%
%ADD53R,0.14173X0.00197*%
%ADD54R,0.08465X0.00197*%
%ADD55R,0.13976X0.00197*%
%ADD56R,0.02559X0.00197*%
%ADD57R,0.03150X0.00197*%
%ADD58R,0.03543X0.00197*%
%ADD59R,0.02362X0.00197*%
%ADD60R,0.04134X0.00197*%
%ADD61R,0.03937X0.00197*%
%ADD62R,0.05512X0.00197*%
%ADD63R,0.02953X0.00197*%
%ADD64R,0.00394X0.00197*%
%ADD65R,0.01575X0.00197*%
%ADD66R,0.00591X0.00197*%
%ADD67R,0.01772X0.00197*%
%ADD68R,0.01378X0.00197*%
%ADD69R,0.01181X0.00197*%
%ADD70R,0.03346X0.00197*%
%ADD71R,0.04134X0.00236*%
%ADD72R,0.00591X0.00236*%
%ADD73R,0.01181X0.00236*%
%ADD74R,0.00394X0.00236*%
%ADD75R,0.00787X0.00236*%
%ADD76R,0.01575X0.00236*%
%ADD77R,0.01969X0.00236*%
%ADD78R,0.02362X0.00236*%
%ADD79R,0.00984X0.00236*%
%ADD80R,0.01772X0.00236*%
%ADD81R,0.00197X0.00197*%
%ADD82R,0.06890X0.00197*%
%ADD83R,0.04724X0.00236*%
%ADD84R,0.01378X0.00236*%
%ADD85R,0.02756X0.00197*%
%ADD86R,0.40945X0.00236*%
%ADD87R,0.22047X0.00236*%
%ADD88R,0.40945X0.00197*%
%ADD89R,0.21850X0.00197*%
%ADD90R,0.42126X0.00197*%
%ADD91R,0.21654X0.00197*%
%ADD92R,0.48031X0.00197*%
%ADD93R,0.21457X0.00197*%
%ADD94R,0.47835X0.00197*%
%ADD95R,0.21260X0.00197*%
%ADD96R,0.47638X0.00236*%
%ADD97R,0.21260X0.00236*%
%ADD98R,0.68307X0.00157*%
%ADD99R,0.03740X0.00197*%
%ADD100R,0.06299X0.00197*%
%ADD101R,0.06102X0.00197*%
%ADD102R,0.02953X0.00236*%
%ADD103R,0.04921X0.00236*%
%ADD104R,0.05118X0.00197*%
%ADD105R,0.03543X0.00236*%
%ADD106R,0.03740X0.00236*%
%ADD107R,0.00197X0.00236*%
%ADD108C,0.00591*%
D10*
X0172116Y0075454D02*
X0172187Y0075606D01*
X0172255Y0075758D01*
X0172319Y0075913D01*
X0172380Y0076069D01*
X0172436Y0076226D01*
X0172489Y0076385D01*
X0172539Y0076545D01*
X0172584Y0076706D01*
X0172625Y0076868D01*
X0172663Y0077030D01*
X0172697Y0077194D01*
X0172726Y0077359D01*
X0172752Y0077524D01*
X0172774Y0077690D01*
X0172792Y0077856D01*
X0172806Y0078023D01*
X0172816Y0078190D01*
X0172822Y0078357D01*
X0172824Y0078524D01*
X0168101Y0078524D02*
X0168103Y0078691D01*
X0168109Y0078858D01*
X0168119Y0079025D01*
X0168133Y0079192D01*
X0168151Y0079358D01*
X0168173Y0079524D01*
X0168199Y0079689D01*
X0168228Y0079854D01*
X0168262Y0080018D01*
X0168300Y0080181D01*
X0168341Y0080343D01*
X0168387Y0080503D01*
X0168436Y0080663D01*
X0168489Y0080822D01*
X0168545Y0080979D01*
X0168606Y0081135D01*
X0168670Y0081290D01*
X0168738Y0081442D01*
X0168809Y0081594D01*
X0168574Y0080886D02*
X0172352Y0076163D01*
X0170463Y0074275D02*
X0170383Y0074277D01*
X0170303Y0074282D01*
X0170223Y0074292D01*
X0170144Y0074304D01*
X0170065Y0074321D01*
X0169987Y0074341D01*
X0169911Y0074365D01*
X0169835Y0074392D01*
X0169761Y0074422D01*
X0169688Y0074456D01*
X0169617Y0074493D01*
X0169548Y0074534D01*
X0169481Y0074577D01*
X0169415Y0074624D01*
X0169352Y0074674D01*
X0169291Y0074726D01*
X0169233Y0074781D01*
X0169177Y0074839D01*
X0169124Y0074899D01*
X0169074Y0074962D01*
X0169027Y0075027D01*
X0168983Y0075094D01*
X0168942Y0075163D01*
X0168904Y0075234D01*
X0168869Y0075306D01*
X0168838Y0075380D01*
X0168810Y0075455D01*
X0170463Y0074275D02*
X0170543Y0074277D01*
X0170623Y0074282D01*
X0170703Y0074292D01*
X0170782Y0074304D01*
X0170861Y0074321D01*
X0170939Y0074341D01*
X0171015Y0074365D01*
X0171091Y0074392D01*
X0171165Y0074422D01*
X0171238Y0074456D01*
X0171309Y0074493D01*
X0171378Y0074534D01*
X0171445Y0074577D01*
X0171511Y0074624D01*
X0171574Y0074674D01*
X0171635Y0074726D01*
X0171693Y0074781D01*
X0171749Y0074839D01*
X0171802Y0074899D01*
X0171852Y0074962D01*
X0171899Y0075027D01*
X0171943Y0075094D01*
X0171984Y0075163D01*
X0172022Y0075234D01*
X0172057Y0075306D01*
X0172088Y0075380D01*
X0172116Y0075455D01*
X0176322Y0076163D02*
X0176322Y0077108D01*
X0168809Y0075454D02*
X0168738Y0075606D01*
X0168670Y0075758D01*
X0168606Y0075913D01*
X0168545Y0076069D01*
X0168489Y0076226D01*
X0168436Y0076385D01*
X0168387Y0076545D01*
X0168341Y0076705D01*
X0168300Y0076867D01*
X0168262Y0077030D01*
X0168228Y0077194D01*
X0168199Y0077359D01*
X0168173Y0077524D01*
X0168151Y0077690D01*
X0168133Y0077856D01*
X0168119Y0078023D01*
X0168109Y0078190D01*
X0168103Y0078357D01*
X0168101Y0078524D01*
X0172824Y0078524D02*
X0172822Y0078691D01*
X0172816Y0078858D01*
X0172806Y0079025D01*
X0172792Y0079192D01*
X0172774Y0079358D01*
X0172752Y0079524D01*
X0172726Y0079689D01*
X0172697Y0079854D01*
X0172663Y0080018D01*
X0172625Y0080180D01*
X0172584Y0080342D01*
X0172539Y0080503D01*
X0172489Y0080663D01*
X0172436Y0080822D01*
X0172380Y0080979D01*
X0172319Y0081135D01*
X0172255Y0081290D01*
X0172187Y0081442D01*
X0172116Y0081594D01*
X0170463Y0082774D02*
X0170383Y0082772D01*
X0170303Y0082767D01*
X0170223Y0082757D01*
X0170144Y0082745D01*
X0170065Y0082728D01*
X0169987Y0082708D01*
X0169911Y0082684D01*
X0169835Y0082657D01*
X0169761Y0082627D01*
X0169688Y0082593D01*
X0169617Y0082556D01*
X0169548Y0082515D01*
X0169480Y0082472D01*
X0169415Y0082425D01*
X0169352Y0082375D01*
X0169291Y0082323D01*
X0169233Y0082268D01*
X0169177Y0082210D01*
X0169124Y0082150D01*
X0169074Y0082087D01*
X0169027Y0082022D01*
X0168983Y0081955D01*
X0168942Y0081886D01*
X0168904Y0081815D01*
X0168869Y0081743D01*
X0168838Y0081669D01*
X0168810Y0081594D01*
X0170463Y0082774D02*
X0170543Y0082772D01*
X0170623Y0082767D01*
X0170703Y0082757D01*
X0170782Y0082745D01*
X0170861Y0082728D01*
X0170939Y0082708D01*
X0171015Y0082684D01*
X0171091Y0082657D01*
X0171165Y0082627D01*
X0171238Y0082593D01*
X0171309Y0082556D01*
X0171378Y0082515D01*
X0171446Y0082472D01*
X0171511Y0082425D01*
X0171574Y0082375D01*
X0171635Y0082323D01*
X0171693Y0082268D01*
X0171749Y0082210D01*
X0171802Y0082150D01*
X0171852Y0082087D01*
X0171899Y0082022D01*
X0171943Y0081955D01*
X0171984Y0081886D01*
X0172022Y0081815D01*
X0172057Y0081743D01*
X0172088Y0081669D01*
X0172116Y0081594D01*
X0176322Y0082774D02*
X0181044Y0082774D01*
X0181044Y0078997D01*
X0178210Y0078997D01*
X0178125Y0078995D01*
X0178041Y0078989D01*
X0177956Y0078980D01*
X0177873Y0078967D01*
X0177790Y0078950D01*
X0177707Y0078929D01*
X0177626Y0078905D01*
X0177546Y0078877D01*
X0177468Y0078845D01*
X0177390Y0078810D01*
X0177315Y0078771D01*
X0177241Y0078730D01*
X0177169Y0078685D01*
X0177100Y0078636D01*
X0177032Y0078585D01*
X0176967Y0078531D01*
X0176905Y0078473D01*
X0176845Y0078413D01*
X0176787Y0078351D01*
X0176733Y0078286D01*
X0176682Y0078218D01*
X0176633Y0078149D01*
X0176588Y0078077D01*
X0176547Y0078003D01*
X0176508Y0077928D01*
X0176473Y0077850D01*
X0176441Y0077772D01*
X0176413Y0077692D01*
X0176389Y0077611D01*
X0176368Y0077528D01*
X0176351Y0077445D01*
X0176338Y0077362D01*
X0176329Y0077277D01*
X0176323Y0077193D01*
X0176321Y0077108D01*
X0176321Y0076163D02*
X0176323Y0076078D01*
X0176329Y0075994D01*
X0176338Y0075909D01*
X0176351Y0075826D01*
X0176368Y0075743D01*
X0176389Y0075660D01*
X0176413Y0075579D01*
X0176441Y0075499D01*
X0176473Y0075421D01*
X0176508Y0075343D01*
X0176547Y0075268D01*
X0176588Y0075194D01*
X0176633Y0075122D01*
X0176682Y0075053D01*
X0176733Y0074985D01*
X0176787Y0074920D01*
X0176845Y0074858D01*
X0176905Y0074798D01*
X0176967Y0074740D01*
X0177032Y0074686D01*
X0177100Y0074635D01*
X0177169Y0074586D01*
X0177241Y0074541D01*
X0177315Y0074500D01*
X0177390Y0074461D01*
X0177468Y0074426D01*
X0177546Y0074394D01*
X0177626Y0074366D01*
X0177707Y0074342D01*
X0177790Y0074321D01*
X0177873Y0074304D01*
X0177956Y0074291D01*
X0178041Y0074282D01*
X0178125Y0074276D01*
X0178210Y0074274D01*
X0181044Y0074274D01*
X0184542Y0076636D02*
X0184542Y0077108D01*
X0184541Y0077108D02*
X0184543Y0077193D01*
X0184549Y0077277D01*
X0184558Y0077362D01*
X0184571Y0077445D01*
X0184588Y0077528D01*
X0184609Y0077611D01*
X0184633Y0077692D01*
X0184661Y0077772D01*
X0184693Y0077850D01*
X0184728Y0077928D01*
X0184767Y0078003D01*
X0184808Y0078077D01*
X0184853Y0078149D01*
X0184902Y0078218D01*
X0184953Y0078286D01*
X0185007Y0078351D01*
X0185065Y0078413D01*
X0185125Y0078473D01*
X0185187Y0078531D01*
X0185252Y0078585D01*
X0185320Y0078636D01*
X0185389Y0078685D01*
X0185461Y0078730D01*
X0185535Y0078771D01*
X0185610Y0078810D01*
X0185688Y0078845D01*
X0185766Y0078877D01*
X0185846Y0078905D01*
X0185927Y0078929D01*
X0186010Y0078950D01*
X0186093Y0078967D01*
X0186176Y0078980D01*
X0186261Y0078989D01*
X0186345Y0078995D01*
X0186430Y0078997D01*
X0189264Y0078997D01*
X0189264Y0076636D01*
X0189262Y0076540D01*
X0189256Y0076444D01*
X0189246Y0076348D01*
X0189233Y0076252D01*
X0189215Y0076158D01*
X0189194Y0076064D01*
X0189168Y0075971D01*
X0189139Y0075879D01*
X0189107Y0075788D01*
X0189070Y0075699D01*
X0189030Y0075612D01*
X0188987Y0075526D01*
X0188940Y0075442D01*
X0188889Y0075360D01*
X0188835Y0075280D01*
X0188779Y0075202D01*
X0188718Y0075127D01*
X0188655Y0075054D01*
X0188589Y0074984D01*
X0188521Y0074916D01*
X0188449Y0074852D01*
X0188375Y0074790D01*
X0188299Y0074732D01*
X0188220Y0074676D01*
X0188139Y0074624D01*
X0188056Y0074575D01*
X0187971Y0074530D01*
X0187884Y0074488D01*
X0187795Y0074450D01*
X0187705Y0074416D01*
X0187614Y0074385D01*
X0187522Y0074358D01*
X0187428Y0074334D01*
X0187334Y0074315D01*
X0187239Y0074299D01*
X0187143Y0074287D01*
X0187047Y0074279D01*
X0186951Y0074275D01*
X0186855Y0074275D01*
X0186759Y0074279D01*
X0186663Y0074287D01*
X0186567Y0074299D01*
X0186472Y0074315D01*
X0186378Y0074334D01*
X0186284Y0074358D01*
X0186192Y0074385D01*
X0186101Y0074416D01*
X0186011Y0074450D01*
X0185922Y0074488D01*
X0185835Y0074530D01*
X0185750Y0074575D01*
X0185667Y0074624D01*
X0185586Y0074676D01*
X0185507Y0074732D01*
X0185431Y0074790D01*
X0185357Y0074852D01*
X0185285Y0074916D01*
X0185217Y0074984D01*
X0185151Y0075054D01*
X0185088Y0075127D01*
X0185027Y0075202D01*
X0184971Y0075280D01*
X0184917Y0075360D01*
X0184866Y0075442D01*
X0184819Y0075526D01*
X0184776Y0075612D01*
X0184736Y0075699D01*
X0184699Y0075788D01*
X0184667Y0075879D01*
X0184638Y0075971D01*
X0184612Y0076064D01*
X0184591Y0076158D01*
X0184573Y0076252D01*
X0184560Y0076348D01*
X0184550Y0076444D01*
X0184544Y0076540D01*
X0184542Y0076636D01*
X0189264Y0078997D02*
X0189262Y0079118D01*
X0189256Y0079239D01*
X0189247Y0079360D01*
X0189233Y0079480D01*
X0189216Y0079600D01*
X0189194Y0079719D01*
X0189169Y0079838D01*
X0189140Y0079955D01*
X0189108Y0080072D01*
X0189072Y0080187D01*
X0189032Y0080302D01*
X0188988Y0080415D01*
X0188941Y0080526D01*
X0188890Y0080636D01*
X0188836Y0080744D01*
X0188778Y0080851D01*
X0188717Y0080955D01*
X0188652Y0081058D01*
X0188585Y0081158D01*
X0188514Y0081257D01*
X0188440Y0081353D01*
X0188363Y0081446D01*
X0188283Y0081537D01*
X0188200Y0081625D01*
X0188114Y0081711D01*
X0188026Y0081794D01*
X0187935Y0081874D01*
X0187842Y0081951D01*
X0187746Y0082025D01*
X0187647Y0082096D01*
X0187547Y0082163D01*
X0187445Y0082228D01*
X0187340Y0082289D01*
X0187233Y0082347D01*
X0187125Y0082401D01*
X0187015Y0082452D01*
X0186904Y0082499D01*
X0186791Y0082543D01*
X0186676Y0082583D01*
X0186561Y0082619D01*
X0186444Y0082651D01*
X0186327Y0082680D01*
X0186208Y0082705D01*
X0186089Y0082727D01*
X0185969Y0082744D01*
X0185849Y0082758D01*
X0185728Y0082767D01*
X0185607Y0082773D01*
X0185486Y0082775D01*
X0193234Y0080886D02*
X0193236Y0080800D01*
X0193242Y0080714D01*
X0193252Y0080629D01*
X0193265Y0080544D01*
X0193283Y0080460D01*
X0193304Y0080376D01*
X0193329Y0080294D01*
X0193358Y0080213D01*
X0193390Y0080133D01*
X0193426Y0080055D01*
X0193466Y0079979D01*
X0193509Y0079905D01*
X0193555Y0079832D01*
X0193605Y0079762D01*
X0193658Y0079694D01*
X0193713Y0079628D01*
X0193772Y0079566D01*
X0193834Y0079505D01*
X0193898Y0079448D01*
X0193965Y0079394D01*
X0194034Y0079343D01*
X0194105Y0079295D01*
X0194179Y0079250D01*
X0194254Y0079209D01*
X0194331Y0079171D01*
X0194410Y0079137D01*
X0194490Y0079106D01*
X0194572Y0079079D01*
X0194655Y0079056D01*
X0194739Y0079037D01*
X0194823Y0079021D01*
X0194908Y0079009D01*
X0194994Y0079001D01*
X0195080Y0078997D01*
X0195166Y0078997D01*
X0195252Y0079001D01*
X0195338Y0079009D01*
X0195423Y0079021D01*
X0195507Y0079037D01*
X0195591Y0079056D01*
X0195674Y0079079D01*
X0195756Y0079106D01*
X0195836Y0079137D01*
X0195915Y0079171D01*
X0195992Y0079209D01*
X0196068Y0079250D01*
X0196141Y0079295D01*
X0196212Y0079343D01*
X0196281Y0079394D01*
X0196348Y0079448D01*
X0196412Y0079505D01*
X0196474Y0079566D01*
X0196533Y0079628D01*
X0196588Y0079694D01*
X0196641Y0079762D01*
X0196691Y0079832D01*
X0196737Y0079905D01*
X0196780Y0079979D01*
X0196820Y0080055D01*
X0196856Y0080133D01*
X0196888Y0080213D01*
X0196917Y0080294D01*
X0196942Y0080376D01*
X0196963Y0080460D01*
X0196981Y0080544D01*
X0196994Y0080629D01*
X0197004Y0080714D01*
X0197010Y0080800D01*
X0197012Y0080886D01*
X0197010Y0080972D01*
X0197004Y0081058D01*
X0196994Y0081143D01*
X0196981Y0081228D01*
X0196963Y0081312D01*
X0196942Y0081396D01*
X0196917Y0081478D01*
X0196888Y0081559D01*
X0196856Y0081639D01*
X0196820Y0081717D01*
X0196780Y0081793D01*
X0196737Y0081867D01*
X0196691Y0081940D01*
X0196641Y0082010D01*
X0196588Y0082078D01*
X0196533Y0082144D01*
X0196474Y0082206D01*
X0196412Y0082267D01*
X0196348Y0082324D01*
X0196281Y0082378D01*
X0196212Y0082429D01*
X0196141Y0082477D01*
X0196068Y0082522D01*
X0195992Y0082563D01*
X0195915Y0082601D01*
X0195836Y0082635D01*
X0195756Y0082666D01*
X0195674Y0082693D01*
X0195591Y0082716D01*
X0195507Y0082735D01*
X0195423Y0082751D01*
X0195338Y0082763D01*
X0195252Y0082771D01*
X0195166Y0082775D01*
X0195080Y0082775D01*
X0194994Y0082771D01*
X0194908Y0082763D01*
X0194823Y0082751D01*
X0194739Y0082735D01*
X0194655Y0082716D01*
X0194572Y0082693D01*
X0194490Y0082666D01*
X0194410Y0082635D01*
X0194331Y0082601D01*
X0194254Y0082563D01*
X0194179Y0082522D01*
X0194105Y0082477D01*
X0194034Y0082429D01*
X0193965Y0082378D01*
X0193898Y0082324D01*
X0193834Y0082267D01*
X0193772Y0082206D01*
X0193713Y0082144D01*
X0193658Y0082078D01*
X0193605Y0082010D01*
X0193555Y0081940D01*
X0193509Y0081867D01*
X0193466Y0081793D01*
X0193426Y0081717D01*
X0193390Y0081639D01*
X0193358Y0081559D01*
X0193329Y0081478D01*
X0193304Y0081396D01*
X0193283Y0081312D01*
X0193265Y0081228D01*
X0193252Y0081143D01*
X0193242Y0081058D01*
X0193236Y0080972D01*
X0193234Y0080886D01*
X0192762Y0076636D02*
X0192764Y0076540D01*
X0192770Y0076444D01*
X0192780Y0076348D01*
X0192793Y0076252D01*
X0192811Y0076158D01*
X0192832Y0076064D01*
X0192858Y0075971D01*
X0192887Y0075879D01*
X0192919Y0075788D01*
X0192956Y0075699D01*
X0192996Y0075612D01*
X0193039Y0075526D01*
X0193086Y0075442D01*
X0193137Y0075360D01*
X0193191Y0075280D01*
X0193247Y0075202D01*
X0193308Y0075127D01*
X0193371Y0075054D01*
X0193437Y0074984D01*
X0193505Y0074916D01*
X0193577Y0074852D01*
X0193651Y0074790D01*
X0193727Y0074732D01*
X0193806Y0074676D01*
X0193887Y0074624D01*
X0193970Y0074575D01*
X0194055Y0074530D01*
X0194142Y0074488D01*
X0194231Y0074450D01*
X0194321Y0074416D01*
X0194412Y0074385D01*
X0194504Y0074358D01*
X0194598Y0074334D01*
X0194692Y0074315D01*
X0194787Y0074299D01*
X0194883Y0074287D01*
X0194979Y0074279D01*
X0195075Y0074275D01*
X0195171Y0074275D01*
X0195267Y0074279D01*
X0195363Y0074287D01*
X0195459Y0074299D01*
X0195554Y0074315D01*
X0195648Y0074334D01*
X0195742Y0074358D01*
X0195834Y0074385D01*
X0195925Y0074416D01*
X0196015Y0074450D01*
X0196104Y0074488D01*
X0196191Y0074530D01*
X0196276Y0074575D01*
X0196359Y0074624D01*
X0196440Y0074676D01*
X0196519Y0074732D01*
X0196595Y0074790D01*
X0196669Y0074852D01*
X0196741Y0074916D01*
X0196809Y0074984D01*
X0196875Y0075054D01*
X0196938Y0075127D01*
X0196999Y0075202D01*
X0197055Y0075280D01*
X0197109Y0075360D01*
X0197160Y0075442D01*
X0197207Y0075526D01*
X0197250Y0075612D01*
X0197290Y0075699D01*
X0197327Y0075788D01*
X0197359Y0075879D01*
X0197388Y0075971D01*
X0197414Y0076064D01*
X0197435Y0076158D01*
X0197453Y0076252D01*
X0197466Y0076348D01*
X0197476Y0076444D01*
X0197482Y0076540D01*
X0197484Y0076636D01*
X0197482Y0076732D01*
X0197476Y0076828D01*
X0197466Y0076924D01*
X0197453Y0077020D01*
X0197435Y0077114D01*
X0197414Y0077208D01*
X0197388Y0077301D01*
X0197359Y0077393D01*
X0197327Y0077484D01*
X0197290Y0077573D01*
X0197250Y0077660D01*
X0197207Y0077746D01*
X0197160Y0077830D01*
X0197109Y0077912D01*
X0197055Y0077992D01*
X0196999Y0078070D01*
X0196938Y0078145D01*
X0196875Y0078218D01*
X0196809Y0078288D01*
X0196741Y0078356D01*
X0196669Y0078420D01*
X0196595Y0078482D01*
X0196519Y0078540D01*
X0196440Y0078596D01*
X0196359Y0078648D01*
X0196276Y0078697D01*
X0196191Y0078742D01*
X0196104Y0078784D01*
X0196015Y0078822D01*
X0195925Y0078856D01*
X0195834Y0078887D01*
X0195742Y0078914D01*
X0195648Y0078938D01*
X0195554Y0078957D01*
X0195459Y0078973D01*
X0195363Y0078985D01*
X0195267Y0078993D01*
X0195171Y0078997D01*
X0195075Y0078997D01*
X0194979Y0078993D01*
X0194883Y0078985D01*
X0194787Y0078973D01*
X0194692Y0078957D01*
X0194598Y0078938D01*
X0194504Y0078914D01*
X0194412Y0078887D01*
X0194321Y0078856D01*
X0194231Y0078822D01*
X0194142Y0078784D01*
X0194055Y0078742D01*
X0193970Y0078697D01*
X0193887Y0078648D01*
X0193806Y0078596D01*
X0193727Y0078540D01*
X0193651Y0078482D01*
X0193577Y0078420D01*
X0193505Y0078356D01*
X0193437Y0078288D01*
X0193371Y0078218D01*
X0193308Y0078145D01*
X0193247Y0078070D01*
X0193191Y0077992D01*
X0193137Y0077912D01*
X0193086Y0077830D01*
X0193039Y0077746D01*
X0192996Y0077660D01*
X0192956Y0077573D01*
X0192919Y0077484D01*
X0192887Y0077393D01*
X0192858Y0077301D01*
X0192832Y0077208D01*
X0192811Y0077114D01*
X0192793Y0077020D01*
X0192780Y0076924D01*
X0192770Y0076828D01*
X0192764Y0076732D01*
X0192762Y0076636D01*
X0200982Y0074274D02*
X0205704Y0074274D01*
X0203343Y0074274D02*
X0203343Y0082774D01*
X0205704Y0080886D01*
X0213510Y0078052D02*
X0213510Y0076163D01*
X0213512Y0076077D01*
X0213518Y0075991D01*
X0213528Y0075906D01*
X0213541Y0075821D01*
X0213559Y0075737D01*
X0213580Y0075653D01*
X0213605Y0075571D01*
X0213634Y0075490D01*
X0213666Y0075410D01*
X0213702Y0075332D01*
X0213742Y0075256D01*
X0213785Y0075182D01*
X0213831Y0075109D01*
X0213881Y0075039D01*
X0213934Y0074971D01*
X0213989Y0074905D01*
X0214048Y0074843D01*
X0214110Y0074782D01*
X0214174Y0074725D01*
X0214241Y0074671D01*
X0214310Y0074620D01*
X0214381Y0074572D01*
X0214455Y0074527D01*
X0214530Y0074486D01*
X0214607Y0074448D01*
X0214686Y0074414D01*
X0214766Y0074383D01*
X0214848Y0074356D01*
X0214931Y0074333D01*
X0215015Y0074314D01*
X0215099Y0074298D01*
X0215184Y0074286D01*
X0215270Y0074278D01*
X0215356Y0074274D01*
X0215442Y0074274D01*
X0215528Y0074278D01*
X0215614Y0074286D01*
X0215699Y0074298D01*
X0215783Y0074314D01*
X0215867Y0074333D01*
X0215950Y0074356D01*
X0216032Y0074383D01*
X0216112Y0074414D01*
X0216191Y0074448D01*
X0216268Y0074486D01*
X0216344Y0074527D01*
X0216417Y0074572D01*
X0216488Y0074620D01*
X0216557Y0074671D01*
X0216624Y0074725D01*
X0216688Y0074782D01*
X0216750Y0074843D01*
X0216809Y0074905D01*
X0216864Y0074971D01*
X0216917Y0075039D01*
X0216967Y0075109D01*
X0217013Y0075182D01*
X0217056Y0075256D01*
X0217096Y0075332D01*
X0217132Y0075410D01*
X0217164Y0075490D01*
X0217193Y0075571D01*
X0217218Y0075653D01*
X0217239Y0075737D01*
X0217257Y0075821D01*
X0217270Y0075906D01*
X0217280Y0075991D01*
X0217286Y0076077D01*
X0217288Y0076163D01*
X0217288Y0078052D01*
X0217286Y0078138D01*
X0217280Y0078224D01*
X0217270Y0078309D01*
X0217257Y0078394D01*
X0217239Y0078478D01*
X0217218Y0078562D01*
X0217193Y0078644D01*
X0217164Y0078725D01*
X0217132Y0078805D01*
X0217096Y0078883D01*
X0217056Y0078959D01*
X0217013Y0079033D01*
X0216967Y0079106D01*
X0216917Y0079176D01*
X0216864Y0079244D01*
X0216809Y0079310D01*
X0216750Y0079372D01*
X0216688Y0079433D01*
X0216624Y0079490D01*
X0216557Y0079544D01*
X0216488Y0079595D01*
X0216417Y0079643D01*
X0216344Y0079688D01*
X0216268Y0079729D01*
X0216191Y0079767D01*
X0216112Y0079801D01*
X0216032Y0079832D01*
X0215950Y0079859D01*
X0215867Y0079882D01*
X0215783Y0079901D01*
X0215699Y0079917D01*
X0215614Y0079929D01*
X0215528Y0079937D01*
X0215442Y0079941D01*
X0215356Y0079941D01*
X0215270Y0079937D01*
X0215184Y0079929D01*
X0215099Y0079917D01*
X0215015Y0079901D01*
X0214931Y0079882D01*
X0214848Y0079859D01*
X0214766Y0079832D01*
X0214686Y0079801D01*
X0214607Y0079767D01*
X0214530Y0079729D01*
X0214455Y0079688D01*
X0214381Y0079643D01*
X0214310Y0079595D01*
X0214241Y0079544D01*
X0214174Y0079490D01*
X0214110Y0079433D01*
X0214048Y0079372D01*
X0213989Y0079310D01*
X0213934Y0079244D01*
X0213881Y0079176D01*
X0213831Y0079106D01*
X0213785Y0079033D01*
X0213742Y0078959D01*
X0213702Y0078883D01*
X0213666Y0078805D01*
X0213634Y0078725D01*
X0213605Y0078644D01*
X0213580Y0078562D01*
X0213559Y0078478D01*
X0213541Y0078394D01*
X0213528Y0078309D01*
X0213518Y0078224D01*
X0213512Y0078138D01*
X0213510Y0078052D01*
X0222677Y0078052D02*
X0225038Y0078052D01*
X0222677Y0078052D02*
X0222581Y0078054D01*
X0222485Y0078060D01*
X0222389Y0078070D01*
X0222293Y0078083D01*
X0222199Y0078101D01*
X0222105Y0078122D01*
X0222012Y0078148D01*
X0221920Y0078177D01*
X0221829Y0078209D01*
X0221740Y0078246D01*
X0221653Y0078286D01*
X0221567Y0078329D01*
X0221483Y0078376D01*
X0221401Y0078427D01*
X0221321Y0078481D01*
X0221243Y0078537D01*
X0221168Y0078598D01*
X0221095Y0078661D01*
X0221025Y0078727D01*
X0220957Y0078795D01*
X0220893Y0078867D01*
X0220831Y0078941D01*
X0220773Y0079017D01*
X0220717Y0079096D01*
X0220665Y0079177D01*
X0220616Y0079260D01*
X0220571Y0079345D01*
X0220529Y0079432D01*
X0220491Y0079521D01*
X0220457Y0079611D01*
X0220426Y0079702D01*
X0220399Y0079794D01*
X0220375Y0079888D01*
X0220356Y0079982D01*
X0220340Y0080077D01*
X0220328Y0080173D01*
X0220320Y0080269D01*
X0220316Y0080365D01*
X0220316Y0080461D01*
X0220320Y0080557D01*
X0220328Y0080653D01*
X0220340Y0080749D01*
X0220356Y0080844D01*
X0220375Y0080938D01*
X0220399Y0081032D01*
X0220426Y0081124D01*
X0220457Y0081215D01*
X0220491Y0081305D01*
X0220529Y0081394D01*
X0220571Y0081481D01*
X0220616Y0081566D01*
X0220665Y0081649D01*
X0220717Y0081730D01*
X0220773Y0081809D01*
X0220831Y0081885D01*
X0220893Y0081959D01*
X0220957Y0082031D01*
X0221025Y0082099D01*
X0221095Y0082165D01*
X0221168Y0082228D01*
X0221243Y0082289D01*
X0221321Y0082345D01*
X0221401Y0082399D01*
X0221483Y0082450D01*
X0221567Y0082497D01*
X0221653Y0082540D01*
X0221740Y0082580D01*
X0221829Y0082617D01*
X0221920Y0082649D01*
X0222012Y0082678D01*
X0222105Y0082704D01*
X0222199Y0082725D01*
X0222293Y0082743D01*
X0222389Y0082756D01*
X0222485Y0082766D01*
X0222581Y0082772D01*
X0222677Y0082774D01*
X0225038Y0082774D01*
X0225038Y0074274D01*
X0228825Y0074274D02*
X0228825Y0079941D01*
X0228588Y0082302D02*
X0229061Y0082302D01*
X0229061Y0082774D01*
X0228588Y0082774D01*
X0228588Y0082302D01*
X0235550Y0082774D02*
X0235550Y0074274D01*
X0231772Y0074274D01*
D11*
X0084410Y0042698D02*
X0084410Y0014351D01*
X0098190Y0014351D01*
X0098190Y0042698D01*
X0084410Y0042698D01*
D12*
X0316891Y0474706D03*
X0344450Y0473524D03*
X0350355Y0473524D03*
X0368465Y0478249D03*
D13*
X0350552Y0474312D03*
X0350552Y0473918D03*
X0347402Y0472737D03*
X0344253Y0473918D03*
X0344253Y0474312D03*
X0337954Y0476280D03*
X0337954Y0476674D03*
X0337954Y0477068D03*
X0337954Y0477461D03*
X0337954Y0477855D03*
X0337954Y0469981D03*
X0337954Y0469587D03*
X0337954Y0469194D03*
X0337954Y0468800D03*
X0337954Y0468406D03*
X0317087Y0475099D03*
X0317087Y0475493D03*
X0248977Y0478249D03*
D14*
X0258820Y0477855D03*
X0268269Y0477855D03*
X0278111Y0472343D03*
X0377324Y0477855D03*
D15*
X0377717Y0477461D03*
X0377717Y0477068D03*
X0377717Y0469194D03*
X0377717Y0468800D03*
X0368269Y0477855D03*
X0358426Y0477461D03*
X0359213Y0473918D03*
X0358032Y0472343D03*
X0358820Y0468406D03*
X0330080Y0468800D03*
X0330080Y0477461D03*
X0307245Y0477461D03*
X0306851Y0468406D03*
X0297402Y0477461D03*
X0287954Y0471162D03*
X0269056Y0473918D03*
X0267875Y0472343D03*
X0268662Y0477068D03*
X0259213Y0477068D03*
X0259607Y0473918D03*
X0258426Y0472343D03*
X0248977Y0468406D03*
X0248977Y0477855D03*
X0239528Y0471162D03*
D16*
X0259017Y0477461D03*
X0268465Y0477461D03*
X0277914Y0473918D03*
X0277914Y0473524D03*
X0277914Y0473131D03*
X0277914Y0472737D03*
X0297206Y0477855D03*
X0307048Y0477855D03*
X0329883Y0477855D03*
X0329883Y0468406D03*
X0358229Y0477855D03*
X0368465Y0468406D03*
X0377520Y0468406D03*
D17*
X0361379Y0474312D03*
X0361379Y0475887D03*
X0355473Y0470375D03*
X0351536Y0477461D03*
X0351536Y0477855D03*
X0343269Y0477855D03*
X0343269Y0477461D03*
X0320434Y0469194D03*
X0319253Y0472343D03*
X0316891Y0477855D03*
X0313741Y0469587D03*
X0313347Y0468800D03*
X0300355Y0475887D03*
X0285394Y0470769D03*
X0285001Y0469981D03*
X0284213Y0468800D03*
X0271221Y0474312D03*
X0261772Y0474312D03*
X0236182Y0469587D03*
X0235788Y0468800D03*
D18*
X0239331Y0477855D03*
X0258623Y0472737D03*
X0259017Y0473131D03*
X0259410Y0476280D03*
X0259410Y0476674D03*
X0259410Y0468406D03*
X0268859Y0468406D03*
X0268072Y0472737D03*
X0268465Y0473131D03*
X0268859Y0476280D03*
X0268859Y0476674D03*
X0277520Y0476674D03*
X0277520Y0476280D03*
X0277520Y0477068D03*
X0277520Y0477461D03*
X0277520Y0477855D03*
X0277520Y0469981D03*
X0277520Y0469587D03*
X0277520Y0469194D03*
X0277520Y0468800D03*
X0277520Y0468406D03*
X0287757Y0471556D03*
X0287757Y0477855D03*
X0297599Y0477068D03*
X0297599Y0476674D03*
X0297599Y0476280D03*
X0296812Y0468406D03*
X0307442Y0476674D03*
X0307442Y0477068D03*
X0316891Y0471556D03*
X0330276Y0469194D03*
X0330276Y0476674D03*
X0330276Y0477068D03*
X0358229Y0472737D03*
X0358623Y0473524D03*
X0359017Y0476280D03*
X0358623Y0476674D03*
X0358623Y0477068D03*
X0377914Y0476674D03*
X0377914Y0476280D03*
X0377914Y0469981D03*
X0377914Y0469587D03*
D19*
X0368269Y0468800D03*
X0368269Y0477461D03*
X0358426Y0473131D03*
X0358820Y0468800D03*
X0348977Y0473131D03*
X0330473Y0476280D03*
X0330473Y0469981D03*
X0330473Y0469587D03*
X0317087Y0471162D03*
X0306851Y0468800D03*
X0307639Y0476280D03*
X0297009Y0468800D03*
X0287560Y0477461D03*
X0268662Y0473524D03*
X0268662Y0469194D03*
X0268662Y0468800D03*
X0259213Y0468800D03*
X0259213Y0469194D03*
X0259213Y0473524D03*
X0248977Y0477461D03*
X0248977Y0468800D03*
X0239135Y0471556D03*
X0239135Y0477461D03*
D20*
X0317087Y0477461D03*
X0343465Y0477068D03*
X0343465Y0476674D03*
X0347402Y0471556D03*
X0347402Y0471162D03*
X0351339Y0477068D03*
D21*
X0358623Y0469981D03*
X0358623Y0469587D03*
X0358623Y0469194D03*
X0368465Y0469194D03*
X0368465Y0477068D03*
X0316891Y0470769D03*
X0316891Y0470375D03*
X0307048Y0469194D03*
X0297206Y0469194D03*
X0297206Y0469587D03*
X0287363Y0471950D03*
X0287363Y0472343D03*
X0287363Y0476674D03*
X0287363Y0477068D03*
X0268465Y0469981D03*
X0268465Y0469587D03*
X0259017Y0469587D03*
X0259017Y0469981D03*
X0249174Y0469194D03*
X0238938Y0471950D03*
X0238938Y0472343D03*
X0238938Y0477068D03*
D22*
X0295237Y0473918D03*
X0305080Y0473918D03*
X0316891Y0476674D03*
X0316891Y0477068D03*
X0343662Y0476280D03*
X0351143Y0476280D03*
X0351143Y0476674D03*
D23*
X0368269Y0476674D03*
X0368269Y0469587D03*
X0317087Y0469981D03*
X0307245Y0469981D03*
X0307245Y0469587D03*
X0297402Y0469981D03*
X0287166Y0472737D03*
X0287166Y0473131D03*
X0287166Y0476280D03*
X0248977Y0476280D03*
X0248977Y0476674D03*
X0248977Y0477068D03*
X0248977Y0469981D03*
X0248977Y0469587D03*
X0238741Y0472737D03*
X0238741Y0473131D03*
X0238741Y0476280D03*
X0238741Y0476674D03*
D24*
X0368465Y0476280D03*
X0368465Y0469981D03*
D25*
X0368269Y0468013D03*
X0350946Y0475493D03*
X0350946Y0475887D03*
X0347402Y0472343D03*
X0347402Y0471950D03*
X0343859Y0475493D03*
X0343859Y0475887D03*
X0317087Y0476280D03*
X0248977Y0468013D03*
D26*
X0245828Y0470375D03*
X0245828Y0470769D03*
X0245828Y0471162D03*
X0245828Y0471556D03*
X0245828Y0471950D03*
X0245828Y0472343D03*
X0245828Y0472737D03*
X0245828Y0473131D03*
X0245828Y0473524D03*
X0245828Y0473918D03*
X0245828Y0474312D03*
X0245828Y0474706D03*
X0245828Y0475099D03*
X0245828Y0475493D03*
X0245828Y0475887D03*
X0241891Y0475887D03*
X0241891Y0475493D03*
X0241891Y0475099D03*
X0241891Y0474706D03*
X0241891Y0474312D03*
X0241891Y0473918D03*
X0241891Y0473524D03*
X0241891Y0470769D03*
X0241891Y0470375D03*
X0241891Y0469981D03*
X0241891Y0469587D03*
X0241891Y0469194D03*
X0241891Y0468800D03*
X0241891Y0468406D03*
X0236772Y0470375D03*
X0236772Y0470769D03*
X0236379Y0469981D03*
X0235985Y0469194D03*
X0235591Y0468406D03*
X0235591Y0473524D03*
X0235591Y0473918D03*
X0235591Y0474312D03*
X0235591Y0474706D03*
X0235591Y0475099D03*
X0235591Y0475493D03*
X0235591Y0475887D03*
X0252127Y0475887D03*
X0252127Y0475493D03*
X0252127Y0475099D03*
X0252127Y0474706D03*
X0252127Y0474312D03*
X0252127Y0473918D03*
X0252127Y0473524D03*
X0252127Y0473131D03*
X0252127Y0472737D03*
X0252127Y0472343D03*
X0252127Y0471950D03*
X0252127Y0471556D03*
X0252127Y0471162D03*
X0252127Y0470769D03*
X0252127Y0470375D03*
X0256064Y0470375D03*
X0256064Y0470769D03*
X0256064Y0471162D03*
X0256064Y0471556D03*
X0256064Y0471950D03*
X0261969Y0474706D03*
X0261969Y0475099D03*
X0261969Y0475493D03*
X0261969Y0475887D03*
X0265513Y0471950D03*
X0265513Y0471556D03*
X0265513Y0471162D03*
X0265513Y0470769D03*
X0265513Y0470375D03*
X0271418Y0474706D03*
X0271418Y0475099D03*
X0271418Y0475493D03*
X0271418Y0475887D03*
X0280080Y0475887D03*
X0280080Y0475493D03*
X0280080Y0475099D03*
X0280080Y0474706D03*
X0280080Y0474312D03*
X0280080Y0471950D03*
X0280080Y0471556D03*
X0280080Y0471162D03*
X0280080Y0470769D03*
X0280080Y0470375D03*
X0284017Y0468406D03*
X0284410Y0469194D03*
X0284804Y0469587D03*
X0285198Y0470375D03*
X0284017Y0473524D03*
X0284017Y0473918D03*
X0284017Y0474312D03*
X0284017Y0474706D03*
X0284017Y0475099D03*
X0284017Y0475493D03*
X0284017Y0475887D03*
X0290316Y0475887D03*
X0290316Y0475493D03*
X0290316Y0475099D03*
X0290316Y0474706D03*
X0290316Y0474312D03*
X0290316Y0473918D03*
X0290316Y0473524D03*
X0290316Y0470769D03*
X0290316Y0470375D03*
X0290316Y0469981D03*
X0290316Y0469587D03*
X0290316Y0469194D03*
X0290316Y0468800D03*
X0290316Y0468406D03*
X0294253Y0470375D03*
X0294253Y0470769D03*
X0294253Y0471162D03*
X0294253Y0471556D03*
X0294253Y0471950D03*
X0300552Y0471950D03*
X0300552Y0472343D03*
X0300552Y0472737D03*
X0300552Y0473131D03*
X0300552Y0473524D03*
X0300552Y0473918D03*
X0300552Y0474312D03*
X0300552Y0474706D03*
X0300552Y0475099D03*
X0300552Y0475493D03*
X0300552Y0471556D03*
X0300552Y0471162D03*
X0300552Y0470769D03*
X0300552Y0470375D03*
X0304095Y0470375D03*
X0304095Y0470769D03*
X0304095Y0471162D03*
X0304095Y0471556D03*
X0304095Y0471950D03*
X0310394Y0471950D03*
X0310394Y0472343D03*
X0310394Y0472737D03*
X0310394Y0473131D03*
X0310394Y0473524D03*
X0310394Y0473918D03*
X0310394Y0474312D03*
X0310394Y0474706D03*
X0310394Y0475099D03*
X0310394Y0475493D03*
X0310394Y0475887D03*
X0310394Y0471556D03*
X0310394Y0471162D03*
X0310394Y0470769D03*
X0310394Y0470375D03*
X0313544Y0469194D03*
X0313150Y0468406D03*
X0314725Y0471950D03*
X0314725Y0472343D03*
X0314725Y0472737D03*
X0315119Y0473131D03*
X0315119Y0473524D03*
X0315119Y0473918D03*
X0315513Y0474312D03*
X0318662Y0474312D03*
X0318662Y0473918D03*
X0318662Y0473524D03*
X0319056Y0473131D03*
X0319056Y0472737D03*
X0319450Y0471950D03*
X0320237Y0469587D03*
X0320631Y0468800D03*
X0320631Y0468406D03*
X0333229Y0470375D03*
X0333229Y0470769D03*
X0333229Y0471162D03*
X0333229Y0471556D03*
X0333229Y0471950D03*
X0333229Y0472343D03*
X0333229Y0472737D03*
X0333229Y0473131D03*
X0333229Y0473524D03*
X0333229Y0473918D03*
X0333229Y0474312D03*
X0333229Y0474706D03*
X0333229Y0475099D03*
X0333229Y0475493D03*
X0333229Y0475887D03*
X0337954Y0475887D03*
X0337954Y0475493D03*
X0337954Y0475099D03*
X0337954Y0474706D03*
X0337954Y0474312D03*
X0337954Y0473918D03*
X0337954Y0473524D03*
X0337954Y0473131D03*
X0337954Y0472737D03*
X0337954Y0472343D03*
X0337954Y0471950D03*
X0337954Y0471556D03*
X0337954Y0471162D03*
X0337954Y0470769D03*
X0337954Y0470375D03*
X0343072Y0470375D03*
X0343072Y0470769D03*
X0343072Y0471162D03*
X0343072Y0471556D03*
X0343072Y0471950D03*
X0343072Y0472343D03*
X0343072Y0472737D03*
X0343072Y0473131D03*
X0343072Y0469981D03*
X0343072Y0469587D03*
X0343072Y0469194D03*
X0343072Y0468800D03*
X0343072Y0468406D03*
X0347402Y0470769D03*
X0351733Y0470769D03*
X0351733Y0471162D03*
X0351733Y0471556D03*
X0351733Y0471950D03*
X0351733Y0472343D03*
X0351733Y0472737D03*
X0351733Y0470375D03*
X0351733Y0469981D03*
X0351733Y0469587D03*
X0351733Y0469194D03*
X0351733Y0468800D03*
X0351733Y0468406D03*
X0355276Y0470769D03*
X0355276Y0471162D03*
X0355276Y0471556D03*
X0355276Y0471950D03*
X0361576Y0474706D03*
X0361576Y0475099D03*
X0361576Y0475493D03*
X0365119Y0475493D03*
X0365119Y0475887D03*
X0365119Y0475099D03*
X0365119Y0474706D03*
X0365119Y0474312D03*
X0365119Y0473918D03*
X0365119Y0473524D03*
X0365119Y0473131D03*
X0365119Y0472737D03*
X0365119Y0472343D03*
X0365119Y0471950D03*
X0365119Y0471556D03*
X0365119Y0471162D03*
X0365119Y0470769D03*
X0365119Y0470375D03*
X0371812Y0470375D03*
X0371812Y0470769D03*
X0371812Y0471162D03*
X0371812Y0471556D03*
X0371812Y0471950D03*
X0371812Y0472343D03*
X0371812Y0472737D03*
X0371812Y0473131D03*
X0371812Y0473524D03*
X0371812Y0473918D03*
X0371812Y0474312D03*
X0371812Y0474706D03*
X0371812Y0475099D03*
X0371812Y0475493D03*
X0371812Y0475887D03*
X0380473Y0475887D03*
X0380473Y0475493D03*
X0380473Y0475099D03*
X0380473Y0474706D03*
X0380473Y0474312D03*
X0380473Y0473918D03*
X0380473Y0473524D03*
X0380473Y0473131D03*
X0380473Y0472737D03*
X0380473Y0472343D03*
X0380473Y0471950D03*
X0380473Y0471556D03*
X0380473Y0471162D03*
X0380473Y0470769D03*
X0380473Y0470375D03*
D27*
X0350749Y0474706D03*
X0350749Y0475099D03*
X0344056Y0475099D03*
X0344056Y0474706D03*
X0316891Y0475887D03*
X0305080Y0473524D03*
X0305080Y0473131D03*
X0305080Y0472737D03*
X0305080Y0472343D03*
X0295237Y0472343D03*
X0295237Y0472737D03*
X0295237Y0473131D03*
X0295237Y0473524D03*
D28*
X0347206Y0470375D03*
D29*
X0331457Y0468013D03*
X0308623Y0468013D03*
X0298780Y0468013D03*
X0267284Y0468013D03*
X0257835Y0468013D03*
X0378702Y0468013D03*
D30*
X0357245Y0468013D03*
D31*
X0344194Y0465981D03*
X0344194Y0458107D03*
D32*
X0344194Y0465784D03*
D33*
X0344194Y0465587D03*
X0344194Y0458461D03*
D34*
X0344194Y0465391D03*
D35*
X0344194Y0465194D03*
D36*
X0344194Y0464997D03*
D37*
X0376871Y0464800D03*
X0376871Y0459249D03*
D38*
X0341044Y0464800D03*
D39*
X0310335Y0463422D03*
X0296422Y0454316D03*
X0296422Y0452347D03*
X0271225Y0454316D03*
X0243076Y0452347D03*
X0377461Y0459446D03*
X0377461Y0464603D03*
D40*
X0364961Y0464603D03*
D41*
X0366044Y0463422D03*
X0358564Y0462438D03*
X0355414Y0464603D03*
X0350099Y0463422D03*
X0361973Y0451717D03*
X0373721Y0463816D03*
X0327265Y0463422D03*
X0310989Y0453725D03*
X0303902Y0454316D03*
X0303902Y0454513D03*
X0300950Y0450930D03*
X0300950Y0450733D03*
X0291304Y0450379D03*
X0286776Y0450379D03*
X0260989Y0451717D03*
X0225162Y0450379D03*
X0215910Y0451717D03*
D42*
X0312402Y0464209D03*
X0312402Y0464406D03*
X0349017Y0464406D03*
X0349017Y0464209D03*
X0349017Y0464013D03*
X0349017Y0463816D03*
X0349017Y0464603D03*
D43*
X0350001Y0461414D03*
X0350001Y0460430D03*
X0350001Y0460233D03*
X0345733Y0455300D03*
X0343308Y0459879D03*
X0343308Y0460076D03*
X0343308Y0460233D03*
X0343308Y0460430D03*
X0343308Y0460863D03*
X0343308Y0461060D03*
X0343308Y0461217D03*
X0343308Y0461414D03*
X0343308Y0461847D03*
X0343308Y0462044D03*
X0343308Y0462241D03*
X0343308Y0462438D03*
X0343308Y0462635D03*
X0343308Y0462831D03*
X0343308Y0463028D03*
X0343308Y0463225D03*
X0343308Y0463422D03*
X0343308Y0463619D03*
X0343308Y0463816D03*
X0343308Y0464013D03*
X0343308Y0464209D03*
X0343308Y0464406D03*
X0343308Y0464603D03*
X0341339Y0462635D03*
X0341339Y0462438D03*
X0341339Y0462241D03*
X0341339Y0462044D03*
X0341339Y0461847D03*
X0341339Y0461414D03*
X0341339Y0461217D03*
X0341339Y0461060D03*
X0341339Y0460863D03*
X0336812Y0460863D03*
X0336812Y0460430D03*
X0336812Y0460233D03*
X0336812Y0462438D03*
X0336812Y0462635D03*
X0338646Y0454119D03*
X0349473Y0450576D03*
X0357875Y0463619D03*
X0361418Y0462635D03*
X0361418Y0462438D03*
X0361418Y0462241D03*
X0361418Y0462044D03*
X0361418Y0461217D03*
X0361418Y0461060D03*
X0361418Y0460863D03*
X0366143Y0460863D03*
X0366143Y0461060D03*
X0366143Y0461217D03*
X0366143Y0461414D03*
X0366143Y0461847D03*
X0366143Y0462044D03*
X0366143Y0462241D03*
X0366143Y0462438D03*
X0366143Y0462635D03*
X0370867Y0462831D03*
X0370867Y0463028D03*
X0370867Y0463225D03*
X0370867Y0463422D03*
X0370867Y0462044D03*
X0370867Y0461847D03*
X0372442Y0463028D03*
X0372639Y0463225D03*
X0375001Y0463225D03*
X0375394Y0462044D03*
X0361481Y0452938D03*
X0359709Y0454119D03*
X0327363Y0462635D03*
X0322639Y0462635D03*
X0322639Y0462438D03*
X0322639Y0460863D03*
X0318111Y0460863D03*
X0318111Y0462635D03*
X0318111Y0462831D03*
X0316143Y0462438D03*
X0316143Y0462241D03*
X0316143Y0462044D03*
X0316143Y0461847D03*
X0316143Y0461414D03*
X0316143Y0461217D03*
X0316143Y0461060D03*
X0316143Y0460863D03*
X0313646Y0454119D03*
X0311087Y0454119D03*
X0321520Y0452741D03*
X0260497Y0452938D03*
X0256954Y0454119D03*
X0254394Y0454119D03*
X0251442Y0455300D03*
X0246717Y0452741D03*
X0233528Y0450576D03*
X0228017Y0454119D03*
X0219552Y0452938D03*
X0215418Y0452938D03*
X0206954Y0454119D03*
D44*
X0329725Y0463816D03*
X0329725Y0464013D03*
X0329725Y0464209D03*
X0329725Y0464406D03*
X0329725Y0464603D03*
D45*
X0312501Y0464603D03*
D46*
X0296520Y0454709D03*
X0296520Y0454513D03*
X0296520Y0451914D03*
X0271324Y0450930D03*
X0271324Y0454513D03*
X0361024Y0463619D03*
X0377757Y0464406D03*
D47*
X0364765Y0464406D03*
D48*
X0363780Y0461847D03*
X0363780Y0461414D03*
X0371457Y0460076D03*
X0371457Y0459879D03*
X0366993Y0453922D03*
X0370733Y0450379D03*
X0373883Y0450379D03*
X0355316Y0460863D03*
X0355316Y0461060D03*
X0355316Y0461217D03*
X0355316Y0461414D03*
X0355316Y0461847D03*
X0355316Y0462044D03*
X0355316Y0462241D03*
X0355316Y0462438D03*
X0355316Y0463422D03*
X0355316Y0463619D03*
X0355316Y0463816D03*
X0355316Y0464013D03*
X0355316Y0464209D03*
X0355316Y0464406D03*
X0342780Y0450379D03*
X0325001Y0461414D03*
X0325001Y0461847D03*
X0322639Y0460076D03*
X0318568Y0450379D03*
X0304001Y0454709D03*
X0300851Y0450576D03*
X0266206Y0450379D03*
X0229591Y0453135D03*
X0220143Y0451717D03*
X0212269Y0450379D03*
D49*
X0296619Y0451717D03*
X0309942Y0463028D03*
X0310139Y0463225D03*
X0336517Y0463619D03*
X0372737Y0460430D03*
X0377855Y0459879D03*
X0378052Y0460076D03*
X0377855Y0464209D03*
D50*
X0364666Y0464209D03*
D51*
X0372639Y0460233D03*
X0378150Y0460233D03*
X0378347Y0460430D03*
X0378544Y0461060D03*
X0378544Y0463028D03*
X0378347Y0463619D03*
X0378150Y0463816D03*
X0378150Y0464013D03*
X0310434Y0459879D03*
X0309843Y0462635D03*
X0309843Y0462831D03*
X0296717Y0454906D03*
X0271324Y0454709D03*
X0271324Y0450733D03*
X0242780Y0454316D03*
X0242780Y0454513D03*
D52*
X0246619Y0451560D03*
X0251540Y0454513D03*
X0263154Y0451363D03*
X0278706Y0451363D03*
X0286776Y0454119D03*
X0316044Y0460430D03*
X0318209Y0460430D03*
X0318209Y0460233D03*
X0318209Y0463028D03*
X0316044Y0462831D03*
X0316044Y0462635D03*
X0322737Y0462831D03*
X0327265Y0462831D03*
X0327265Y0460430D03*
X0331989Y0460430D03*
X0331989Y0460233D03*
X0331989Y0460076D03*
X0331989Y0459879D03*
X0331989Y0460863D03*
X0331989Y0461060D03*
X0331989Y0461217D03*
X0331989Y0461414D03*
X0331989Y0461847D03*
X0331989Y0462044D03*
X0331989Y0462241D03*
X0331989Y0462438D03*
X0331989Y0462635D03*
X0331989Y0462831D03*
X0334351Y0462635D03*
X0336910Y0462831D03*
X0336910Y0463028D03*
X0336910Y0460076D03*
X0341241Y0460430D03*
X0341241Y0462831D03*
X0345375Y0462831D03*
X0345375Y0462635D03*
X0345375Y0462438D03*
X0345375Y0462241D03*
X0345375Y0462044D03*
X0345375Y0461847D03*
X0345375Y0461414D03*
X0345375Y0461217D03*
X0345375Y0461060D03*
X0345375Y0460863D03*
X0345375Y0460430D03*
X0345375Y0460233D03*
X0345375Y0460076D03*
X0345375Y0459879D03*
X0349902Y0460076D03*
X0352265Y0462635D03*
X0352658Y0463619D03*
X0354824Y0463225D03*
X0354824Y0463028D03*
X0354824Y0462831D03*
X0354824Y0462635D03*
X0361517Y0462831D03*
X0361517Y0460430D03*
X0366044Y0460430D03*
X0368406Y0462635D03*
X0370965Y0461414D03*
X0370965Y0461217D03*
X0373918Y0461414D03*
X0373918Y0462635D03*
X0373721Y0464013D03*
X0373721Y0460076D03*
X0377918Y0454119D03*
X0368666Y0453922D03*
X0366894Y0454119D03*
X0364139Y0451363D03*
X0359808Y0451363D03*
X0345831Y0454513D03*
X0329296Y0454119D03*
X0326343Y0451363D03*
X0321619Y0451560D03*
X0238154Y0450576D03*
X0223981Y0451363D03*
X0222209Y0451363D03*
X0218076Y0451363D03*
D53*
X0364568Y0464013D03*
D54*
X0312304Y0464013D03*
X0312304Y0463816D03*
D55*
X0364469Y0463816D03*
D56*
X0358564Y0460233D03*
X0362761Y0450379D03*
X0371028Y0450930D03*
X0371225Y0453135D03*
X0371225Y0453331D03*
X0371225Y0453528D03*
X0371225Y0453725D03*
X0374375Y0453725D03*
X0374375Y0453528D03*
X0374375Y0453331D03*
X0374375Y0453135D03*
X0374178Y0450930D03*
X0374509Y0462438D03*
X0373721Y0463619D03*
X0342879Y0450930D03*
X0342879Y0450733D03*
X0329690Y0450379D03*
X0322997Y0453922D03*
X0327265Y0459879D03*
X0303706Y0453922D03*
X0303706Y0453725D03*
X0301146Y0451560D03*
X0301146Y0451363D03*
X0286776Y0453922D03*
X0261776Y0450379D03*
X0261383Y0451914D03*
X0221028Y0450379D03*
X0216698Y0450379D03*
X0216304Y0451914D03*
D57*
X0212269Y0450733D03*
X0212269Y0453725D03*
X0220930Y0453725D03*
X0220930Y0450576D03*
X0225261Y0453528D03*
X0229001Y0453528D03*
X0229001Y0453331D03*
X0229001Y0453725D03*
X0232938Y0450733D03*
X0233331Y0449394D03*
X0237465Y0450733D03*
X0238056Y0449394D03*
X0248095Y0450576D03*
X0248095Y0453725D03*
X0266206Y0453725D03*
X0266206Y0450733D03*
X0318568Y0450733D03*
X0318568Y0453725D03*
X0322898Y0453725D03*
X0322898Y0450576D03*
X0348883Y0450733D03*
X0349276Y0449394D03*
X0362859Y0450576D03*
X0362859Y0453725D03*
X0367780Y0450379D03*
X0369883Y0463619D03*
D58*
X0365946Y0463619D03*
X0367583Y0453725D03*
X0367583Y0450576D03*
X0362859Y0450733D03*
X0362859Y0453331D03*
X0362859Y0453528D03*
X0349080Y0453528D03*
X0349276Y0449749D03*
X0349276Y0449591D03*
X0339434Y0453725D03*
X0334119Y0450576D03*
X0329788Y0453725D03*
X0322898Y0453528D03*
X0322898Y0450733D03*
X0318568Y0450930D03*
X0318568Y0453331D03*
X0318568Y0453528D03*
X0314237Y0453725D03*
X0327166Y0463619D03*
X0349804Y0463619D03*
X0378607Y0453725D03*
X0291402Y0453528D03*
X0291402Y0450930D03*
X0280182Y0453331D03*
X0266206Y0453331D03*
X0266206Y0453528D03*
X0266206Y0450930D03*
X0261875Y0453528D03*
X0248095Y0453528D03*
X0248095Y0450733D03*
X0238056Y0449591D03*
X0237662Y0450930D03*
X0237662Y0453725D03*
X0233135Y0453528D03*
X0233331Y0449749D03*
X0233331Y0449591D03*
X0225261Y0450930D03*
X0225261Y0453331D03*
X0220930Y0453528D03*
X0220930Y0450733D03*
X0216796Y0453528D03*
X0212269Y0453528D03*
X0212269Y0453331D03*
X0212269Y0450930D03*
D59*
X0212269Y0453922D03*
X0217387Y0452544D03*
X0221520Y0452544D03*
X0225261Y0453922D03*
X0248095Y0453922D03*
X0248095Y0450379D03*
X0254394Y0453725D03*
X0262465Y0452544D03*
X0266206Y0453922D03*
X0280182Y0453922D03*
X0279985Y0450379D03*
X0291402Y0453922D03*
X0303804Y0454119D03*
X0315355Y0463619D03*
X0318898Y0463619D03*
X0322639Y0463422D03*
X0318568Y0453922D03*
X0322898Y0450379D03*
X0340552Y0463619D03*
X0346064Y0463619D03*
X0343174Y0453725D03*
X0343174Y0453528D03*
X0343174Y0453331D03*
X0343174Y0453135D03*
X0342780Y0450576D03*
X0358662Y0460430D03*
X0358662Y0460863D03*
X0358662Y0461060D03*
X0358662Y0461217D03*
X0358662Y0461414D03*
X0358662Y0461847D03*
X0358662Y0462044D03*
X0358662Y0462241D03*
X0363450Y0452544D03*
X0370930Y0450733D03*
X0370930Y0450576D03*
X0374080Y0450576D03*
X0374080Y0450733D03*
D60*
X0378446Y0460863D03*
X0378643Y0461217D03*
X0378643Y0461414D03*
X0378643Y0461847D03*
X0378643Y0462044D03*
X0378643Y0462241D03*
X0378643Y0462438D03*
X0378643Y0462635D03*
X0378643Y0462831D03*
X0378446Y0463225D03*
X0378446Y0463422D03*
X0331595Y0463619D03*
X0310139Y0460076D03*
X0309942Y0460430D03*
X0309942Y0460863D03*
X0309745Y0461414D03*
X0309745Y0461847D03*
X0309745Y0462044D03*
X0309745Y0462241D03*
X0309745Y0462438D03*
X0296816Y0451560D03*
X0280083Y0451914D03*
X0280083Y0452347D03*
X0280083Y0452544D03*
X0242682Y0454709D03*
X0225359Y0452544D03*
X0225359Y0452347D03*
X0225359Y0451914D03*
D61*
X0220930Y0450930D03*
X0237859Y0451363D03*
X0237859Y0453331D03*
X0296914Y0455103D03*
X0310040Y0460233D03*
X0322639Y0463619D03*
X0329591Y0453331D03*
X0329591Y0450930D03*
X0339237Y0453331D03*
X0367387Y0453331D03*
X0367387Y0450930D03*
X0378410Y0453331D03*
D62*
X0310631Y0463619D03*
D63*
X0303509Y0453331D03*
X0303509Y0453135D03*
X0301343Y0451914D03*
X0291304Y0453725D03*
X0286776Y0453725D03*
X0286776Y0450576D03*
X0280083Y0450576D03*
X0271225Y0450379D03*
X0271225Y0455103D03*
X0233036Y0453922D03*
X0225162Y0450576D03*
X0208036Y0453331D03*
X0208036Y0453528D03*
X0208036Y0453725D03*
X0348981Y0453922D03*
X0358367Y0459879D03*
X0373721Y0463422D03*
D64*
X0372245Y0462438D03*
X0372245Y0462241D03*
X0372245Y0462044D03*
X0372245Y0461847D03*
X0375394Y0461414D03*
X0375394Y0461217D03*
X0369095Y0463422D03*
X0363780Y0462831D03*
X0359646Y0463422D03*
X0352954Y0463422D03*
X0347048Y0459879D03*
X0335040Y0463422D03*
X0330316Y0463422D03*
X0325001Y0462831D03*
X0322639Y0461847D03*
X0322639Y0461414D03*
X0313780Y0462831D03*
X0269355Y0453331D03*
D65*
X0269552Y0454119D03*
X0269552Y0451363D03*
X0273095Y0454119D03*
X0262859Y0452741D03*
X0258528Y0453135D03*
X0256954Y0453922D03*
X0254394Y0453922D03*
X0244749Y0452741D03*
X0244355Y0453922D03*
X0234513Y0453135D03*
X0234513Y0451560D03*
X0229788Y0452938D03*
X0219749Y0451560D03*
X0217780Y0452741D03*
X0294552Y0452741D03*
X0294749Y0452544D03*
X0294552Y0453922D03*
X0294749Y0454119D03*
X0302229Y0452347D03*
X0302426Y0452544D03*
X0302623Y0452938D03*
X0304198Y0455103D03*
X0313646Y0453922D03*
X0315221Y0452938D03*
X0318505Y0459879D03*
X0318505Y0463422D03*
X0315749Y0463422D03*
X0313780Y0462438D03*
X0313780Y0462241D03*
X0313780Y0462044D03*
X0325001Y0462241D03*
X0325001Y0462438D03*
X0325001Y0461060D03*
X0325001Y0460863D03*
X0329528Y0461060D03*
X0329528Y0461217D03*
X0329528Y0461414D03*
X0329528Y0461847D03*
X0329528Y0462044D03*
X0329528Y0462241D03*
X0332284Y0463422D03*
X0334450Y0462241D03*
X0334450Y0462044D03*
X0334450Y0461847D03*
X0334450Y0461414D03*
X0334450Y0461217D03*
X0334450Y0461060D03*
X0334450Y0460863D03*
X0334450Y0460430D03*
X0334450Y0460233D03*
X0334450Y0460076D03*
X0337206Y0463422D03*
X0338977Y0462241D03*
X0338977Y0462044D03*
X0340946Y0463422D03*
X0347835Y0461060D03*
X0347835Y0460863D03*
X0349607Y0462044D03*
X0350001Y0463225D03*
X0352363Y0462241D03*
X0352363Y0462044D03*
X0352363Y0461847D03*
X0352363Y0461414D03*
X0352363Y0461217D03*
X0352363Y0461060D03*
X0352363Y0460863D03*
X0352363Y0460430D03*
X0352363Y0460233D03*
X0352363Y0460076D03*
X0352363Y0459879D03*
X0350457Y0453135D03*
X0350457Y0451560D03*
X0359709Y0450930D03*
X0359709Y0450733D03*
X0361678Y0451560D03*
X0363843Y0452741D03*
X0362859Y0454119D03*
X0359709Y0453725D03*
X0359709Y0453528D03*
X0366009Y0453135D03*
X0368568Y0453135D03*
X0368505Y0459879D03*
X0368505Y0460076D03*
X0368505Y0460233D03*
X0368505Y0460430D03*
X0368505Y0460863D03*
X0368505Y0461060D03*
X0368505Y0461217D03*
X0368505Y0461414D03*
X0368505Y0461847D03*
X0368505Y0462044D03*
X0368505Y0462241D03*
X0371261Y0460863D03*
X0363780Y0460863D03*
X0363780Y0461060D03*
X0363780Y0462241D03*
X0363780Y0462438D03*
X0361812Y0463422D03*
X0379591Y0453135D03*
X0334709Y0450379D03*
X0326245Y0450733D03*
X0326245Y0450930D03*
D66*
X0327265Y0460863D03*
X0327265Y0461060D03*
X0327265Y0461217D03*
X0327265Y0461414D03*
X0327265Y0461847D03*
X0327265Y0462044D03*
X0327265Y0462241D03*
X0327265Y0462438D03*
X0322737Y0462241D03*
X0322737Y0462044D03*
X0322737Y0461217D03*
X0322737Y0461060D03*
X0320375Y0462831D03*
X0318013Y0462438D03*
X0318013Y0462241D03*
X0318013Y0462044D03*
X0318013Y0461847D03*
X0318013Y0461414D03*
X0318013Y0461217D03*
X0318013Y0461060D03*
X0336713Y0461414D03*
X0336713Y0461847D03*
X0336713Y0462044D03*
X0336713Y0462241D03*
X0339076Y0462831D03*
X0347737Y0462831D03*
X0350099Y0461217D03*
X0350099Y0461060D03*
X0350099Y0460863D03*
X0354627Y0460430D03*
X0354627Y0460233D03*
X0354627Y0460076D03*
X0354627Y0459879D03*
X0357776Y0462831D03*
X0357776Y0463028D03*
X0357776Y0463225D03*
X0357776Y0463422D03*
X0361320Y0461847D03*
X0361320Y0461414D03*
X0370769Y0462241D03*
X0370769Y0462438D03*
X0370769Y0462635D03*
X0372343Y0462635D03*
X0372343Y0462831D03*
X0373918Y0461217D03*
X0375099Y0460863D03*
X0375296Y0461060D03*
X0375493Y0461847D03*
X0375296Y0462635D03*
X0375296Y0462831D03*
X0375296Y0463028D03*
D67*
X0377918Y0453922D03*
X0365650Y0459879D03*
X0363682Y0461217D03*
X0363682Y0462044D03*
X0366044Y0463225D03*
X0361910Y0459879D03*
X0358367Y0462635D03*
X0347934Y0462438D03*
X0345769Y0463422D03*
X0340847Y0459879D03*
X0338879Y0460863D03*
X0334351Y0459879D03*
X0327265Y0460076D03*
X0324902Y0461217D03*
X0324902Y0462044D03*
X0322737Y0463225D03*
X0320375Y0462241D03*
X0320375Y0462044D03*
X0320375Y0461847D03*
X0320375Y0461414D03*
X0320375Y0461217D03*
X0320375Y0461060D03*
X0315650Y0459879D03*
X0313682Y0460863D03*
X0310989Y0453922D03*
X0312761Y0453135D03*
X0315123Y0453135D03*
X0304099Y0454906D03*
X0300753Y0450379D03*
X0272997Y0451363D03*
X0256068Y0453135D03*
X0244257Y0454119D03*
X0222013Y0452741D03*
X0208627Y0453135D03*
X0327265Y0463225D03*
X0338745Y0453922D03*
X0340320Y0453135D03*
D68*
X0340517Y0452938D03*
X0340517Y0452741D03*
X0340517Y0452544D03*
X0340517Y0452347D03*
X0340517Y0451914D03*
X0340517Y0451717D03*
X0340517Y0451560D03*
X0340517Y0451363D03*
X0340517Y0450930D03*
X0340517Y0450733D03*
X0340517Y0450576D03*
X0337761Y0450576D03*
X0337761Y0450733D03*
X0337761Y0450930D03*
X0337761Y0451363D03*
X0337761Y0451560D03*
X0337761Y0451717D03*
X0337761Y0451914D03*
X0337761Y0452347D03*
X0337761Y0452544D03*
X0337761Y0452741D03*
X0337957Y0453135D03*
X0340517Y0453922D03*
X0340517Y0454119D03*
X0340517Y0454316D03*
X0340517Y0454513D03*
X0340517Y0454709D03*
X0340517Y0454906D03*
X0343666Y0454906D03*
X0343666Y0454709D03*
X0343666Y0454513D03*
X0343666Y0454316D03*
X0343666Y0454119D03*
X0343666Y0453922D03*
X0343666Y0452938D03*
X0343666Y0452741D03*
X0343666Y0452544D03*
X0343666Y0452347D03*
X0343666Y0451914D03*
X0343666Y0451717D03*
X0343666Y0451560D03*
X0343666Y0451363D03*
X0345831Y0451363D03*
X0345831Y0451560D03*
X0345831Y0451717D03*
X0345831Y0451914D03*
X0345831Y0452347D03*
X0345831Y0452544D03*
X0345831Y0452741D03*
X0345831Y0452938D03*
X0345831Y0453135D03*
X0345831Y0453331D03*
X0345831Y0453528D03*
X0345831Y0453725D03*
X0345831Y0454709D03*
X0345831Y0454906D03*
X0345831Y0450930D03*
X0345831Y0450733D03*
X0345831Y0450576D03*
X0347997Y0449946D03*
X0350556Y0449946D03*
X0350556Y0451717D03*
X0350556Y0451914D03*
X0350556Y0452741D03*
X0350556Y0452938D03*
X0352524Y0454119D03*
X0352524Y0454316D03*
X0352328Y0454513D03*
X0352328Y0454709D03*
X0352131Y0454906D03*
X0352721Y0453922D03*
X0352721Y0453725D03*
X0352918Y0453528D03*
X0352918Y0453331D03*
X0353115Y0453135D03*
X0353115Y0452938D03*
X0353312Y0452741D03*
X0353312Y0452544D03*
X0353509Y0452347D03*
X0353706Y0451914D03*
X0353902Y0451717D03*
X0353902Y0451560D03*
X0354099Y0451363D03*
X0354296Y0450930D03*
X0354296Y0450733D03*
X0354493Y0450576D03*
X0357052Y0452347D03*
X0357052Y0452544D03*
X0356855Y0452741D03*
X0356855Y0452938D03*
X0356658Y0453135D03*
X0356658Y0453331D03*
X0356461Y0453528D03*
X0356461Y0453725D03*
X0356265Y0453922D03*
X0356265Y0454119D03*
X0356068Y0454316D03*
X0356068Y0454513D03*
X0355871Y0454709D03*
X0355871Y0454906D03*
X0357446Y0451914D03*
X0357446Y0451717D03*
X0357643Y0451560D03*
X0357643Y0451363D03*
X0357839Y0450930D03*
X0358036Y0450733D03*
X0358036Y0450576D03*
X0359808Y0450576D03*
X0359808Y0453331D03*
X0361580Y0453135D03*
X0364139Y0453135D03*
X0364139Y0452938D03*
X0365910Y0452938D03*
X0365910Y0452741D03*
X0365910Y0451560D03*
X0365910Y0451363D03*
X0368666Y0451363D03*
X0368666Y0451560D03*
X0368666Y0451717D03*
X0368666Y0451914D03*
X0368666Y0452347D03*
X0368666Y0452544D03*
X0368666Y0452741D03*
X0368666Y0452938D03*
X0368666Y0449946D03*
X0368666Y0449749D03*
X0368666Y0449591D03*
X0368666Y0449394D03*
X0371816Y0451560D03*
X0371816Y0451717D03*
X0371816Y0451914D03*
X0371816Y0452347D03*
X0371816Y0452544D03*
X0371816Y0452741D03*
X0371816Y0452938D03*
X0371816Y0453922D03*
X0371816Y0454119D03*
X0371816Y0454316D03*
X0371816Y0454513D03*
X0371816Y0454709D03*
X0371816Y0454906D03*
X0374965Y0454906D03*
X0374965Y0454709D03*
X0374965Y0454513D03*
X0374965Y0454316D03*
X0374965Y0454119D03*
X0374965Y0453922D03*
X0374965Y0452938D03*
X0374965Y0452741D03*
X0374965Y0452544D03*
X0374965Y0452347D03*
X0374965Y0451914D03*
X0374965Y0451717D03*
X0374965Y0451560D03*
X0377131Y0453135D03*
X0379690Y0452938D03*
X0368406Y0462438D03*
X0366044Y0463028D03*
X0365847Y0460076D03*
X0361713Y0460076D03*
X0361713Y0463225D03*
X0352461Y0462438D03*
X0349706Y0459879D03*
X0347737Y0461217D03*
X0347737Y0462635D03*
X0345572Y0463225D03*
X0341044Y0463225D03*
X0339076Y0462438D03*
X0341044Y0460076D03*
X0337107Y0459879D03*
X0334351Y0462438D03*
X0332186Y0463225D03*
X0329627Y0462438D03*
X0329627Y0460863D03*
X0327265Y0460233D03*
X0327265Y0463028D03*
X0322737Y0463028D03*
X0320375Y0462635D03*
X0320375Y0462438D03*
X0320375Y0460863D03*
X0318406Y0460076D03*
X0315847Y0460076D03*
X0315847Y0463225D03*
X0322737Y0460233D03*
X0322997Y0454119D03*
X0324178Y0453135D03*
X0324375Y0452938D03*
X0324375Y0452741D03*
X0324375Y0451717D03*
X0324375Y0451560D03*
X0324375Y0451363D03*
X0326343Y0450576D03*
X0328115Y0451363D03*
X0328115Y0451560D03*
X0328115Y0451717D03*
X0328115Y0452544D03*
X0328115Y0452741D03*
X0328115Y0452938D03*
X0328312Y0453135D03*
X0330871Y0453135D03*
X0330871Y0452938D03*
X0330871Y0452741D03*
X0330871Y0452544D03*
X0330871Y0452347D03*
X0330871Y0451914D03*
X0330871Y0451717D03*
X0330871Y0451560D03*
X0330871Y0451363D03*
X0333036Y0451363D03*
X0335595Y0451363D03*
X0330871Y0454119D03*
X0330871Y0454316D03*
X0330871Y0454513D03*
X0330871Y0454709D03*
X0330871Y0454906D03*
X0330871Y0455103D03*
X0321619Y0451363D03*
X0320044Y0451717D03*
X0320044Y0451914D03*
X0320044Y0452347D03*
X0320044Y0452544D03*
X0319847Y0453135D03*
X0319847Y0451363D03*
X0317091Y0451560D03*
X0317091Y0451717D03*
X0317091Y0451914D03*
X0317091Y0452347D03*
X0317091Y0452544D03*
X0317091Y0452741D03*
X0317288Y0453135D03*
X0315320Y0452741D03*
X0315320Y0452544D03*
X0315320Y0452347D03*
X0315320Y0451914D03*
X0315320Y0451717D03*
X0315320Y0451560D03*
X0315320Y0451363D03*
X0315320Y0450930D03*
X0315320Y0450733D03*
X0315320Y0450576D03*
X0312761Y0450576D03*
X0312761Y0450733D03*
X0312761Y0450930D03*
X0312761Y0451363D03*
X0312761Y0451560D03*
X0312761Y0451717D03*
X0312761Y0451914D03*
X0312761Y0452347D03*
X0312761Y0452544D03*
X0312761Y0452741D03*
X0312761Y0452938D03*
X0310398Y0453135D03*
X0310202Y0452938D03*
X0310202Y0452741D03*
X0310202Y0452544D03*
X0310202Y0452347D03*
X0310202Y0451914D03*
X0310202Y0451717D03*
X0310202Y0451560D03*
X0310202Y0451363D03*
X0310202Y0450930D03*
X0310202Y0450733D03*
X0310202Y0450576D03*
X0310202Y0450379D03*
X0308430Y0450576D03*
X0308430Y0450733D03*
X0308233Y0450930D03*
X0308036Y0451363D03*
X0308036Y0451560D03*
X0307839Y0451717D03*
X0307839Y0451914D03*
X0307446Y0452347D03*
X0307446Y0452544D03*
X0307249Y0452741D03*
X0307249Y0452938D03*
X0307052Y0453135D03*
X0307052Y0453331D03*
X0306855Y0453528D03*
X0306855Y0453725D03*
X0306658Y0453922D03*
X0306658Y0454119D03*
X0306461Y0454316D03*
X0306461Y0454513D03*
X0306265Y0454709D03*
X0306265Y0454906D03*
X0304296Y0452938D03*
X0304296Y0452741D03*
X0304296Y0452544D03*
X0304296Y0452347D03*
X0304296Y0451914D03*
X0304296Y0451717D03*
X0304296Y0451560D03*
X0304296Y0451363D03*
X0304296Y0450930D03*
X0304296Y0450733D03*
X0302524Y0452741D03*
X0300556Y0452741D03*
X0300556Y0452938D03*
X0300556Y0453135D03*
X0300556Y0453331D03*
X0300556Y0453528D03*
X0300556Y0453725D03*
X0300556Y0453922D03*
X0300556Y0454119D03*
X0300556Y0454316D03*
X0300556Y0454513D03*
X0300556Y0454709D03*
X0300556Y0454906D03*
X0300556Y0452544D03*
X0300556Y0452347D03*
X0298194Y0452544D03*
X0298194Y0452741D03*
X0298194Y0452938D03*
X0298194Y0453135D03*
X0298194Y0453331D03*
X0298194Y0453528D03*
X0298194Y0453725D03*
X0298194Y0453922D03*
X0298194Y0454119D03*
X0298194Y0450930D03*
X0298194Y0450733D03*
X0298194Y0450576D03*
X0294454Y0452938D03*
X0294454Y0453135D03*
X0294454Y0453331D03*
X0294454Y0453528D03*
X0294454Y0453725D03*
X0292682Y0453135D03*
X0292682Y0452938D03*
X0292879Y0452544D03*
X0292879Y0452347D03*
X0292879Y0451914D03*
X0292682Y0451363D03*
X0289926Y0451560D03*
X0289926Y0451717D03*
X0289926Y0451914D03*
X0289926Y0452347D03*
X0289926Y0452544D03*
X0289926Y0452741D03*
X0290123Y0453135D03*
X0288154Y0452938D03*
X0288154Y0452741D03*
X0287957Y0453135D03*
X0288154Y0451560D03*
X0288154Y0451363D03*
X0285398Y0451363D03*
X0285398Y0451560D03*
X0285398Y0452938D03*
X0285595Y0453135D03*
X0283430Y0453135D03*
X0283430Y0453331D03*
X0283430Y0453528D03*
X0283430Y0453725D03*
X0283430Y0453922D03*
X0283430Y0454119D03*
X0283430Y0454316D03*
X0283430Y0454513D03*
X0283430Y0454709D03*
X0283430Y0454906D03*
X0283430Y0455103D03*
X0283430Y0452938D03*
X0283430Y0452741D03*
X0283430Y0452544D03*
X0283430Y0452347D03*
X0283430Y0451914D03*
X0283430Y0451717D03*
X0283430Y0451560D03*
X0283430Y0451363D03*
X0283430Y0450930D03*
X0283430Y0450733D03*
X0283430Y0450576D03*
X0283430Y0450379D03*
X0281461Y0451363D03*
X0281461Y0451560D03*
X0281461Y0452938D03*
X0278902Y0453135D03*
X0276737Y0451717D03*
X0276737Y0451560D03*
X0276934Y0451363D03*
X0277131Y0450930D03*
X0277131Y0450733D03*
X0277328Y0450576D03*
X0276540Y0451914D03*
X0276343Y0452347D03*
X0276146Y0452544D03*
X0276146Y0452741D03*
X0275950Y0452938D03*
X0275950Y0453135D03*
X0275753Y0453331D03*
X0275753Y0453528D03*
X0275556Y0453725D03*
X0275556Y0453922D03*
X0275359Y0454119D03*
X0275359Y0454316D03*
X0275162Y0454513D03*
X0275162Y0454709D03*
X0274965Y0454906D03*
X0273391Y0453725D03*
X0273391Y0453528D03*
X0273391Y0453331D03*
X0273391Y0453135D03*
X0273391Y0452938D03*
X0273391Y0452741D03*
X0273391Y0452544D03*
X0273391Y0452347D03*
X0273391Y0451914D03*
X0273391Y0451717D03*
X0273194Y0451560D03*
X0273194Y0453922D03*
X0269454Y0453922D03*
X0269454Y0453725D03*
X0269257Y0451717D03*
X0269454Y0451560D03*
X0267682Y0451717D03*
X0267682Y0451914D03*
X0267682Y0452347D03*
X0267682Y0452544D03*
X0267485Y0453135D03*
X0267485Y0451363D03*
X0264729Y0451560D03*
X0264729Y0451717D03*
X0264729Y0451914D03*
X0264729Y0452347D03*
X0264729Y0452544D03*
X0264729Y0452741D03*
X0264926Y0453135D03*
X0261776Y0454119D03*
X0260595Y0451560D03*
X0258627Y0451560D03*
X0258627Y0451717D03*
X0258627Y0451914D03*
X0258627Y0452347D03*
X0258627Y0452544D03*
X0258627Y0452741D03*
X0258627Y0452938D03*
X0258627Y0453922D03*
X0258627Y0451363D03*
X0258627Y0450930D03*
X0258627Y0450733D03*
X0258627Y0450576D03*
X0258627Y0450379D03*
X0256068Y0450576D03*
X0256068Y0450733D03*
X0256068Y0450930D03*
X0256068Y0451363D03*
X0256068Y0451560D03*
X0256068Y0451717D03*
X0256068Y0451914D03*
X0256068Y0452347D03*
X0256068Y0452544D03*
X0256068Y0452741D03*
X0256068Y0452938D03*
X0253706Y0453135D03*
X0253509Y0452741D03*
X0253509Y0452544D03*
X0253509Y0452347D03*
X0253509Y0451914D03*
X0253509Y0451717D03*
X0253509Y0451560D03*
X0253509Y0451363D03*
X0253509Y0450930D03*
X0253509Y0450733D03*
X0253509Y0450576D03*
X0251540Y0450576D03*
X0251540Y0450733D03*
X0251540Y0450930D03*
X0251540Y0451363D03*
X0251540Y0451560D03*
X0251540Y0451717D03*
X0251540Y0451914D03*
X0251540Y0452347D03*
X0251540Y0452544D03*
X0251540Y0452741D03*
X0251540Y0452938D03*
X0251540Y0453135D03*
X0251540Y0453331D03*
X0251540Y0453528D03*
X0251540Y0453725D03*
X0251540Y0454709D03*
X0251540Y0454906D03*
X0249572Y0452938D03*
X0249572Y0452741D03*
X0249572Y0452544D03*
X0249572Y0452347D03*
X0249572Y0451914D03*
X0249572Y0451717D03*
X0249572Y0451560D03*
X0249375Y0453135D03*
X0246816Y0453135D03*
X0244847Y0452544D03*
X0244650Y0452938D03*
X0244650Y0453135D03*
X0244650Y0453331D03*
X0244454Y0453528D03*
X0244454Y0453725D03*
X0245044Y0451363D03*
X0245241Y0450930D03*
X0245241Y0450733D03*
X0245241Y0450576D03*
X0241304Y0450576D03*
X0241304Y0450733D03*
X0241304Y0450930D03*
X0241304Y0451363D03*
X0241304Y0450379D03*
X0241304Y0452544D03*
X0241304Y0452741D03*
X0241304Y0452938D03*
X0241304Y0453135D03*
X0241304Y0453331D03*
X0241304Y0453528D03*
X0241304Y0453725D03*
X0241304Y0453922D03*
X0241304Y0454119D03*
X0239139Y0453135D03*
X0239335Y0452741D03*
X0239335Y0452544D03*
X0239335Y0452347D03*
X0239335Y0451914D03*
X0239139Y0451717D03*
X0239139Y0451560D03*
X0236580Y0451560D03*
X0236580Y0451717D03*
X0236580Y0451914D03*
X0236580Y0452347D03*
X0236580Y0452544D03*
X0236580Y0452741D03*
X0236580Y0452938D03*
X0236580Y0453135D03*
X0237761Y0454119D03*
X0234611Y0452938D03*
X0234611Y0452741D03*
X0234611Y0451914D03*
X0234611Y0451717D03*
X0234611Y0449946D03*
X0236580Y0450379D03*
X0236580Y0450576D03*
X0236776Y0449946D03*
X0232052Y0449946D03*
X0229887Y0450379D03*
X0229887Y0450576D03*
X0229887Y0450733D03*
X0229887Y0450930D03*
X0229887Y0451363D03*
X0229887Y0451560D03*
X0229887Y0451717D03*
X0229887Y0451914D03*
X0229887Y0452347D03*
X0229887Y0452544D03*
X0229887Y0452741D03*
X0229887Y0453922D03*
X0228115Y0453922D03*
X0226540Y0453135D03*
X0226540Y0451363D03*
X0223981Y0452938D03*
X0222209Y0452938D03*
X0222209Y0453135D03*
X0221028Y0454119D03*
X0219650Y0451363D03*
X0216698Y0454119D03*
X0215517Y0451560D03*
X0213745Y0451717D03*
X0213745Y0451914D03*
X0213745Y0452347D03*
X0213745Y0452544D03*
X0213548Y0453135D03*
X0213548Y0451363D03*
X0210792Y0451560D03*
X0210792Y0451717D03*
X0210792Y0451914D03*
X0210792Y0452347D03*
X0210792Y0452544D03*
X0210792Y0452741D03*
X0210989Y0453135D03*
X0208824Y0452938D03*
X0208824Y0452741D03*
X0207249Y0453922D03*
D69*
X0208922Y0453922D03*
X0208922Y0452544D03*
X0208922Y0452347D03*
X0208922Y0451914D03*
X0208922Y0451717D03*
X0208922Y0451560D03*
X0208922Y0451363D03*
X0208922Y0450930D03*
X0208922Y0450733D03*
X0208922Y0450576D03*
X0208922Y0450379D03*
X0210891Y0451363D03*
X0210891Y0452938D03*
X0212269Y0454119D03*
X0213646Y0452938D03*
X0213646Y0452741D03*
X0213646Y0451560D03*
X0215418Y0451363D03*
X0215418Y0453135D03*
X0217977Y0453135D03*
X0217977Y0452938D03*
X0219749Y0453135D03*
X0223883Y0452741D03*
X0224080Y0453135D03*
X0225261Y0454119D03*
X0226639Y0452938D03*
X0226639Y0452741D03*
X0226639Y0451717D03*
X0226639Y0451560D03*
X0231954Y0451560D03*
X0231954Y0451717D03*
X0231954Y0451914D03*
X0231954Y0452347D03*
X0231954Y0452544D03*
X0231954Y0452741D03*
X0231954Y0452938D03*
X0231954Y0453135D03*
X0233135Y0454119D03*
X0234709Y0452544D03*
X0234709Y0452347D03*
X0231954Y0450576D03*
X0231954Y0450379D03*
X0239237Y0449946D03*
X0239237Y0452938D03*
X0245339Y0450379D03*
X0246717Y0451363D03*
X0246717Y0452938D03*
X0248095Y0454119D03*
X0249473Y0451363D03*
X0251442Y0450379D03*
X0253607Y0450379D03*
X0253607Y0452938D03*
X0251442Y0453922D03*
X0251442Y0455103D03*
X0256166Y0450379D03*
X0260497Y0451363D03*
X0260497Y0453135D03*
X0263056Y0453135D03*
X0263056Y0452938D03*
X0264828Y0452938D03*
X0264828Y0451363D03*
X0267583Y0451560D03*
X0267583Y0452741D03*
X0267583Y0452938D03*
X0266206Y0454119D03*
X0269355Y0453528D03*
X0269355Y0451914D03*
X0271127Y0455300D03*
X0274867Y0455103D03*
X0278804Y0452938D03*
X0278804Y0452741D03*
X0280182Y0454119D03*
X0281363Y0453135D03*
X0281560Y0452741D03*
X0281560Y0451717D03*
X0285300Y0451717D03*
X0285300Y0451914D03*
X0285300Y0452347D03*
X0285300Y0452544D03*
X0285300Y0452741D03*
X0288253Y0452544D03*
X0288253Y0452347D03*
X0288253Y0451914D03*
X0288253Y0451717D03*
X0290024Y0451363D03*
X0290024Y0452938D03*
X0291402Y0454119D03*
X0292780Y0452741D03*
X0292780Y0451717D03*
X0292780Y0451560D03*
X0298292Y0450379D03*
X0300457Y0455103D03*
X0304394Y0450576D03*
X0304394Y0450379D03*
X0308528Y0450379D03*
X0312662Y0450379D03*
X0315221Y0450379D03*
X0317190Y0451363D03*
X0317190Y0452938D03*
X0318568Y0454119D03*
X0319946Y0452938D03*
X0319946Y0452741D03*
X0319946Y0451560D03*
X0321717Y0452938D03*
X0321717Y0453135D03*
X0324473Y0452544D03*
X0324473Y0452347D03*
X0324473Y0451914D03*
X0326245Y0450379D03*
X0328017Y0451914D03*
X0328017Y0452347D03*
X0332938Y0452347D03*
X0332938Y0452544D03*
X0332938Y0452741D03*
X0332938Y0452938D03*
X0332938Y0453135D03*
X0332938Y0453331D03*
X0332938Y0453528D03*
X0332938Y0453725D03*
X0332938Y0453922D03*
X0332938Y0451914D03*
X0332938Y0451717D03*
X0332938Y0451560D03*
X0332938Y0450379D03*
X0335694Y0451560D03*
X0335694Y0451717D03*
X0335694Y0451914D03*
X0335694Y0452347D03*
X0335694Y0452544D03*
X0335694Y0452741D03*
X0335694Y0452938D03*
X0335694Y0453135D03*
X0335694Y0453331D03*
X0335694Y0453528D03*
X0335694Y0453725D03*
X0335694Y0453922D03*
X0337859Y0452938D03*
X0337859Y0450379D03*
X0340615Y0450379D03*
X0340615Y0455103D03*
X0343765Y0455103D03*
X0345733Y0455103D03*
X0345733Y0453922D03*
X0347898Y0453135D03*
X0347898Y0452938D03*
X0347898Y0452741D03*
X0347898Y0452544D03*
X0347898Y0452347D03*
X0347898Y0451914D03*
X0347898Y0451717D03*
X0347898Y0451560D03*
X0347898Y0450576D03*
X0347898Y0450379D03*
X0345733Y0450379D03*
X0349080Y0454119D03*
X0350654Y0452544D03*
X0350654Y0452347D03*
X0352032Y0455103D03*
X0355772Y0455103D03*
X0359709Y0453922D03*
X0359709Y0453135D03*
X0361481Y0451363D03*
X0359709Y0450379D03*
X0358135Y0450379D03*
X0354591Y0450379D03*
X0365812Y0451717D03*
X0365812Y0451914D03*
X0365812Y0452347D03*
X0365812Y0452544D03*
X0371717Y0451363D03*
X0374867Y0451363D03*
X0377032Y0451363D03*
X0377032Y0451560D03*
X0377032Y0451717D03*
X0377032Y0451914D03*
X0377032Y0452347D03*
X0377032Y0452544D03*
X0377032Y0452741D03*
X0377032Y0452938D03*
X0377032Y0450930D03*
X0377032Y0450733D03*
X0377032Y0450576D03*
X0377032Y0450379D03*
X0379788Y0450379D03*
X0379788Y0450576D03*
X0379788Y0450733D03*
X0379788Y0450930D03*
X0379788Y0451363D03*
X0379788Y0451560D03*
X0379788Y0451717D03*
X0379788Y0451914D03*
X0379788Y0452347D03*
X0379788Y0452544D03*
X0379788Y0452741D03*
X0379788Y0453922D03*
X0379788Y0454119D03*
X0379788Y0454316D03*
X0379788Y0454513D03*
X0379788Y0454709D03*
X0379788Y0454906D03*
X0379788Y0455103D03*
X0374867Y0455103D03*
X0371717Y0455103D03*
X0371064Y0461060D03*
X0375198Y0462241D03*
X0366143Y0462831D03*
X0363780Y0462635D03*
X0361615Y0463028D03*
X0361615Y0460233D03*
X0365946Y0460233D03*
X0350001Y0462635D03*
X0350001Y0462831D03*
X0350001Y0463028D03*
X0349804Y0462438D03*
X0349804Y0461847D03*
X0345473Y0463028D03*
X0341143Y0463028D03*
X0338977Y0462635D03*
X0337009Y0463225D03*
X0332087Y0463028D03*
X0329528Y0462635D03*
X0325001Y0462635D03*
X0322639Y0460430D03*
X0318308Y0463225D03*
X0315946Y0463028D03*
X0313780Y0462635D03*
X0315946Y0460233D03*
X0315221Y0453922D03*
X0306166Y0455103D03*
X0277426Y0450379D03*
X0341143Y0460233D03*
D70*
X0338091Y0461060D03*
X0338091Y0461217D03*
X0329887Y0453922D03*
X0329690Y0450576D03*
X0348981Y0450930D03*
X0348981Y0453725D03*
X0348721Y0462241D03*
X0297209Y0451363D03*
X0291304Y0450733D03*
X0286776Y0450733D03*
X0286776Y0453528D03*
X0280083Y0453528D03*
X0280083Y0450733D03*
X0261776Y0450576D03*
X0261776Y0453725D03*
X0257643Y0453725D03*
X0242288Y0455103D03*
X0233036Y0453725D03*
X0233036Y0450930D03*
X0225162Y0450733D03*
X0216698Y0450576D03*
X0216698Y0453725D03*
D71*
X0225359Y0452131D03*
X0280083Y0452131D03*
X0309942Y0460646D03*
X0309745Y0461631D03*
X0378446Y0460646D03*
X0378643Y0461631D03*
D72*
X0375493Y0461631D03*
X0373981Y0450162D03*
X0370831Y0450162D03*
X0361320Y0461631D03*
X0350099Y0460646D03*
X0341438Y0461631D03*
X0336713Y0461631D03*
X0327265Y0461631D03*
X0322997Y0450162D03*
X0318013Y0461631D03*
X0269257Y0452131D03*
X0261776Y0450162D03*
X0216698Y0450162D03*
D73*
X0217977Y0451146D03*
X0215418Y0451146D03*
X0208922Y0451146D03*
X0208922Y0452131D03*
X0231954Y0452131D03*
X0231954Y0450162D03*
X0234709Y0452131D03*
X0260497Y0451146D03*
X0263056Y0451146D03*
X0278804Y0451146D03*
X0285300Y0452131D03*
X0288253Y0452131D03*
X0320276Y0460646D03*
X0325001Y0460646D03*
X0329725Y0460646D03*
X0328017Y0452131D03*
X0324473Y0452131D03*
X0332938Y0452131D03*
X0335694Y0452131D03*
X0338977Y0460646D03*
X0347835Y0460646D03*
X0347898Y0452131D03*
X0347898Y0450162D03*
X0350654Y0452131D03*
X0365812Y0452131D03*
X0368568Y0449178D03*
X0377032Y0451146D03*
X0377032Y0452131D03*
X0379788Y0452131D03*
X0379788Y0451146D03*
X0373820Y0461631D03*
X0363780Y0460646D03*
D74*
X0372245Y0461631D03*
X0362859Y0450162D03*
X0342780Y0450162D03*
X0329591Y0450162D03*
X0318568Y0450162D03*
X0322639Y0461631D03*
X0291402Y0450162D03*
X0286678Y0450162D03*
X0280182Y0450162D03*
X0266206Y0450162D03*
X0248095Y0450162D03*
X0225261Y0450162D03*
X0220930Y0450162D03*
X0212269Y0450162D03*
D75*
X0316143Y0461631D03*
X0318111Y0460646D03*
X0322639Y0460646D03*
X0336812Y0460646D03*
X0343308Y0460646D03*
X0343308Y0461631D03*
X0350001Y0461631D03*
X0361418Y0460646D03*
X0366143Y0461631D03*
X0370867Y0461631D03*
D76*
X0368505Y0461631D03*
X0368505Y0460646D03*
X0368568Y0451146D03*
X0352363Y0460646D03*
X0352363Y0461631D03*
X0343568Y0451146D03*
X0335497Y0451146D03*
X0334450Y0460646D03*
X0334450Y0461631D03*
X0329528Y0461631D03*
X0292583Y0451146D03*
X0249276Y0451146D03*
D77*
X0325001Y0461631D03*
X0355316Y0461631D03*
X0363780Y0461631D03*
D78*
X0358662Y0461631D03*
X0358662Y0460646D03*
X0349276Y0449178D03*
X0301048Y0451146D03*
X0238056Y0449178D03*
X0233331Y0449178D03*
D79*
X0234611Y0450162D03*
X0239335Y0450162D03*
X0316044Y0460646D03*
X0327265Y0460646D03*
X0331989Y0460646D03*
X0331989Y0461631D03*
X0341241Y0460646D03*
X0345375Y0460646D03*
X0345375Y0461631D03*
X0350556Y0450162D03*
X0366044Y0460646D03*
D80*
X0355217Y0460646D03*
X0333233Y0451146D03*
X0320375Y0461631D03*
D81*
X0372343Y0461414D03*
X0373328Y0460863D03*
D82*
X0311123Y0461060D03*
X0311123Y0461217D03*
D83*
X0296520Y0452131D03*
X0372835Y0460646D03*
X0377757Y0459662D03*
D84*
X0374965Y0452131D03*
X0374769Y0451146D03*
X0371816Y0452131D03*
X0371619Y0451146D03*
X0368666Y0450162D03*
X0368666Y0452131D03*
X0366107Y0451146D03*
X0364139Y0451146D03*
X0361580Y0451146D03*
X0359808Y0451146D03*
X0357839Y0451146D03*
X0357249Y0452131D03*
X0354099Y0451146D03*
X0353706Y0452131D03*
X0345831Y0452131D03*
X0345831Y0451146D03*
X0343666Y0452131D03*
X0340517Y0452131D03*
X0340517Y0451146D03*
X0337761Y0451146D03*
X0337761Y0452131D03*
X0330871Y0452131D03*
X0330871Y0451146D03*
X0328312Y0451146D03*
X0326343Y0451146D03*
X0324178Y0451146D03*
X0321816Y0451146D03*
X0319847Y0451146D03*
X0320044Y0452131D03*
X0317288Y0451146D03*
X0317091Y0452131D03*
X0315320Y0452131D03*
X0315320Y0451146D03*
X0312761Y0451146D03*
X0312761Y0452131D03*
X0310202Y0452131D03*
X0310202Y0451146D03*
X0308233Y0451146D03*
X0307643Y0452131D03*
X0304296Y0452131D03*
X0304296Y0451146D03*
X0302131Y0452131D03*
X0300556Y0452131D03*
X0298194Y0451146D03*
X0292879Y0452131D03*
X0290123Y0451146D03*
X0289926Y0452131D03*
X0287957Y0451146D03*
X0285595Y0451146D03*
X0283430Y0451146D03*
X0283430Y0452131D03*
X0281265Y0451146D03*
X0276934Y0451146D03*
X0276540Y0452131D03*
X0273391Y0452131D03*
X0267682Y0452131D03*
X0267485Y0451146D03*
X0264926Y0451146D03*
X0264729Y0452131D03*
X0258627Y0452131D03*
X0258627Y0451146D03*
X0256068Y0451146D03*
X0256068Y0452131D03*
X0253509Y0452131D03*
X0253509Y0451146D03*
X0251540Y0451146D03*
X0251540Y0452131D03*
X0249572Y0452131D03*
X0246816Y0451146D03*
X0245241Y0451146D03*
X0241304Y0451146D03*
X0239335Y0452131D03*
X0236580Y0452131D03*
X0236580Y0450162D03*
X0229887Y0451146D03*
X0229887Y0452131D03*
X0226540Y0451146D03*
X0223981Y0451146D03*
X0222209Y0451146D03*
X0219650Y0451146D03*
X0213745Y0452131D03*
X0213548Y0451146D03*
X0210989Y0451146D03*
X0210792Y0452131D03*
X0313682Y0460646D03*
D85*
X0318568Y0450576D03*
X0322639Y0459879D03*
X0303607Y0453528D03*
X0301245Y0451717D03*
X0291402Y0450576D03*
X0280182Y0453725D03*
X0266206Y0450576D03*
X0262072Y0452347D03*
X0261875Y0453922D03*
X0237662Y0453922D03*
X0225261Y0453725D03*
X0220930Y0453922D03*
X0221127Y0452347D03*
X0220536Y0451914D03*
X0216993Y0452347D03*
X0216796Y0453922D03*
X0212269Y0450576D03*
X0358465Y0460076D03*
X0362859Y0453922D03*
X0363056Y0452347D03*
X0362465Y0451914D03*
D86*
X0351969Y0459662D03*
D87*
X0319292Y0459662D03*
D88*
X0351969Y0459446D03*
D89*
X0319391Y0459446D03*
D90*
X0352560Y0459249D03*
D91*
X0319489Y0459249D03*
D92*
X0355513Y0459091D03*
D93*
X0319587Y0459091D03*
D94*
X0355414Y0458894D03*
D95*
X0319686Y0458894D03*
D96*
X0355316Y0458678D03*
D97*
X0319883Y0458678D03*
D98*
X0344194Y0458284D03*
D99*
X0339335Y0453528D03*
X0334217Y0450930D03*
X0334217Y0450733D03*
X0329690Y0450733D03*
X0329690Y0453528D03*
X0322997Y0453331D03*
X0322997Y0450930D03*
X0349178Y0451363D03*
X0349178Y0453331D03*
X0362761Y0450930D03*
X0367485Y0450733D03*
X0367485Y0453528D03*
X0378509Y0453528D03*
X0291304Y0453331D03*
X0286776Y0453331D03*
X0286776Y0450930D03*
X0280083Y0450930D03*
X0271225Y0450576D03*
X0271225Y0454906D03*
X0261776Y0453331D03*
X0261776Y0450930D03*
X0261776Y0450733D03*
X0248194Y0450930D03*
X0248194Y0453331D03*
X0242485Y0454906D03*
X0237761Y0453528D03*
X0237957Y0449749D03*
X0233233Y0451363D03*
X0233233Y0453331D03*
X0221028Y0453331D03*
X0216698Y0453331D03*
X0216698Y0450930D03*
X0216698Y0450733D03*
D100*
X0256166Y0453331D03*
X0312859Y0453331D03*
X0312859Y0453528D03*
D101*
X0256265Y0453528D03*
D102*
X0261776Y0452131D03*
X0220831Y0452131D03*
X0216698Y0452131D03*
X0362761Y0452131D03*
D103*
X0271225Y0451146D03*
X0243076Y0452131D03*
D104*
X0243174Y0451914D03*
X0243174Y0451717D03*
X0243174Y0451560D03*
D105*
X0233135Y0451146D03*
X0349080Y0451146D03*
D106*
X0237761Y0451146D03*
D107*
X0334808Y0450162D03*
X0367091Y0450162D03*
D108*
X0305661Y0460305D02*
X0303756Y0460111D01*
X0303551Y0459471D01*
X0303243Y0458873D01*
X0304454Y0457389D01*
X0303436Y0456371D01*
X0301952Y0457581D01*
X0301354Y0457273D01*
X0300506Y0459319D01*
X0300885Y0459531D01*
X0301203Y0459826D01*
X0301445Y0460186D01*
X0301595Y0460594D01*
X0301646Y0461024D01*
X0301593Y0461463D01*
X0301437Y0461876D01*
X0301188Y0462241D01*
X0300859Y0462536D01*
X0300469Y0462744D01*
X0300041Y0462854D01*
X0299599Y0462858D01*
X0299169Y0462758D01*
X0298775Y0462558D01*
X0298440Y0462271D01*
X0298182Y0461912D01*
X0298018Y0461502D01*
X0297955Y0461064D01*
X0297999Y0460625D01*
X0298145Y0460208D01*
X0298386Y0459838D01*
X0298709Y0459536D01*
X0299094Y0459319D01*
X0298246Y0457273D01*
X0297648Y0457581D01*
X0296164Y0456371D01*
X0295146Y0457389D01*
X0296357Y0458873D01*
X0296049Y0459471D01*
X0295844Y0460111D01*
X0293939Y0460305D01*
X0293939Y0461744D01*
X0295844Y0461938D01*
X0296049Y0462578D01*
X0296357Y0463176D01*
X0295146Y0464660D01*
X0296164Y0465678D01*
X0297648Y0464468D01*
X0298246Y0464776D01*
X0298887Y0464981D01*
X0299080Y0466886D01*
X0300520Y0466886D01*
X0300713Y0464981D01*
X0301354Y0464776D01*
X0301952Y0464468D01*
X0303436Y0465678D01*
X0304454Y0464660D01*
X0303243Y0463176D01*
X0303551Y0462578D01*
X0303756Y0461938D01*
X0305661Y0461744D01*
X0305661Y0460305D01*
X0305661Y0460335D02*
X0301499Y0460335D01*
X0301634Y0460924D02*
X0305661Y0460924D01*
X0305661Y0461513D02*
X0301574Y0461513D01*
X0301282Y0462103D02*
X0303704Y0462103D01*
X0303493Y0462692D02*
X0300567Y0462692D01*
X0299038Y0462692D02*
X0296107Y0462692D01*
X0296271Y0463281D02*
X0303329Y0463281D01*
X0303809Y0463870D02*
X0295791Y0463870D01*
X0295311Y0464459D02*
X0304289Y0464459D01*
X0304066Y0465048D02*
X0302663Y0465048D01*
X0303385Y0465637D02*
X0303477Y0465637D01*
X0300647Y0465637D02*
X0298953Y0465637D01*
X0299013Y0466226D02*
X0300587Y0466226D01*
X0300527Y0466815D02*
X0299073Y0466815D01*
X0298893Y0465048D02*
X0300707Y0465048D01*
X0296937Y0465048D02*
X0295534Y0465048D01*
X0296123Y0465637D02*
X0296215Y0465637D01*
X0295896Y0462103D02*
X0298319Y0462103D01*
X0298023Y0461513D02*
X0293939Y0461513D01*
X0293939Y0460924D02*
X0297969Y0460924D01*
X0298100Y0460335D02*
X0293939Y0460335D01*
X0295960Y0459746D02*
X0298484Y0459746D01*
X0299027Y0459157D02*
X0296210Y0459157D01*
X0296108Y0458568D02*
X0298783Y0458568D01*
X0298538Y0457979D02*
X0295628Y0457979D01*
X0295148Y0457390D02*
X0297414Y0457390D01*
X0298019Y0457390D02*
X0298294Y0457390D01*
X0296692Y0456801D02*
X0295734Y0456801D01*
X0300817Y0458568D02*
X0303492Y0458568D01*
X0303390Y0459157D02*
X0300573Y0459157D01*
X0301118Y0459746D02*
X0303640Y0459746D01*
X0303972Y0457979D02*
X0301062Y0457979D01*
X0301306Y0457390D02*
X0301581Y0457390D01*
X0302186Y0457390D02*
X0304452Y0457390D01*
X0303866Y0456801D02*
X0302908Y0456801D01*
M02*
