%
M48
M72
T01C0.0138
T02C0.0150
T03C0.0335
T04C0.0400
T05C0.0720
%
T01
X9630Y8352
X7630Y14352
X7630Y16652
X7630Y18652
X7630Y20652
X7630Y22652
X7630Y24652
X7630Y26652
X7630Y28652
X7630Y30652
X7630Y32652
X7630Y34652
X7630Y36652
X7630Y38652
X7630Y40652
X7630Y42652
X7630Y44652
X7630Y46652
X5130Y47352
X5130Y45352
X5130Y43352
X5130Y41352
X5130Y39352
X5130Y37352
X5130Y35352
X5130Y33352
X5130Y31352
X5130Y29352
X5130Y27352
X5130Y25352
X5130Y23352
X5130Y21352
X5130Y19352
X5130Y17352
X5130Y15352
X2630Y14352
X2630Y16652
X2630Y18652
X2630Y20652
X2630Y22652
X2630Y24652
X2630Y26652
X2630Y28652
X2630Y30652
X2630Y32652
X2630Y34652
X2630Y36652
X2630Y38652
X2630Y40652
X2630Y42652
X2630Y44652
X2630Y46652
X10130Y47352
X10130Y45352
X10130Y43352
X10130Y41352
X10130Y39352
X10130Y37352
X10130Y35352
X10130Y33352
X10130Y31352
X10130Y29352
X10130Y27352
X10130Y25352
X10130Y23352
X10130Y21352
X10130Y19352
X10130Y17352
X10130Y15352
X12630Y14352
X12630Y16652
X12630Y18652
X12630Y20652
X12630Y22652
X12630Y24652
X12630Y26652
X12630Y28652
X12630Y30652
X12630Y32652
X12630Y34652
X12630Y36652
X12630Y38652
X12630Y40652
X12630Y42652
X12630Y44652
X12630Y46652
X15130Y47352
X15130Y45352
X15130Y43352
X15130Y41352
X15130Y39352
X15130Y37352
X15130Y35352
X15130Y33352
X15130Y31352
X15130Y29352
X15130Y27352
X15130Y25352
X15130Y23352
X15130Y21352
X15130Y19352
X15130Y17352
X15130Y15352
X17630Y14352
X17630Y16652
X17630Y18652
X17630Y20652
X17630Y22652
X17630Y24652
X17630Y26652
X17630Y28652
X17630Y30652
X17630Y32652
X17630Y34652
X17630Y36652
X17630Y38652
X17630Y40652
X17630Y42652
X17630Y44652
X17630Y46652
X20130Y47352
X20130Y45352
X20130Y43352
X20130Y41352
X20130Y39352
X20130Y37352
X20130Y35352
X20130Y33352
X20130Y31352
X20130Y29352
X20130Y27352
X20130Y25352
X20130Y23352
X20130Y21352
X20130Y19352
X20130Y17352
X20130Y15352
X22630Y14352
X22630Y16652
X22630Y18652
X22630Y20652
X22630Y22652
X22630Y24652
X22630Y26652
X22630Y28652
X22630Y30652
X22630Y32652
X22630Y34652
X22630Y36652
X22630Y38652
X22630Y40652
X22630Y42652
X22630Y44652
X22630Y46652
X25130Y47352
X25130Y45352
X25130Y43352
X25130Y41352
X25130Y39352
X25130Y37352
X25130Y35352
X25130Y33352
X25130Y31352
X25130Y29352
X25130Y27352
X25130Y25352
X25130Y23352
X25130Y21352
X25130Y19352
X25130Y17352
X25130Y15352
X27630Y14352
X27630Y16652
X27630Y18652
X27630Y20652
X27630Y22652
X27630Y24652
X27630Y26652
X27630Y28652
X27630Y30652
X27630Y32652
X27630Y34652
X27630Y36652
X27630Y38652
X27630Y40652
X27630Y42652
X27630Y44652
X27630Y46652
X30130Y47352
X30130Y45352
X30130Y43352
X30130Y41352
X30130Y39352
X30130Y37352
X30130Y35352
X30130Y33352
X30130Y31352
X30130Y29352
X30130Y27352
X30130Y25352
X30130Y23352
X30130Y21352
X30130Y19352
X30130Y17352
X30130Y15352
X32630Y14352
X32630Y16652
X32630Y18652
X32630Y20652
X32630Y22652
X32630Y24652
X32630Y26652
X32630Y28652
X32630Y30652
X32630Y32652
X32630Y34652
X32630Y36652
X32630Y38652
X32630Y40652
X32630Y42652
X32630Y44652
X32630Y46652
X35130Y47352
X35130Y45352
X35130Y43352
X35130Y41352
X35130Y39352
X35130Y37352
X35130Y35352
X35130Y33352
X35130Y31352
X35130Y29352
X35130Y27352
X35130Y25352
X35130Y23352
X35130Y21352
X35130Y19352
X35130Y17352
X35130Y15352
X37630Y14352
X37630Y16652
X37630Y18652
X37630Y20652
X37630Y22652
X37630Y24652
X37630Y26652
X37630Y28652
X37630Y30652
X37630Y32652
X37630Y34652
X37630Y36652
X37630Y38652
X37630Y40652
X37630Y42652
X37630Y44652
X37630Y46652
X17130Y11602
X17380Y11252
X18830Y8752
X31130Y8352
T02
X22530Y12252
X22130Y9852
X21180Y9452
X21630Y8852
X20630Y6852
X20130Y5998
X19930Y5502
X19430Y5052
X21130Y4852
X21630Y4352
X19530Y2952
X16330Y3802
X15880Y3252
X17580Y7802
X16930Y8652
X16630Y9352
X15430Y9852
X15630Y12352
X16630Y12352
X17680Y12452
X19130Y10852
X19630Y12852
T03
X9130Y3443
X9130Y2262
T04
X1130Y1852
X1130Y4852
X1130Y11352
X13630Y10852
X13630Y9852
X14630Y9852
X14630Y10852
X14630Y11852
X13630Y11852
X39130Y11352
X39130Y4852
X39130Y1852
X39130Y48852
X1130Y48852
T05
X10728Y8849
X10728Y6849
X8072Y7849
X29532Y6856
X29532Y8856
X32188Y7856
M30
