G75*
%MOIN*%
%OFA0B0*%
%FSLAX25Y25*%
%IPPOS*%
%LPD*%
%AMOC8*
5,1,8,0,0,1.08239X$1,22.5*
%
%ADD10C,0.00500*%
%ADD11C,0.00800*%
D10*
X0031269Y0158749D02*
X0031269Y0159143D01*
X0031269Y0159536D01*
X0032206Y0159536D01*
X0032206Y0158749D01*
X0031269Y0158749D01*
X0031269Y0159143D02*
X0031812Y0159143D01*
X0032206Y0178749D02*
X0031269Y0178749D01*
X0031269Y0179143D01*
X0031269Y0179536D01*
X0032206Y0179536D01*
X0032206Y0178749D01*
X0031812Y0179143D02*
X0031269Y0179143D01*
X0031269Y0198749D02*
X0031269Y0199143D01*
X0031269Y0199536D01*
X0032206Y0199536D01*
X0032206Y0198749D01*
X0031269Y0198749D01*
X0031269Y0199143D02*
X0031812Y0199143D01*
X0032206Y0218749D02*
X0031269Y0218749D01*
X0031269Y0219143D01*
X0031269Y0219536D01*
X0032206Y0219536D01*
X0032206Y0218749D01*
X0031812Y0219143D02*
X0031269Y0219143D01*
X0031269Y0238749D02*
X0031269Y0239143D01*
X0031269Y0239536D01*
X0032206Y0239536D01*
X0032206Y0238749D01*
X0031269Y0238749D01*
X0031269Y0239143D02*
X0031812Y0239143D01*
X0032206Y0258749D02*
X0031269Y0258749D01*
X0031269Y0259143D01*
X0031269Y0259536D01*
X0032206Y0259536D01*
X0032206Y0258749D01*
X0031812Y0259143D02*
X0031269Y0259143D01*
X0031269Y0278749D02*
X0031269Y0279143D01*
X0031269Y0279536D01*
X0032206Y0279536D01*
X0032206Y0278749D01*
X0031269Y0278749D01*
X0031269Y0279143D02*
X0031812Y0279143D01*
X0032206Y0298749D02*
X0031269Y0298749D01*
X0031269Y0299143D01*
X0031269Y0299536D01*
X0032206Y0299536D01*
X0032206Y0298749D01*
X0031812Y0299143D02*
X0031269Y0299143D01*
X0031269Y0318749D02*
X0031269Y0319143D01*
X0031269Y0319536D01*
X0032206Y0319536D01*
X0032206Y0318749D01*
X0031269Y0318749D01*
X0031269Y0319143D02*
X0031812Y0319143D01*
X0032206Y0338749D02*
X0031269Y0338749D01*
X0031269Y0339143D01*
X0031269Y0339536D01*
X0032206Y0339536D01*
X0032206Y0338749D01*
X0031812Y0339143D02*
X0031269Y0339143D01*
X0031269Y0358749D02*
X0031269Y0359143D01*
X0031269Y0359536D01*
X0032206Y0359536D01*
X0032206Y0358749D01*
X0031269Y0358749D01*
X0031269Y0359143D02*
X0031812Y0359143D01*
X0032206Y0378749D02*
X0031269Y0378749D01*
X0031269Y0379143D01*
X0031269Y0379536D01*
X0032206Y0379536D01*
X0032206Y0378749D01*
X0031812Y0379143D02*
X0031269Y0379143D01*
X0031269Y0398749D02*
X0031269Y0399143D01*
X0031269Y0399536D01*
X0032206Y0399536D01*
X0032206Y0398749D01*
X0031269Y0398749D01*
X0031269Y0399143D02*
X0031812Y0399143D01*
X0032206Y0418749D02*
X0031269Y0418749D01*
X0031269Y0419143D01*
X0031269Y0419536D01*
X0032206Y0419536D01*
X0032206Y0418749D01*
X0031812Y0419143D02*
X0031269Y0419143D01*
X0031269Y0438749D02*
X0031269Y0439143D01*
X0031269Y0439536D01*
X0032206Y0439536D01*
X0032206Y0438749D01*
X0031269Y0438749D01*
X0031269Y0439143D02*
X0031812Y0439143D01*
X0032206Y0458749D02*
X0031269Y0458749D01*
X0031269Y0459143D01*
X0031269Y0459536D01*
X0032206Y0459536D01*
X0032206Y0458749D01*
X0031812Y0459143D02*
X0031269Y0459143D01*
X0031269Y0478749D02*
X0031269Y0479143D01*
X0031269Y0479536D01*
X0032206Y0479536D01*
X0032206Y0478749D01*
X0031269Y0478749D01*
X0031269Y0479143D02*
X0031812Y0479143D01*
X0081269Y0479143D02*
X0081269Y0478749D01*
X0082206Y0478749D01*
X0082206Y0479536D01*
X0081269Y0479536D01*
X0081269Y0479143D01*
X0081812Y0479143D01*
X0082206Y0459536D02*
X0082206Y0458749D01*
X0081269Y0458749D01*
X0081269Y0459143D01*
X0081269Y0459536D01*
X0082206Y0459536D01*
X0081812Y0459143D02*
X0081269Y0459143D01*
X0081269Y0439536D02*
X0082206Y0439536D01*
X0082206Y0438749D01*
X0081269Y0438749D01*
X0081269Y0439143D01*
X0081269Y0439536D01*
X0081269Y0439143D02*
X0081812Y0439143D01*
X0082206Y0419536D02*
X0082206Y0418749D01*
X0081269Y0418749D01*
X0081269Y0419143D01*
X0081269Y0419536D01*
X0082206Y0419536D01*
X0081812Y0419143D02*
X0081269Y0419143D01*
X0081269Y0399536D02*
X0082206Y0399536D01*
X0082206Y0398749D01*
X0081269Y0398749D01*
X0081269Y0399143D01*
X0081269Y0399536D01*
X0081269Y0399143D02*
X0081812Y0399143D01*
X0082206Y0379536D02*
X0082206Y0378749D01*
X0081269Y0378749D01*
X0081269Y0379143D01*
X0081269Y0379536D01*
X0082206Y0379536D01*
X0081812Y0379143D02*
X0081269Y0379143D01*
X0081269Y0359536D02*
X0082206Y0359536D01*
X0082206Y0358749D01*
X0081269Y0358749D01*
X0081269Y0359143D01*
X0081269Y0359536D01*
X0081269Y0359143D02*
X0081812Y0359143D01*
X0082206Y0339536D02*
X0082206Y0338749D01*
X0081269Y0338749D01*
X0081269Y0339143D01*
X0081269Y0339536D01*
X0082206Y0339536D01*
X0081812Y0339143D02*
X0081269Y0339143D01*
X0081269Y0319536D02*
X0082206Y0319536D01*
X0082206Y0318749D01*
X0081269Y0318749D01*
X0081269Y0319143D01*
X0081269Y0319536D01*
X0081269Y0319143D02*
X0081812Y0319143D01*
X0082206Y0299536D02*
X0082206Y0298749D01*
X0081269Y0298749D01*
X0081269Y0299143D01*
X0081269Y0299536D01*
X0082206Y0299536D01*
X0081812Y0299143D02*
X0081269Y0299143D01*
X0081269Y0279536D02*
X0082206Y0279536D01*
X0082206Y0278749D01*
X0081269Y0278749D01*
X0081269Y0279143D01*
X0081269Y0279536D01*
X0081269Y0279143D02*
X0081812Y0279143D01*
X0082206Y0259536D02*
X0082206Y0258749D01*
X0081269Y0258749D01*
X0081269Y0259143D01*
X0081269Y0259536D01*
X0082206Y0259536D01*
X0081812Y0259143D02*
X0081269Y0259143D01*
X0081269Y0239536D02*
X0082206Y0239536D01*
X0082206Y0238749D01*
X0081269Y0238749D01*
X0081269Y0239143D01*
X0081269Y0239536D01*
X0081269Y0239143D02*
X0081812Y0239143D01*
X0082206Y0219536D02*
X0082206Y0218749D01*
X0081269Y0218749D01*
X0081269Y0219143D01*
X0081269Y0219536D01*
X0082206Y0219536D01*
X0081812Y0219143D02*
X0081269Y0219143D01*
X0081269Y0199536D02*
X0082206Y0199536D01*
X0082206Y0198749D01*
X0081269Y0198749D01*
X0081269Y0199143D01*
X0081269Y0199536D01*
X0081269Y0199143D02*
X0081812Y0199143D01*
X0082206Y0179536D02*
X0082206Y0178749D01*
X0081269Y0178749D01*
X0081269Y0179143D01*
X0081269Y0179536D01*
X0082206Y0179536D01*
X0081812Y0179143D02*
X0081269Y0179143D01*
X0081269Y0159536D02*
X0082206Y0159536D01*
X0082206Y0158749D01*
X0081269Y0158749D01*
X0081269Y0159143D01*
X0081269Y0159536D01*
X0081269Y0159143D02*
X0081812Y0159143D01*
X0131269Y0159143D02*
X0131269Y0158749D01*
X0132206Y0158749D01*
X0132206Y0159536D01*
X0131269Y0159536D01*
X0131269Y0159143D01*
X0131812Y0159143D01*
X0132206Y0178749D02*
X0131269Y0178749D01*
X0131269Y0179143D01*
X0131269Y0179536D01*
X0132206Y0179536D01*
X0132206Y0178749D01*
X0131812Y0179143D02*
X0131269Y0179143D01*
X0131269Y0198749D02*
X0131269Y0199143D01*
X0131269Y0199536D01*
X0132206Y0199536D01*
X0132206Y0198749D01*
X0131269Y0198749D01*
X0131269Y0199143D02*
X0131812Y0199143D01*
X0132206Y0218749D02*
X0131269Y0218749D01*
X0131269Y0219143D01*
X0131269Y0219536D01*
X0132206Y0219536D01*
X0132206Y0218749D01*
X0131812Y0219143D02*
X0131269Y0219143D01*
X0131269Y0238749D02*
X0131269Y0239143D01*
X0131269Y0239536D01*
X0132206Y0239536D01*
X0132206Y0238749D01*
X0131269Y0238749D01*
X0131269Y0239143D02*
X0131812Y0239143D01*
X0132206Y0258749D02*
X0131269Y0258749D01*
X0131269Y0259143D01*
X0131269Y0259536D01*
X0132206Y0259536D01*
X0132206Y0258749D01*
X0131812Y0259143D02*
X0131269Y0259143D01*
X0131269Y0278749D02*
X0131269Y0279143D01*
X0131269Y0279536D01*
X0132206Y0279536D01*
X0132206Y0278749D01*
X0131269Y0278749D01*
X0131269Y0279143D02*
X0131812Y0279143D01*
X0132206Y0298749D02*
X0131269Y0298749D01*
X0131269Y0299143D01*
X0131269Y0299536D01*
X0132206Y0299536D01*
X0132206Y0298749D01*
X0131812Y0299143D02*
X0131269Y0299143D01*
X0131269Y0318749D02*
X0131269Y0319143D01*
X0131269Y0319536D01*
X0132206Y0319536D01*
X0132206Y0318749D01*
X0131269Y0318749D01*
X0131269Y0319143D02*
X0131812Y0319143D01*
X0132206Y0338749D02*
X0131269Y0338749D01*
X0131269Y0339143D01*
X0131269Y0339536D01*
X0132206Y0339536D01*
X0132206Y0338749D01*
X0131812Y0339143D02*
X0131269Y0339143D01*
X0131269Y0358749D02*
X0131269Y0359143D01*
X0131269Y0359536D01*
X0132206Y0359536D01*
X0132206Y0358749D01*
X0131269Y0358749D01*
X0131269Y0359143D02*
X0131812Y0359143D01*
X0132206Y0378749D02*
X0131269Y0378749D01*
X0131269Y0379143D01*
X0131269Y0379536D01*
X0132206Y0379536D01*
X0132206Y0378749D01*
X0131812Y0379143D02*
X0131269Y0379143D01*
X0131269Y0398749D02*
X0131269Y0399143D01*
X0131269Y0399536D01*
X0132206Y0399536D01*
X0132206Y0398749D01*
X0131269Y0398749D01*
X0131269Y0399143D02*
X0131812Y0399143D01*
X0132206Y0418749D02*
X0131269Y0418749D01*
X0131269Y0419143D01*
X0131269Y0419536D01*
X0132206Y0419536D01*
X0132206Y0418749D01*
X0131812Y0419143D02*
X0131269Y0419143D01*
X0131269Y0438749D02*
X0131269Y0439143D01*
X0131269Y0439536D01*
X0132206Y0439536D01*
X0132206Y0438749D01*
X0131269Y0438749D01*
X0131269Y0439143D02*
X0131812Y0439143D01*
X0132206Y0458749D02*
X0131269Y0458749D01*
X0131269Y0459143D01*
X0131269Y0459536D01*
X0132206Y0459536D01*
X0132206Y0458749D01*
X0131812Y0459143D02*
X0131269Y0459143D01*
X0131269Y0478749D02*
X0131269Y0479143D01*
X0131269Y0479536D01*
X0132206Y0479536D01*
X0132206Y0478749D01*
X0131269Y0478749D01*
X0131269Y0479143D02*
X0131812Y0479143D01*
X0181269Y0479143D02*
X0181269Y0478749D01*
X0182206Y0478749D01*
X0182206Y0479536D01*
X0181269Y0479536D01*
X0181269Y0479143D01*
X0181812Y0479143D01*
X0182206Y0459536D02*
X0182206Y0458749D01*
X0181269Y0458749D01*
X0181269Y0459143D01*
X0181269Y0459536D01*
X0182206Y0459536D01*
X0181812Y0459143D02*
X0181269Y0459143D01*
X0181269Y0439536D02*
X0182206Y0439536D01*
X0182206Y0438749D01*
X0181269Y0438749D01*
X0181269Y0439143D01*
X0181269Y0439536D01*
X0181269Y0439143D02*
X0181812Y0439143D01*
X0182206Y0419536D02*
X0182206Y0418749D01*
X0181269Y0418749D01*
X0181269Y0419143D01*
X0181269Y0419536D01*
X0182206Y0419536D01*
X0181812Y0419143D02*
X0181269Y0419143D01*
X0181269Y0399536D02*
X0182206Y0399536D01*
X0182206Y0398749D01*
X0181269Y0398749D01*
X0181269Y0399143D01*
X0181269Y0399536D01*
X0181269Y0399143D02*
X0181812Y0399143D01*
X0182206Y0379536D02*
X0182206Y0378749D01*
X0181269Y0378749D01*
X0181269Y0379143D01*
X0181269Y0379536D01*
X0182206Y0379536D01*
X0181812Y0379143D02*
X0181269Y0379143D01*
X0181269Y0359536D02*
X0182206Y0359536D01*
X0182206Y0358749D01*
X0181269Y0358749D01*
X0181269Y0359143D01*
X0181269Y0359536D01*
X0181269Y0359143D02*
X0181812Y0359143D01*
X0182206Y0339536D02*
X0182206Y0338749D01*
X0181269Y0338749D01*
X0181269Y0339143D01*
X0181269Y0339536D01*
X0182206Y0339536D01*
X0181812Y0339143D02*
X0181269Y0339143D01*
X0181269Y0319536D02*
X0182206Y0319536D01*
X0182206Y0318749D01*
X0181269Y0318749D01*
X0181269Y0319143D01*
X0181269Y0319536D01*
X0181269Y0319143D02*
X0181812Y0319143D01*
X0182206Y0299536D02*
X0182206Y0298749D01*
X0181269Y0298749D01*
X0181269Y0299143D01*
X0181269Y0299536D01*
X0182206Y0299536D01*
X0181812Y0299143D02*
X0181269Y0299143D01*
X0181269Y0279536D02*
X0182206Y0279536D01*
X0182206Y0278749D01*
X0181269Y0278749D01*
X0181269Y0279143D01*
X0181269Y0279536D01*
X0181269Y0279143D02*
X0181812Y0279143D01*
X0182206Y0259536D02*
X0182206Y0258749D01*
X0181269Y0258749D01*
X0181269Y0259143D01*
X0181269Y0259536D01*
X0182206Y0259536D01*
X0181812Y0259143D02*
X0181269Y0259143D01*
X0181269Y0239536D02*
X0182206Y0239536D01*
X0182206Y0238749D01*
X0181269Y0238749D01*
X0181269Y0239143D01*
X0181269Y0239536D01*
X0181269Y0239143D02*
X0181812Y0239143D01*
X0182206Y0219536D02*
X0182206Y0218749D01*
X0181269Y0218749D01*
X0181269Y0219143D01*
X0181269Y0219536D01*
X0182206Y0219536D01*
X0181812Y0219143D02*
X0181269Y0219143D01*
X0181269Y0199536D02*
X0182206Y0199536D01*
X0182206Y0198749D01*
X0181269Y0198749D01*
X0181269Y0199143D01*
X0181269Y0199536D01*
X0181269Y0199143D02*
X0181812Y0199143D01*
X0182206Y0179536D02*
X0182206Y0178749D01*
X0181269Y0178749D01*
X0181269Y0179143D01*
X0181269Y0179536D01*
X0182206Y0179536D01*
X0181812Y0179143D02*
X0181269Y0179143D01*
X0181269Y0159536D02*
X0182206Y0159536D01*
X0182206Y0158749D01*
X0181269Y0158749D01*
X0181269Y0159143D01*
X0181269Y0159536D01*
X0181269Y0159143D02*
X0181812Y0159143D01*
X0231269Y0159143D02*
X0231269Y0158749D01*
X0232206Y0158749D01*
X0232206Y0159536D01*
X0231269Y0159536D01*
X0231269Y0159143D01*
X0231812Y0159143D01*
X0232206Y0178749D02*
X0231269Y0178749D01*
X0231269Y0179143D01*
X0231269Y0179536D01*
X0232206Y0179536D01*
X0232206Y0178749D01*
X0231812Y0179143D02*
X0231269Y0179143D01*
X0231269Y0198749D02*
X0231269Y0199143D01*
X0231269Y0199536D01*
X0232206Y0199536D01*
X0232206Y0198749D01*
X0231269Y0198749D01*
X0231269Y0199143D02*
X0231812Y0199143D01*
X0232206Y0218749D02*
X0231269Y0218749D01*
X0231269Y0219143D01*
X0231269Y0219536D01*
X0232206Y0219536D01*
X0232206Y0218749D01*
X0231812Y0219143D02*
X0231269Y0219143D01*
X0231269Y0238749D02*
X0231269Y0239143D01*
X0231269Y0239536D01*
X0232206Y0239536D01*
X0232206Y0238749D01*
X0231269Y0238749D01*
X0231269Y0239143D02*
X0231812Y0239143D01*
X0232206Y0258749D02*
X0231269Y0258749D01*
X0231269Y0259143D01*
X0231269Y0259536D01*
X0232206Y0259536D01*
X0232206Y0258749D01*
X0231812Y0259143D02*
X0231269Y0259143D01*
X0231269Y0278749D02*
X0231269Y0279143D01*
X0231269Y0279536D01*
X0232206Y0279536D01*
X0232206Y0278749D01*
X0231269Y0278749D01*
X0231269Y0279143D02*
X0231812Y0279143D01*
X0232206Y0298749D02*
X0231269Y0298749D01*
X0231269Y0299143D01*
X0231269Y0299536D01*
X0232206Y0299536D01*
X0232206Y0298749D01*
X0231812Y0299143D02*
X0231269Y0299143D01*
X0231269Y0318749D02*
X0231269Y0319143D01*
X0231269Y0319536D01*
X0232206Y0319536D01*
X0232206Y0318749D01*
X0231269Y0318749D01*
X0231269Y0319143D02*
X0231812Y0319143D01*
X0232206Y0338749D02*
X0231269Y0338749D01*
X0231269Y0339143D01*
X0231269Y0339536D01*
X0232206Y0339536D01*
X0232206Y0338749D01*
X0231812Y0339143D02*
X0231269Y0339143D01*
X0231269Y0358749D02*
X0231269Y0359143D01*
X0231269Y0359536D01*
X0232206Y0359536D01*
X0232206Y0358749D01*
X0231269Y0358749D01*
X0231269Y0359143D02*
X0231812Y0359143D01*
X0232206Y0378749D02*
X0231269Y0378749D01*
X0231269Y0379143D01*
X0231269Y0379536D01*
X0232206Y0379536D01*
X0232206Y0378749D01*
X0231812Y0379143D02*
X0231269Y0379143D01*
X0231269Y0398749D02*
X0231269Y0399143D01*
X0231269Y0399536D01*
X0232206Y0399536D01*
X0232206Y0398749D01*
X0231269Y0398749D01*
X0231269Y0399143D02*
X0231812Y0399143D01*
X0232206Y0418749D02*
X0231269Y0418749D01*
X0231269Y0419143D01*
X0231269Y0419536D01*
X0232206Y0419536D01*
X0232206Y0418749D01*
X0231812Y0419143D02*
X0231269Y0419143D01*
X0231269Y0438749D02*
X0231269Y0439143D01*
X0231269Y0439536D01*
X0232206Y0439536D01*
X0232206Y0438749D01*
X0231269Y0438749D01*
X0231269Y0439143D02*
X0231812Y0439143D01*
X0232206Y0458749D02*
X0231269Y0458749D01*
X0231269Y0459143D01*
X0231269Y0459536D01*
X0232206Y0459536D01*
X0232206Y0458749D01*
X0231812Y0459143D02*
X0231269Y0459143D01*
X0231269Y0478749D02*
X0231269Y0479143D01*
X0231269Y0479536D01*
X0232206Y0479536D01*
X0232206Y0478749D01*
X0231269Y0478749D01*
X0231269Y0479143D02*
X0231812Y0479143D01*
X0281269Y0479143D02*
X0281269Y0478749D01*
X0282206Y0478749D01*
X0282206Y0479536D01*
X0281269Y0479536D01*
X0281269Y0479143D01*
X0281812Y0479143D01*
X0282206Y0459536D02*
X0281269Y0459536D01*
X0281269Y0459143D01*
X0281269Y0458749D01*
X0282206Y0458749D01*
X0282206Y0459536D01*
X0281812Y0459143D02*
X0281269Y0459143D01*
X0281269Y0439536D02*
X0282206Y0439536D01*
X0282206Y0438749D01*
X0281269Y0438749D01*
X0281269Y0439143D01*
X0281269Y0439536D01*
X0281269Y0439143D02*
X0281812Y0439143D01*
X0282206Y0419536D02*
X0281269Y0419536D01*
X0281269Y0419143D01*
X0281269Y0418749D01*
X0282206Y0418749D01*
X0282206Y0419536D01*
X0281812Y0419143D02*
X0281269Y0419143D01*
X0281269Y0399536D02*
X0282206Y0399536D01*
X0282206Y0398749D01*
X0281269Y0398749D01*
X0281269Y0399143D01*
X0281269Y0399536D01*
X0281269Y0399143D02*
X0281812Y0399143D01*
X0282206Y0379536D02*
X0281269Y0379536D01*
X0281269Y0379143D01*
X0281269Y0378749D01*
X0282206Y0378749D01*
X0282206Y0379536D01*
X0281812Y0379143D02*
X0281269Y0379143D01*
X0281269Y0359536D02*
X0282206Y0359536D01*
X0282206Y0358749D01*
X0281269Y0358749D01*
X0281269Y0359143D01*
X0281269Y0359536D01*
X0281269Y0359143D02*
X0281812Y0359143D01*
X0282206Y0339536D02*
X0281269Y0339536D01*
X0281269Y0339143D01*
X0281269Y0338749D01*
X0282206Y0338749D01*
X0282206Y0339536D01*
X0281812Y0339143D02*
X0281269Y0339143D01*
X0281269Y0319536D02*
X0282206Y0319536D01*
X0282206Y0318749D01*
X0281269Y0318749D01*
X0281269Y0319143D01*
X0281269Y0319536D01*
X0281269Y0319143D02*
X0281812Y0319143D01*
X0282206Y0299536D02*
X0281269Y0299536D01*
X0281269Y0299143D01*
X0281269Y0298749D01*
X0282206Y0298749D01*
X0282206Y0299536D01*
X0281812Y0299143D02*
X0281269Y0299143D01*
X0281269Y0279536D02*
X0282206Y0279536D01*
X0282206Y0278749D01*
X0281269Y0278749D01*
X0281269Y0279143D01*
X0281269Y0279536D01*
X0281269Y0279143D02*
X0281812Y0279143D01*
X0282206Y0259536D02*
X0281269Y0259536D01*
X0281269Y0259143D01*
X0281269Y0258749D01*
X0282206Y0258749D01*
X0282206Y0259536D01*
X0281812Y0259143D02*
X0281269Y0259143D01*
X0281269Y0239536D02*
X0282206Y0239536D01*
X0282206Y0238749D01*
X0281269Y0238749D01*
X0281269Y0239143D01*
X0281269Y0239536D01*
X0281269Y0239143D02*
X0281812Y0239143D01*
X0282206Y0219536D02*
X0281269Y0219536D01*
X0281269Y0219143D01*
X0281269Y0218749D01*
X0282206Y0218749D01*
X0282206Y0219536D01*
X0281812Y0219143D02*
X0281269Y0219143D01*
X0281269Y0199536D02*
X0282206Y0199536D01*
X0282206Y0198749D01*
X0281269Y0198749D01*
X0281269Y0199143D01*
X0281269Y0199536D01*
X0281269Y0199143D02*
X0281812Y0199143D01*
X0282206Y0179536D02*
X0281269Y0179536D01*
X0281269Y0179143D01*
X0281269Y0178749D01*
X0282206Y0178749D01*
X0282206Y0179536D01*
X0281812Y0179143D02*
X0281269Y0179143D01*
X0281269Y0159536D02*
X0282206Y0159536D01*
X0282206Y0158749D01*
X0281269Y0158749D01*
X0281269Y0159143D01*
X0281269Y0159536D01*
X0281269Y0159143D02*
X0281812Y0159143D01*
X0331269Y0159143D02*
X0331269Y0158749D01*
X0332206Y0158749D01*
X0332206Y0159536D01*
X0331269Y0159536D01*
X0331269Y0159143D01*
X0331812Y0159143D01*
X0332206Y0178749D02*
X0331269Y0178749D01*
X0331269Y0179143D01*
X0331269Y0179536D01*
X0332206Y0179536D01*
X0332206Y0178749D01*
X0331812Y0179143D02*
X0331269Y0179143D01*
X0331269Y0198749D02*
X0331269Y0199143D01*
X0331269Y0199536D01*
X0332206Y0199536D01*
X0332206Y0198749D01*
X0331269Y0198749D01*
X0331269Y0199143D02*
X0331812Y0199143D01*
X0332206Y0218749D02*
X0331269Y0218749D01*
X0331269Y0219143D01*
X0331269Y0219536D01*
X0332206Y0219536D01*
X0332206Y0218749D01*
X0331812Y0219143D02*
X0331269Y0219143D01*
X0331269Y0238749D02*
X0331269Y0239143D01*
X0331269Y0239536D01*
X0332206Y0239536D01*
X0332206Y0238749D01*
X0331269Y0238749D01*
X0331269Y0239143D02*
X0331812Y0239143D01*
X0332206Y0258749D02*
X0331269Y0258749D01*
X0331269Y0259143D01*
X0331269Y0259536D01*
X0332206Y0259536D01*
X0332206Y0258749D01*
X0331812Y0259143D02*
X0331269Y0259143D01*
X0331269Y0278749D02*
X0331269Y0279143D01*
X0331269Y0279536D01*
X0332206Y0279536D01*
X0332206Y0278749D01*
X0331269Y0278749D01*
X0331269Y0279143D02*
X0331812Y0279143D01*
X0332206Y0298749D02*
X0331269Y0298749D01*
X0331269Y0299143D01*
X0331269Y0299536D01*
X0332206Y0299536D01*
X0332206Y0298749D01*
X0331812Y0299143D02*
X0331269Y0299143D01*
X0331269Y0318749D02*
X0331269Y0319143D01*
X0331269Y0319536D01*
X0332206Y0319536D01*
X0332206Y0318749D01*
X0331269Y0318749D01*
X0331269Y0319143D02*
X0331812Y0319143D01*
X0332206Y0338749D02*
X0331269Y0338749D01*
X0331269Y0339143D01*
X0331269Y0339536D01*
X0332206Y0339536D01*
X0332206Y0338749D01*
X0331812Y0339143D02*
X0331269Y0339143D01*
X0331269Y0358749D02*
X0331269Y0359143D01*
X0331269Y0359536D01*
X0332206Y0359536D01*
X0332206Y0358749D01*
X0331269Y0358749D01*
X0331269Y0359143D02*
X0331812Y0359143D01*
X0332206Y0378749D02*
X0331269Y0378749D01*
X0331269Y0379143D01*
X0331269Y0379536D01*
X0332206Y0379536D01*
X0332206Y0378749D01*
X0331812Y0379143D02*
X0331269Y0379143D01*
X0331269Y0398749D02*
X0331269Y0399143D01*
X0331269Y0399536D01*
X0332206Y0399536D01*
X0332206Y0398749D01*
X0331269Y0398749D01*
X0331269Y0399143D02*
X0331812Y0399143D01*
X0332206Y0418749D02*
X0331269Y0418749D01*
X0331269Y0419143D01*
X0331269Y0419536D01*
X0332206Y0419536D01*
X0332206Y0418749D01*
X0331812Y0419143D02*
X0331269Y0419143D01*
X0331269Y0438749D02*
X0331269Y0439143D01*
X0331269Y0439536D01*
X0332206Y0439536D01*
X0332206Y0438749D01*
X0331269Y0438749D01*
X0331269Y0439143D02*
X0331812Y0439143D01*
X0332206Y0458749D02*
X0331269Y0458749D01*
X0331269Y0459143D01*
X0331269Y0459536D01*
X0332206Y0459536D01*
X0332206Y0458749D01*
X0331812Y0459143D02*
X0331269Y0459143D01*
X0331269Y0478749D02*
X0331269Y0479143D01*
X0331269Y0479536D01*
X0332206Y0479536D01*
X0332206Y0478749D01*
X0331269Y0478749D01*
X0331269Y0479143D02*
X0331812Y0479143D01*
X0381269Y0479143D02*
X0381269Y0478749D01*
X0382206Y0478749D01*
X0382206Y0479536D01*
X0381269Y0479536D01*
X0381269Y0479143D01*
X0381812Y0479143D01*
X0382206Y0459536D02*
X0382206Y0458749D01*
X0381269Y0458749D01*
X0381269Y0459143D01*
X0381269Y0459536D01*
X0382206Y0459536D01*
X0381812Y0459143D02*
X0381269Y0459143D01*
X0381269Y0439536D02*
X0382206Y0439536D01*
X0382206Y0438749D01*
X0381269Y0438749D01*
X0381269Y0439143D01*
X0381269Y0439536D01*
X0381269Y0439143D02*
X0381812Y0439143D01*
X0382206Y0419536D02*
X0382206Y0418749D01*
X0381269Y0418749D01*
X0381269Y0419143D01*
X0381269Y0419536D01*
X0382206Y0419536D01*
X0381812Y0419143D02*
X0381269Y0419143D01*
X0381269Y0399536D02*
X0382206Y0399536D01*
X0382206Y0398749D01*
X0381269Y0398749D01*
X0381269Y0399143D01*
X0381269Y0399536D01*
X0381269Y0399143D02*
X0381812Y0399143D01*
X0382206Y0379536D02*
X0382206Y0378749D01*
X0381269Y0378749D01*
X0381269Y0379143D01*
X0381269Y0379536D01*
X0382206Y0379536D01*
X0381812Y0379143D02*
X0381269Y0379143D01*
X0381269Y0359536D02*
X0382206Y0359536D01*
X0382206Y0358749D01*
X0381269Y0358749D01*
X0381269Y0359143D01*
X0381269Y0359536D01*
X0381269Y0359143D02*
X0381812Y0359143D01*
X0382206Y0339536D02*
X0382206Y0338749D01*
X0381269Y0338749D01*
X0381269Y0339143D01*
X0381269Y0339536D01*
X0382206Y0339536D01*
X0381812Y0339143D02*
X0381269Y0339143D01*
X0381269Y0319536D02*
X0382206Y0319536D01*
X0382206Y0318749D01*
X0381269Y0318749D01*
X0381269Y0319143D01*
X0381269Y0319536D01*
X0381269Y0319143D02*
X0381812Y0319143D01*
X0382206Y0299536D02*
X0382206Y0298749D01*
X0381269Y0298749D01*
X0381269Y0299143D01*
X0381269Y0299536D01*
X0382206Y0299536D01*
X0381812Y0299143D02*
X0381269Y0299143D01*
X0381269Y0279536D02*
X0382206Y0279536D01*
X0382206Y0278749D01*
X0381269Y0278749D01*
X0381269Y0279143D01*
X0381269Y0279536D01*
X0381269Y0279143D02*
X0381812Y0279143D01*
X0382206Y0259536D02*
X0382206Y0258749D01*
X0381269Y0258749D01*
X0381269Y0259143D01*
X0381269Y0259536D01*
X0382206Y0259536D01*
X0381812Y0259143D02*
X0381269Y0259143D01*
X0381269Y0239536D02*
X0382206Y0239536D01*
X0382206Y0238749D01*
X0381269Y0238749D01*
X0381269Y0239143D01*
X0381269Y0239536D01*
X0381269Y0239143D02*
X0381812Y0239143D01*
X0382206Y0219536D02*
X0382206Y0218749D01*
X0381269Y0218749D01*
X0381269Y0219143D01*
X0381269Y0219536D01*
X0382206Y0219536D01*
X0381812Y0219143D02*
X0381269Y0219143D01*
X0381269Y0199536D02*
X0382206Y0199536D01*
X0382206Y0198749D01*
X0381269Y0198749D01*
X0381269Y0199143D01*
X0381269Y0199536D01*
X0381269Y0199143D02*
X0381812Y0199143D01*
X0382206Y0179536D02*
X0382206Y0178749D01*
X0381269Y0178749D01*
X0381269Y0179143D01*
X0381269Y0179536D01*
X0382206Y0179536D01*
X0381812Y0179143D02*
X0381269Y0179143D01*
X0381269Y0159536D02*
X0382206Y0159536D01*
X0382206Y0158749D01*
X0381269Y0158749D01*
X0381269Y0159143D01*
X0381269Y0159536D01*
X0381269Y0159143D02*
X0381812Y0159143D01*
D11*
X0215080Y0112304D02*
X0213505Y0112304D01*
X0215080Y0112304D02*
X0215080Y0110729D01*
X0215080Y0086320D02*
X0215080Y0084745D01*
X0213505Y0084745D01*
X0202162Y0072717D02*
X0197438Y0072717D01*
X0189564Y0067206D02*
X0189564Y0064843D01*
X0197438Y0059331D02*
X0202162Y0059331D01*
X0210036Y0064843D02*
X0210036Y0067206D01*
X0189095Y0084745D02*
X0187520Y0084745D01*
X0187520Y0086320D01*
X0187520Y0110335D02*
X0189489Y0112304D01*
M02*
