G75*
%MOIN*%
%OFA0B0*%
%FSLAX25Y25*%
%IPPOS*%
%LPD*%
%AMOC8*
5,1,8,0,0,1.08239X$1,22.5*
%
%ADD10R,0.22402X0.00276*%
%ADD11R,0.06890X0.00276*%
%ADD12R,0.18386X0.00276*%
%ADD13R,0.21850X0.00276*%
%ADD14R,0.07165X0.00276*%
%ADD15R,0.18701X0.00276*%
%ADD16R,0.07205X0.00276*%
%ADD17R,0.01181X0.00315*%
%ADD18R,0.02008X0.00315*%
%ADD19R,0.07480X0.00315*%
%ADD20R,0.01142X0.00315*%
%ADD21R,0.01732X0.00315*%
%ADD22R,0.22677X0.00315*%
%ADD23R,0.01181X0.00276*%
%ADD24R,0.02323X0.00276*%
%ADD25R,0.07756X0.00276*%
%ADD26R,0.01142X0.00276*%
%ADD27R,0.02008X0.00276*%
%ADD28R,0.22953X0.00276*%
%ADD29R,0.08031X0.00276*%
%ADD30R,0.00866X0.00276*%
%ADD31R,0.02283X0.00276*%
%ADD32R,0.00827X0.00276*%
%ADD33R,0.00866X0.00315*%
%ADD34R,0.02598X0.00315*%
%ADD35R,0.00827X0.00315*%
%ADD36R,0.02323X0.00315*%
%ADD37R,0.02283X0.00315*%
%ADD38R,0.02874X0.00276*%
%ADD39R,0.02598X0.00276*%
%ADD40R,0.02874X0.00315*%
%ADD41R,0.02559X0.00276*%
%ADD42R,0.03150X0.00276*%
%ADD43R,0.02559X0.00315*%
%ADD44R,0.04291X0.00315*%
%ADD45R,0.04882X0.00276*%
%ADD46R,0.05197X0.00276*%
%ADD47R,0.05472X0.00315*%
%ADD48R,0.03189X0.00276*%
%ADD49R,0.18071X0.00315*%
%ADD50R,0.10354X0.00315*%
%ADD51R,0.18071X0.00276*%
%ADD52R,0.10354X0.00276*%
%ADD53R,0.18110X0.00276*%
%ADD54R,0.17795X0.00276*%
%ADD55R,0.10079X0.00276*%
%ADD56R,0.18110X0.00315*%
%ADD57R,0.17835X0.00276*%
%ADD58R,0.17835X0.00315*%
%ADD59R,0.03150X0.00315*%
%ADD60R,0.16102X0.00315*%
%ADD61R,0.16378X0.00276*%
%ADD62R,0.16102X0.00276*%
%ADD63R,0.16693X0.00276*%
%ADD64R,0.16654X0.00276*%
%ADD65R,0.10039X0.00276*%
%ADD66R,0.06575X0.00315*%
%ADD67R,0.06614X0.00276*%
%ADD68R,0.06614X0.00315*%
%ADD69R,0.06339X0.00315*%
%ADD70R,0.06339X0.00276*%
%ADD71R,0.17795X0.00315*%
%ADD72R,0.06299X0.00276*%
%ADD73R,0.08622X0.00276*%
%ADD74R,0.06299X0.00315*%
%ADD75R,0.08622X0.00315*%
%ADD76R,0.08307X0.00276*%
%ADD77R,0.08307X0.00315*%
%ADD78R,0.04606X0.00315*%
%ADD79R,0.16063X0.00315*%
%ADD80R,0.08898X0.00276*%
%ADD81R,0.05472X0.00276*%
%ADD82R,0.01417X0.00315*%
%ADD83R,0.04567X0.00315*%
%ADD84R,0.04291X0.00276*%
%ADD85R,0.04016X0.00276*%
%ADD86R,0.03740X0.00276*%
%ADD87R,0.03189X0.00315*%
%ADD88R,0.01417X0.00276*%
%ADD89R,0.03425X0.00276*%
%ADD90R,0.08937X0.00315*%
%ADD91R,0.23819X0.00315*%
%ADD92R,0.08898X0.00315*%
%ADD93R,0.23543X0.00276*%
%ADD94R,0.08346X0.00276*%
%ADD95R,0.23858X0.00276*%
%ADD96R,0.08346X0.00315*%
%ADD97R,0.08071X0.00315*%
%ADD98R,0.23858X0.00315*%
%ADD99R,0.07795X0.00276*%
%ADD100R,0.08071X0.00276*%
%ADD101R,0.07480X0.00276*%
%ADD102R,0.23268X0.00276*%
%ADD103R,0.07756X0.00315*%
%ADD104R,0.07165X0.00315*%
%ADD105R,0.22992X0.00315*%
%ADD106R,0.22441X0.00276*%
%ADD107R,0.07441X0.00276*%
%ADD108R,0.06024X0.00276*%
%ADD109R,0.06890X0.00315*%
%ADD110R,0.22126X0.00315*%
%ADD111R,0.06457X0.00276*%
%ADD112R,0.20827X0.00276*%
%ADD113R,0.21063X0.00276*%
%ADD114R,0.07047X0.00315*%
%ADD115R,0.21378X0.00315*%
%ADD116R,0.21339X0.00315*%
%ADD117R,0.07047X0.00276*%
%ADD118R,0.21378X0.00276*%
%ADD119R,0.01693X0.00276*%
%ADD120R,0.01969X0.00276*%
%ADD121R,0.07323X0.00276*%
%ADD122R,0.21654X0.00276*%
%ADD123R,0.02244X0.00276*%
%ADD124R,0.01102X0.00276*%
%ADD125R,0.02520X0.00276*%
%ADD126R,0.02795X0.00276*%
%ADD127R,0.02835X0.00276*%
%ADD128R,0.02520X0.00315*%
%ADD129R,0.02795X0.00315*%
%ADD130R,0.00591X0.00315*%
%ADD131R,0.02835X0.00315*%
%ADD132R,0.03110X0.00276*%
%ADD133R,0.17165X0.00276*%
%ADD134R,0.08150X0.00276*%
%ADD135R,0.10157X0.00276*%
%ADD136R,0.16890X0.00276*%
%ADD137R,0.09843X0.00276*%
%ADD138R,0.07874X0.00276*%
%ADD139R,0.01102X0.00315*%
%ADD140R,0.17165X0.00315*%
%ADD141R,0.07874X0.00315*%
%ADD142R,0.10118X0.00315*%
%ADD143R,0.07598X0.00276*%
%ADD144R,0.10118X0.00276*%
%ADD145R,0.06772X0.00276*%
%ADD146R,0.03071X0.00276*%
%ADD147R,0.00551X0.00276*%
%ADD148R,0.15472X0.00276*%
%ADD149R,0.15157X0.00276*%
%ADD150R,0.15433X0.00276*%
%ADD151R,0.15748X0.00276*%
%ADD152R,0.16024X0.00276*%
%ADD153R,0.16850X0.00276*%
%ADD154R,0.16890X0.00315*%
%ADD155R,0.17126X0.00315*%
%ADD156R,0.17126X0.00276*%
%ADD157R,0.15197X0.00276*%
%ADD158R,0.15748X0.00315*%
%ADD159R,0.22756X0.00276*%
%ADD160R,0.22520X0.00276*%
%ADD161R,0.08189X0.00276*%
%ADD162R,0.08465X0.00276*%
%ADD163R,0.22480X0.00276*%
%ADD164R,0.22480X0.00315*%
%ADD165R,0.22520X0.00315*%
%ADD166R,0.08150X0.00315*%
%ADD167R,0.21929X0.00276*%
%ADD168R,0.22244X0.00276*%
%ADD169R,0.07283X0.00276*%
%ADD170R,0.07008X0.00276*%
%ADD171R,0.21102X0.00276*%
%ADD172R,0.06732X0.00276*%
%ADD173R,0.18307X0.00315*%
%ADD174R,0.06850X0.00315*%
%ADD175R,0.14567X0.00315*%
%ADD176R,0.06811X0.00315*%
%ADD177R,0.07126X0.00315*%
%ADD178R,0.22323X0.00315*%
%ADD179R,0.18583X0.00315*%
%ADD180R,0.07441X0.00315*%
%ADD181R,0.14882X0.00315*%
%ADD182R,0.22638X0.00315*%
%ADD183R,0.01260X0.00315*%
%ADD184R,0.01850X0.00315*%
%ADD185R,0.00945X0.00315*%
%ADD186R,0.00906X0.00315*%
%ADD187R,0.01890X0.00315*%
%ADD188R,0.02165X0.00315*%
%ADD189R,0.02480X0.00315*%
%ADD190R,0.00630X0.00315*%
%ADD191R,0.02756X0.00315*%
%ADD192R,0.00630X0.00276*%
%ADD193R,0.01220X0.00276*%
%ADD194R,0.00945X0.00276*%
%ADD195R,0.02756X0.00276*%
%ADD196R,0.03071X0.00315*%
%ADD197R,0.03110X0.00315*%
%ADD198R,0.01220X0.00315*%
%ADD199R,0.03425X0.00315*%
%ADD200R,0.04961X0.00315*%
%ADD201R,0.05276X0.00315*%
%ADD202R,0.04646X0.00315*%
%ADD203R,0.02165X0.00276*%
%ADD204R,0.00906X0.00276*%
%ADD205R,0.02480X0.00276*%
%ADD206R,0.10236X0.00315*%
%ADD207R,0.10551X0.00315*%
%ADD208R,0.08661X0.00315*%
%ADD209R,0.08031X0.00315*%
%ADD210R,0.07717X0.00315*%
%ADD211R,0.10236X0.00276*%
%ADD212R,0.01260X0.00276*%
%ADD213R,0.07717X0.00276*%
%ADD214R,0.10512X0.00276*%
%ADD215R,0.10512X0.00315*%
%ADD216R,0.06535X0.00315*%
%ADD217R,0.10197X0.00315*%
%ADD218R,0.08386X0.00315*%
%ADD219R,0.08701X0.00315*%
%ADD220R,0.08701X0.00276*%
%ADD221R,0.12087X0.00315*%
%ADD222R,0.12402X0.00315*%
%ADD223R,0.12717X0.00315*%
%ADD224R,0.09921X0.00315*%
%ADD225R,0.09882X0.00315*%
%ADD226R,0.06496X0.00315*%
%ADD227R,0.06850X0.00276*%
%ADD228R,0.06811X0.00276*%
%ADD229R,0.04685X0.00315*%
%ADD230R,0.04370X0.00315*%
%ADD231R,0.04055X0.00315*%
%ADD232R,0.00591X0.00276*%
%ADD233R,0.06535X0.00276*%
%ADD234R,0.04331X0.00315*%
%ADD235R,0.01535X0.00315*%
%ADD236R,0.04370X0.00276*%
%ADD237R,0.04331X0.00276*%
%ADD238R,0.03701X0.00315*%
%ADD239R,0.01575X0.00315*%
%ADD240R,0.03386X0.00315*%
%ADD241R,0.19843X0.00315*%
%ADD242R,0.08976X0.00315*%
%ADD243R,0.09016X0.00315*%
%ADD244R,0.20118X0.00315*%
%ADD245R,0.08661X0.00276*%
%ADD246R,0.19252X0.00276*%
%ADD247R,0.08386X0.00276*%
%ADD248R,0.18937X0.00315*%
%ADD249R,0.18622X0.00315*%
%ADD250R,0.17992X0.00315*%
%ADD251R,0.05906X0.00315*%
%ADD252R,0.05866X0.00315*%
D10*
X0024174Y0064831D03*
X0024174Y0065107D03*
X0088269Y0064831D03*
X0306674Y0064831D03*
X0306674Y0065107D03*
X0370769Y0064831D03*
D11*
X0389430Y0065107D03*
X0350926Y0051013D03*
X0350650Y0049595D03*
X0346044Y0045855D03*
X0347186Y0034635D03*
X0325335Y0065107D03*
X0106930Y0065107D03*
X0068426Y0051013D03*
X0068150Y0049595D03*
X0063544Y0045855D03*
X0064686Y0034635D03*
X0042835Y0065107D03*
D12*
X0060080Y0065107D03*
X0342580Y0065107D03*
D13*
X0370769Y0065107D03*
X0088269Y0065107D03*
D14*
X0102186Y0034359D03*
X0042698Y0064831D03*
X0037816Y0034359D03*
X0011674Y0034359D03*
X0294174Y0034359D03*
X0320316Y0034359D03*
X0325198Y0064831D03*
X0384686Y0034359D03*
D15*
X0342737Y0064831D03*
X0060237Y0064831D03*
D16*
X0049607Y0034635D03*
X0107087Y0064831D03*
X0332107Y0034635D03*
X0389587Y0064831D03*
D17*
X0383111Y0049300D03*
X0381103Y0039812D03*
X0358977Y0058788D03*
X0358111Y0055048D03*
X0356103Y0045560D03*
X0355237Y0041544D03*
X0333111Y0061662D03*
X0321615Y0061662D03*
X0329371Y0044418D03*
X0316733Y0038670D03*
X0295749Y0064536D03*
X0100611Y0049300D03*
X0098603Y0039812D03*
X0073603Y0045560D03*
X0072737Y0041544D03*
X0075611Y0055048D03*
X0076477Y0058788D03*
X0050611Y0061662D03*
X0039115Y0061662D03*
X0046871Y0044418D03*
X0034233Y0038670D03*
X0013249Y0064536D03*
D18*
X0034646Y0064536D03*
X0032363Y0053040D03*
X0094135Y0041544D03*
X0314863Y0053040D03*
X0317146Y0064536D03*
X0376635Y0041544D03*
D19*
X0389725Y0064536D03*
X0331969Y0034930D03*
X0325355Y0064536D03*
X0107225Y0064536D03*
X0049469Y0034930D03*
X0042855Y0064536D03*
D20*
X0039410Y0062804D03*
X0038544Y0058788D03*
X0037954Y0055914D03*
X0037678Y0055048D03*
X0035946Y0047292D03*
X0035670Y0045560D03*
X0035394Y0044418D03*
X0034804Y0041544D03*
X0045434Y0037804D03*
X0046300Y0041544D03*
X0048032Y0049300D03*
X0048583Y0052174D03*
X0049174Y0055048D03*
X0050040Y0058788D03*
X0051182Y0064536D03*
X0064410Y0055048D03*
X0075316Y0054182D03*
X0074765Y0051308D03*
X0074174Y0048434D03*
X0073898Y0047292D03*
X0073308Y0044418D03*
X0072166Y0038670D03*
X0060670Y0037804D03*
X0057520Y0041544D03*
X0076182Y0057922D03*
X0077048Y0061662D03*
X0100040Y0046426D03*
X0099174Y0041544D03*
X0098898Y0040678D03*
X0101182Y0052174D03*
X0101772Y0054182D03*
X0102324Y0057056D03*
X0102914Y0059930D03*
X0103190Y0060796D03*
X0103780Y0063670D03*
X0093209Y0088473D03*
X0096871Y0106190D03*
X0064824Y0106190D03*
X0039784Y0106190D03*
X0012678Y0061662D03*
X0012087Y0058788D03*
X0011536Y0055914D03*
X0010670Y0052174D03*
X0010080Y0049300D03*
X0009528Y0046426D03*
X0008938Y0043552D03*
X0008072Y0039812D03*
X0290572Y0039812D03*
X0291438Y0043552D03*
X0292028Y0046426D03*
X0292580Y0049300D03*
X0293170Y0052174D03*
X0294036Y0055914D03*
X0294587Y0058788D03*
X0295178Y0061662D03*
X0317894Y0044418D03*
X0318170Y0045560D03*
X0318446Y0047292D03*
X0317304Y0041544D03*
X0327934Y0037804D03*
X0328800Y0041544D03*
X0330532Y0049300D03*
X0331083Y0052174D03*
X0331674Y0055048D03*
X0332540Y0058788D03*
X0333682Y0064536D03*
X0321910Y0062804D03*
X0321044Y0058788D03*
X0320454Y0055914D03*
X0320178Y0055048D03*
X0340020Y0041544D03*
X0343170Y0037804D03*
X0354666Y0038670D03*
X0355808Y0044418D03*
X0356398Y0047292D03*
X0356674Y0048434D03*
X0357265Y0051308D03*
X0357816Y0054182D03*
X0358682Y0057922D03*
X0359548Y0061662D03*
X0346910Y0055048D03*
X0381674Y0041544D03*
X0381398Y0040678D03*
X0382540Y0046426D03*
X0383682Y0052174D03*
X0384272Y0054182D03*
X0384824Y0057056D03*
X0385414Y0059930D03*
X0385690Y0060796D03*
X0386280Y0063670D03*
D21*
X0351221Y0064536D03*
X0068721Y0064536D03*
D22*
X0088406Y0064536D03*
X0370906Y0064536D03*
D23*
X0358977Y0059635D03*
X0358977Y0059359D03*
X0358977Y0059083D03*
X0355237Y0041839D03*
X0355237Y0041249D03*
X0381103Y0039517D03*
X0381103Y0039241D03*
X0383111Y0049005D03*
X0385985Y0062233D03*
X0385985Y0062509D03*
X0333111Y0061957D03*
X0333111Y0061367D03*
X0321615Y0061367D03*
X0321615Y0061957D03*
X0321615Y0062233D03*
X0319607Y0052469D03*
X0318741Y0048139D03*
X0316733Y0038965D03*
X0329371Y0044123D03*
X0295749Y0063965D03*
X0295749Y0064241D03*
X0293741Y0054753D03*
X0290867Y0040973D03*
X0290001Y0037233D03*
X0103485Y0062233D03*
X0103485Y0062509D03*
X0100611Y0049005D03*
X0098603Y0039517D03*
X0098603Y0039241D03*
X0072737Y0041249D03*
X0072737Y0041839D03*
X0076477Y0059083D03*
X0076477Y0059359D03*
X0076477Y0059635D03*
X0050611Y0061367D03*
X0050611Y0061957D03*
X0039115Y0061957D03*
X0039115Y0062233D03*
X0039115Y0061367D03*
X0037107Y0052469D03*
X0036241Y0048139D03*
X0034233Y0038965D03*
X0046871Y0044123D03*
X0013249Y0063965D03*
X0013249Y0064241D03*
X0011241Y0054753D03*
X0008367Y0040973D03*
X0007501Y0037233D03*
D24*
X0034804Y0063965D03*
X0034804Y0064241D03*
X0094292Y0041249D03*
X0094292Y0040973D03*
X0099174Y0063965D03*
X0317304Y0063965D03*
X0317304Y0064241D03*
X0376792Y0041249D03*
X0376792Y0040973D03*
X0381674Y0063965D03*
D25*
X0331831Y0035501D03*
X0325493Y0064241D03*
X0295690Y0085158D03*
X0049331Y0035501D03*
X0042993Y0064241D03*
D26*
X0039410Y0063099D03*
X0038820Y0060501D03*
X0038820Y0060225D03*
X0038544Y0059635D03*
X0038544Y0059359D03*
X0038544Y0059083D03*
X0038269Y0057627D03*
X0037954Y0056761D03*
X0037954Y0056485D03*
X0037954Y0056209D03*
X0037402Y0053887D03*
X0037402Y0053611D03*
X0037402Y0053335D03*
X0036812Y0051013D03*
X0036812Y0050737D03*
X0036536Y0049871D03*
X0036536Y0049595D03*
X0035946Y0046997D03*
X0035946Y0046721D03*
X0035394Y0044123D03*
X0035394Y0043847D03*
X0034804Y0041839D03*
X0034804Y0041249D03*
X0033938Y0037509D03*
X0046024Y0040383D03*
X0046576Y0042981D03*
X0047442Y0046721D03*
X0047442Y0046997D03*
X0048032Y0049595D03*
X0048032Y0049871D03*
X0048583Y0052469D03*
X0049450Y0056209D03*
X0050040Y0059083D03*
X0051182Y0064241D03*
X0064410Y0055619D03*
X0064410Y0055343D03*
X0064410Y0054753D03*
X0064686Y0056485D03*
X0064686Y0056761D03*
X0075316Y0053887D03*
X0075316Y0053611D03*
X0075316Y0053335D03*
X0075040Y0052469D03*
X0074765Y0051013D03*
X0074765Y0050737D03*
X0074450Y0049871D03*
X0074450Y0049595D03*
X0074174Y0048139D03*
X0073898Y0046997D03*
X0073898Y0046721D03*
X0073308Y0044713D03*
X0073308Y0044123D03*
X0072166Y0038965D03*
X0057520Y0040973D03*
X0075906Y0056209D03*
X0075906Y0056485D03*
X0075906Y0056761D03*
X0076772Y0060501D03*
X0077048Y0061367D03*
X0077048Y0061957D03*
X0077048Y0062233D03*
X0077324Y0063099D03*
X0077324Y0063375D03*
X0100316Y0047863D03*
X0100040Y0046721D03*
X0099765Y0045265D03*
X0099765Y0044989D03*
X0098898Y0040973D03*
X0098308Y0038099D03*
X0101182Y0051603D03*
X0101182Y0051879D03*
X0101772Y0054477D03*
X0101772Y0054753D03*
X0102048Y0055619D03*
X0102324Y0056761D03*
X0102324Y0057351D03*
X0102639Y0058217D03*
X0102639Y0058493D03*
X0102914Y0059635D03*
X0103190Y0061091D03*
X0103190Y0061367D03*
X0103780Y0063375D03*
X0103780Y0063965D03*
X0093209Y0088769D03*
X0094351Y0093808D03*
X0094351Y0094083D03*
X0094627Y0095225D03*
X0095178Y0097745D03*
X0095178Y0098020D03*
X0096320Y0103375D03*
X0096320Y0103650D03*
X0090690Y0110698D03*
X0091241Y0113217D03*
X0091241Y0113493D03*
X0065650Y0110422D03*
X0065375Y0109280D03*
X0065375Y0109005D03*
X0064824Y0106485D03*
X0063682Y0101131D03*
X0062855Y0097194D03*
X0062855Y0096918D03*
X0061713Y0091839D03*
X0061713Y0091564D03*
X0060887Y0087902D03*
X0060887Y0087627D03*
X0041202Y0112391D03*
X0041202Y0112666D03*
X0040060Y0107312D03*
X0039784Y0106485D03*
X0039784Y0105894D03*
X0039784Y0105619D03*
X0039509Y0104792D03*
X0039233Y0103375D03*
X0039233Y0103099D03*
X0037816Y0096918D03*
X0037816Y0096643D03*
X0037265Y0094083D03*
X0037265Y0093808D03*
X0016162Y0112391D03*
X0015887Y0111524D03*
X0015887Y0111249D03*
X0015887Y0110973D03*
X0015887Y0110698D03*
X0015611Y0109831D03*
X0014469Y0104517D03*
X0014194Y0103099D03*
X0013918Y0101957D03*
X0013918Y0101682D03*
X0012225Y0093808D03*
X0011950Y0092706D03*
X0012678Y0061367D03*
X0012402Y0060225D03*
X0010670Y0051879D03*
X0010080Y0049595D03*
X0010080Y0049005D03*
X0009528Y0046721D03*
X0008938Y0043847D03*
X0008072Y0039517D03*
X0290572Y0039517D03*
X0291438Y0043847D03*
X0292028Y0046721D03*
X0292580Y0049005D03*
X0292580Y0049595D03*
X0293170Y0051879D03*
X0294902Y0060225D03*
X0295178Y0061367D03*
X0317894Y0044123D03*
X0317894Y0043847D03*
X0317304Y0041839D03*
X0317304Y0041249D03*
X0316438Y0037509D03*
X0318446Y0046721D03*
X0318446Y0046997D03*
X0319036Y0049595D03*
X0319036Y0049871D03*
X0319312Y0050737D03*
X0319312Y0051013D03*
X0319902Y0053335D03*
X0319902Y0053611D03*
X0319902Y0053887D03*
X0320454Y0056209D03*
X0320454Y0056485D03*
X0320454Y0056761D03*
X0320769Y0057627D03*
X0321044Y0059083D03*
X0321044Y0059359D03*
X0321044Y0059635D03*
X0321320Y0060225D03*
X0321320Y0060501D03*
X0321910Y0063099D03*
X0332540Y0059083D03*
X0331950Y0056209D03*
X0331083Y0052469D03*
X0330532Y0049871D03*
X0330532Y0049595D03*
X0329942Y0046997D03*
X0329942Y0046721D03*
X0329076Y0042981D03*
X0328524Y0040383D03*
X0340020Y0040973D03*
X0346910Y0054753D03*
X0346910Y0055343D03*
X0346910Y0055619D03*
X0347186Y0056485D03*
X0347186Y0056761D03*
X0357816Y0053887D03*
X0357816Y0053611D03*
X0357816Y0053335D03*
X0357540Y0052469D03*
X0357265Y0051013D03*
X0357265Y0050737D03*
X0356950Y0049871D03*
X0356950Y0049595D03*
X0356674Y0048139D03*
X0356398Y0046997D03*
X0356398Y0046721D03*
X0355808Y0044713D03*
X0355808Y0044123D03*
X0354666Y0038965D03*
X0358406Y0056209D03*
X0358406Y0056485D03*
X0358406Y0056761D03*
X0359272Y0060501D03*
X0359548Y0061367D03*
X0359548Y0061957D03*
X0359548Y0062233D03*
X0359824Y0063099D03*
X0359824Y0063375D03*
X0382265Y0045265D03*
X0382265Y0044989D03*
X0382540Y0046721D03*
X0382816Y0047863D03*
X0383682Y0051603D03*
X0383682Y0051879D03*
X0384272Y0054477D03*
X0384272Y0054753D03*
X0384548Y0055619D03*
X0384824Y0056761D03*
X0384824Y0057351D03*
X0385139Y0058217D03*
X0385139Y0058493D03*
X0385414Y0059635D03*
X0385690Y0061091D03*
X0385690Y0061367D03*
X0386280Y0063375D03*
X0386280Y0063965D03*
X0381398Y0040973D03*
X0380808Y0038099D03*
X0333682Y0064241D03*
D27*
X0351359Y0064241D03*
X0354233Y0060501D03*
X0354509Y0060225D03*
X0350493Y0041249D03*
X0392737Y0063965D03*
X0110237Y0063965D03*
X0072009Y0060225D03*
X0071733Y0060501D03*
X0068859Y0064241D03*
X0067993Y0041249D03*
D28*
X0088544Y0064241D03*
X0371044Y0064241D03*
D29*
X0389725Y0064241D03*
X0385985Y0043257D03*
X0385985Y0042981D03*
X0293741Y0035225D03*
X0107225Y0064241D03*
X0103485Y0043257D03*
X0103485Y0042981D03*
X0011241Y0035225D03*
D30*
X0007658Y0037509D03*
X0007658Y0038099D03*
X0007934Y0038375D03*
X0007934Y0038965D03*
X0007934Y0039241D03*
X0008209Y0040107D03*
X0008209Y0040383D03*
X0008524Y0041249D03*
X0008524Y0041839D03*
X0008524Y0042115D03*
X0008524Y0042391D03*
X0008800Y0042981D03*
X0008800Y0043257D03*
X0009076Y0044123D03*
X0009076Y0044713D03*
X0009076Y0044989D03*
X0009666Y0046997D03*
X0009666Y0047587D03*
X0009666Y0047863D03*
X0009942Y0048139D03*
X0009942Y0048729D03*
X0010217Y0049871D03*
X0010217Y0050461D03*
X0010532Y0050737D03*
X0010532Y0051013D03*
X0010532Y0051603D03*
X0010808Y0052469D03*
X0010808Y0052745D03*
X0011083Y0053335D03*
X0011083Y0053611D03*
X0011083Y0053887D03*
X0011083Y0054477D03*
X0011398Y0055343D03*
X0011398Y0055619D03*
X0011674Y0056209D03*
X0011674Y0056485D03*
X0011674Y0056761D03*
X0011674Y0057351D03*
X0011950Y0057627D03*
X0011950Y0058217D03*
X0011950Y0058493D03*
X0012540Y0060501D03*
X0012540Y0061091D03*
X0012816Y0061957D03*
X0012816Y0062233D03*
X0012816Y0062509D03*
X0013091Y0063099D03*
X0013091Y0063375D03*
X0036083Y0047863D03*
X0036083Y0047587D03*
X0036398Y0048729D03*
X0036398Y0049005D03*
X0036674Y0050461D03*
X0036950Y0051603D03*
X0036950Y0051879D03*
X0037265Y0052745D03*
X0037540Y0054477D03*
X0037540Y0054753D03*
X0037816Y0055343D03*
X0037816Y0055619D03*
X0038406Y0058217D03*
X0038406Y0058493D03*
X0038957Y0061091D03*
X0039272Y0062509D03*
X0039548Y0063375D03*
X0039548Y0063965D03*
X0048170Y0050737D03*
X0048170Y0050461D03*
X0048446Y0051013D03*
X0048446Y0051603D03*
X0048446Y0051879D03*
X0049036Y0053611D03*
X0049036Y0053887D03*
X0049036Y0054477D03*
X0049036Y0054753D03*
X0049312Y0055343D03*
X0049312Y0055619D03*
X0049587Y0056485D03*
X0049587Y0056761D03*
X0049587Y0057351D03*
X0049587Y0057627D03*
X0049902Y0058217D03*
X0049902Y0058493D03*
X0050178Y0059359D03*
X0050178Y0059635D03*
X0050178Y0060225D03*
X0050454Y0060501D03*
X0050454Y0061091D03*
X0050769Y0062233D03*
X0050769Y0062509D03*
X0051044Y0063099D03*
X0051044Y0063375D03*
X0051044Y0063965D03*
X0047894Y0049005D03*
X0047894Y0048729D03*
X0047580Y0048139D03*
X0047580Y0047863D03*
X0047580Y0047587D03*
X0047304Y0046131D03*
X0047304Y0045855D03*
X0047028Y0045265D03*
X0047028Y0044989D03*
X0047028Y0044713D03*
X0046713Y0043847D03*
X0046713Y0043257D03*
X0046438Y0042391D03*
X0046438Y0042115D03*
X0046438Y0041839D03*
X0046162Y0041249D03*
X0046162Y0040973D03*
X0045572Y0038375D03*
X0045572Y0038099D03*
X0034666Y0040383D03*
X0034391Y0040107D03*
X0034391Y0039517D03*
X0034391Y0039241D03*
X0034076Y0038375D03*
X0034076Y0038099D03*
X0033800Y0037233D03*
X0034666Y0040973D03*
X0034942Y0042115D03*
X0034942Y0042391D03*
X0035532Y0044713D03*
X0035532Y0044989D03*
X0035532Y0045265D03*
X0035808Y0045855D03*
X0035808Y0046131D03*
X0057658Y0041249D03*
X0072028Y0038375D03*
X0072028Y0038099D03*
X0072304Y0039241D03*
X0072304Y0039517D03*
X0072304Y0040107D03*
X0072580Y0040383D03*
X0072580Y0040973D03*
X0072894Y0042115D03*
X0072894Y0042391D03*
X0073170Y0042981D03*
X0073170Y0043257D03*
X0073170Y0043847D03*
X0073446Y0044989D03*
X0073446Y0045265D03*
X0073761Y0045855D03*
X0073761Y0046131D03*
X0074036Y0047587D03*
X0074036Y0047863D03*
X0074312Y0048729D03*
X0074312Y0049005D03*
X0074902Y0051603D03*
X0074902Y0051879D03*
X0075178Y0052745D03*
X0075454Y0054477D03*
X0075454Y0054753D03*
X0075769Y0055343D03*
X0075769Y0055619D03*
X0076044Y0057351D03*
X0076044Y0057627D03*
X0076320Y0058217D03*
X0076320Y0058493D03*
X0076635Y0060225D03*
X0076910Y0061091D03*
X0077186Y0062509D03*
X0064548Y0056209D03*
X0064272Y0054477D03*
X0061024Y0088178D03*
X0061024Y0088769D03*
X0061300Y0089044D03*
X0061300Y0089320D03*
X0061300Y0089595D03*
X0061300Y0089871D03*
X0061300Y0090146D03*
X0061576Y0090737D03*
X0061576Y0091013D03*
X0061576Y0091288D03*
X0062993Y0097469D03*
X0062993Y0097745D03*
X0062993Y0098020D03*
X0063269Y0098611D03*
X0063269Y0098887D03*
X0063269Y0099162D03*
X0063269Y0099438D03*
X0063269Y0099713D03*
X0063544Y0099989D03*
X0063544Y0100580D03*
X0063544Y0100855D03*
X0064961Y0106761D03*
X0064961Y0107036D03*
X0064961Y0107312D03*
X0064961Y0107587D03*
X0065237Y0107863D03*
X0065237Y0108454D03*
X0065237Y0108729D03*
X0065513Y0109556D03*
X0065513Y0109831D03*
X0041339Y0112942D03*
X0041339Y0113217D03*
X0039922Y0107036D03*
X0039922Y0106761D03*
X0039646Y0105343D03*
X0039646Y0105068D03*
X0039371Y0104517D03*
X0039371Y0103926D03*
X0039371Y0103650D03*
X0037954Y0098020D03*
X0037954Y0097745D03*
X0037954Y0097469D03*
X0037954Y0097194D03*
X0037678Y0096052D03*
X0037678Y0095776D03*
X0037678Y0095501D03*
X0037402Y0095225D03*
X0037402Y0094950D03*
X0037402Y0094674D03*
X0035985Y0088178D03*
X0035985Y0087902D03*
X0012363Y0094083D03*
X0012363Y0094674D03*
X0012363Y0094950D03*
X0012363Y0095225D03*
X0012087Y0093532D03*
X0012087Y0093257D03*
X0012087Y0092981D03*
X0011812Y0092115D03*
X0011812Y0091839D03*
X0011812Y0091564D03*
X0011812Y0091288D03*
X0013780Y0100580D03*
X0013780Y0100855D03*
X0013780Y0101131D03*
X0013780Y0101406D03*
X0014056Y0102548D03*
X0014056Y0102824D03*
X0014331Y0103375D03*
X0014331Y0103650D03*
X0014331Y0103926D03*
X0015749Y0110422D03*
X0016024Y0111800D03*
X0016300Y0112666D03*
X0016300Y0112942D03*
X0016300Y0113217D03*
X0090552Y0110422D03*
X0090552Y0109831D03*
X0090828Y0110973D03*
X0090828Y0111249D03*
X0090828Y0111524D03*
X0090828Y0111800D03*
X0091103Y0112391D03*
X0091103Y0112666D03*
X0091103Y0112942D03*
X0096457Y0104517D03*
X0096733Y0104792D03*
X0096733Y0105068D03*
X0096733Y0105343D03*
X0096733Y0105619D03*
X0096733Y0105894D03*
X0096457Y0103926D03*
X0095040Y0097469D03*
X0095040Y0097194D03*
X0095040Y0096918D03*
X0094765Y0096643D03*
X0094765Y0096052D03*
X0094765Y0095776D03*
X0094765Y0095501D03*
X0094489Y0094950D03*
X0094489Y0094674D03*
X0093072Y0088178D03*
X0093072Y0087902D03*
X0103643Y0063099D03*
X0103328Y0061957D03*
X0103052Y0060501D03*
X0103052Y0060225D03*
X0102776Y0059359D03*
X0102776Y0059083D03*
X0102186Y0056485D03*
X0102186Y0056209D03*
X0101910Y0055343D03*
X0101635Y0053887D03*
X0101635Y0053611D03*
X0101635Y0053335D03*
X0101320Y0052745D03*
X0101320Y0052469D03*
X0101044Y0051013D03*
X0101044Y0050737D03*
X0100769Y0050461D03*
X0100769Y0049871D03*
X0100769Y0049595D03*
X0100454Y0048729D03*
X0100454Y0048139D03*
X0100178Y0047587D03*
X0100178Y0046997D03*
X0099902Y0046131D03*
X0099902Y0045855D03*
X0099036Y0041249D03*
X0098761Y0040383D03*
X0098761Y0040107D03*
X0098446Y0038965D03*
X0098446Y0038375D03*
X0098170Y0037509D03*
X0098170Y0037233D03*
X0290158Y0037509D03*
X0290158Y0038099D03*
X0290434Y0038375D03*
X0290434Y0038965D03*
X0290434Y0039241D03*
X0290709Y0040107D03*
X0290709Y0040383D03*
X0291024Y0041249D03*
X0291024Y0041839D03*
X0291024Y0042115D03*
X0291024Y0042391D03*
X0291300Y0042981D03*
X0291300Y0043257D03*
X0291576Y0044123D03*
X0291576Y0044713D03*
X0291576Y0044989D03*
X0292166Y0046997D03*
X0292166Y0047587D03*
X0292166Y0047863D03*
X0292442Y0048139D03*
X0292442Y0048729D03*
X0292717Y0049871D03*
X0292717Y0050461D03*
X0293032Y0050737D03*
X0293032Y0051013D03*
X0293032Y0051603D03*
X0293308Y0052469D03*
X0293308Y0052745D03*
X0293583Y0053335D03*
X0293583Y0053611D03*
X0293583Y0053887D03*
X0293583Y0054477D03*
X0293898Y0055343D03*
X0293898Y0055619D03*
X0294174Y0056209D03*
X0294174Y0056485D03*
X0294174Y0056761D03*
X0294174Y0057351D03*
X0294450Y0057627D03*
X0294450Y0058217D03*
X0294450Y0058493D03*
X0295040Y0060501D03*
X0295040Y0061091D03*
X0295316Y0061957D03*
X0295316Y0062233D03*
X0295316Y0062509D03*
X0295591Y0063099D03*
X0295591Y0063375D03*
X0318032Y0045265D03*
X0318032Y0044989D03*
X0318032Y0044713D03*
X0318308Y0045855D03*
X0318308Y0046131D03*
X0318583Y0047587D03*
X0318583Y0047863D03*
X0318898Y0048729D03*
X0318898Y0049005D03*
X0319174Y0050461D03*
X0319450Y0051603D03*
X0319450Y0051879D03*
X0319765Y0052745D03*
X0320040Y0054477D03*
X0320040Y0054753D03*
X0320316Y0055343D03*
X0320316Y0055619D03*
X0320906Y0058217D03*
X0320906Y0058493D03*
X0321457Y0061091D03*
X0321772Y0062509D03*
X0322048Y0063375D03*
X0322048Y0063965D03*
X0332678Y0060225D03*
X0332954Y0060501D03*
X0332954Y0061091D03*
X0333269Y0062233D03*
X0333269Y0062509D03*
X0333544Y0063099D03*
X0333544Y0063375D03*
X0333544Y0063965D03*
X0332678Y0059635D03*
X0332678Y0059359D03*
X0332402Y0058493D03*
X0332402Y0058217D03*
X0332087Y0057627D03*
X0332087Y0057351D03*
X0332087Y0056761D03*
X0332087Y0056485D03*
X0331812Y0055619D03*
X0331812Y0055343D03*
X0331536Y0054753D03*
X0331536Y0054477D03*
X0331536Y0053887D03*
X0331536Y0053611D03*
X0330946Y0051879D03*
X0330946Y0051603D03*
X0330946Y0051013D03*
X0330670Y0050737D03*
X0330670Y0050461D03*
X0330394Y0049005D03*
X0330394Y0048729D03*
X0330080Y0048139D03*
X0330080Y0047863D03*
X0330080Y0047587D03*
X0329804Y0046131D03*
X0329804Y0045855D03*
X0329528Y0045265D03*
X0329528Y0044989D03*
X0329528Y0044713D03*
X0329213Y0043847D03*
X0329213Y0043257D03*
X0328938Y0042391D03*
X0328938Y0042115D03*
X0328938Y0041839D03*
X0328662Y0041249D03*
X0328662Y0040973D03*
X0328072Y0038375D03*
X0328072Y0038099D03*
X0317166Y0040383D03*
X0316891Y0040107D03*
X0316891Y0039517D03*
X0316891Y0039241D03*
X0316576Y0038375D03*
X0316576Y0038099D03*
X0316300Y0037233D03*
X0317166Y0040973D03*
X0317442Y0042115D03*
X0317442Y0042391D03*
X0340158Y0041249D03*
X0346772Y0054477D03*
X0347048Y0056209D03*
X0357954Y0054753D03*
X0357954Y0054477D03*
X0358269Y0055343D03*
X0358269Y0055619D03*
X0358544Y0057351D03*
X0358544Y0057627D03*
X0358820Y0058217D03*
X0358820Y0058493D03*
X0359135Y0060225D03*
X0359410Y0061091D03*
X0359686Y0062509D03*
X0357678Y0052745D03*
X0357402Y0051879D03*
X0357402Y0051603D03*
X0356812Y0049005D03*
X0356812Y0048729D03*
X0356536Y0047863D03*
X0356536Y0047587D03*
X0356261Y0046131D03*
X0356261Y0045855D03*
X0355946Y0045265D03*
X0355946Y0044989D03*
X0355670Y0043847D03*
X0355670Y0043257D03*
X0355670Y0042981D03*
X0355394Y0042391D03*
X0355394Y0042115D03*
X0355080Y0040973D03*
X0355080Y0040383D03*
X0354804Y0040107D03*
X0354804Y0039517D03*
X0354804Y0039241D03*
X0354528Y0038375D03*
X0354528Y0038099D03*
X0380670Y0037509D03*
X0380670Y0037233D03*
X0380946Y0038375D03*
X0380946Y0038965D03*
X0381261Y0040107D03*
X0381261Y0040383D03*
X0381536Y0041249D03*
X0382402Y0045855D03*
X0382402Y0046131D03*
X0382678Y0046997D03*
X0382678Y0047587D03*
X0382954Y0048139D03*
X0382954Y0048729D03*
X0383269Y0049595D03*
X0383269Y0049871D03*
X0383269Y0050461D03*
X0383544Y0050737D03*
X0383544Y0051013D03*
X0383820Y0052469D03*
X0383820Y0052745D03*
X0384135Y0053335D03*
X0384135Y0053611D03*
X0384135Y0053887D03*
X0384410Y0055343D03*
X0384686Y0056209D03*
X0384686Y0056485D03*
X0385276Y0059083D03*
X0385276Y0059359D03*
X0385552Y0060225D03*
X0385552Y0060501D03*
X0385828Y0061957D03*
X0386143Y0063099D03*
D31*
X0379095Y0052745D03*
X0387993Y0041249D03*
X0351497Y0063965D03*
X0347481Y0044989D03*
X0328505Y0063965D03*
X0315001Y0052745D03*
X0105493Y0041249D03*
X0096595Y0052745D03*
X0068997Y0063965D03*
X0064981Y0044989D03*
X0046005Y0063965D03*
X0032501Y0052745D03*
D32*
X0038111Y0057351D03*
X0048741Y0053335D03*
X0048741Y0052745D03*
X0045867Y0040107D03*
X0045867Y0039517D03*
X0045867Y0039241D03*
X0045867Y0038965D03*
X0035237Y0042981D03*
X0035237Y0043257D03*
X0012245Y0059083D03*
X0012245Y0059359D03*
X0012245Y0059635D03*
X0009371Y0046131D03*
X0009371Y0045855D03*
X0009371Y0045265D03*
X0010965Y0087902D03*
X0010965Y0088178D03*
X0011241Y0088769D03*
X0011241Y0089044D03*
X0011241Y0089320D03*
X0011241Y0089595D03*
X0011517Y0090737D03*
X0011517Y0091013D03*
X0012658Y0095501D03*
X0012658Y0095776D03*
X0012658Y0096052D03*
X0012934Y0096918D03*
X0012934Y0097194D03*
X0012934Y0097469D03*
X0012934Y0097745D03*
X0013209Y0098020D03*
X0013209Y0098611D03*
X0013485Y0099713D03*
X0013485Y0099989D03*
X0014627Y0104792D03*
X0014627Y0105068D03*
X0014627Y0105343D03*
X0014902Y0106485D03*
X0014902Y0106761D03*
X0015178Y0107312D03*
X0015178Y0107587D03*
X0015178Y0107863D03*
X0015454Y0109005D03*
X0015454Y0109280D03*
X0015454Y0109556D03*
X0039076Y0102824D03*
X0039076Y0102548D03*
X0038800Y0101682D03*
X0038800Y0101406D03*
X0038800Y0101131D03*
X0038800Y0100855D03*
X0038524Y0099989D03*
X0038249Y0098887D03*
X0038249Y0098611D03*
X0040217Y0107587D03*
X0040217Y0107863D03*
X0040493Y0109280D03*
X0040493Y0109556D03*
X0040769Y0110422D03*
X0040769Y0110698D03*
X0040769Y0110973D03*
X0041044Y0111800D03*
X0037107Y0093532D03*
X0037107Y0093257D03*
X0037107Y0092981D03*
X0036831Y0092706D03*
X0036831Y0092115D03*
X0036831Y0091839D03*
X0036831Y0091564D03*
X0036556Y0091288D03*
X0036556Y0091013D03*
X0036556Y0090737D03*
X0036280Y0089871D03*
X0036280Y0089595D03*
X0036280Y0089320D03*
X0036280Y0089044D03*
X0061871Y0092115D03*
X0061871Y0092706D03*
X0061871Y0092981D03*
X0062146Y0093257D03*
X0062146Y0093532D03*
X0062146Y0093808D03*
X0062146Y0094083D03*
X0062422Y0094950D03*
X0062422Y0095225D03*
X0062422Y0095501D03*
X0062698Y0096052D03*
X0062698Y0096643D03*
X0063839Y0101406D03*
X0063839Y0101682D03*
X0063839Y0101957D03*
X0064115Y0102824D03*
X0064115Y0103099D03*
X0064115Y0103375D03*
X0064391Y0104517D03*
X0064391Y0104792D03*
X0064666Y0105343D03*
X0064666Y0105619D03*
X0064666Y0105894D03*
X0065808Y0110698D03*
X0065808Y0110973D03*
X0065808Y0111249D03*
X0065808Y0111524D03*
X0065808Y0111800D03*
X0066083Y0112391D03*
X0066083Y0112666D03*
X0066359Y0113493D03*
X0066359Y0113769D03*
X0091398Y0113769D03*
X0096162Y0103099D03*
X0096162Y0102824D03*
X0096162Y0102548D03*
X0095887Y0101682D03*
X0095887Y0101406D03*
X0095887Y0101131D03*
X0095611Y0099989D03*
X0095611Y0099713D03*
X0095335Y0099162D03*
X0095335Y0098887D03*
X0095335Y0098611D03*
X0094194Y0093532D03*
X0094194Y0093257D03*
X0094194Y0092981D03*
X0094194Y0092706D03*
X0093918Y0092115D03*
X0093918Y0091839D03*
X0093918Y0091564D03*
X0093643Y0090737D03*
X0093643Y0090146D03*
X0093367Y0089595D03*
X0093367Y0089320D03*
X0093367Y0089044D03*
X0077481Y0063965D03*
X0074607Y0050461D03*
X0071733Y0037509D03*
X0071733Y0037233D03*
X0102481Y0057627D03*
X0291871Y0046131D03*
X0291871Y0045855D03*
X0291871Y0045265D03*
X0294745Y0059083D03*
X0294745Y0059359D03*
X0294745Y0059635D03*
X0317737Y0043257D03*
X0317737Y0042981D03*
X0328367Y0040107D03*
X0328367Y0039517D03*
X0328367Y0039241D03*
X0328367Y0038965D03*
X0331241Y0052745D03*
X0331241Y0053335D03*
X0320611Y0057351D03*
X0354233Y0037509D03*
X0354233Y0037233D03*
X0357107Y0050461D03*
X0359981Y0063965D03*
X0384981Y0057627D03*
D33*
X0385276Y0058788D03*
X0385828Y0061662D03*
X0386143Y0062804D03*
X0384686Y0055914D03*
X0384410Y0055048D03*
X0383820Y0053040D03*
X0383544Y0051308D03*
X0383269Y0050166D03*
X0382954Y0048434D03*
X0382678Y0047292D03*
X0382402Y0045560D03*
X0380946Y0038670D03*
X0380670Y0037804D03*
X0358544Y0057056D03*
X0358269Y0055914D03*
X0357678Y0053040D03*
X0357402Y0052174D03*
X0356812Y0049300D03*
X0356261Y0046426D03*
X0355670Y0043552D03*
X0355394Y0042686D03*
X0355080Y0040678D03*
X0354804Y0039812D03*
X0354528Y0037804D03*
X0347048Y0055914D03*
X0359135Y0059930D03*
X0359410Y0060796D03*
X0359686Y0062804D03*
X0333544Y0063670D03*
X0333269Y0062804D03*
X0332954Y0060796D03*
X0332678Y0059930D03*
X0332402Y0057922D03*
X0332087Y0057056D03*
X0331812Y0055914D03*
X0331536Y0054182D03*
X0330946Y0051308D03*
X0330670Y0050166D03*
X0330394Y0048434D03*
X0330080Y0047292D03*
X0329804Y0046426D03*
X0329528Y0045560D03*
X0329213Y0043552D03*
X0328938Y0042686D03*
X0328662Y0040678D03*
X0328072Y0038670D03*
X0318308Y0046426D03*
X0318898Y0048434D03*
X0318898Y0049300D03*
X0319174Y0050166D03*
X0319450Y0051308D03*
X0319450Y0052174D03*
X0319765Y0053040D03*
X0320040Y0054182D03*
X0320906Y0057922D03*
X0321182Y0059930D03*
X0321457Y0060796D03*
X0322048Y0063670D03*
X0317442Y0042686D03*
X0317166Y0040678D03*
X0316891Y0039812D03*
X0316576Y0037804D03*
X0293898Y0055048D03*
X0293583Y0054182D03*
X0293308Y0053040D03*
X0293032Y0051308D03*
X0292717Y0050166D03*
X0292442Y0048434D03*
X0292166Y0047292D03*
X0291576Y0044418D03*
X0291300Y0042686D03*
X0291024Y0041544D03*
X0290709Y0040678D03*
X0290434Y0038670D03*
X0290158Y0037804D03*
X0294174Y0057056D03*
X0294450Y0057922D03*
X0295040Y0060796D03*
X0295316Y0062804D03*
X0295591Y0063670D03*
X0103643Y0062804D03*
X0103328Y0061662D03*
X0102776Y0058788D03*
X0102186Y0055914D03*
X0101910Y0055048D03*
X0101320Y0053040D03*
X0101044Y0051308D03*
X0100769Y0050166D03*
X0100454Y0048434D03*
X0100178Y0047292D03*
X0099902Y0045560D03*
X0098446Y0038670D03*
X0098170Y0037804D03*
X0076635Y0059930D03*
X0076910Y0060796D03*
X0077186Y0062804D03*
X0076044Y0057056D03*
X0075769Y0055914D03*
X0075178Y0053040D03*
X0074902Y0052174D03*
X0074312Y0049300D03*
X0073761Y0046426D03*
X0073170Y0043552D03*
X0072894Y0042686D03*
X0072580Y0040678D03*
X0072304Y0039812D03*
X0072028Y0037804D03*
X0064548Y0055914D03*
X0049902Y0057922D03*
X0049587Y0057056D03*
X0049312Y0055914D03*
X0049036Y0054182D03*
X0048446Y0051308D03*
X0048170Y0050166D03*
X0047894Y0048434D03*
X0047580Y0047292D03*
X0047304Y0046426D03*
X0047028Y0045560D03*
X0046713Y0043552D03*
X0046438Y0042686D03*
X0046162Y0040678D03*
X0045572Y0038670D03*
X0036398Y0048434D03*
X0036398Y0049300D03*
X0036674Y0050166D03*
X0036950Y0051308D03*
X0036950Y0052174D03*
X0037265Y0053040D03*
X0037540Y0054182D03*
X0038406Y0057922D03*
X0038682Y0059930D03*
X0038957Y0060796D03*
X0039548Y0063670D03*
X0050769Y0062804D03*
X0051044Y0063670D03*
X0050454Y0060796D03*
X0050178Y0059930D03*
X0035808Y0046426D03*
X0034942Y0042686D03*
X0034666Y0040678D03*
X0034391Y0039812D03*
X0034076Y0037804D03*
X0012540Y0060796D03*
X0012816Y0062804D03*
X0013091Y0063670D03*
X0011950Y0057922D03*
X0011674Y0057056D03*
X0011398Y0055048D03*
X0011083Y0054182D03*
X0010808Y0053040D03*
X0010532Y0051308D03*
X0010217Y0050166D03*
X0009942Y0048434D03*
X0009666Y0047292D03*
X0009076Y0044418D03*
X0008800Y0042686D03*
X0008524Y0041544D03*
X0008209Y0040678D03*
X0007934Y0038670D03*
X0007658Y0037804D03*
X0035985Y0088473D03*
X0037402Y0094379D03*
X0037678Y0096347D03*
X0039371Y0104221D03*
X0062993Y0098316D03*
X0063544Y0100284D03*
X0065237Y0108158D03*
X0065513Y0110127D03*
X0061300Y0090442D03*
X0061024Y0088473D03*
X0090552Y0110127D03*
X0096457Y0104221D03*
X0094765Y0096347D03*
X0094489Y0094379D03*
X0015749Y0110127D03*
X0016024Y0112095D03*
X0014331Y0104221D03*
X0014056Y0102253D03*
X0012363Y0094379D03*
X0011812Y0092410D03*
D34*
X0034942Y0063670D03*
X0046162Y0063670D03*
X0046162Y0062804D03*
X0045572Y0059930D03*
X0042422Y0045560D03*
X0041831Y0042686D03*
X0053918Y0045560D03*
X0054194Y0047292D03*
X0072028Y0058788D03*
X0072028Y0059930D03*
X0069154Y0063670D03*
X0094430Y0040678D03*
X0105650Y0040678D03*
X0106792Y0046426D03*
X0108800Y0055914D03*
X0109942Y0060796D03*
X0018288Y0055914D03*
X0300788Y0055914D03*
X0317442Y0063670D03*
X0328662Y0063670D03*
X0328662Y0062804D03*
X0328072Y0059930D03*
X0324922Y0045560D03*
X0324331Y0042686D03*
X0336418Y0045560D03*
X0336694Y0047292D03*
X0351654Y0063670D03*
X0354528Y0059930D03*
X0354528Y0058788D03*
X0376930Y0040678D03*
X0388150Y0040678D03*
X0389292Y0046426D03*
X0391300Y0055914D03*
X0392442Y0060796D03*
D35*
X0384981Y0057922D03*
X0359981Y0063670D03*
X0357107Y0050166D03*
X0331241Y0053040D03*
X0328367Y0039812D03*
X0317737Y0043552D03*
X0320611Y0057056D03*
X0294745Y0059930D03*
X0291871Y0045560D03*
X0102481Y0057922D03*
X0077481Y0063670D03*
X0074607Y0050166D03*
X0048741Y0053040D03*
X0045867Y0039812D03*
X0035237Y0043552D03*
X0038111Y0057056D03*
X0012245Y0059930D03*
X0009371Y0045560D03*
X0010965Y0088473D03*
X0011517Y0090442D03*
X0013209Y0098316D03*
X0013485Y0100284D03*
X0014902Y0106190D03*
X0038524Y0100284D03*
X0038249Y0098316D03*
X0036831Y0092410D03*
X0036556Y0090442D03*
X0040217Y0108158D03*
X0040769Y0110127D03*
X0041044Y0112095D03*
X0064391Y0104221D03*
X0063839Y0102253D03*
X0062698Y0096347D03*
X0061871Y0092410D03*
X0066083Y0112095D03*
X0096162Y0102253D03*
X0095611Y0100284D03*
X0095335Y0098316D03*
X0093918Y0092410D03*
X0093643Y0090442D03*
D36*
X0099174Y0063670D03*
X0381674Y0063670D03*
D37*
X0379095Y0053040D03*
X0387993Y0041544D03*
X0392875Y0063670D03*
X0350355Y0041544D03*
X0110375Y0063670D03*
X0096595Y0053040D03*
X0105493Y0041544D03*
X0067855Y0041544D03*
D38*
X0068150Y0040383D03*
X0067835Y0040107D03*
X0067835Y0039517D03*
X0067560Y0038375D03*
X0067560Y0038099D03*
X0064961Y0043257D03*
X0064961Y0043847D03*
X0066143Y0048729D03*
X0070709Y0052745D03*
X0070709Y0053335D03*
X0071024Y0053887D03*
X0071024Y0054477D03*
X0071024Y0054753D03*
X0071300Y0055343D03*
X0071300Y0055619D03*
X0071576Y0056761D03*
X0071576Y0057351D03*
X0071891Y0057627D03*
X0071891Y0058217D03*
X0071891Y0058493D03*
X0069017Y0062509D03*
X0069017Y0063099D03*
X0082520Y0056485D03*
X0082520Y0056209D03*
X0082520Y0055619D03*
X0082206Y0054753D03*
X0082206Y0054477D03*
X0080198Y0044989D03*
X0080198Y0044713D03*
X0079922Y0044123D03*
X0079922Y0043847D03*
X0079922Y0043257D03*
X0094292Y0040383D03*
X0094292Y0040107D03*
X0094017Y0038965D03*
X0094017Y0038375D03*
X0094017Y0038099D03*
X0093702Y0037509D03*
X0093702Y0037233D03*
X0104922Y0037233D03*
X0104922Y0037509D03*
X0105198Y0038375D03*
X0105198Y0038965D03*
X0105198Y0039241D03*
X0105513Y0040107D03*
X0105513Y0040383D03*
X0106654Y0045855D03*
X0106654Y0046131D03*
X0106930Y0046721D03*
X0106930Y0046997D03*
X0107206Y0047863D03*
X0107206Y0048139D03*
X0107206Y0048729D03*
X0107206Y0049005D03*
X0107520Y0049595D03*
X0107520Y0049871D03*
X0107796Y0050461D03*
X0107796Y0050737D03*
X0107796Y0051013D03*
X0107796Y0051603D03*
X0108072Y0051879D03*
X0108072Y0052469D03*
X0108072Y0052745D03*
X0108387Y0053335D03*
X0108387Y0053611D03*
X0108387Y0053887D03*
X0108662Y0054477D03*
X0108662Y0054753D03*
X0108662Y0055343D03*
X0108938Y0056209D03*
X0108938Y0056485D03*
X0108938Y0056761D03*
X0109253Y0057351D03*
X0109253Y0057627D03*
X0109528Y0059083D03*
X0109528Y0059359D03*
X0109804Y0059635D03*
X0109804Y0060225D03*
X0109804Y0060501D03*
X0110080Y0061367D03*
X0110080Y0061957D03*
X0110394Y0062509D03*
X0110394Y0063099D03*
X0110394Y0063375D03*
X0099174Y0063099D03*
X0099174Y0062509D03*
X0098898Y0061957D03*
X0098898Y0061367D03*
X0098583Y0060501D03*
X0096576Y0051013D03*
X0096576Y0050737D03*
X0096576Y0050461D03*
X0096300Y0049871D03*
X0096300Y0049595D03*
X0059804Y0038099D03*
X0056930Y0041839D03*
X0053190Y0041839D03*
X0052914Y0041249D03*
X0052914Y0040973D03*
X0052914Y0040383D03*
X0052639Y0039517D03*
X0052639Y0039241D03*
X0052639Y0038965D03*
X0052324Y0038375D03*
X0052324Y0038099D03*
X0053780Y0044989D03*
X0053780Y0045265D03*
X0054056Y0046131D03*
X0054056Y0046721D03*
X0054331Y0047587D03*
X0054331Y0047863D03*
X0055788Y0054753D03*
X0056064Y0055343D03*
X0056064Y0055619D03*
X0056339Y0056485D03*
X0056339Y0056761D03*
X0045434Y0059083D03*
X0045434Y0059359D03*
X0045434Y0059635D03*
X0045158Y0058493D03*
X0045158Y0058217D03*
X0044843Y0056761D03*
X0044843Y0056485D03*
X0044568Y0056209D03*
X0044568Y0055619D03*
X0044568Y0055343D03*
X0044292Y0054477D03*
X0044292Y0053887D03*
X0044017Y0053335D03*
X0044017Y0052745D03*
X0044017Y0052469D03*
X0043702Y0051879D03*
X0043702Y0051603D03*
X0043426Y0050461D03*
X0043426Y0049871D03*
X0043150Y0049005D03*
X0043150Y0048729D03*
X0042835Y0047863D03*
X0042835Y0047587D03*
X0042835Y0046997D03*
X0042560Y0046721D03*
X0042560Y0046131D03*
X0042560Y0045855D03*
X0042284Y0044989D03*
X0042284Y0044713D03*
X0041969Y0043847D03*
X0041969Y0043257D03*
X0041969Y0042981D03*
X0041694Y0042391D03*
X0041694Y0042115D03*
X0041694Y0041839D03*
X0041418Y0041249D03*
X0041418Y0040973D03*
X0041418Y0040383D03*
X0041418Y0040107D03*
X0041143Y0039517D03*
X0041143Y0039241D03*
X0041143Y0038965D03*
X0040828Y0038375D03*
X0040828Y0038099D03*
X0040828Y0037509D03*
X0031930Y0048729D03*
X0031930Y0049005D03*
X0031930Y0049595D03*
X0032206Y0049871D03*
X0032206Y0050461D03*
X0032206Y0050737D03*
X0032520Y0051603D03*
X0032520Y0051879D03*
X0034213Y0060225D03*
X0034528Y0061091D03*
X0034528Y0061367D03*
X0034804Y0062233D03*
X0034804Y0062509D03*
X0034804Y0063099D03*
X0035080Y0063375D03*
X0045709Y0061367D03*
X0045709Y0061091D03*
X0046024Y0061957D03*
X0046024Y0062233D03*
X0046024Y0062509D03*
X0018426Y0056761D03*
X0018426Y0056485D03*
X0018150Y0055619D03*
X0018150Y0055343D03*
X0016143Y0045265D03*
X0015828Y0044989D03*
X0015828Y0044713D03*
X0015828Y0044123D03*
X0015552Y0043257D03*
X0015552Y0042981D03*
X0015276Y0042115D03*
X0015276Y0041839D03*
X0014961Y0040383D03*
X0014961Y0040107D03*
X0014686Y0039241D03*
X0014686Y0038965D03*
X0014410Y0038099D03*
X0014410Y0037509D03*
X0014410Y0037233D03*
X0296910Y0037233D03*
X0296910Y0037509D03*
X0296910Y0038099D03*
X0297186Y0038965D03*
X0297186Y0039241D03*
X0297461Y0040107D03*
X0297461Y0040383D03*
X0297776Y0041839D03*
X0297776Y0042115D03*
X0298052Y0042981D03*
X0298052Y0043257D03*
X0298328Y0044123D03*
X0298328Y0044713D03*
X0298328Y0044989D03*
X0298643Y0045265D03*
X0300650Y0055343D03*
X0300650Y0055619D03*
X0300926Y0056485D03*
X0300926Y0056761D03*
X0315020Y0051879D03*
X0315020Y0051603D03*
X0314706Y0050737D03*
X0314706Y0050461D03*
X0314706Y0049871D03*
X0314430Y0049595D03*
X0314430Y0049005D03*
X0314430Y0048729D03*
X0325060Y0046721D03*
X0325335Y0046997D03*
X0325335Y0047587D03*
X0325335Y0047863D03*
X0325650Y0048729D03*
X0325650Y0049005D03*
X0325926Y0049871D03*
X0325926Y0050461D03*
X0326202Y0051603D03*
X0326202Y0051879D03*
X0326517Y0052469D03*
X0326517Y0052745D03*
X0326517Y0053335D03*
X0326792Y0053887D03*
X0326792Y0054477D03*
X0327068Y0055343D03*
X0327068Y0055619D03*
X0327068Y0056209D03*
X0327343Y0056485D03*
X0327343Y0056761D03*
X0327658Y0058217D03*
X0327658Y0058493D03*
X0327934Y0059083D03*
X0327934Y0059359D03*
X0327934Y0059635D03*
X0328209Y0061091D03*
X0328209Y0061367D03*
X0328524Y0061957D03*
X0328524Y0062233D03*
X0328524Y0062509D03*
X0317580Y0063375D03*
X0317304Y0063099D03*
X0317304Y0062509D03*
X0317304Y0062233D03*
X0317028Y0061367D03*
X0317028Y0061091D03*
X0316713Y0060225D03*
X0325060Y0046131D03*
X0325060Y0045855D03*
X0324784Y0044989D03*
X0324784Y0044713D03*
X0324469Y0043847D03*
X0324469Y0043257D03*
X0324469Y0042981D03*
X0324194Y0042391D03*
X0324194Y0042115D03*
X0324194Y0041839D03*
X0323918Y0041249D03*
X0323918Y0040973D03*
X0323918Y0040383D03*
X0323918Y0040107D03*
X0323643Y0039517D03*
X0323643Y0039241D03*
X0323643Y0038965D03*
X0323328Y0038375D03*
X0323328Y0038099D03*
X0323328Y0037509D03*
X0334824Y0038099D03*
X0334824Y0038375D03*
X0335139Y0038965D03*
X0335139Y0039241D03*
X0335139Y0039517D03*
X0335414Y0040383D03*
X0335414Y0040973D03*
X0335414Y0041249D03*
X0335690Y0041839D03*
X0336280Y0044989D03*
X0336280Y0045265D03*
X0336556Y0046131D03*
X0336556Y0046721D03*
X0336831Y0047587D03*
X0336831Y0047863D03*
X0339430Y0041839D03*
X0342304Y0038099D03*
X0347461Y0043257D03*
X0347461Y0043847D03*
X0350650Y0040383D03*
X0350335Y0040107D03*
X0350335Y0039517D03*
X0350060Y0038375D03*
X0350060Y0038099D03*
X0348643Y0048729D03*
X0353209Y0052745D03*
X0353209Y0053335D03*
X0353524Y0053887D03*
X0353524Y0054477D03*
X0353524Y0054753D03*
X0353800Y0055343D03*
X0353800Y0055619D03*
X0354076Y0056761D03*
X0354076Y0057351D03*
X0354391Y0057627D03*
X0354391Y0058217D03*
X0354391Y0058493D03*
X0351517Y0062509D03*
X0351517Y0063099D03*
X0338839Y0056761D03*
X0338839Y0056485D03*
X0338564Y0055619D03*
X0338564Y0055343D03*
X0338288Y0054753D03*
X0362698Y0044989D03*
X0362698Y0044713D03*
X0362422Y0044123D03*
X0362422Y0043847D03*
X0362422Y0043257D03*
X0364706Y0054477D03*
X0364706Y0054753D03*
X0365020Y0055619D03*
X0365020Y0056209D03*
X0365020Y0056485D03*
X0376792Y0040383D03*
X0376792Y0040107D03*
X0376517Y0038965D03*
X0376517Y0038375D03*
X0376517Y0038099D03*
X0376202Y0037509D03*
X0376202Y0037233D03*
X0387422Y0037233D03*
X0387422Y0037509D03*
X0387698Y0038375D03*
X0387698Y0038965D03*
X0387698Y0039241D03*
X0388013Y0040107D03*
X0388013Y0040383D03*
X0389154Y0045855D03*
X0389154Y0046131D03*
X0389430Y0046721D03*
X0389430Y0046997D03*
X0389706Y0047863D03*
X0389706Y0048139D03*
X0389706Y0048729D03*
X0389706Y0049005D03*
X0390020Y0049595D03*
X0390020Y0049871D03*
X0390296Y0050461D03*
X0390296Y0050737D03*
X0390296Y0051013D03*
X0390296Y0051603D03*
X0390572Y0051879D03*
X0390572Y0052469D03*
X0390572Y0052745D03*
X0390887Y0053335D03*
X0390887Y0053611D03*
X0390887Y0053887D03*
X0391162Y0054477D03*
X0391162Y0054753D03*
X0391162Y0055343D03*
X0391438Y0056209D03*
X0391438Y0056485D03*
X0391438Y0056761D03*
X0391753Y0057351D03*
X0391753Y0057627D03*
X0392028Y0059083D03*
X0392028Y0059359D03*
X0392304Y0059635D03*
X0392304Y0060225D03*
X0392304Y0060501D03*
X0392580Y0061367D03*
X0392580Y0061957D03*
X0392894Y0062509D03*
X0392894Y0063099D03*
X0392894Y0063375D03*
X0381674Y0063099D03*
X0381674Y0062509D03*
X0381398Y0061957D03*
X0381398Y0061367D03*
X0381083Y0060501D03*
X0379076Y0051013D03*
X0379076Y0050737D03*
X0379076Y0050461D03*
X0378800Y0049871D03*
X0378800Y0049595D03*
D39*
X0378662Y0049005D03*
X0378662Y0048729D03*
X0376654Y0039517D03*
X0376654Y0039241D03*
X0387560Y0038099D03*
X0388150Y0040973D03*
X0391300Y0055619D03*
X0391891Y0058217D03*
X0391891Y0058493D03*
X0392442Y0061091D03*
X0381812Y0063375D03*
X0362284Y0042981D03*
X0350198Y0039241D03*
X0350198Y0038965D03*
X0347324Y0045265D03*
X0353938Y0056209D03*
X0353938Y0056485D03*
X0354528Y0059083D03*
X0354528Y0059359D03*
X0354528Y0059635D03*
X0351654Y0063375D03*
X0338702Y0056209D03*
X0336694Y0046997D03*
X0336418Y0045855D03*
X0326654Y0053611D03*
X0326930Y0054753D03*
X0326064Y0051013D03*
X0326064Y0050737D03*
X0324922Y0045265D03*
X0315158Y0052469D03*
X0317166Y0061957D03*
X0328072Y0060501D03*
X0328072Y0060225D03*
X0328662Y0063099D03*
X0328662Y0063375D03*
X0300788Y0056209D03*
X0298190Y0043847D03*
X0297048Y0038375D03*
X0109942Y0061091D03*
X0109391Y0058493D03*
X0109391Y0058217D03*
X0108800Y0055619D03*
X0099312Y0063375D03*
X0096162Y0049005D03*
X0096162Y0048729D03*
X0094154Y0039517D03*
X0094154Y0039241D03*
X0105060Y0038099D03*
X0105650Y0040973D03*
X0079784Y0042981D03*
X0067698Y0039241D03*
X0067698Y0038965D03*
X0064824Y0045265D03*
X0071438Y0056209D03*
X0071438Y0056485D03*
X0072028Y0059083D03*
X0072028Y0059359D03*
X0072028Y0059635D03*
X0069154Y0063375D03*
X0056202Y0056209D03*
X0054194Y0046997D03*
X0053918Y0045855D03*
X0044430Y0054753D03*
X0044154Y0053611D03*
X0043564Y0051013D03*
X0043564Y0050737D03*
X0042422Y0045265D03*
X0032658Y0052469D03*
X0034666Y0061957D03*
X0045572Y0060501D03*
X0045572Y0060225D03*
X0046162Y0063099D03*
X0046162Y0063375D03*
X0018288Y0056209D03*
X0015690Y0043847D03*
X0014548Y0038375D03*
D40*
X0014686Y0038670D03*
X0014410Y0037804D03*
X0014961Y0040678D03*
X0015276Y0041544D03*
X0015552Y0042686D03*
X0015552Y0043552D03*
X0015828Y0044418D03*
X0018150Y0055048D03*
X0032206Y0050166D03*
X0031930Y0049300D03*
X0032520Y0051308D03*
X0032520Y0052174D03*
X0034528Y0060796D03*
X0034528Y0061662D03*
X0034804Y0062804D03*
X0044017Y0053040D03*
X0044017Y0052174D03*
X0043702Y0051308D03*
X0043426Y0050166D03*
X0043150Y0049300D03*
X0042835Y0047292D03*
X0042560Y0046426D03*
X0042284Y0044418D03*
X0041969Y0043552D03*
X0041418Y0040678D03*
X0041143Y0039812D03*
X0040828Y0038670D03*
X0040828Y0037804D03*
X0052324Y0037804D03*
X0052914Y0040678D03*
X0053190Y0041544D03*
X0054056Y0046426D03*
X0056064Y0055048D03*
X0056064Y0055914D03*
X0045158Y0057922D03*
X0045158Y0058788D03*
X0044843Y0057056D03*
X0044568Y0055914D03*
X0044568Y0055048D03*
X0044292Y0054182D03*
X0045709Y0060796D03*
X0064961Y0043552D03*
X0068150Y0040678D03*
X0067835Y0039812D03*
X0067560Y0038670D03*
X0079922Y0043552D03*
X0070709Y0053040D03*
X0071024Y0054182D03*
X0071300Y0055914D03*
X0071576Y0057056D03*
X0071891Y0057922D03*
X0069017Y0062804D03*
X0082520Y0055914D03*
X0082206Y0055048D03*
X0096300Y0050166D03*
X0096300Y0049300D03*
X0094292Y0039812D03*
X0094017Y0038670D03*
X0104922Y0037804D03*
X0105198Y0038670D03*
X0105513Y0039812D03*
X0106654Y0045560D03*
X0106930Y0047292D03*
X0107206Y0048434D03*
X0107520Y0049300D03*
X0107520Y0050166D03*
X0107796Y0051308D03*
X0108072Y0052174D03*
X0108387Y0054182D03*
X0108662Y0055048D03*
X0109253Y0057056D03*
X0109253Y0057922D03*
X0109528Y0058788D03*
X0109804Y0059930D03*
X0110080Y0061662D03*
X0110394Y0062804D03*
X0099174Y0062804D03*
X0098898Y0061662D03*
X0098583Y0060796D03*
X0296910Y0037804D03*
X0297186Y0038670D03*
X0297461Y0040678D03*
X0297776Y0041544D03*
X0298052Y0042686D03*
X0298052Y0043552D03*
X0298328Y0044418D03*
X0300650Y0055048D03*
X0315020Y0052174D03*
X0315020Y0051308D03*
X0314706Y0050166D03*
X0314430Y0049300D03*
X0325060Y0046426D03*
X0325335Y0047292D03*
X0325650Y0049300D03*
X0325926Y0050166D03*
X0326202Y0051308D03*
X0326517Y0052174D03*
X0326517Y0053040D03*
X0326792Y0054182D03*
X0327068Y0055048D03*
X0327068Y0055914D03*
X0327343Y0057056D03*
X0327658Y0057922D03*
X0327658Y0058788D03*
X0328209Y0060796D03*
X0317304Y0062804D03*
X0317028Y0061662D03*
X0317028Y0060796D03*
X0324784Y0044418D03*
X0324469Y0043552D03*
X0323918Y0040678D03*
X0323643Y0039812D03*
X0323328Y0038670D03*
X0323328Y0037804D03*
X0334824Y0037804D03*
X0335414Y0040678D03*
X0335690Y0041544D03*
X0336556Y0046426D03*
X0338564Y0055048D03*
X0338564Y0055914D03*
X0351517Y0062804D03*
X0354391Y0057922D03*
X0354076Y0057056D03*
X0353800Y0055914D03*
X0353524Y0054182D03*
X0353209Y0053040D03*
X0347461Y0043552D03*
X0350650Y0040678D03*
X0350335Y0039812D03*
X0350060Y0038670D03*
X0362422Y0043552D03*
X0364706Y0055048D03*
X0365020Y0055914D03*
X0376792Y0039812D03*
X0376517Y0038670D03*
X0378800Y0049300D03*
X0378800Y0050166D03*
X0381083Y0060796D03*
X0381398Y0061662D03*
X0381674Y0062804D03*
X0390296Y0051308D03*
X0390572Y0052174D03*
X0390887Y0054182D03*
X0391162Y0055048D03*
X0391753Y0057056D03*
X0391753Y0057922D03*
X0392028Y0058788D03*
X0392304Y0059930D03*
X0392580Y0061662D03*
X0392894Y0062804D03*
X0390020Y0050166D03*
X0390020Y0049300D03*
X0389706Y0048434D03*
X0389430Y0047292D03*
X0389154Y0045560D03*
X0388013Y0039812D03*
X0387698Y0038670D03*
X0387422Y0037804D03*
D41*
X0379233Y0051603D03*
X0379233Y0051879D03*
X0379233Y0052469D03*
X0381241Y0061091D03*
X0392737Y0062233D03*
X0364863Y0055343D03*
X0353367Y0053611D03*
X0347619Y0044713D03*
X0347619Y0044123D03*
X0350493Y0040973D03*
X0336989Y0048139D03*
X0327501Y0057351D03*
X0327501Y0057627D03*
X0325493Y0048139D03*
X0314863Y0051013D03*
X0297619Y0041249D03*
X0297619Y0040973D03*
X0351359Y0061957D03*
X0351359Y0062233D03*
X0110237Y0062233D03*
X0098741Y0061091D03*
X0096733Y0052469D03*
X0096733Y0051879D03*
X0096733Y0051603D03*
X0082363Y0055343D03*
X0070867Y0053611D03*
X0065119Y0044713D03*
X0065119Y0044123D03*
X0067993Y0040973D03*
X0054489Y0048139D03*
X0045001Y0057351D03*
X0045001Y0057627D03*
X0042993Y0048139D03*
X0032363Y0051013D03*
X0015119Y0041249D03*
X0015119Y0040973D03*
X0018839Y0094950D03*
X0019115Y0095776D03*
X0019115Y0096052D03*
X0019115Y0096643D03*
X0020808Y0103926D03*
X0021083Y0104792D03*
X0021083Y0105068D03*
X0021083Y0105343D03*
X0021083Y0105619D03*
X0021083Y0105894D03*
X0068328Y0092706D03*
X0068052Y0091564D03*
X0068052Y0091288D03*
X0068052Y0091013D03*
X0084076Y0098887D03*
X0084076Y0099162D03*
X0084076Y0099438D03*
X0099548Y0088178D03*
X0099548Y0087902D03*
X0101517Y0097194D03*
X0101517Y0097469D03*
X0101517Y0097745D03*
X0111635Y0111524D03*
X0068859Y0062233D03*
X0068859Y0061957D03*
D42*
X0070572Y0052469D03*
X0066280Y0049005D03*
X0064824Y0042981D03*
X0067146Y0037509D03*
X0059666Y0038375D03*
X0056792Y0042115D03*
X0053328Y0042115D03*
X0052776Y0040107D03*
X0040690Y0037233D03*
X0043288Y0049595D03*
X0055926Y0054477D03*
X0082658Y0056761D03*
X0098446Y0060225D03*
X0099036Y0062233D03*
X0107068Y0047587D03*
X0106517Y0045265D03*
X0106517Y0044989D03*
X0015414Y0042391D03*
X0014824Y0039517D03*
X0297324Y0039517D03*
X0297914Y0042391D03*
X0323190Y0037233D03*
X0335276Y0040107D03*
X0335828Y0042115D03*
X0339292Y0042115D03*
X0342166Y0038375D03*
X0347324Y0042981D03*
X0349646Y0037509D03*
X0348780Y0049005D03*
X0353072Y0052469D03*
X0365158Y0056761D03*
X0380946Y0060225D03*
X0381536Y0062233D03*
X0389568Y0047587D03*
X0389017Y0045265D03*
X0389017Y0044989D03*
X0338426Y0054477D03*
X0325788Y0049595D03*
D43*
X0325493Y0048434D03*
X0336989Y0048434D03*
X0334981Y0038670D03*
X0347619Y0044418D03*
X0328367Y0061662D03*
X0379233Y0052174D03*
X0379233Y0051308D03*
X0390729Y0053040D03*
X0108229Y0053040D03*
X0096733Y0052174D03*
X0096733Y0051308D03*
X0065119Y0044418D03*
X0054489Y0048434D03*
X0052481Y0038670D03*
X0042993Y0048434D03*
X0045867Y0061662D03*
X0019115Y0096347D03*
X0020808Y0104221D03*
D44*
X0069725Y0061662D03*
X0352225Y0061662D03*
D45*
X0352206Y0061367D03*
X0348190Y0042391D03*
X0341891Y0040383D03*
X0341891Y0040107D03*
X0069706Y0061367D03*
X0065690Y0042391D03*
X0059391Y0040383D03*
X0059391Y0040107D03*
D46*
X0065847Y0042115D03*
X0069863Y0061091D03*
X0348347Y0042115D03*
X0352363Y0061091D03*
D47*
X0352501Y0060796D03*
X0070001Y0060796D03*
D48*
X0080355Y0045265D03*
X0105355Y0039517D03*
X0042127Y0044123D03*
X0034371Y0060501D03*
X0017993Y0054753D03*
X0017993Y0054477D03*
X0300493Y0054477D03*
X0300493Y0054753D03*
X0316871Y0060501D03*
X0324627Y0044123D03*
X0362855Y0045265D03*
X0387855Y0039517D03*
D49*
X0370611Y0046426D03*
X0370611Y0047292D03*
X0373485Y0059930D03*
X0309115Y0059930D03*
X0306241Y0046426D03*
X0306241Y0045560D03*
X0090985Y0059930D03*
X0088111Y0047292D03*
X0088111Y0046426D03*
X0026615Y0059930D03*
X0023741Y0046426D03*
X0023741Y0045560D03*
D50*
X0059528Y0054182D03*
X0060080Y0057056D03*
X0060394Y0057922D03*
X0060394Y0058788D03*
X0060670Y0059930D03*
X0342028Y0054182D03*
X0342580Y0057056D03*
X0342894Y0057922D03*
X0342894Y0058788D03*
X0343170Y0059930D03*
D51*
X0370611Y0046997D03*
X0370611Y0046721D03*
X0309115Y0059635D03*
X0306241Y0046131D03*
X0306241Y0045855D03*
X0088111Y0046721D03*
X0088111Y0046997D03*
X0026615Y0059635D03*
X0023741Y0046131D03*
X0023741Y0045855D03*
D52*
X0059528Y0053611D03*
X0059528Y0053887D03*
X0060080Y0057351D03*
X0060080Y0057627D03*
X0060394Y0058217D03*
X0060394Y0058493D03*
X0060670Y0059359D03*
X0060670Y0059635D03*
X0342028Y0053887D03*
X0342028Y0053611D03*
X0342580Y0057351D03*
X0342580Y0057627D03*
X0342894Y0058217D03*
X0342894Y0058493D03*
X0343170Y0059359D03*
X0343170Y0059635D03*
D53*
X0372914Y0057627D03*
X0372914Y0057351D03*
X0373190Y0058493D03*
X0373190Y0059083D03*
X0373190Y0059359D03*
X0373190Y0059635D03*
X0370906Y0048139D03*
X0370906Y0047863D03*
X0370906Y0047587D03*
X0308820Y0058217D03*
X0308820Y0058493D03*
X0308544Y0057351D03*
X0306536Y0047587D03*
X0090690Y0058493D03*
X0090690Y0059083D03*
X0090690Y0059359D03*
X0090690Y0059635D03*
X0090414Y0057627D03*
X0090414Y0057351D03*
X0088406Y0048139D03*
X0088406Y0047863D03*
X0088406Y0047587D03*
X0026320Y0058217D03*
X0026320Y0058493D03*
X0026044Y0057351D03*
X0024036Y0047587D03*
D54*
X0023879Y0046997D03*
X0023879Y0046721D03*
X0026477Y0059083D03*
X0026477Y0059359D03*
X0087973Y0046131D03*
X0087973Y0045855D03*
X0306379Y0046721D03*
X0306379Y0046997D03*
X0308977Y0059083D03*
X0308977Y0059359D03*
X0370473Y0046131D03*
X0370473Y0045855D03*
D55*
X0343032Y0059083D03*
X0060532Y0059083D03*
D56*
X0090414Y0057922D03*
X0090690Y0058788D03*
X0026320Y0058788D03*
X0026320Y0057922D03*
X0026044Y0057056D03*
X0024036Y0047292D03*
X0306536Y0047292D03*
X0308544Y0057056D03*
X0308820Y0057922D03*
X0308820Y0058788D03*
X0372914Y0057922D03*
X0373190Y0058788D03*
D57*
X0373052Y0058217D03*
X0308682Y0057627D03*
X0306674Y0048139D03*
X0306674Y0047863D03*
X0090552Y0058217D03*
X0026182Y0057627D03*
X0024174Y0048139D03*
X0024174Y0047863D03*
D58*
X0024450Y0048434D03*
X0088544Y0048434D03*
X0090276Y0057056D03*
X0306950Y0048434D03*
X0371044Y0048434D03*
X0372776Y0057056D03*
D59*
X0362560Y0044418D03*
X0353662Y0055048D03*
X0349922Y0037804D03*
X0342166Y0038670D03*
X0335276Y0039812D03*
X0324056Y0041544D03*
X0297324Y0039812D03*
X0080060Y0044418D03*
X0071162Y0055048D03*
X0067422Y0037804D03*
X0059666Y0038670D03*
X0052776Y0039812D03*
X0041556Y0041544D03*
X0014824Y0039812D03*
D60*
X0024450Y0054182D03*
X0088820Y0054182D03*
X0306950Y0054182D03*
X0371320Y0054182D03*
D61*
X0368898Y0042391D03*
X0307087Y0053887D03*
X0086398Y0042391D03*
X0024587Y0053887D03*
D62*
X0088820Y0053887D03*
X0371320Y0053887D03*
D63*
X0371615Y0053335D03*
X0307245Y0053335D03*
X0307245Y0053611D03*
X0089115Y0053335D03*
X0024745Y0053335D03*
X0024745Y0053611D03*
D64*
X0086536Y0042115D03*
X0086536Y0041839D03*
X0088820Y0053611D03*
X0369036Y0042115D03*
X0369036Y0041839D03*
X0371320Y0053611D03*
D65*
X0341871Y0053335D03*
X0059371Y0053335D03*
D66*
X0068859Y0052174D03*
X0351359Y0052174D03*
D67*
X0351064Y0051879D03*
X0351064Y0051603D03*
X0350788Y0050737D03*
X0350788Y0050461D03*
X0350788Y0049871D03*
X0346457Y0048139D03*
X0346457Y0047863D03*
X0346457Y0047587D03*
X0346182Y0046721D03*
X0346182Y0046131D03*
X0337835Y0043847D03*
X0337835Y0043257D03*
X0337835Y0042981D03*
X0337560Y0042391D03*
X0068564Y0051603D03*
X0068564Y0051879D03*
X0068288Y0050737D03*
X0068288Y0050461D03*
X0068288Y0049871D03*
X0063957Y0048139D03*
X0063957Y0047863D03*
X0063957Y0047587D03*
X0063682Y0046721D03*
X0063682Y0046131D03*
X0055335Y0043847D03*
X0055335Y0043257D03*
X0055335Y0042981D03*
X0055060Y0042391D03*
D68*
X0055060Y0042686D03*
X0055335Y0043552D03*
X0063406Y0045560D03*
X0063682Y0046426D03*
X0064272Y0048434D03*
X0068013Y0049300D03*
X0068288Y0050166D03*
X0068564Y0051308D03*
X0337560Y0042686D03*
X0337835Y0043552D03*
X0345906Y0045560D03*
X0346182Y0046426D03*
X0346772Y0048434D03*
X0350513Y0049300D03*
X0350788Y0050166D03*
X0351064Y0051308D03*
D69*
X0346320Y0047292D03*
X0063820Y0047292D03*
D70*
X0063820Y0046997D03*
X0346320Y0046997D03*
D71*
X0370473Y0045560D03*
X0087973Y0045560D03*
D72*
X0055493Y0044713D03*
X0055493Y0044123D03*
X0337993Y0044123D03*
X0337993Y0044713D03*
D73*
X0331674Y0036643D03*
X0331674Y0036367D03*
X0320178Y0036367D03*
X0320178Y0036643D03*
X0293721Y0036643D03*
X0293721Y0036367D03*
X0293721Y0036091D03*
X0346910Y0036643D03*
X0346910Y0037233D03*
X0384272Y0036643D03*
X0384272Y0036367D03*
X0384272Y0036091D03*
X0385414Y0041839D03*
X0385414Y0042115D03*
X0386005Y0044123D03*
X0386005Y0044713D03*
X0103505Y0044713D03*
X0103505Y0044123D03*
X0102914Y0042115D03*
X0102914Y0041839D03*
X0101772Y0036643D03*
X0101772Y0036367D03*
X0101772Y0036091D03*
X0064410Y0036643D03*
X0064410Y0037233D03*
X0049174Y0036643D03*
X0049174Y0036367D03*
X0037678Y0036367D03*
X0037678Y0036643D03*
X0011221Y0036643D03*
X0011221Y0036367D03*
X0011221Y0036091D03*
D74*
X0055493Y0044418D03*
X0337993Y0044418D03*
D75*
X0331674Y0036938D03*
X0320178Y0036938D03*
X0293721Y0035796D03*
X0346910Y0036938D03*
X0384272Y0035796D03*
X0385690Y0042686D03*
X0386005Y0044418D03*
X0103505Y0044418D03*
X0103190Y0042686D03*
X0101772Y0035796D03*
X0064410Y0036938D03*
X0049174Y0036938D03*
X0037678Y0036938D03*
X0011221Y0035796D03*
D76*
X0103347Y0043847D03*
X0385847Y0043847D03*
D77*
X0385847Y0043552D03*
X0103347Y0043552D03*
D78*
X0065552Y0042686D03*
X0348052Y0042686D03*
D79*
X0368741Y0042686D03*
X0086241Y0042686D03*
D80*
X0103052Y0042391D03*
X0049312Y0037233D03*
X0331812Y0037233D03*
X0385552Y0042391D03*
D81*
X0348485Y0041839D03*
X0065985Y0041839D03*
D82*
X0057658Y0040678D03*
X0340158Y0040678D03*
D83*
X0341733Y0039812D03*
X0059233Y0039812D03*
D84*
X0059371Y0039517D03*
X0341871Y0039517D03*
D85*
X0342009Y0039241D03*
X0059509Y0039241D03*
D86*
X0059646Y0038965D03*
X0342146Y0038965D03*
D87*
X0376359Y0037804D03*
X0093859Y0037804D03*
D88*
X0060808Y0037509D03*
X0045572Y0037509D03*
X0035985Y0087627D03*
X0090552Y0109556D03*
X0096733Y0106485D03*
X0093347Y0087627D03*
X0328072Y0037509D03*
X0343308Y0037509D03*
D89*
X0334548Y0037509D03*
X0052048Y0037509D03*
D90*
X0011379Y0036938D03*
X0293879Y0036938D03*
D91*
X0365729Y0036938D03*
X0083229Y0036938D03*
D92*
X0101910Y0036938D03*
X0384410Y0036938D03*
D93*
X0365591Y0036643D03*
X0365591Y0036367D03*
X0365591Y0035501D03*
X0083091Y0035501D03*
X0083091Y0036367D03*
X0083091Y0036643D03*
D94*
X0064272Y0036367D03*
X0064272Y0036091D03*
X0049036Y0036091D03*
X0037540Y0036091D03*
X0037540Y0035501D03*
X0011083Y0035501D03*
X0101910Y0035501D03*
X0293583Y0035501D03*
X0320040Y0035501D03*
X0320040Y0036091D03*
X0331536Y0036091D03*
X0346772Y0036091D03*
X0346772Y0036367D03*
X0384410Y0035501D03*
D95*
X0365434Y0036091D03*
X0082934Y0036091D03*
D96*
X0037540Y0035796D03*
X0320040Y0035796D03*
X0375355Y0108406D03*
X0375670Y0109351D03*
D97*
X0359706Y0084863D03*
X0344509Y0084863D03*
X0337383Y0104076D03*
X0331674Y0035796D03*
X0346910Y0035796D03*
X0064410Y0035796D03*
X0049174Y0035796D03*
D98*
X0082934Y0035796D03*
X0365434Y0035796D03*
D99*
X0347048Y0035501D03*
X0347048Y0035225D03*
X0064548Y0035225D03*
X0064548Y0035501D03*
D100*
X0037678Y0035225D03*
X0102048Y0035225D03*
X0280650Y0085158D03*
X0320178Y0035225D03*
X0384548Y0035225D03*
D101*
X0331969Y0035225D03*
X0320473Y0034635D03*
X0294017Y0034635D03*
X0049469Y0035225D03*
X0037973Y0034635D03*
X0011517Y0034635D03*
D102*
X0083229Y0035225D03*
X0365729Y0035225D03*
D103*
X0384391Y0034930D03*
X0378446Y0084548D03*
X0359863Y0084548D03*
X0359863Y0084233D03*
X0344666Y0084548D03*
X0320335Y0034930D03*
X0293879Y0034930D03*
X0295690Y0084863D03*
X0101891Y0034930D03*
X0037835Y0034930D03*
X0011379Y0034930D03*
D104*
X0064548Y0034930D03*
X0347048Y0034930D03*
D105*
X0365867Y0034930D03*
X0083367Y0034930D03*
D106*
X0083367Y0034635D03*
X0083367Y0034359D03*
X0365867Y0034359D03*
X0365867Y0034635D03*
D107*
X0384548Y0034635D03*
X0102048Y0034635D03*
D108*
X0064843Y0034359D03*
X0049607Y0034359D03*
X0332107Y0034359D03*
X0347343Y0034359D03*
D109*
X0011536Y0034064D03*
X0037954Y0034064D03*
X0102324Y0034064D03*
X0294036Y0034064D03*
X0320454Y0034064D03*
X0384824Y0034064D03*
D110*
X0366024Y0034064D03*
X0083524Y0034064D03*
D111*
X0097009Y0084831D03*
X0094213Y0106761D03*
X0064686Y0084831D03*
X0019410Y0114359D03*
D112*
X0022068Y0084831D03*
X0051595Y0114359D03*
X0076635Y0114359D03*
D113*
X0101517Y0114359D03*
D114*
X0019391Y0114064D03*
D115*
X0051595Y0114064D03*
X0076635Y0114064D03*
D116*
X0101654Y0114064D03*
D117*
X0094194Y0107312D03*
X0064666Y0085383D03*
X0064666Y0085107D03*
X0019391Y0113769D03*
D118*
X0021792Y0085383D03*
X0046831Y0085383D03*
X0051595Y0113769D03*
D119*
X0059469Y0102824D03*
X0057225Y0091839D03*
X0086753Y0113769D03*
D120*
X0084371Y0102824D03*
X0061851Y0113217D03*
X0032324Y0091839D03*
X0032324Y0091564D03*
X0022481Y0113217D03*
X0111654Y0113493D03*
X0111654Y0113769D03*
D121*
X0094056Y0107587D03*
X0064528Y0085658D03*
X0019528Y0113493D03*
D122*
X0051733Y0113493D03*
D123*
X0061989Y0112942D03*
X0059469Y0102548D03*
X0057225Y0091564D03*
X0084509Y0102548D03*
X0086753Y0113217D03*
X0086753Y0113493D03*
X0111792Y0113217D03*
X0022619Y0112942D03*
D124*
X0015316Y0108729D03*
X0015316Y0108454D03*
X0015040Y0107036D03*
X0014765Y0105894D03*
X0014765Y0105619D03*
X0013347Y0099438D03*
X0013347Y0099162D03*
X0013347Y0098887D03*
X0012796Y0096643D03*
X0011379Y0090146D03*
X0011379Y0089871D03*
X0011103Y0087627D03*
X0036418Y0090146D03*
X0038387Y0099162D03*
X0038387Y0099438D03*
X0038387Y0099713D03*
X0038662Y0100580D03*
X0038938Y0101957D03*
X0040355Y0108454D03*
X0040355Y0108729D03*
X0040355Y0109005D03*
X0040631Y0109831D03*
X0040906Y0111249D03*
X0040906Y0111524D03*
X0064253Y0103926D03*
X0064253Y0103650D03*
X0066221Y0112942D03*
X0066221Y0113217D03*
X0062284Y0094674D03*
X0093780Y0091288D03*
X0093780Y0091013D03*
X0095749Y0100580D03*
X0095749Y0100855D03*
D125*
X0102087Y0099989D03*
X0102363Y0101682D03*
X0102639Y0102824D03*
X0102639Y0103099D03*
X0102914Y0104517D03*
X0100946Y0095225D03*
X0100946Y0094950D03*
X0100946Y0094674D03*
X0100670Y0093532D03*
X0100394Y0092115D03*
X0100119Y0091013D03*
X0100119Y0090737D03*
X0084646Y0101682D03*
X0084646Y0101957D03*
X0084371Y0100580D03*
X0086615Y0110973D03*
X0086615Y0111249D03*
X0086615Y0111524D03*
X0086891Y0112666D03*
X0086891Y0112942D03*
X0071143Y0105894D03*
X0070867Y0104792D03*
X0068623Y0094083D03*
X0068623Y0093808D03*
X0067481Y0089044D03*
X0067481Y0088769D03*
X0057363Y0091013D03*
X0057363Y0091288D03*
X0057087Y0089871D03*
X0057087Y0089595D03*
X0057087Y0089320D03*
X0059056Y0098887D03*
X0059056Y0099162D03*
X0059056Y0099438D03*
X0059607Y0101406D03*
X0059607Y0101682D03*
X0059607Y0101957D03*
X0061576Y0110698D03*
X0061576Y0110973D03*
X0061576Y0111249D03*
X0061851Y0112391D03*
X0061851Y0112666D03*
X0046103Y0105894D03*
X0046103Y0105619D03*
X0045828Y0104517D03*
X0043859Y0095225D03*
X0043583Y0094083D03*
X0043583Y0093808D03*
X0043583Y0093532D03*
X0032324Y0091288D03*
X0032324Y0091013D03*
X0032324Y0090737D03*
X0032048Y0089871D03*
X0032048Y0089595D03*
X0032048Y0089320D03*
X0032048Y0089044D03*
X0020237Y0101131D03*
X0020237Y0101406D03*
X0020237Y0101682D03*
X0020513Y0102548D03*
X0020513Y0102824D03*
X0020513Y0103099D03*
X0019961Y0099989D03*
X0019686Y0099162D03*
X0019686Y0098887D03*
X0019686Y0098611D03*
X0019410Y0097469D03*
X0018544Y0094083D03*
X0018544Y0093808D03*
X0018544Y0093532D03*
X0018544Y0093257D03*
X0021379Y0106485D03*
X0021379Y0106761D03*
X0021654Y0107587D03*
X0021654Y0107863D03*
X0021654Y0108454D03*
X0021930Y0109005D03*
X0021930Y0109280D03*
X0021930Y0109556D03*
X0022206Y0110422D03*
X0022206Y0110698D03*
X0022206Y0110973D03*
X0022481Y0111524D03*
X0022481Y0111800D03*
X0022481Y0112391D03*
X0022481Y0112666D03*
X0111930Y0112666D03*
X0111930Y0112942D03*
D126*
X0103052Y0105619D03*
X0103052Y0105343D03*
X0103052Y0105068D03*
X0103052Y0104792D03*
X0102776Y0103926D03*
X0102776Y0103650D03*
X0102776Y0103375D03*
X0102501Y0102548D03*
X0102501Y0101957D03*
X0102225Y0101406D03*
X0102225Y0101131D03*
X0102225Y0100855D03*
X0102225Y0100580D03*
X0101083Y0096052D03*
X0101083Y0095776D03*
X0101083Y0095501D03*
X0100808Y0094083D03*
X0100808Y0093808D03*
X0100532Y0093257D03*
X0100532Y0092981D03*
X0100532Y0092706D03*
X0100257Y0091839D03*
X0100257Y0091564D03*
X0100257Y0091288D03*
X0084509Y0100855D03*
X0084509Y0101131D03*
X0084509Y0101406D03*
X0086477Y0110422D03*
X0086477Y0110698D03*
X0086753Y0111800D03*
X0086753Y0112391D03*
X0071005Y0105619D03*
X0071005Y0105343D03*
X0071005Y0105068D03*
X0070729Y0104517D03*
X0069036Y0095501D03*
X0068761Y0095225D03*
X0068761Y0094950D03*
X0068761Y0094674D03*
X0067619Y0089871D03*
X0067619Y0089595D03*
X0067619Y0089320D03*
X0067343Y0088178D03*
X0067343Y0087902D03*
X0057225Y0090146D03*
X0057225Y0090737D03*
X0056950Y0089044D03*
X0056950Y0088769D03*
X0059194Y0099713D03*
X0059194Y0099989D03*
X0059469Y0100580D03*
X0059469Y0100855D03*
X0059469Y0101131D03*
X0061162Y0109556D03*
X0061438Y0109831D03*
X0061438Y0110422D03*
X0061713Y0111524D03*
X0061713Y0111800D03*
X0045965Y0105343D03*
X0045965Y0105068D03*
X0045965Y0104792D03*
X0043997Y0095501D03*
X0043721Y0094950D03*
X0043721Y0094674D03*
X0043446Y0093257D03*
X0032186Y0090146D03*
X0031910Y0088769D03*
X0031910Y0088178D03*
X0031635Y0087902D03*
X0031635Y0087627D03*
X0019548Y0097745D03*
X0019548Y0098020D03*
X0019824Y0099438D03*
X0019824Y0099713D03*
X0020099Y0100580D03*
X0020099Y0100855D03*
X0020375Y0101957D03*
X0021517Y0107036D03*
X0021517Y0107312D03*
X0021792Y0108729D03*
X0022068Y0109831D03*
X0022343Y0111249D03*
X0283603Y0087639D03*
X0284233Y0090119D03*
X0285139Y0095080D03*
X0285769Y0097560D03*
X0287304Y0105001D03*
X0300335Y0112442D03*
X0303131Y0107481D03*
X0302501Y0105001D03*
X0313052Y0102520D03*
X0312737Y0100040D03*
X0312107Y0097560D03*
X0311517Y0095080D03*
X0311202Y0092599D03*
X0310572Y0090119D03*
X0309942Y0087639D03*
X0298800Y0087639D03*
X0291044Y0087639D03*
X0313682Y0105001D03*
X0315217Y0112442D03*
X0325139Y0105001D03*
X0324509Y0102520D03*
X0324194Y0100040D03*
X0323603Y0097560D03*
X0322973Y0095080D03*
X0322658Y0092599D03*
X0330729Y0095080D03*
X0338170Y0095080D03*
X0336595Y0087639D03*
X0347776Y0087639D03*
X0348406Y0090119D03*
X0351477Y0105001D03*
X0352107Y0107481D03*
X0352422Y0109961D03*
X0353052Y0112442D03*
X0366044Y0102520D03*
X0366674Y0105001D03*
X0367619Y0109961D03*
X0364509Y0095080D03*
X0363879Y0092599D03*
X0362973Y0087639D03*
X0381556Y0087639D03*
X0382186Y0090119D03*
X0383721Y0097560D03*
X0384666Y0102520D03*
X0385296Y0105001D03*
X0338170Y0112442D03*
D127*
X0111772Y0112391D03*
X0111772Y0111800D03*
X0111497Y0111249D03*
X0111497Y0110973D03*
X0111497Y0110698D03*
X0111497Y0110422D03*
X0111221Y0109831D03*
X0103347Y0105894D03*
X0101930Y0099713D03*
X0101930Y0099438D03*
X0101930Y0099162D03*
X0101654Y0098887D03*
X0101654Y0098611D03*
X0101654Y0098020D03*
X0101379Y0096918D03*
X0101379Y0096643D03*
X0099961Y0090146D03*
X0099961Y0089871D03*
X0099961Y0089595D03*
X0099686Y0089320D03*
X0099686Y0089044D03*
X0099686Y0088769D03*
X0084213Y0099713D03*
X0084213Y0099989D03*
X0086182Y0109831D03*
X0068465Y0093532D03*
X0068465Y0093257D03*
X0068465Y0092981D03*
X0068190Y0092115D03*
X0068190Y0091839D03*
X0067914Y0090737D03*
X0067914Y0090146D03*
X0056654Y0088178D03*
X0056654Y0087902D03*
X0020670Y0103375D03*
X0020670Y0103650D03*
X0020946Y0104517D03*
X0019253Y0097194D03*
X0019253Y0096918D03*
X0018977Y0095501D03*
X0018977Y0095225D03*
X0018702Y0094674D03*
D128*
X0019686Y0098316D03*
X0019961Y0100284D03*
X0020513Y0102253D03*
X0021654Y0108158D03*
X0022206Y0110127D03*
X0022481Y0112095D03*
X0046103Y0106190D03*
X0059607Y0102253D03*
X0059331Y0100284D03*
X0061851Y0112095D03*
X0071143Y0106190D03*
X0068623Y0094379D03*
X0067481Y0088473D03*
X0084646Y0102253D03*
X0100394Y0092410D03*
X0102087Y0100284D03*
X0102914Y0104221D03*
D129*
X0102501Y0102253D03*
X0100808Y0094379D03*
X0086477Y0110127D03*
X0086753Y0112095D03*
X0070729Y0104221D03*
X0061438Y0110127D03*
X0045690Y0104221D03*
X0043721Y0094379D03*
X0032186Y0090442D03*
X0031910Y0088473D03*
X0056950Y0088473D03*
X0057225Y0090442D03*
X0283603Y0087934D03*
X0283603Y0087343D03*
X0283918Y0088564D03*
X0283918Y0088879D03*
X0283918Y0089194D03*
X0284233Y0090414D03*
X0284233Y0090729D03*
X0285139Y0094469D03*
X0285139Y0094784D03*
X0285454Y0096005D03*
X0285454Y0096320D03*
X0285454Y0096635D03*
X0285454Y0096950D03*
X0285769Y0097265D03*
X0287304Y0104391D03*
X0287304Y0104706D03*
X0287304Y0105296D03*
X0287619Y0105926D03*
X0287619Y0106241D03*
X0297225Y0098170D03*
X0296320Y0094154D03*
X0296320Y0093839D03*
X0296320Y0093524D03*
X0296320Y0093209D03*
X0296320Y0092894D03*
X0299115Y0089509D03*
X0299115Y0089194D03*
X0299115Y0088879D03*
X0299115Y0088564D03*
X0298800Y0088249D03*
X0298800Y0087934D03*
X0309942Y0087934D03*
X0309942Y0087343D03*
X0309942Y0087028D03*
X0310257Y0088564D03*
X0310257Y0088879D03*
X0310257Y0089194D03*
X0310572Y0089824D03*
X0310572Y0090414D03*
X0310572Y0090729D03*
X0310887Y0091674D03*
X0310887Y0091989D03*
X0310887Y0092304D03*
X0311202Y0092894D03*
X0311202Y0093209D03*
X0311202Y0093524D03*
X0311517Y0094469D03*
X0311517Y0094784D03*
X0311517Y0095375D03*
X0312107Y0097265D03*
X0312107Y0097855D03*
X0312107Y0098170D03*
X0312422Y0098800D03*
X0312422Y0099115D03*
X0312422Y0099430D03*
X0312737Y0099745D03*
X0312737Y0100335D03*
X0312737Y0100650D03*
X0312737Y0100965D03*
X0313052Y0101595D03*
X0313052Y0101910D03*
X0313052Y0102225D03*
X0313367Y0103131D03*
X0313367Y0103446D03*
X0313367Y0103761D03*
X0313682Y0104391D03*
X0313682Y0104706D03*
X0313682Y0105296D03*
X0313682Y0105611D03*
X0313997Y0105926D03*
X0313997Y0106241D03*
X0313997Y0106556D03*
X0313997Y0106871D03*
X0314587Y0109036D03*
X0314587Y0109351D03*
X0314587Y0109666D03*
X0314902Y0110257D03*
X0314902Y0110572D03*
X0314902Y0110887D03*
X0314902Y0111202D03*
X0315217Y0111517D03*
X0315217Y0111831D03*
X0315217Y0112146D03*
X0315217Y0112737D03*
X0325454Y0106241D03*
X0325454Y0105926D03*
X0325139Y0105611D03*
X0325139Y0105296D03*
X0325139Y0104706D03*
X0324824Y0103761D03*
X0324824Y0103446D03*
X0324824Y0103131D03*
X0324824Y0102816D03*
X0324509Y0102225D03*
X0324509Y0101910D03*
X0324509Y0101595D03*
X0324194Y0100965D03*
X0324194Y0100650D03*
X0324194Y0100335D03*
X0323603Y0098170D03*
X0323603Y0097855D03*
X0323603Y0097265D03*
X0323288Y0096320D03*
X0323288Y0096005D03*
X0323288Y0095690D03*
X0323288Y0095375D03*
X0322973Y0094784D03*
X0322973Y0094469D03*
X0322973Y0094154D03*
X0322658Y0093524D03*
X0322658Y0093209D03*
X0322658Y0092894D03*
X0322658Y0092304D03*
X0336595Y0088249D03*
X0336595Y0087934D03*
X0336910Y0088879D03*
X0336910Y0089194D03*
X0336910Y0089509D03*
X0337225Y0090414D03*
X0337225Y0090729D03*
X0337225Y0091044D03*
X0337225Y0091359D03*
X0337540Y0091674D03*
X0337540Y0091989D03*
X0337540Y0092304D03*
X0337855Y0093209D03*
X0337855Y0093524D03*
X0337855Y0093839D03*
X0337855Y0094154D03*
X0338170Y0094784D03*
X0338170Y0095375D03*
X0338485Y0095690D03*
X0338485Y0096005D03*
X0338485Y0096320D03*
X0338485Y0096635D03*
X0338485Y0096950D03*
X0339076Y0099115D03*
X0339076Y0099430D03*
X0339076Y0099745D03*
X0339391Y0100335D03*
X0339391Y0100650D03*
X0339391Y0100965D03*
X0339391Y0101280D03*
X0339391Y0101595D03*
X0340650Y0106241D03*
X0340650Y0106556D03*
X0340650Y0106871D03*
X0340965Y0107776D03*
X0340965Y0108091D03*
X0340965Y0108406D03*
X0340965Y0108721D03*
X0337855Y0111517D03*
X0337855Y0111831D03*
X0338170Y0112146D03*
X0338170Y0112737D03*
X0338170Y0113052D03*
X0348997Y0093839D03*
X0348997Y0093524D03*
X0348997Y0093209D03*
X0348997Y0092894D03*
X0348406Y0091044D03*
X0348406Y0090729D03*
X0348406Y0090414D03*
X0348406Y0089824D03*
X0348091Y0089194D03*
X0348091Y0088879D03*
X0348091Y0088564D03*
X0347776Y0087934D03*
X0347776Y0087343D03*
X0347776Y0087028D03*
X0362973Y0087934D03*
X0362973Y0088249D03*
X0363564Y0090414D03*
X0363564Y0090729D03*
X0363564Y0091044D03*
X0363564Y0091359D03*
X0363879Y0091989D03*
X0363879Y0092304D03*
X0364194Y0093209D03*
X0364194Y0093524D03*
X0364194Y0093839D03*
X0364194Y0094154D03*
X0364509Y0095375D03*
X0364509Y0095690D03*
X0364824Y0096005D03*
X0364824Y0096320D03*
X0364824Y0096635D03*
X0364824Y0096950D03*
X0365139Y0097855D03*
X0365139Y0098170D03*
X0365139Y0098485D03*
X0365139Y0098800D03*
X0365454Y0099115D03*
X0365454Y0099430D03*
X0365454Y0099745D03*
X0366044Y0102225D03*
X0366044Y0102816D03*
X0366044Y0103131D03*
X0366359Y0103446D03*
X0366359Y0103761D03*
X0366359Y0104076D03*
X0366359Y0104391D03*
X0366674Y0105296D03*
X0366674Y0105611D03*
X0366674Y0105926D03*
X0366674Y0106241D03*
X0366989Y0106556D03*
X0366989Y0106871D03*
X0366989Y0107186D03*
X0367304Y0107776D03*
X0367304Y0108091D03*
X0367304Y0108406D03*
X0367304Y0108721D03*
X0367304Y0109036D03*
X0367619Y0109666D03*
X0367619Y0110257D03*
X0367934Y0110572D03*
X0367934Y0110887D03*
X0367934Y0111202D03*
X0367934Y0111517D03*
X0367934Y0111831D03*
X0353052Y0112146D03*
X0353052Y0112737D03*
X0353052Y0113052D03*
X0353052Y0113367D03*
X0352737Y0111517D03*
X0352737Y0111202D03*
X0352737Y0110887D03*
X0352737Y0110572D03*
X0352422Y0109666D03*
X0352422Y0109351D03*
X0352107Y0108721D03*
X0352107Y0108406D03*
X0352107Y0108091D03*
X0352107Y0107776D03*
X0351792Y0107186D03*
X0351792Y0106871D03*
X0351792Y0106556D03*
X0351792Y0106241D03*
X0351477Y0105926D03*
X0351477Y0105611D03*
X0351477Y0105296D03*
X0351477Y0104706D03*
X0382186Y0090414D03*
X0382186Y0089824D03*
X0381871Y0089194D03*
X0381871Y0088879D03*
X0381871Y0088564D03*
X0381556Y0087343D03*
X0381556Y0087028D03*
X0381556Y0086713D03*
X0382501Y0091359D03*
X0382501Y0091674D03*
X0382501Y0091989D03*
X0382501Y0092304D03*
X0382816Y0092894D03*
X0382816Y0093209D03*
X0382816Y0093524D03*
X0383406Y0096005D03*
X0383406Y0096320D03*
X0383406Y0096635D03*
X0383721Y0097265D03*
X0383721Y0097855D03*
X0384036Y0098800D03*
X0384036Y0099115D03*
X0384036Y0099430D03*
X0384036Y0099745D03*
X0384351Y0100335D03*
X0384351Y0100650D03*
X0384351Y0100965D03*
X0384666Y0101595D03*
X0384666Y0101910D03*
X0384666Y0102225D03*
X0384981Y0103446D03*
X0384981Y0103761D03*
X0384981Y0104076D03*
X0385296Y0104706D03*
X0385296Y0105296D03*
X0393957Y0110257D03*
X0393957Y0110572D03*
X0393957Y0110887D03*
X0394272Y0111517D03*
X0394272Y0111831D03*
X0394272Y0112146D03*
X0394587Y0112737D03*
X0394587Y0113052D03*
X0303131Y0108406D03*
X0303131Y0108091D03*
X0303131Y0107776D03*
X0302816Y0106871D03*
X0302816Y0106556D03*
X0302816Y0106241D03*
X0302816Y0105926D03*
X0302501Y0105296D03*
X0302501Y0104706D03*
X0302186Y0104076D03*
X0302186Y0103761D03*
X0302186Y0103446D03*
X0302186Y0103131D03*
X0302186Y0102816D03*
X0300020Y0111517D03*
X0300020Y0111831D03*
X0300335Y0112146D03*
X0300335Y0112737D03*
X0300335Y0113052D03*
D130*
X0295847Y0105611D03*
X0280650Y0105296D03*
X0278485Y0095375D03*
X0345139Y0107186D03*
X0372107Y0110257D03*
X0372107Y0110572D03*
X0376753Y0096635D03*
X0090965Y0112095D03*
D131*
X0084213Y0100284D03*
X0068190Y0092410D03*
X0067914Y0090442D03*
X0099686Y0088473D03*
X0099961Y0090442D03*
X0101379Y0096347D03*
X0101654Y0098316D03*
X0103347Y0106190D03*
X0111221Y0110127D03*
X0111772Y0112095D03*
X0021221Y0106190D03*
X0018702Y0094379D03*
D132*
X0046398Y0106485D03*
X0058761Y0098611D03*
X0056517Y0087627D03*
X0083800Y0098611D03*
X0086044Y0109556D03*
X0103485Y0106485D03*
X0111083Y0109556D03*
X0099272Y0087627D03*
X0296162Y0092599D03*
X0337068Y0090119D03*
X0337698Y0092599D03*
X0339233Y0100040D03*
X0340808Y0107481D03*
X0364981Y0097560D03*
X0367146Y0107481D03*
X0384194Y0100040D03*
X0382658Y0092599D03*
X0393800Y0109961D03*
X0394430Y0112442D03*
D133*
X0079017Y0109280D03*
X0078741Y0108729D03*
X0078741Y0108454D03*
X0078741Y0107863D03*
X0078741Y0107587D03*
X0078741Y0107312D03*
X0078465Y0107036D03*
X0078465Y0106761D03*
X0076772Y0098020D03*
X0076497Y0097745D03*
X0076497Y0097469D03*
X0076497Y0097194D03*
X0053702Y0107312D03*
X0053702Y0107587D03*
X0053702Y0107863D03*
X0053426Y0107036D03*
X0053426Y0106761D03*
X0053977Y0109005D03*
X0053977Y0109280D03*
X0051733Y0098020D03*
X0051457Y0097469D03*
X0051457Y0097194D03*
X0051457Y0096918D03*
X0051182Y0095776D03*
D134*
X0064391Y0087351D03*
X0064391Y0087076D03*
X0064391Y0086800D03*
X0093918Y0109005D03*
X0093918Y0109280D03*
D135*
X0107560Y0109280D03*
D136*
X0078879Y0109005D03*
X0053839Y0108729D03*
X0053839Y0108454D03*
X0051595Y0097745D03*
X0051320Y0096643D03*
X0051320Y0096052D03*
D137*
X0107127Y0106761D03*
X0107127Y0107036D03*
X0107127Y0107312D03*
X0107402Y0108454D03*
X0107402Y0108729D03*
X0107402Y0109005D03*
D138*
X0093780Y0108729D03*
X0093780Y0108454D03*
X0096576Y0086209D03*
X0096576Y0085934D03*
X0064253Y0086209D03*
D139*
X0062284Y0094379D03*
X0038938Y0102253D03*
X0015316Y0108158D03*
X0012796Y0096347D03*
D140*
X0051733Y0098316D03*
X0053702Y0108158D03*
X0078741Y0108158D03*
X0076772Y0098316D03*
D141*
X0093780Y0108158D03*
D142*
X0107265Y0108158D03*
D143*
X0093918Y0107863D03*
X0064391Y0085934D03*
D144*
X0107265Y0107587D03*
X0107265Y0107863D03*
D145*
X0094056Y0107036D03*
D146*
X0071418Y0106485D03*
X0067206Y0087627D03*
X0302048Y0102520D03*
X0348859Y0092599D03*
X0363426Y0090119D03*
X0365591Y0100040D03*
D147*
X0096024Y0101957D03*
X0095473Y0099438D03*
X0093505Y0089871D03*
X0064528Y0105068D03*
X0063977Y0102548D03*
X0062560Y0095776D03*
X0036143Y0088769D03*
D148*
X0024745Y0092706D03*
X0049784Y0092706D03*
X0052028Y0103650D03*
X0052028Y0103926D03*
D149*
X0049627Y0092981D03*
X0076910Y0103926D03*
D150*
X0077048Y0103650D03*
D151*
X0077206Y0103375D03*
X0052166Y0103375D03*
X0049922Y0092115D03*
X0025158Y0092115D03*
D152*
X0052304Y0103099D03*
X0077343Y0103099D03*
D153*
X0076339Y0096918D03*
X0076339Y0096643D03*
D154*
X0051320Y0096347D03*
D155*
X0076202Y0096347D03*
D156*
X0076202Y0096052D03*
X0076202Y0095776D03*
D157*
X0024607Y0092981D03*
D158*
X0024883Y0092410D03*
X0049922Y0092410D03*
D159*
X0021654Y0087351D03*
X0021654Y0087076D03*
D160*
X0046536Y0087076D03*
X0046536Y0087351D03*
X0046536Y0086800D03*
X0046536Y0086209D03*
D161*
X0096733Y0087351D03*
D162*
X0096595Y0087076D03*
X0096595Y0086800D03*
D163*
X0021517Y0086800D03*
X0021517Y0086209D03*
D164*
X0021517Y0086505D03*
D165*
X0046536Y0086505D03*
D166*
X0064391Y0086505D03*
X0096438Y0086505D03*
D167*
X0046831Y0085658D03*
X0021792Y0085658D03*
X0021792Y0085934D03*
D168*
X0046674Y0085934D03*
D169*
X0096595Y0085658D03*
D170*
X0096733Y0085383D03*
D171*
X0046969Y0085107D03*
X0046969Y0084831D03*
X0021930Y0085107D03*
D172*
X0096871Y0085107D03*
D173*
X0291359Y0114627D03*
D174*
X0299568Y0100335D03*
X0299568Y0099745D03*
X0299568Y0099430D03*
X0311969Y0114627D03*
X0375828Y0106871D03*
D175*
X0331024Y0114627D03*
D176*
X0349784Y0114627D03*
X0360020Y0083603D03*
X0295217Y0097265D03*
X0294902Y0095690D03*
D177*
X0296005Y0084233D03*
X0307146Y0083603D03*
X0280808Y0084233D03*
X0344981Y0083603D03*
X0359863Y0083918D03*
X0378761Y0083603D03*
X0364824Y0114627D03*
D178*
X0383564Y0114627D03*
D179*
X0291497Y0114312D03*
D180*
X0311950Y0114312D03*
X0311950Y0113997D03*
X0306989Y0084233D03*
X0306989Y0083918D03*
X0295847Y0084548D03*
X0280650Y0084548D03*
X0280650Y0084863D03*
X0344824Y0084233D03*
X0344824Y0083918D03*
X0349784Y0114312D03*
X0364981Y0114312D03*
X0375808Y0107186D03*
X0378603Y0084233D03*
X0378603Y0083918D03*
D181*
X0331182Y0114312D03*
D182*
X0383721Y0114312D03*
D183*
X0378623Y0106241D03*
X0378623Y0105611D03*
X0375513Y0090729D03*
X0360631Y0108721D03*
X0361261Y0111517D03*
X0361261Y0111831D03*
X0346064Y0111517D03*
X0343898Y0101280D03*
X0343898Y0100965D03*
X0333977Y0105926D03*
X0329017Y0101280D03*
X0328702Y0099745D03*
X0328702Y0099430D03*
X0328387Y0098485D03*
X0328387Y0098170D03*
X0331182Y0093524D03*
X0318780Y0106556D03*
X0318780Y0106871D03*
X0319095Y0107776D03*
X0319410Y0109666D03*
X0323426Y0111202D03*
X0316615Y0096635D03*
X0316615Y0096320D03*
X0316615Y0096005D03*
X0306694Y0103761D03*
X0306694Y0104076D03*
X0307009Y0105296D03*
X0308859Y0113682D03*
X0304528Y0093839D03*
X0304528Y0093524D03*
X0303898Y0090729D03*
X0292127Y0087028D03*
X0277245Y0089509D03*
X0276930Y0087028D03*
X0281891Y0111202D03*
X0282520Y0113997D03*
X0355985Y0086713D03*
D184*
X0352894Y0113997D03*
X0338013Y0113997D03*
X0300178Y0113997D03*
D185*
X0308702Y0113367D03*
X0308702Y0113052D03*
X0308702Y0112737D03*
X0307481Y0107776D03*
X0307481Y0107186D03*
X0307166Y0106871D03*
X0307166Y0106556D03*
X0307166Y0106241D03*
X0307166Y0105926D03*
X0307166Y0105611D03*
X0306851Y0104706D03*
X0306851Y0104391D03*
X0306536Y0103446D03*
X0306536Y0103131D03*
X0306536Y0102816D03*
X0306221Y0102225D03*
X0306221Y0101910D03*
X0306221Y0101595D03*
X0305001Y0096635D03*
X0305001Y0096320D03*
X0305001Y0096005D03*
X0305001Y0095690D03*
X0305001Y0095375D03*
X0304686Y0094784D03*
X0304686Y0094469D03*
X0304686Y0094154D03*
X0304371Y0093209D03*
X0304371Y0092894D03*
X0304056Y0091989D03*
X0304056Y0091674D03*
X0304056Y0091359D03*
X0304056Y0091044D03*
X0303741Y0090414D03*
X0303741Y0089824D03*
X0303741Y0089509D03*
X0291969Y0087343D03*
X0288859Y0090414D03*
X0288859Y0090729D03*
X0288859Y0091044D03*
X0278938Y0096950D03*
X0278938Y0097265D03*
X0279253Y0098170D03*
X0279253Y0098485D03*
X0279253Y0098800D03*
X0279253Y0099115D03*
X0279253Y0099430D03*
X0279568Y0099745D03*
X0279568Y0100335D03*
X0279568Y0100650D03*
X0279883Y0100965D03*
X0279883Y0101280D03*
X0279883Y0101595D03*
X0279883Y0101910D03*
X0279883Y0102225D03*
X0280198Y0102816D03*
X0280198Y0103131D03*
X0280198Y0103446D03*
X0281418Y0108406D03*
X0281418Y0108721D03*
X0281418Y0109036D03*
X0281418Y0109351D03*
X0281418Y0109666D03*
X0281733Y0110257D03*
X0281733Y0110572D03*
X0281733Y0110887D03*
X0282048Y0111517D03*
X0282048Y0111831D03*
X0282048Y0112146D03*
X0282363Y0112737D03*
X0282363Y0113052D03*
X0282363Y0113367D03*
X0282363Y0113682D03*
X0277717Y0092304D03*
X0277717Y0091989D03*
X0277717Y0091674D03*
X0277717Y0091359D03*
X0277717Y0091044D03*
X0277402Y0090414D03*
X0277402Y0089824D03*
X0277087Y0089194D03*
X0277087Y0088879D03*
X0277087Y0088564D03*
X0277087Y0088249D03*
X0276772Y0087343D03*
X0316143Y0093839D03*
X0316143Y0094154D03*
X0316143Y0094469D03*
X0316143Y0094784D03*
X0316457Y0095375D03*
X0316457Y0095690D03*
X0316772Y0096950D03*
X0316772Y0097265D03*
X0317087Y0097855D03*
X0317087Y0098170D03*
X0317087Y0098485D03*
X0317087Y0098800D03*
X0317087Y0099115D03*
X0318308Y0104076D03*
X0318308Y0104391D03*
X0318308Y0104706D03*
X0318623Y0105296D03*
X0318623Y0105611D03*
X0318623Y0105926D03*
X0318623Y0106241D03*
X0318938Y0107186D03*
X0319253Y0108091D03*
X0319253Y0108406D03*
X0319253Y0108721D03*
X0319253Y0109036D03*
X0319253Y0109351D03*
X0323583Y0111517D03*
X0323583Y0111831D03*
X0323898Y0112146D03*
X0323898Y0112737D03*
X0323898Y0113052D03*
X0323898Y0113367D03*
X0323898Y0113682D03*
X0324213Y0113997D03*
X0333820Y0106241D03*
X0329174Y0102225D03*
X0329174Y0101910D03*
X0329174Y0101595D03*
X0328859Y0100965D03*
X0328859Y0100650D03*
X0328859Y0100335D03*
X0328544Y0099115D03*
X0328544Y0098800D03*
X0328229Y0097855D03*
X0331339Y0094784D03*
X0331339Y0094469D03*
X0331339Y0094154D03*
X0331339Y0093839D03*
X0331024Y0093209D03*
X0331024Y0092894D03*
X0341576Y0090414D03*
X0341891Y0090729D03*
X0341891Y0091044D03*
X0341891Y0091359D03*
X0341891Y0091674D03*
X0341891Y0091989D03*
X0341576Y0089824D03*
X0341261Y0089194D03*
X0341261Y0088879D03*
X0341261Y0088564D03*
X0341261Y0088249D03*
X0341261Y0087934D03*
X0340946Y0087343D03*
X0340946Y0087028D03*
X0340946Y0086713D03*
X0343111Y0096950D03*
X0343111Y0097265D03*
X0343111Y0097855D03*
X0343426Y0098170D03*
X0343426Y0098485D03*
X0343426Y0098800D03*
X0343426Y0099115D03*
X0343426Y0099430D03*
X0343741Y0100335D03*
X0343741Y0100650D03*
X0344056Y0101595D03*
X0344056Y0101910D03*
X0344056Y0102225D03*
X0344371Y0102816D03*
X0344371Y0103131D03*
X0344371Y0103446D03*
X0344371Y0103761D03*
X0344371Y0104076D03*
X0345591Y0108721D03*
X0345591Y0109036D03*
X0345591Y0109351D03*
X0345591Y0109666D03*
X0345906Y0110257D03*
X0345906Y0110572D03*
X0345906Y0110887D03*
X0345906Y0111202D03*
X0346221Y0111831D03*
X0346221Y0112146D03*
X0346536Y0113052D03*
X0346536Y0113367D03*
X0346536Y0113682D03*
X0346536Y0113997D03*
X0361103Y0111202D03*
X0361103Y0110887D03*
X0361103Y0110572D03*
X0360788Y0109666D03*
X0360788Y0109351D03*
X0360788Y0109036D03*
X0360473Y0108406D03*
X0360473Y0108091D03*
X0360473Y0107776D03*
X0360158Y0107186D03*
X0360158Y0106871D03*
X0360158Y0106556D03*
X0360158Y0106241D03*
X0360158Y0105926D03*
X0361418Y0112146D03*
X0361418Y0112737D03*
X0372560Y0112737D03*
X0372560Y0113052D03*
X0372875Y0113367D03*
X0372875Y0113682D03*
X0372875Y0113997D03*
X0378780Y0105926D03*
X0378465Y0105296D03*
X0378465Y0104706D03*
X0378465Y0104391D03*
X0378150Y0103761D03*
X0378150Y0103446D03*
X0378150Y0103131D03*
X0378150Y0102816D03*
X0377835Y0102225D03*
X0377835Y0101910D03*
X0377835Y0101595D03*
X0377835Y0101280D03*
X0377520Y0100965D03*
X0377520Y0100650D03*
X0377520Y0100335D03*
X0377520Y0099745D03*
X0376300Y0094784D03*
X0376300Y0094469D03*
X0376300Y0094154D03*
X0376300Y0093839D03*
X0375985Y0093524D03*
X0375985Y0093209D03*
X0375985Y0092894D03*
X0375985Y0092304D03*
X0375670Y0091674D03*
X0375670Y0091359D03*
X0375670Y0091044D03*
X0375355Y0090414D03*
X0375355Y0089824D03*
X0375355Y0089509D03*
X0375040Y0088879D03*
X0375040Y0088564D03*
X0375040Y0088249D03*
X0375040Y0087934D03*
X0357678Y0094469D03*
X0356457Y0089509D03*
X0356457Y0089194D03*
X0356457Y0088879D03*
X0356457Y0088564D03*
X0356143Y0087343D03*
X0356143Y0087028D03*
X0318308Y0087343D03*
D186*
X0315532Y0090729D03*
X0315532Y0091044D03*
X0315532Y0091359D03*
X0315532Y0091674D03*
X0315847Y0092304D03*
X0315847Y0092894D03*
X0317383Y0099745D03*
X0317698Y0100965D03*
X0317698Y0101280D03*
X0317698Y0101595D03*
X0317698Y0101910D03*
X0318013Y0102816D03*
X0318013Y0103131D03*
X0307776Y0108721D03*
X0307776Y0109036D03*
X0307776Y0109351D03*
X0307776Y0109666D03*
X0308091Y0110257D03*
X0308091Y0110572D03*
X0308091Y0110887D03*
X0308406Y0111831D03*
X0308406Y0112146D03*
X0305926Y0100650D03*
X0305926Y0100335D03*
X0305926Y0099745D03*
X0305611Y0099430D03*
X0305611Y0099115D03*
X0305611Y0098800D03*
X0305611Y0098485D03*
X0305611Y0098170D03*
X0305296Y0097265D03*
X0305296Y0096950D03*
X0303446Y0089194D03*
X0303446Y0088879D03*
X0303446Y0088564D03*
X0303446Y0088249D03*
X0303446Y0087934D03*
X0303131Y0087343D03*
X0303131Y0087028D03*
X0303131Y0086713D03*
X0295690Y0104391D03*
X0295690Y0104706D03*
X0295690Y0105296D03*
X0296005Y0105926D03*
X0296005Y0106241D03*
X0281123Y0107186D03*
X0281123Y0107776D03*
X0280808Y0106556D03*
X0280808Y0106241D03*
X0280808Y0105926D03*
X0280808Y0105611D03*
X0280493Y0104706D03*
X0280493Y0104391D03*
X0280493Y0104076D03*
X0278643Y0096320D03*
X0278643Y0096005D03*
X0278643Y0095690D03*
X0278328Y0094784D03*
X0278328Y0094469D03*
X0278328Y0094154D03*
X0278328Y0093839D03*
X0278013Y0093524D03*
X0278013Y0093209D03*
X0278013Y0092894D03*
X0342186Y0092894D03*
X0342186Y0093209D03*
X0342186Y0093524D03*
X0342501Y0094154D03*
X0342501Y0094469D03*
X0342501Y0094784D03*
X0342816Y0095375D03*
X0342816Y0095690D03*
X0342816Y0096005D03*
X0342816Y0096320D03*
X0342816Y0096635D03*
X0344666Y0104391D03*
X0344666Y0104706D03*
X0344666Y0105296D03*
X0344981Y0105611D03*
X0344981Y0105926D03*
X0344981Y0106241D03*
X0344981Y0106556D03*
X0344981Y0106871D03*
X0345296Y0107776D03*
X0345296Y0108091D03*
X0357383Y0093839D03*
X0357383Y0093524D03*
X0357383Y0093209D03*
X0357383Y0092894D03*
X0357068Y0092304D03*
X0357068Y0091989D03*
X0357068Y0091674D03*
X0357068Y0091359D03*
X0357068Y0091044D03*
X0356753Y0090729D03*
X0356753Y0090414D03*
X0359548Y0104076D03*
X0359863Y0105296D03*
X0359863Y0105611D03*
X0361713Y0113367D03*
X0361713Y0113682D03*
X0361713Y0113997D03*
X0372265Y0111831D03*
X0372265Y0111517D03*
X0372265Y0111202D03*
X0372265Y0110887D03*
X0371950Y0109666D03*
X0377225Y0099115D03*
X0377225Y0098800D03*
X0377225Y0098485D03*
X0376910Y0097855D03*
X0376910Y0097265D03*
X0376910Y0096950D03*
X0376595Y0096320D03*
X0376595Y0096005D03*
X0376595Y0095690D03*
X0376595Y0095375D03*
X0374745Y0087343D03*
X0374745Y0087028D03*
X0374745Y0086713D03*
D187*
X0368072Y0113682D03*
X0368072Y0113997D03*
D188*
X0353052Y0113682D03*
X0338170Y0113682D03*
X0338170Y0113367D03*
X0315217Y0113367D03*
X0314902Y0113682D03*
X0300335Y0113682D03*
X0300335Y0113367D03*
X0296320Y0094469D03*
X0299115Y0091044D03*
X0394272Y0113682D03*
X0394272Y0113997D03*
D189*
X0394430Y0113367D03*
X0368091Y0113367D03*
X0352580Y0110257D03*
X0341123Y0109666D03*
X0341123Y0109351D03*
X0341123Y0109036D03*
X0339548Y0102225D03*
X0339548Y0101910D03*
X0338918Y0098800D03*
X0315375Y0113052D03*
X0313209Y0102816D03*
X0302658Y0105611D03*
X0303288Y0108721D03*
X0303288Y0109036D03*
X0303288Y0109351D03*
X0303288Y0109666D03*
X0296162Y0094784D03*
X0299272Y0090729D03*
X0285926Y0097855D03*
X0285296Y0095690D03*
X0285296Y0095375D03*
X0287461Y0105611D03*
D190*
X0281261Y0108091D03*
X0279095Y0097855D03*
X0277560Y0090729D03*
X0276930Y0087934D03*
X0304213Y0092304D03*
X0341418Y0089509D03*
X0342048Y0092304D03*
X0343583Y0099745D03*
X0346379Y0112737D03*
X0360946Y0110257D03*
X0361576Y0113052D03*
X0372402Y0112146D03*
X0378308Y0104076D03*
X0377363Y0099430D03*
X0375828Y0091989D03*
X0375198Y0089194D03*
X0356300Y0088249D03*
X0356300Y0087934D03*
D191*
X0363269Y0088879D03*
X0363269Y0089194D03*
X0363269Y0089509D03*
X0365749Y0100335D03*
X0365749Y0100650D03*
X0365749Y0100965D03*
X0365749Y0101280D03*
X0365749Y0101595D03*
X0368229Y0112737D03*
X0368229Y0113052D03*
X0385591Y0106241D03*
X0383111Y0094784D03*
X0383111Y0094469D03*
X0383111Y0094154D03*
X0351182Y0104076D03*
X0348702Y0092304D03*
X0348702Y0091989D03*
X0348702Y0091674D03*
X0338780Y0097855D03*
X0338780Y0098170D03*
X0338780Y0098485D03*
X0323898Y0098485D03*
X0323898Y0098800D03*
X0323898Y0099115D03*
X0314292Y0107186D03*
X0314292Y0107776D03*
X0314292Y0108091D03*
X0314292Y0108406D03*
X0311812Y0096320D03*
X0311812Y0096005D03*
X0311812Y0095690D03*
X0301891Y0101910D03*
X0301891Y0102225D03*
X0299410Y0090414D03*
D192*
X0304843Y0095080D03*
X0282206Y0112442D03*
X0280040Y0102520D03*
X0341103Y0087639D03*
X0344213Y0102520D03*
X0345749Y0109961D03*
D193*
X0319706Y0109961D03*
X0308564Y0112442D03*
X0376438Y0095080D03*
X0374902Y0087639D03*
D194*
X0375355Y0090119D03*
X0375985Y0092599D03*
X0377520Y0100040D03*
X0378465Y0105001D03*
X0372560Y0112442D03*
X0361418Y0112442D03*
X0360788Y0109961D03*
X0346221Y0112442D03*
X0343741Y0100040D03*
X0343111Y0097560D03*
X0341576Y0090119D03*
X0331024Y0092599D03*
X0329174Y0102520D03*
X0323898Y0112442D03*
X0318938Y0107481D03*
X0316772Y0097560D03*
X0316457Y0095080D03*
X0306536Y0102520D03*
X0306851Y0105001D03*
X0307481Y0107481D03*
X0304371Y0092599D03*
X0303741Y0090119D03*
X0278938Y0097560D03*
X0279568Y0100040D03*
X0277402Y0090119D03*
X0276772Y0087639D03*
X0281733Y0109961D03*
X0356143Y0087639D03*
D195*
X0338780Y0097560D03*
X0314292Y0107481D03*
X0299410Y0090119D03*
X0368229Y0112442D03*
X0383111Y0095080D03*
D196*
X0383269Y0095375D03*
X0383269Y0095690D03*
X0382954Y0093839D03*
X0385434Y0105611D03*
X0385434Y0105926D03*
X0368072Y0112146D03*
X0365906Y0101910D03*
X0363426Y0089824D03*
X0363111Y0088564D03*
X0348544Y0091359D03*
X0338623Y0097265D03*
X0336457Y0087343D03*
X0324056Y0099430D03*
X0324056Y0099745D03*
X0314450Y0108721D03*
X0311969Y0096950D03*
X0311969Y0096635D03*
X0299253Y0089824D03*
X0287166Y0104076D03*
X0284686Y0091674D03*
X0284371Y0091359D03*
X0284371Y0091044D03*
X0351339Y0104391D03*
D197*
X0352265Y0109036D03*
X0352894Y0111831D03*
X0340808Y0107186D03*
X0338013Y0111202D03*
X0324981Y0104391D03*
X0324981Y0104076D03*
X0324351Y0101280D03*
X0323446Y0096950D03*
X0323446Y0096635D03*
X0322816Y0093839D03*
X0330572Y0095375D03*
X0338013Y0094469D03*
X0337698Y0092894D03*
X0337068Y0089824D03*
X0336753Y0088564D03*
X0347619Y0086713D03*
X0347934Y0088249D03*
X0348249Y0089509D03*
X0349154Y0094154D03*
X0349154Y0094469D03*
X0349469Y0094784D03*
X0363721Y0091674D03*
X0364036Y0092894D03*
X0364351Y0094469D03*
X0364351Y0094784D03*
X0364981Y0097265D03*
X0366517Y0104706D03*
X0367461Y0109351D03*
X0385139Y0104391D03*
X0384824Y0103131D03*
X0384824Y0102816D03*
X0384509Y0101280D03*
X0383879Y0098485D03*
X0383879Y0098170D03*
X0383564Y0096950D03*
X0382343Y0091044D03*
X0382343Y0090729D03*
X0382028Y0089509D03*
X0381713Y0088249D03*
X0381713Y0087934D03*
X0362816Y0087343D03*
X0362816Y0087028D03*
X0362816Y0086713D03*
X0393800Y0109666D03*
X0394115Y0111202D03*
X0317540Y0087934D03*
X0310414Y0089509D03*
X0310099Y0088249D03*
X0309784Y0086713D03*
X0310729Y0091044D03*
X0310729Y0091359D03*
X0311359Y0093839D03*
X0311359Y0094154D03*
X0312265Y0098485D03*
X0312894Y0101280D03*
X0313524Y0104076D03*
X0302973Y0107186D03*
X0302343Y0104391D03*
X0297383Y0098485D03*
X0298643Y0087343D03*
X0290887Y0087934D03*
X0288091Y0091359D03*
X0288091Y0091674D03*
X0284076Y0089824D03*
X0284076Y0089509D03*
X0283761Y0088249D03*
D198*
X0278800Y0096635D03*
X0280335Y0103761D03*
X0280965Y0106871D03*
X0295532Y0104076D03*
X0305454Y0097855D03*
X0306083Y0100965D03*
X0306083Y0101280D03*
X0307619Y0108091D03*
X0307619Y0108406D03*
X0308249Y0111202D03*
X0308249Y0111517D03*
X0317855Y0102225D03*
X0318170Y0103446D03*
X0318170Y0103761D03*
X0317540Y0100650D03*
X0317540Y0100335D03*
X0317225Y0099430D03*
X0316005Y0093524D03*
X0316005Y0093209D03*
X0315690Y0091989D03*
X0315375Y0090414D03*
X0342343Y0093839D03*
X0356595Y0089824D03*
X0357540Y0094154D03*
X0357540Y0094784D03*
X0359706Y0104391D03*
X0359706Y0104706D03*
X0345454Y0108406D03*
X0377068Y0098170D03*
D199*
X0340335Y0105926D03*
X0330414Y0095690D03*
X0317383Y0088249D03*
X0298485Y0087028D03*
X0290729Y0088249D03*
X0283288Y0087028D03*
X0300335Y0111202D03*
D200*
X0301103Y0110887D03*
X0301103Y0110572D03*
X0297087Y0091674D03*
X0290591Y0089824D03*
X0290591Y0089509D03*
X0321576Y0110572D03*
X0321576Y0110887D03*
X0338938Y0110887D03*
X0338938Y0110572D03*
D201*
X0339095Y0110257D03*
X0301261Y0110257D03*
X0297245Y0091359D03*
D202*
X0296930Y0091989D03*
X0317087Y0089824D03*
X0317087Y0089509D03*
X0317087Y0089194D03*
X0321418Y0110257D03*
D203*
X0303131Y0109961D03*
X0339391Y0102520D03*
X0340965Y0109961D03*
D204*
X0345296Y0107481D03*
X0344666Y0105001D03*
X0342186Y0092599D03*
X0356753Y0090119D03*
X0357068Y0092599D03*
X0359863Y0105001D03*
X0371950Y0109961D03*
X0376910Y0097560D03*
X0318013Y0102520D03*
X0317383Y0100040D03*
X0315847Y0092599D03*
X0305296Y0097560D03*
X0305926Y0100040D03*
X0308091Y0109961D03*
X0295690Y0105001D03*
X0281123Y0107481D03*
X0280493Y0105001D03*
X0278013Y0092599D03*
D205*
X0317540Y0087639D03*
X0314745Y0109961D03*
D206*
X0329174Y0106871D03*
X0329174Y0106556D03*
X0329489Y0107776D03*
X0329489Y0108091D03*
X0329489Y0108406D03*
X0329804Y0109351D03*
X0326064Y0091989D03*
X0326064Y0091674D03*
X0326064Y0091359D03*
X0353032Y0095375D03*
X0353032Y0095690D03*
X0353347Y0096005D03*
X0353347Y0096320D03*
X0353347Y0096635D03*
X0353347Y0096950D03*
X0353662Y0097265D03*
X0353662Y0097855D03*
X0389607Y0107776D03*
X0389922Y0109036D03*
X0389922Y0109351D03*
X0291969Y0109351D03*
X0291654Y0108406D03*
X0291654Y0108091D03*
X0291654Y0107776D03*
X0291339Y0106871D03*
X0291339Y0106556D03*
D207*
X0291497Y0107186D03*
X0291812Y0108721D03*
X0291812Y0109036D03*
X0329331Y0107186D03*
X0329646Y0108721D03*
X0329646Y0109036D03*
X0389765Y0108721D03*
X0389765Y0108406D03*
X0389765Y0108091D03*
D208*
X0375513Y0108721D03*
X0375513Y0109036D03*
X0378623Y0086398D03*
X0378308Y0086083D03*
X0378308Y0085769D03*
X0378308Y0085454D03*
X0306694Y0085454D03*
X0306694Y0085769D03*
X0306694Y0086083D03*
X0280355Y0086083D03*
X0280355Y0085769D03*
X0280355Y0086398D03*
D209*
X0306694Y0084863D03*
X0378308Y0084863D03*
X0375513Y0108091D03*
D210*
X0375670Y0107776D03*
X0306851Y0084548D03*
D211*
X0291654Y0107481D03*
X0329489Y0107481D03*
X0353662Y0097560D03*
X0353032Y0095080D03*
D212*
X0360316Y0107481D03*
X0377993Y0102520D03*
X0328702Y0100040D03*
X0328387Y0097560D03*
X0318465Y0105001D03*
D213*
X0375670Y0107481D03*
D214*
X0389469Y0107481D03*
D215*
X0389469Y0107186D03*
X0389469Y0106871D03*
X0290887Y0103761D03*
D216*
X0299725Y0101280D03*
X0299725Y0100965D03*
X0299725Y0100650D03*
X0299410Y0099115D03*
X0299410Y0098800D03*
X0294765Y0095375D03*
X0286694Y0094154D03*
X0286694Y0093839D03*
X0286694Y0093524D03*
X0286694Y0093209D03*
X0286694Y0092894D03*
X0375985Y0106556D03*
D217*
X0389312Y0106556D03*
X0354902Y0103761D03*
X0354902Y0103446D03*
X0354902Y0103131D03*
X0290729Y0103131D03*
X0290729Y0103446D03*
D218*
X0295690Y0086713D03*
X0295690Y0085454D03*
X0280493Y0085454D03*
X0337540Y0104391D03*
X0337540Y0105611D03*
D219*
X0337383Y0105296D03*
X0337383Y0104706D03*
X0344509Y0086083D03*
X0344509Y0085769D03*
X0344509Y0085454D03*
X0359706Y0085454D03*
X0359706Y0085769D03*
X0359706Y0086083D03*
X0359706Y0086398D03*
X0295532Y0086398D03*
X0295532Y0086083D03*
X0295532Y0085769D03*
X0280650Y0086713D03*
D220*
X0337383Y0105001D03*
D221*
X0335375Y0103761D03*
D222*
X0335217Y0103446D03*
X0334902Y0102816D03*
D223*
X0335060Y0103131D03*
D224*
X0290591Y0102816D03*
D225*
X0354745Y0102816D03*
D226*
X0300020Y0101595D03*
X0295375Y0097855D03*
X0295060Y0096950D03*
X0295060Y0096635D03*
X0295060Y0096320D03*
X0295060Y0096005D03*
X0286398Y0092304D03*
X0286398Y0091989D03*
X0280808Y0083918D03*
X0296005Y0083918D03*
D227*
X0299568Y0100040D03*
D228*
X0295217Y0097560D03*
D229*
X0290729Y0089194D03*
X0330099Y0096635D03*
X0330099Y0096950D03*
X0330099Y0097265D03*
D230*
X0330257Y0096320D03*
D231*
X0330414Y0096005D03*
X0290729Y0088879D03*
X0290729Y0088564D03*
D232*
X0303288Y0087639D03*
X0278485Y0095080D03*
X0342658Y0095080D03*
D233*
X0294765Y0095080D03*
X0286694Y0092599D03*
D234*
X0296772Y0092304D03*
X0317245Y0088879D03*
D235*
X0330729Y0092304D03*
D236*
X0290572Y0090119D03*
D237*
X0316930Y0090119D03*
D238*
X0317245Y0088564D03*
D239*
X0318623Y0087028D03*
D240*
X0336300Y0087028D03*
D241*
X0327757Y0086713D03*
X0327757Y0086398D03*
X0327757Y0085454D03*
D242*
X0306851Y0086398D03*
D243*
X0344666Y0086398D03*
D244*
X0327619Y0086083D03*
X0327619Y0085769D03*
D245*
X0306694Y0085158D03*
X0378308Y0085158D03*
D246*
X0327776Y0085158D03*
D247*
X0344351Y0085158D03*
X0359548Y0085158D03*
D248*
X0327934Y0084863D03*
D249*
X0328091Y0084548D03*
X0328091Y0084233D03*
D250*
X0328091Y0083918D03*
D251*
X0307166Y0083288D03*
X0360158Y0083288D03*
X0378780Y0083288D03*
D252*
X0344981Y0083288D03*
M02*
