%
M48
M72
T01C0.0400
T02C0.1600
%
T01
X1130Y1130
X39130Y1130
X39130Y48130
X1130Y48130
T02
X2630Y46630
X2630Y44630
X2630Y42630
X2630Y40630
X2630Y38630
X2630Y36630
X2630Y34630
X2630Y32630
X2630Y30630
X2630Y28630
X2630Y26630
X2630Y24630
X2630Y22630
X2630Y20630
X2630Y18630
X2630Y16630
X2630Y14630
X7630Y14630
X7630Y16630
X7630Y18630
X7630Y20630
X7630Y22630
X7630Y24630
X7630Y26630
X7630Y28630
X7630Y30630
X7630Y32630
X7630Y34630
X7630Y36630
X7630Y38630
X7630Y40630
X7630Y42630
X7630Y44630
X7630Y46630
X12630Y46630
X12630Y44630
X12630Y42630
X12630Y40630
X12630Y38630
X12630Y36630
X12630Y34630
X12630Y32630
X12630Y30630
X12630Y28630
X12630Y26630
X12630Y24630
X12630Y22630
X12630Y20630
X12630Y18630
X12630Y16630
X12630Y14630
X17630Y14630
X17630Y16630
X17630Y18630
X17630Y20630
X17630Y22630
X17630Y24630
X17630Y26630
X17630Y28630
X17630Y30630
X17630Y32630
X17630Y34630
X17630Y36630
X17630Y38630
X17630Y40630
X17630Y42630
X17630Y44630
X17630Y46630
X22630Y46630
X22630Y44630
X22630Y42630
X22630Y40630
X22630Y38630
X22630Y36630
X22630Y34630
X22630Y32630
X22630Y30630
X22630Y28630
X22630Y26630
X22630Y24630
X22630Y22630
X22630Y20630
X22630Y18630
X22630Y16630
X22630Y14630
X27630Y14630
X27630Y16630
X27630Y18630
X27630Y20630
X27630Y22630
X27630Y24630
X27630Y26630
X27630Y28630
X27630Y30630
X27630Y32630
X27630Y34630
X27630Y36630
X27630Y38630
X27630Y40630
X27630Y42630
X27630Y44630
X27630Y46630
X32630Y46630
X32630Y44630
X32630Y42630
X32630Y40630
X32630Y38630
X32630Y36630
X32630Y34630
X32630Y32630
X32630Y30630
X32630Y28630
X32630Y26630
X32630Y24630
X32630Y22630
X32630Y20630
X32630Y18630
X32630Y16630
X32630Y14630
X37630Y14630
X37630Y16630
X37630Y18630
X37630Y20630
X37630Y22630
X37630Y24630
X37630Y26630
X37630Y28630
X37630Y30630
X37630Y32630
X37630Y34630
X37630Y36630
X37630Y38630
X37630Y40630
X37630Y42630
X37630Y44630
X37630Y46630
M30
