G75*
%MOIN*%
%OFA0B0*%
%FSLAX25Y25*%
%IPPOS*%
%LPD*%
%AMOC8*
5,1,8,0,0,1.08239X$1,22.5*
%
%ADD10C,0.16800*%
%ADD11C,0.04000*%
D10*
X0026300Y0146300D03*
X0026300Y0166300D03*
X0026300Y0186300D03*
X0026300Y0206300D03*
X0026300Y0226300D03*
X0026300Y0246300D03*
X0026300Y0266300D03*
X0026300Y0286300D03*
X0026300Y0306300D03*
X0026300Y0326300D03*
X0026300Y0346300D03*
X0026300Y0366300D03*
X0026300Y0386300D03*
X0026300Y0406300D03*
X0026300Y0426300D03*
X0026300Y0446300D03*
X0026300Y0466300D03*
X0076300Y0466300D03*
X0076300Y0446300D03*
X0076300Y0426300D03*
X0076300Y0406300D03*
X0076300Y0386300D03*
X0076300Y0366300D03*
X0076300Y0346300D03*
X0076300Y0326300D03*
X0076300Y0306300D03*
X0076300Y0286300D03*
X0076300Y0266300D03*
X0076300Y0246300D03*
X0076300Y0226300D03*
X0076300Y0206300D03*
X0076300Y0186300D03*
X0076300Y0166300D03*
X0076300Y0146300D03*
X0126300Y0146300D03*
X0126300Y0166300D03*
X0126300Y0186300D03*
X0126300Y0206300D03*
X0126300Y0226300D03*
X0126300Y0246300D03*
X0126300Y0266300D03*
X0126300Y0286300D03*
X0126300Y0306300D03*
X0126300Y0326300D03*
X0126300Y0346300D03*
X0126300Y0366300D03*
X0126300Y0386300D03*
X0126300Y0406300D03*
X0126300Y0426300D03*
X0126300Y0446300D03*
X0126300Y0466300D03*
X0176300Y0466300D03*
X0176300Y0446300D03*
X0176300Y0426300D03*
X0176300Y0406300D03*
X0176300Y0386300D03*
X0176300Y0366300D03*
X0176300Y0346300D03*
X0176300Y0326300D03*
X0176300Y0306300D03*
X0176300Y0286300D03*
X0176300Y0266300D03*
X0176300Y0246300D03*
X0176300Y0226300D03*
X0176300Y0206300D03*
X0176300Y0186300D03*
X0176300Y0166300D03*
X0176300Y0146300D03*
X0226300Y0146300D03*
X0226300Y0166300D03*
X0226300Y0186300D03*
X0226300Y0206300D03*
X0226300Y0226300D03*
X0226300Y0246300D03*
X0226300Y0266300D03*
X0226300Y0286300D03*
X0226300Y0306300D03*
X0226300Y0326300D03*
X0226300Y0346300D03*
X0226300Y0366300D03*
X0226300Y0386300D03*
X0226300Y0406300D03*
X0226300Y0426300D03*
X0226300Y0446300D03*
X0226300Y0466300D03*
X0276300Y0466300D03*
X0276300Y0446300D03*
X0276300Y0426300D03*
X0276300Y0406300D03*
X0276300Y0386300D03*
X0276300Y0366300D03*
X0276300Y0346300D03*
X0276300Y0326300D03*
X0276300Y0306300D03*
X0276300Y0286300D03*
X0276300Y0266300D03*
X0276300Y0246300D03*
X0276300Y0226300D03*
X0276300Y0206300D03*
X0276300Y0186300D03*
X0276300Y0166300D03*
X0276300Y0146300D03*
X0326300Y0146300D03*
X0326300Y0166300D03*
X0326300Y0186300D03*
X0326300Y0206300D03*
X0326300Y0226300D03*
X0326300Y0246300D03*
X0326300Y0266300D03*
X0326300Y0286300D03*
X0326300Y0306300D03*
X0326300Y0326300D03*
X0326300Y0346300D03*
X0326300Y0366300D03*
X0326300Y0386300D03*
X0326300Y0406300D03*
X0326300Y0426300D03*
X0326300Y0446300D03*
X0326300Y0466300D03*
X0376300Y0466300D03*
X0376300Y0446300D03*
X0376300Y0426300D03*
X0376300Y0406300D03*
X0376300Y0386300D03*
X0376300Y0366300D03*
X0376300Y0346300D03*
X0376300Y0326300D03*
X0376300Y0306300D03*
X0376300Y0286300D03*
X0376300Y0266300D03*
X0376300Y0246300D03*
X0376300Y0226300D03*
X0376300Y0206300D03*
X0376300Y0186300D03*
X0376300Y0166300D03*
X0376300Y0146300D03*
D11*
X0011300Y0011300D03*
X0391300Y0011300D03*
X0391300Y0481300D03*
X0011300Y0481300D03*
M02*
